<svg id="caracter_bg" xmlns="http://www.w3.org/2000/svg" xmlns:xlink="http://www.w3.org/1999/xlink" width="240" height="240" viewBox="0 0 240 240">
  <defs>
    <clipPath id="clip-path">
      <rect id="Rectangle_386" data-name="Rectangle 386" width="240" height="240" transform="translate(26.516 23.186)" fill="none"/>
    </clipPath>
  </defs>
  <rect id="Rectangle_385" data-name="Rectangle 385" width="240" height="240" transform="translate(0)" fill="#e5fcff"/>
  <g id="Group_921" data-name="Group 921" transform="translate(-26.516 -23.186)" clip-path="url(#clip-path)">
    <path id="Path_20642" data-name="Path 20642" d="M200.889,260.443a4.62,4.62,0,0,0-5.079,5.168,2.785,2.785,0,0,0,.475,1.317,3.36,3.36,0,0,0,1.085.869,10.637,10.637,0,0,0,2.984,1.131,3.533,3.533,0,0,0,2.731-.282,3.283,3.283,0,0,0,1.023-1.3,5.705,5.705,0,0,0,.325-4.617,3.817,3.817,0,0,0-3.735-2.417" fill="#abd5e0"/>
    <path id="Path_20643" data-name="Path 20643" d="M269.266,177.379a4.779,4.779,0,0,0-1.535-.072,1.619,1.619,0,0,0-1.225.836,1.455,1.455,0,0,0,.077,1.274,2.408,2.408,0,0,0,.934.912,1.6,1.6,0,0,0,2.526-.681,2.066,2.066,0,0,0,.214-1.463,1.073,1.073,0,0,0-1.127-.8" fill="#ebffab"/>
    <path id="Path_20644" data-name="Path 20644" d="M94.11,75.94a4.08,4.08,0,0,0-3.076,3.111,2.552,2.552,0,0,0,0,1.137,2.719,2.719,0,0,0,.991,1.383,4.895,4.895,0,0,0,3.464,1.042,2.313,2.313,0,0,0,1.282-.452,2.914,2.914,0,0,0,.78-1.4,5.476,5.476,0,0,0,.376-2.271,2.924,2.924,0,0,0-3.472-2.547" fill="#abd5e0"/>
    <path id="Path_20645" data-name="Path 20645" d="M140.862,93.54a4.163,4.163,0,0,0-2.573,1.522,2.716,2.716,0,0,0-.254,2.882,4.05,4.05,0,0,0,2.833,1.6,3.419,3.419,0,0,0,1.9-.008,2.74,2.74,0,0,0,1.521-2.224,3.77,3.77,0,0,0-.662-2.864,2.7,2.7,0,0,0-2.671-1.019" fill="#ebffab"/>
    <path id="Path_20646" data-name="Path 20646" d="M133.892,57.441a5.815,5.815,0,0,0-2.136,1.69,2.353,2.353,0,0,0-.167,2.582,2.882,2.882,0,0,0,2.212,1.031,3.044,3.044,0,0,0,2.117-.465,3.507,3.507,0,0,0,1.066-2.227,2.585,2.585,0,0,0,.051-.9,2.289,2.289,0,0,0-.256-.674,2.915,2.915,0,0,0-1.277-1.354,1.41,1.41,0,0,0-1.708.359" fill="#abd5e0"/>
    <path id="Path_20647" data-name="Path 20647" d="M106.559,128.166a6.377,6.377,0,0,0-2.347.8c-1.107.639-2.079,1.838-1.816,3.088a2.689,2.689,0,0,0,1.5,1.754,7.245,7.245,0,0,0,2.3.588,4.087,4.087,0,0,0,2.043-.088c1.088-.43,1.613-1.642,2-2.745.315-.887.571-2-.092-2.669a2.584,2.584,0,0,0-1.543-.567l-1.9-.258" fill="#abd5e0"/>
    <path id="Path_20648" data-name="Path 20648" d="M103.725,105.292a2.028,2.028,0,0,0-2.126.627,1.9,1.9,0,0,0-.111,2.193,1.78,1.78,0,0,0,2.077.644,2.661,2.661,0,0,0,1.341-1.642,1.841,1.841,0,0,0,.1-1.266.79.79,0,0,0-1.039-.478" fill="#b9f9d8"/>
    <path id="Path_20649" data-name="Path 20649" d="M119.779,78.619a12.778,12.778,0,0,0-3.378,2,4.324,4.324,0,0,0-1.551,3.47c.223,2.324,3,3.691,5.3,3.267a6.462,6.462,0,0,0,5.1-6.454,2.082,2.082,0,0,0-.189-.859,2.159,2.159,0,0,0-1.261-.914,7.548,7.548,0,0,0-3.671-.352" fill="#b9f9d8"/>
    <path id="Path_20650" data-name="Path 20650" d="M134.552,121.027a2.734,2.734,0,0,0-2.391,1.125,6.261,6.261,0,0,0-1.051,2.531,4.99,4.99,0,0,0,.31,3.821c.816,1.242,2.437,1.645,3.914,1.812,2.572.29,5.546,0,7.132-2.045a4.638,4.638,0,0,0-.339-5.887c-1.794-1.834-4.7-1.8-7.263-1.643" fill="#b9f9d8"/>
    <path id="Path_20651" data-name="Path 20651" d="M131.3,148.129a4.007,4.007,0,0,0-2.189,1.908,2.577,2.577,0,0,0,.315,2.785,3.049,3.049,0,0,0,1.576.835,3.482,3.482,0,0,0,1.642.032,2.1,2.1,0,0,0,1.316-.934,3.189,3.189,0,0,0,.329-1.052,3.89,3.89,0,0,0-.027-2,2.866,2.866,0,0,0-2.711-1.678" fill="#b9f9d8"/>
    <path id="Path_20652" data-name="Path 20652" d="M165.583,122a2.853,2.853,0,0,0-2.4.7,3.471,3.471,0,0,0-.647,1.876,4.452,4.452,0,0,0-.055,1.18,1.485,1.485,0,0,0,.543,1.016,2.178,2.178,0,0,0,.841.31,3.9,3.9,0,0,0,2.509-.04,2.55,2.55,0,0,0,1.27-1.662,5.29,5.29,0,0,0,.043-2.142.982.982,0,0,0-.142-.439,1.278,1.278,0,0,0-.413-.307c-.256-.153-.485-.351-.752-.485a.984.984,0,0,0-.86-.063" fill="#b9f9d8"/>
    <path id="Path_20653" data-name="Path 20653" d="M166.662,73.132a2.047,2.047,0,0,0-1.81.689,3.26,3.26,0,0,0-.757,1.839,1.754,1.754,0,0,0,.056.783,1.772,1.772,0,0,0,.866.875,2.484,2.484,0,0,0,2.875-.071,2.588,2.588,0,0,0,.625-1.88,2.346,2.346,0,0,0-.4-1.466A2.907,2.907,0,0,0,166,73.113" fill="#abd5e0"/>
    <path id="Path_20654" data-name="Path 20654" d="M173.9,101.229a1.349,1.349,0,0,0-1.84,1.581,1.579,1.579,0,0,0,.224,1.105,1.562,1.562,0,0,0,.72.409,1.893,1.893,0,0,0,1.636.057,1.436,1.436,0,0,0,.415-.461,3.1,3.1,0,0,0,.456-1.461,1.326,1.326,0,0,0-.123-.71c-.308-.562-1.091-.588-1.73-.538" fill="#b9f9d8"/>
    <path id="Path_20655" data-name="Path 20655" d="M162.232,50.136c-1.348-.132-2.926-.178-3.8.854a4.275,4.275,0,0,0-.657,2.892,1.838,1.838,0,0,0,.165.89,1.483,1.483,0,0,0,.6.527,3.918,3.918,0,0,0,1.836.485,3.552,3.552,0,0,0,3.411-2.377,2.924,2.924,0,0,0-1.842-3.56" fill="#b9f9d8"/>
    <path id="Path_20656" data-name="Path 20656" d="M184.856,77.719c-2.272.407-4.964,1.169-5.614,3.384a4.273,4.273,0,0,0,2.037,4.5,12.132,12.132,0,0,0,5.033,1.5,2.6,2.6,0,0,0,1.505-.087,2.291,2.291,0,0,0,.848-.861,9.723,9.723,0,0,0,1.567-5.149,3.688,3.688,0,0,0-.418-1.978c-.841-1.384-2.785-1.462-4.4-1.379" fill="#b9f9d8"/>
    <path id="Path_20657" data-name="Path 20657" d="M190.655,52.261a2.175,2.175,0,0,0-2.148.9,3.34,3.34,0,0,0-.53,2.348,2.449,2.449,0,0,0,.313,1.011,2.192,2.192,0,0,0,1.165.871,2.479,2.479,0,0,0,2.521-.465,2.755,2.755,0,0,0,.622-1.038,3.21,3.21,0,0,0,0-2.386,2.07,2.07,0,0,0-1.927-1.255" fill="#ebffab"/>
    <path id="Path_20658" data-name="Path 20658" d="M166.61,147.3a2.407,2.407,0,0,0-1.667,2.267,1.463,1.463,0,0,0,.1.559,1.682,1.682,0,0,0,.494.6,4.078,4.078,0,0,0,1.886.881,1.144,1.144,0,0,0,1.239-.408,2.87,2.87,0,0,0,.728-1.316,1.968,1.968,0,0,0-.227-1.466,2.5,2.5,0,0,0-1.152-.889,1.779,1.779,0,0,0-1.193-.16" fill="#b9f9d8"/>
    <path id="Path_20659" data-name="Path 20659" d="M183.8,134.411a4.81,4.81,0,0,0-3.991,5.168,1.821,1.821,0,0,0,.355.959,2.255,2.255,0,0,0,.906.557,10.578,10.578,0,0,0,2.985.9,3.579,3.579,0,0,0,2.892-.891,3.875,3.875,0,0,0,.913-1.772,4.741,4.741,0,0,0-.42-3.736,2.863,2.863,0,0,0-3.349-1.212" fill="#ebffab"/>
    <path id="Path_20660" data-name="Path 20660" d="M188.13,109.041a2,2,0,0,0-2.179,1.248,1.477,1.477,0,0,0,.525,1.761,2.118,2.118,0,0,0,.96.208,2.047,2.047,0,0,0,1.747-.515,1.87,1.87,0,0,0,.322-1.036,1.944,1.944,0,0,0-.492-1.676,1.7,1.7,0,0,0-1.706-.111" fill="#abd5e0"/>
    <path id="Path_20661" data-name="Path 20661" d="M197.558,93.186a7.327,7.327,0,0,0-4.19.533,3.333,3.333,0,0,0-1.865,3.515,4.2,4.2,0,0,0,.767,1.469,6,6,0,0,0,2.616,2.172,3.957,3.957,0,1,0,2.035-7.612" fill="#b9f9d8"/>
    <path id="Path_20662" data-name="Path 20662" d="M207.016,128.731a2.48,2.48,0,0,0-1.9.273,2.585,2.585,0,0,0-.847.846,2.8,2.8,0,0,0,.487,3.441,4.593,4.593,0,0,0,2.607.961,1.287,1.287,0,0,0,1.69-1.25,12.291,12.291,0,0,0,.243-1.852,1.915,1.915,0,0,0-.08-.8,2.056,2.056,0,0,0-.463-.635,2.711,2.711,0,0,0-1.724-1.065" fill="#b9f9d8"/>
    <path id="Path_20663" data-name="Path 20663" d="M213.221,75.139a3.8,3.8,0,0,0-2.043.292,2.919,2.919,0,0,0-1.237,2.49,2.449,2.449,0,0,0,.215,1.251,2.489,2.489,0,0,0,1.3,1.033,2.692,2.692,0,0,0,1.675.234,3,3,0,0,0,1.21-.735,3.512,3.512,0,0,0,1.043-1.349,2.286,2.286,0,0,0-.373-2.141,2.877,2.877,0,0,0-1.946-1.047" fill="#abd5e0"/>
    <path id="Path_20664" data-name="Path 20664" d="M215.778,103.22a2.1,2.1,0,0,0-1.979.839,1.759,1.759,0,0,0,.089,2.1,3.012,3.012,0,0,0,1.952.775,1.153,1.153,0,0,0,.5-.012c.328-.107.493-.464.618-.785a3.372,3.372,0,0,0,.332-1.959c-.154-.656-.886-1.214-1.5-.934" fill="#b9f9d8"/>
    <path id="Path_20665" data-name="Path 20665" d="M234.57,85.412c-1.145-.242-2.162.713-2.944,1.584a6.171,6.171,0,0,0-1.889,3.283,4.175,4.175,0,0,0,2.21,3.774,12.288,12.288,0,0,0,4.4,1.3,1.949,1.949,0,0,0,2.439-1.05c.99-1.414,2.028-3.017,1.776-4.724a4.485,4.485,0,0,0-2.155-3.01,10.753,10.753,0,0,0-3.582-1.267" fill="#b9f9d8"/>
    <path id="Path_20666" data-name="Path 20666" d="M196.518,162.326a3.065,3.065,0,0,0-1.814,5.415,3.694,3.694,0,0,0,1.372.693,3.033,3.033,0,0,0,2.592-.326,2.65,2.65,0,0,0,1-2.14,4.239,4.239,0,0,0-.77-2.288,3.265,3.265,0,0,0-.957-.99,1.688,1.688,0,0,0-1.33-.225" fill="#b9f9d8"/>
    <path id="Path_20667" data-name="Path 20667" d="M220.257,150c-.98.085-2.012-.214-2.93.141a2.4,2.4,0,0,0-1.421,2.532,2.781,2.781,0,0,0,2,2.191,3.321,3.321,0,0,0,2.94-.673,2.4,2.4,0,0,0,.7-.876,2.153,2.153,0,0,0,.161-.912,2.762,2.762,0,0,0-1.593-2.388" fill="#abd5e0"/>
    <path id="Path_20668" data-name="Path 20668" d="M233.709,130.061a1.4,1.4,0,0,0-1.877,1.535,1.47,1.47,0,0,0,1.775,1.12,1.5,1.5,0,0,0,.954-1.88,1.245,1.245,0,0,0-.987-.822" fill="#b9f9d8"/>
    <path id="Path_20669" data-name="Path 20669" d="M247.966,158.4a9.13,9.13,0,0,0-2.253.516,3.083,3.083,0,0,0-1.682,1.514,4.59,4.59,0,0,0-.25,1.9,3.185,3.185,0,0,0,.109.97,2.163,2.163,0,0,0,.5.8,5.11,5.11,0,0,0,3.935,1.271,1.81,1.81,0,0,0,.705-.127,1.791,1.791,0,0,0,.744-.84,5.346,5.346,0,0,0,.693-3.514,2.938,2.938,0,0,0-2.42-2.4" fill="#abd5e0"/>
    <path id="Path_20670" data-name="Path 20670" d="M258.679,133.782a1.974,1.974,0,0,0-1.863.858,1.41,1.41,0,0,0,.4,1.562,2.664,2.664,0,0,0,1.578.609,1.6,1.6,0,0,0,1.336-.352,1.376,1.376,0,0,0,.314-.921,2.007,2.007,0,0,0-.423-1.311,1.434,1.434,0,0,0-1.24-.53" fill="#b9f9d8"/>
    <path id="Path_20671" data-name="Path 20671" d="M247.52,110.747a2.506,2.506,0,1,0,.573,4.807,3.239,3.239,0,0,0,1.535-1.41,2.775,2.775,0,0,0,.3-2.436,1.6,1.6,0,0,0-2.087-.876" fill="#abd5e0"/>
    <path id="Path_20672" data-name="Path 20672" d="M264.1,90.235a2.326,2.326,0,0,0-2.385,1.2,3.118,3.118,0,0,0-.125,1.263.942.942,0,0,0,.063.366.861.861,0,0,0,.233.277,4.127,4.127,0,0,0,2.945.978.635.635,0,0,0,.3-.074.644.644,0,0,0,.2-.239,4.2,4.2,0,0,0,.511-2.706,1.413,1.413,0,0,0-.209-.612c-.351-.5-1.084-.488-1.692-.421" fill="#ebffab"/>
    <path id="Path_20673" data-name="Path 20673" d="M267.89,113.232a4.223,4.223,0,0,0-4.687,1.927,4.585,4.585,0,0,0,.92,5.4,5.492,5.492,0,0,0,5.51,1.056,3.559,3.559,0,0,0,1.77-1.236,3.359,3.359,0,0,0,.534-1.825,5.174,5.174,0,0,0-3.774-5" fill="#b9f9d8"/>
    <path id="Path_20674" data-name="Path 20674" d="M251.506,62.575a2.567,2.567,0,0,0-1.594.578,3.014,3.014,0,0,0-1.322,1.91,2.334,2.334,0,0,0,.781,2.016,3.05,3.05,0,0,0,2.077.725,1.763,1.763,0,0,0,1.086-.327,1.79,1.79,0,0,0,.426-.556,3.845,3.845,0,0,0,.295-2.851,2.526,2.526,0,0,0-.61-1.1,1.522,1.522,0,0,0-1.14-.468" fill="#abd5e0"/>
    <path id="Path_20675" data-name="Path 20675" d="M227.093,55.73a.849.849,0,0,0-.951.27,1.682,1.682,0,0,0-.343.984,1.5,1.5,0,0,0,.055.593,1.607,1.607,0,0,0,1.255.884,1.549,1.549,0,0,0,.867,0,1.113,1.113,0,0,0,.658-.793,1.742,1.742,0,0,0-.112-1.05,1.643,1.643,0,0,0-.538-.73,1,1,0,0,0-.872-.165" fill="#b9f9d8"/>
    <path id="Path_20676" data-name="Path 20676" d="M212.952,43.955a2.588,2.588,0,0,0-2.622,2.894,1.565,1.565,0,0,0,.261.74,2.109,2.109,0,0,0,1.728.631,3.562,3.562,0,0,0,1.076-.1,1.443,1.443,0,0,0,.858-.621,2.212,2.212,0,0,0,.222-.879,3.469,3.469,0,0,0,.01-1.012,2.942,2.942,0,0,0-.724-1.3c-.161-.19-.376-.391-.622-.35" fill="#b9f9d8"/>
    <path id="Path_20677" data-name="Path 20677" d="M176.078,25.866a3.27,3.27,0,0,0-3.165,3.077,2.045,2.045,0,0,0,.147.958,2.335,2.335,0,0,0,1.416,1.116,3.4,3.4,0,0,0,1.6.214,1.991,1.991,0,0,0,1.369-.785,3.207,3.207,0,0,0,.424-1.565,4.359,4.359,0,0,0-.164-2.1,1.55,1.55,0,0,0-1.674-1" fill="#abd5e0"/>
    <path id="Path_20678" data-name="Path 20678" d="M200.889,20.443a4.62,4.62,0,0,0-5.079,5.168,2.785,2.785,0,0,0,.475,1.317,3.36,3.36,0,0,0,1.085.869,10.637,10.637,0,0,0,2.984,1.131,3.533,3.533,0,0,0,2.731-.282,3.283,3.283,0,0,0,1.023-1.3,5.705,5.705,0,0,0,.325-4.617,3.817,3.817,0,0,0-3.735-2.417" fill="#abd5e0"/>
    <path id="Path_20679" data-name="Path 20679" d="M238.6,31.5a2.447,2.447,0,0,0-2.984,2.315,1.3,1.3,0,0,0,.1.6,1.577,1.577,0,0,0,.875.692,3.87,3.87,0,0,0,1.9.343,2.135,2.135,0,0,0,1.615-.969,3.448,3.448,0,0,0,.319-1.726,1.34,1.34,0,0,0-.052-.477.993.993,0,0,0-.407-.465,1.814,1.814,0,0,0-1.176-.285" fill="#abd5e0"/>
    <path id="Path_20680" data-name="Path 20680" d="M265.471,35.867a6.251,6.251,0,0,0-5.943,6.342,3.25,3.25,0,0,0,.391,1.479,3.728,3.728,0,0,0,1.845,1.393,11.22,11.22,0,0,0,3.619.858,2.386,2.386,0,0,0,1.46-.249,2.66,2.66,0,0,0,.777-.949q.834-1.427,1.669-2.853a4.626,4.626,0,0,0,.815-2.167,3.12,3.12,0,0,0-1.359-2.444,9.239,9.239,0,0,0-2.627-1.211" fill="#b9f9d8"/>
    <path id="Path_20681" data-name="Path 20681" d="M145.893,27.519a2.142,2.142,0,0,0-1.962,1.341,6.288,6.288,0,0,0-.411,2.479,5.291,5.291,0,0,0,.714,3.49c.865,1.1,2.412,1.321,3.8,1.462a3.888,3.888,0,0,0,2.473-.3c.95-.6,1.189-1.852,1.339-2.963.178-1.318.318-2.791-.483-3.853a4.177,4.177,0,0,0-1.443-1.114,4.89,4.89,0,0,0-4.029-.526" fill="#b9f9d8"/>
    <path id="Path_20682" data-name="Path 20682" d="M129.165,30.515a1.9,1.9,0,0,0-1.761.786,1.624,1.624,0,0,0,.068,1.89,2.2,2.2,0,0,0,.553.452,2.078,2.078,0,0,0,1.81.309,1.573,1.573,0,0,0,.917-1.3,2.318,2.318,0,0,0-.474-1.566c-.3-.41-.822-.765-1.283-.558" fill="#b9f9d8"/>
    <path id="Path_20683" data-name="Path 20683" d="M109.833,46.774a6.348,6.348,0,0,0-1.3.449,1.394,1.394,0,0,0-.553.4,1.366,1.366,0,0,0-.2.5,5.209,5.209,0,0,0-.14,1.018,1.038,1.038,0,0,0,.051.43,1.132,1.132,0,0,0,.348.41,4.314,4.314,0,0,0,1.164.763,1.69,1.69,0,0,0,1.357,0,2.144,2.144,0,0,0,.971-1.507,1.549,1.549,0,0,0,.039-.721,1.677,1.677,0,0,0-.253-.512,3.554,3.554,0,0,0-.783-.924,1.388,1.388,0,0,0-1.14-.294" fill="#b9f9d8"/>
    <path id="Path_20684" data-name="Path 20684" d="M92.923,25.994a2.938,2.938,0,0,0-1.6.969,2.321,2.321,0,0,0-.516,1.781,2.412,2.412,0,0,0,.967,1.54,3.484,3.484,0,0,0,1.732.634,2.17,2.17,0,0,0,1.446-.273,2.342,2.342,0,0,0,.831-1.424,2.487,2.487,0,0,0-.022-1.557,2.163,2.163,0,0,0-.646-.8,3.719,3.719,0,0,0-2.3-.829" fill="#b9f9d8"/>
    <path id="Path_20685" data-name="Path 20685" d="M50.115,55.208a5.447,5.447,0,0,0-2.548,1.337,2.553,2.553,0,0,0-.639,2.674,3.308,3.308,0,0,0,1.8,1.551,4.575,4.575,0,0,0,1.7.456,2.229,2.229,0,0,0,1.629-.571,3.17,3.17,0,0,0,.713-1.363,4.649,4.649,0,0,0,.256-1.331,2.7,2.7,0,0,0-2.845-2.713" fill="#b9f9d8"/>
    <path id="Path_20686" data-name="Path 20686" d="M73.354,43.254a2.852,2.852,0,0,0-2.975,1.2,5.5,5.5,0,0,0-.857,3.254,5.117,5.117,0,0,0,.623,2.658c.935,1.527,2.869,2.044,4.616,2.433a3.348,3.348,0,0,0,2.67-.158,2.828,2.828,0,0,0,.785-.989,10.113,10.113,0,0,0,1.227-4.888,1.877,1.877,0,0,0-.172-.9,2.048,2.048,0,0,0-.655-.631c-1.573-1.117-3.3-2.283-5.23-2.21" fill="#abd5e0"/>
    <path id="Path_20687" data-name="Path 20687" d="M69.025,62.541c-.683-.017-1.081.75-1.295,1.4-.362,1.1-.655,2.384-.021,3.353a4.11,4.11,0,0,0,2.018,1.344c1.188.483,2.637.939,3.667.175.892-.661,1.02-1.924,1.071-3.033a4.17,4.17,0,0,0-.219-1.933c-.658-1.434-2.58-1.631-4.157-1.622" fill="#b9f9d8"/>
    <path id="Path_20688" data-name="Path 20688" d="M48.792,107.486a2.424,2.424,0,0,0-2.659.985,4.055,4.055,0,0,0-.51,1.989,1.542,1.542,0,0,0,.075.7,1.64,1.64,0,0,0,.389.494,4.009,4.009,0,0,0,1.635,1.131,3.992,3.992,0,0,0,1.03.1,3.211,3.211,0,0,0,1.475-.227,2.41,2.41,0,0,0,1.1-1.511,3.461,3.461,0,0,0,.145-1.456,2.793,2.793,0,0,0-2.5-2.337" fill="#abd5e0"/>
    <path id="Path_20689" data-name="Path 20689" d="M49.266,81c-1.021-.394-2.023.563-2.7,1.421-1.066,1.349-2.2,2.972-1.778,4.64.512,2.033,2.966,2.815,5.053,3.027a3.56,3.56,0,0,0,1.515-.076,3.147,3.147,0,0,0,1.494-1.329A6.039,6.039,0,0,0,53.9,84.022a3.7,3.7,0,0,0-3.493-2.906" fill="#ebffab"/>
    <path id="Path_20690" data-name="Path 20690" d="M71.063,88.1a1.975,1.975,0,0,0-2.8.694,5.209,5.209,0,0,0-.467,3.189,5.4,5.4,0,0,0,.356,1.761c.7,1.576,2.617,2.209,4.339,2.274a2.863,2.863,0,0,0,1.775-.371,2.913,2.913,0,0,0,.922-1.392,6.269,6.269,0,0,0,.216-4.791c-.68-1.5-2.633-2.468-4.053-1.641" fill="#b9f9d8"/>
    <path id="Path_20691" data-name="Path 20691" d="M81.469,111.628a1.655,1.655,0,0,0-1.485,2.519,2.735,2.735,0,0,0,1.968,1.073,1.674,1.674,0,0,0,1.4-.24,1.876,1.876,0,0,0,.443-.809A2.7,2.7,0,0,0,84,113.23a1.662,1.662,0,0,0-.852-1.331,2.815,2.815,0,0,0-1.593-.323" fill="#b9f9d8"/>
    <path id="Path_20692" data-name="Path 20692" d="M59.632,172a6.653,6.653,0,0,0-1.884.646,1.891,1.891,0,0,0-.761.615,2.172,2.172,0,0,0-.249,1.019,4.915,4.915,0,0,0,.133,1.976,3.022,3.022,0,0,0,1.452,1.628,4.652,4.652,0,0,0,2.153.5,2.591,2.591,0,0,0,1.049-.165A3.169,3.169,0,0,0,63,176.046a3.869,3.869,0,0,0,.137-2.592,2.555,2.555,0,0,0-1.6-1.362,5.051,5.051,0,0,0-2.145-.129" fill="#b9f9d8"/>
    <path id="Path_20693" data-name="Path 20693" d="M116.793,218.247a2.383,2.383,0,0,0-2.082.825,3.854,3.854,0,0,0-.871,2.127,3.226,3.226,0,0,0,.062,1.227,2.719,2.719,0,0,0,1.49,1.667,4.451,4.451,0,0,0,2.255.344,1.358,1.358,0,0,0,.534-.126,1.44,1.44,0,0,0,.55-.732,6.517,6.517,0,0,0,.617-2.188,2.955,2.955,0,0,0-.642-2.133,4.613,4.613,0,0,0-1.962-1.119" fill="#b9f9d8"/>
    <path id="Path_20694" data-name="Path 20694" d="M202.965,222.527a3.669,3.669,0,0,0-2.62.4,2.426,2.426,0,0,0-.725,1,3.614,3.614,0,0,0,3.9,4.966,2.094,2.094,0,0,0,.928-.352,2.415,2.415,0,0,0,.465-.487,4.868,4.868,0,0,0,1.013-2.308,3.125,3.125,0,0,0-.645-2.393,2.312,2.312,0,0,0-2.287-.783" fill="#b9f9d8"/>
    <path id="Path_20695" data-name="Path 20695" d="M40.628,233.926a4.383,4.383,0,0,0-2.493.032,3.346,3.346,0,0,0-1.047.765c-1.336,1.351-2.1,3.495-1.236,5.187.779,1.526,2.609,2.219,4.317,2.347a3.687,3.687,0,0,0,1.774-.211,3.737,3.737,0,0,0,1.82-2.868,5.617,5.617,0,0,0-.427-3.822,3,3,0,0,0-3.3-1.521" fill="#abd5e0"/>
    <path id="Path_20696" data-name="Path 20696" d="M150.953,173.325a8.467,8.467,0,0,0-6.73,6.858,3.541,3.541,0,0,0,.113,1.843A3.62,3.62,0,0,0,146,183.7a7.44,7.44,0,0,0,5.98.756,5.437,5.437,0,0,0,3.726-4.527,9.359,9.359,0,0,0-.913-4.032,5.2,5.2,0,0,0-1.117-1.961,1.779,1.779,0,0,0-2.082-.366" fill="#abd5e0"/>
    <path id="Path_20697" data-name="Path 20697" d="M177.213,183.655c-.556-.2-1.132.2-1.583.584a5.362,5.362,0,0,0-1.042,1.065,1.861,1.861,0,0,0-.328,1.416,2.4,2.4,0,0,0,1.839,1.506,3.806,3.806,0,0,0,1.435.171,1.353,1.353,0,0,0,1.036-.573,2.663,2.663,0,0,0-1.339-4.207" fill="#b9f9d8"/>
    <path id="Path_20698" data-name="Path 20698" d="M197.873,189.37c-1.661-.658-3.474.709-4.346,2.269-1.732,3.1-1,7.622,2.106,9.348a4.519,4.519,0,0,0,3.064.549,5.422,5.422,0,0,0,3.6-3.4,7.419,7.419,0,0,0,.211-5.593,5.216,5.216,0,0,0-4.322-3.311" fill="#b9f9d8"/>
    <path id="Path_20699" data-name="Path 20699" d="M213.13,180.807a2.745,2.745,0,0,0-3.359.983,3.875,3.875,0,0,0-.23,3.656,4.567,4.567,0,0,0,4.5,2.754,3.942,3.942,0,0,0,3.475-3.79,3.471,3.471,0,0,0-3.746-3.3" fill="#abd5e0"/>
    <path id="Path_20700" data-name="Path 20700" d="M236.218,183.046a3.973,3.973,0,0,0-3.1,3.2,5.05,5.05,0,0,0,1.454,4.334,4.57,4.57,0,0,0,1.545,1.056,4.178,4.178,0,0,0,5.368-3.43,4.74,4.74,0,0,0-4.42-4.9" fill="#ebffab"/>
    <path id="Path_20701" data-name="Path 20701" d="M230.867,206.438c-.372-.091-.717.215-.952.517a2.11,2.11,0,0,0-.448,2.276,2.488,2.488,0,0,0,1.106.834A3.088,3.088,0,0,0,232,210.5a1.749,1.749,0,0,0,1.573-1.374,2.188,2.188,0,0,0-.706-2.03,2.937,2.937,0,0,0-2.08-.7" fill="#b9f9d8"/>
    <path id="Path_20702" data-name="Path 20702" d="M256.944,201.609a5.408,5.408,0,0,0-2.475.62,2.241,2.241,0,0,0-.793.626,1.717,1.717,0,0,0-.011,1.844,2.992,2.992,0,0,0,4.674.287,2.134,2.134,0,0,0,.326-1.425,2.288,2.288,0,0,0-1.886-1.929" fill="#b9f9d8"/>
    <path id="Path_20703" data-name="Path 20703" d="M239.855,223.228a1.055,1.055,0,0,0-.761.406,1.606,1.606,0,0,0-.187,1.67,1.889,1.889,0,0,0,1.371,1.017,1.134,1.134,0,0,0,.925-.181,1.182,1.182,0,0,0,.285-.392,2.034,2.034,0,0,0,.091-1.7,1.442,1.442,0,0,0-1.39-.875" fill="#b9f9d8"/>
    <path id="Path_20704" data-name="Path 20704" d="M253.845,245.4a1.2,1.2,0,0,0-1.524,1.615,1.733,1.733,0,0,0,1.013.85,1.237,1.237,0,0,0,1.283-.119,1.167,1.167,0,0,0,.293-.585,1.679,1.679,0,0,0-.1-1.148,1.033,1.033,0,0,0-.95-.575" fill="#abd5e0"/>
    <path id="Path_20705" data-name="Path 20705" d="M229.555,249.5a2.461,2.461,0,0,0-1.358,4.621,3.754,3.754,0,0,0,1.61.381,2.293,2.293,0,0,0,1.313-.237,2.156,2.156,0,0,0,.849-1.325,5.219,5.219,0,0,0,.182-1.523,1.9,1.9,0,0,0-.162-.8,1.685,1.685,0,0,0-.457-.534,3.067,3.067,0,0,0-1.977-.681" fill="#ebffab"/>
    <path id="Path_20706" data-name="Path 20706" d="M225.365,227.039a4.461,4.461,0,0,0,1.768,8.728,2.7,2.7,0,0,0,1.438-.6,3.538,3.538,0,0,0,.785-1.194,7.286,7.286,0,0,0,.795-4.938c-.463-1.639-2.283-2.975-3.874-2.368" fill="#abd5e0"/>
    <path id="Path_20707" data-name="Path 20707" d="M45.781,138.2a2.263,2.263,0,0,0-1.284,2.008,1.593,1.593,0,0,0,.25,1.03,1.794,1.794,0,0,0,.6.474,5.468,5.468,0,0,0,1.714.6,1.15,1.15,0,0,0,.441.012,1.051,1.051,0,0,0,.44-.254,2.612,2.612,0,0,0,.749-2.89,2.1,2.1,0,0,0-2.634-1.142" fill="#ebffab"/>
    <path id="Path_20708" data-name="Path 20708" d="M74.185,143.453a3.781,3.781,0,0,0-1.724,2.694,1.9,1.9,0,0,0,.043.8c.251.807,1.187,1.148,2.007,1.357a1.593,1.593,0,0,0,2.331-1.254,3.158,3.158,0,0,0,.147-2.435,2.634,2.634,0,0,0-.533-.671,2.837,2.837,0,0,0-.964-.669,1.279,1.279,0,0,0-1.135.083" fill="#abd5e0"/>
    <path id="Path_20709" data-name="Path 20709" d="M99.5,166.313a2.415,2.415,0,0,0-2.007.76,4.048,4.048,0,0,0-.981,1.966,3.129,3.129,0,0,0,.143,2.081,2.712,2.712,0,0,0,1.462,1.232,6.6,6.6,0,0,0,1.914.362,1.986,1.986,0,0,0,1.031-.114,1.855,1.855,0,0,0,.761-.911,3.774,3.774,0,0,0,.368-2.943,4.763,4.763,0,0,0-1.105-1.509,3.373,3.373,0,0,0-.646-.566,1.7,1.7,0,0,0-1.326-.186" fill="#abd5e0"/>
    <path id="Path_20710" data-name="Path 20710" d="M29.266,177.379a4.779,4.779,0,0,0-1.535-.072,1.619,1.619,0,0,0-1.225.836,1.455,1.455,0,0,0,.077,1.274,2.409,2.409,0,0,0,.934.912,1.6,1.6,0,0,0,2.526-.681,2.067,2.067,0,0,0,.214-1.463,1.073,1.073,0,0,0-1.127-.8" fill="#ebffab"/>
    <path id="Path_20711" data-name="Path 20711" d="M35.325,156.937a4.326,4.326,0,0,0-.536,7.8,6.871,6.871,0,0,0,2.935.729,4.341,4.341,0,0,0,2.74-.512,3.967,3.967,0,0,0,1.4-3.341,5.907,5.907,0,0,0-1.167-3.785,3.506,3.506,0,0,0-3.6-1.256" fill="#b9f9d8"/>
    <path id="Path_20712" data-name="Path 20712" d="M56.122,199.308c-.643.155-1.447-.234-1.918.231a1.4,1.4,0,0,0-.309.66,2.271,2.271,0,0,0,.063,1.916,1.9,1.9,0,0,0,.969.61,2.356,2.356,0,0,0,1.978-.048,1.834,1.834,0,0,0,.787-1.486,2.067,2.067,0,0,0-.431-1.392,1.583,1.583,0,0,0-1.3-.594" fill="#abd5e0"/>
    <path id="Path_20713" data-name="Path 20713" d="M123.235,176.812a1.987,1.987,0,0,0-1.839,1.832,1.069,1.069,0,0,0,.1.539,1.262,1.262,0,0,0,.448.441,2,2,0,0,0,1.205.4,1.6,1.6,0,0,0,1.308-1.872,1.936,1.936,0,0,0-1.022-1.377" fill="#abd5e0"/>
    <path id="Path_20714" data-name="Path 20714" d="M136.146,189.218a1.309,1.309,0,1,0,.3,2.212,1.584,1.584,0,0,0,.536-1.254c-.012-.6-.468-1.266-1.063-1.19" fill="#b9f9d8"/>
    <path id="Path_20715" data-name="Path 20715" d="M152.6,198.622a2.506,2.506,0,0,0-1.611.533,2.44,2.44,0,0,0-.466,1.838.815.815,0,0,0,.058.337.767.767,0,0,0,.288.28,5.219,5.219,0,0,0,1.632.7,1.647,1.647,0,0,0,1.246-.089,1.969,1.969,0,0,0,.633-1.674,2.6,2.6,0,0,0-.152-1.239,1.347,1.347,0,0,0-1.749-.6" fill="#b9f9d8"/>
    <path id="Path_20716" data-name="Path 20716" d="M172.329,209.115a2.679,2.679,0,0,0-2.492.559,2.3,2.3,0,0,0-.615,2.436,3.721,3.721,0,0,0,2.9,1.917,1.178,1.178,0,0,0,.606.018,1.1,1.1,0,0,0,.4-.271,3.293,3.293,0,0,0,1.109-2.606,2.063,2.063,0,0,0-1.891-1.89" fill="#e5fcff"/>
    <path id="Path_20717" data-name="Path 20717" d="M155.771,224.375a2.128,2.128,0,0,0-1.677.634,2.987,2.987,0,0,0-.8,1.636,2.1,2.1,0,0,0,.334,1.674,2.665,2.665,0,0,0,1.211.719,3.251,3.251,0,0,0,1.261.255,2.191,2.191,0,0,0,1.74-1.206,3.727,3.727,0,0,0,.327-2.157,2.593,2.593,0,0,0-.19-.778,1.727,1.727,0,0,0-2.231-.812" fill="#abd5e0"/>
    <path id="Path_20718" data-name="Path 20718" d="M181.156,244.4a2.246,2.246,0,0,0-1.667.184,1.8,1.8,0,0,0-.553,1.626,1.669,1.669,0,0,0,.473,1.156,1.64,1.64,0,0,0,1.6.135c.721-.253,1.433-.891,1.324-1.647a1.686,1.686,0,0,0-.215-.574c-.245-.439-.694-.874-1.182-.751" fill="#b9f9d8"/>
    <path id="Path_20719" data-name="Path 20719" d="M203.443,244.4a2.719,2.719,0,0,0-2.794,2.334,4.152,4.152,0,0,0,1.457,3.579,9.216,9.216,0,0,0,3.558,1.814,2.435,2.435,0,0,0,1.584.1,2.278,2.278,0,0,0,1.042-1.076,10.158,10.158,0,0,0,1.323-4.718,2.484,2.484,0,0,0-.555-1.906,2.574,2.574,0,0,0-1.328-.555,15.8,15.8,0,0,0-4.547-.2" fill="#b9f9d8"/>
    <path id="Path_20720" data-name="Path 20720" d="M159.186,250.812a4.778,4.778,0,0,0-1.972,1.849,4.086,4.086,0,0,0,1.239,4.671,5.163,5.163,0,0,0,5.91.767,4.758,4.758,0,0,0,1.306-6.547,5.269,5.269,0,0,0-6.675-1.442" fill="#b9f9d8"/>
    <path id="Path_20721" data-name="Path 20721" d="M103.162,193.693a7.006,7.006,0,0,0-3.925,2.594,4.074,4.074,0,0,0-.166,4.51,4.653,4.653,0,0,0,3.915,1.689,3.559,3.559,0,0,0,2.183-.634,4.513,4.513,0,0,0,1.291-2.977,6.48,6.48,0,0,0-.134-3.48,2.375,2.375,0,0,0-2.814-1.5" fill="#b9f9d8"/>
    <path id="Path_20722" data-name="Path 20722" d="M84.694,202.55a2.16,2.16,0,0,0-1.45.383,3.124,3.124,0,0,0,1.831,5.736,1.644,1.644,0,0,0,.59-.116,1.88,1.88,0,0,0,.72-.636,3.984,3.984,0,0,0,.794-3.446,2.494,2.494,0,0,0-2.8-1.783" fill="#ebffab"/>
    <path id="Path_20723" data-name="Path 20723" d="M65.389,222.669a4.077,4.077,0,0,0-3.623,4.416,5.047,5.047,0,0,0,4.2,4.221,2.565,2.565,0,0,0,1.176-.031,2.953,2.953,0,0,0,.937-.551c1.589-1.257,2.95-3.081,2.862-5.106s-2.235-3.932-4.113-3.169" fill="#b9f9d8"/>
    <path id="Path_20724" data-name="Path 20724" d="M91.528,235.189a2.424,2.424,0,0,0-2.015.608,2,2,0,0,0-.388,1.038,2.664,2.664,0,0,0,.447,1.98,3.492,3.492,0,0,0,2.951.935,2.2,2.2,0,0,0,1.706-.612,1.748,1.748,0,0,0,.3-.685,3.079,3.079,0,0,0-.173-2.03,2.322,2.322,0,0,0-1.547-1.278c-.663-.146-1.359.047-2.032-.043" fill="#abd5e0"/>
    <path id="Path_20725" data-name="Path 20725" d="M115.4,247.843a7.289,7.289,0,0,0-3.627.863,3.974,3.974,0,0,0-2.083,2.325,3.614,3.614,0,0,0,1.674,3.7,9.3,9.3,0,0,0,4.108,1.257,2.909,2.909,0,0,0,2.119-.287,2.653,2.653,0,0,0,.787-1.187,6.409,6.409,0,0,0,.4-4.331,3.319,3.319,0,0,0-3.326-2.388" fill="#b9f9d8"/>
    <path id="Path_20726" data-name="Path 20726" d="M138.09,241.119a3,3,0,0,0-1.795,2,2.522,2.522,0,0,0,1.245,2.908,4.152,4.152,0,0,0,1.433.266,1.586,1.586,0,0,0,.748-.07,1.476,1.476,0,0,0,.69-1.052,8.787,8.787,0,0,0,.257-1.485,2.4,2.4,0,0,0-.831-2.351,2.722,2.722,0,0,0-1.661-.173" fill="#ebffab"/>
    <path id="Path_20727" data-name="Path 20727" d="M54.359,29.593a1.793,1.793,0,0,0-1.686.783,3.6,3.6,0,0,0-.58,1.846.985.985,0,0,0,.036.439.917.917,0,0,0,.344.385,3.335,3.335,0,0,0,1.858.623.906.906,0,0,0,.373-.052,1.05,1.05,0,0,0,.444-.481,5.782,5.782,0,0,0,.668-1.4,1.96,1.96,0,0,0-.14-1.509,1.2,1.2,0,0,0-1.326-.569" fill="#b9f9d8"/>
    <path id="Path_20728" data-name="Path 20728" d="M71.245,251.825a2.991,2.991,0,0,0-2.833.935,5.327,5.327,0,0,0-1.262,2.814c-.326,1.947.16,4.215,1.819,5.285a4.142,4.142,0,0,0,4.813-.487,5.512,5.512,0,0,0,1.7-4.7c-.186-1.773-1.366-3.613-3.134-3.833" fill="#b9f9d8"/>
    <path id="Path_20729" data-name="Path 20729" d="M27.89,113.232a4.223,4.223,0,0,0-4.687,1.927,4.585,4.585,0,0,0,.92,5.4,5.492,5.492,0,0,0,5.51,1.056,3.559,3.559,0,0,0,1.77-1.236,3.359,3.359,0,0,0,.534-1.825,5.174,5.174,0,0,0-3.774-5" fill="#b9f9d8"/>
    <path id="Path_20730" data-name="Path 20730" d="M25.471,35.867a6.251,6.251,0,0,0-5.943,6.342,3.25,3.25,0,0,0,.391,1.479,3.728,3.728,0,0,0,1.845,1.393,11.221,11.221,0,0,0,3.619.858,2.386,2.386,0,0,0,1.46-.249,2.661,2.661,0,0,0,.777-.949q.834-1.427,1.669-2.853a4.626,4.626,0,0,0,.815-2.167,3.12,3.12,0,0,0-1.359-2.444,9.24,9.24,0,0,0-2.627-1.211" fill="#b9f9d8"/>
  </g>
</svg>
