<svg id="design_bg" xmlns="http://www.w3.org/2000/svg" xmlns:xlink="http://www.w3.org/1999/xlink" width="240.001" height="240.001" viewBox="0 0 240.001 240.001">
  <defs>
    <clipPath id="clip-path">
      <rect id="Rectangle_182" data-name="Rectangle 182" width="240.001" height="240.001" transform="translate(96.035 40.019)" fill="none"/>
    </clipPath>
  </defs>
  <rect id="Rectangle_181" data-name="Rectangle 181" width="240.001" height="240.001" fill="#e8e1ff"/>
  <g id="Group_438" data-name="Group 438" transform="translate(-96.035 -40.019)">
    <g id="Group_437" data-name="Group 437" clip-path="url(#clip-path)">
      <path id="Path_891" data-name="Path 891" d="M384.174,106.6c-1.8,2.327-1.839,4.844-3.859,6.205-2.138,1.44-5.071,2.774-5.879-1.421-.586-3.04-1.609-6.022-2.479-9.021a3.881,3.881,0,0,0-.715-1,4.685,4.685,0,0,0-.652,1.008c-1.036,3.205-1.916,6.451-3.105,9.616a3.712,3.712,0,0,1-3.8,2.071c-2.344-.186-2.7-2.06-3.377-3.57-.348-.777-.8-1.521-1.2-2.28a10.781,10.781,0,0,0-1.647,2.058c-1.328,2.934-2.535,5.906-3.771,8.869-.677,1.625-2.5,1.82-4.056,2.027-1.345.178-1.848-.935-2.248-1.9a19.5,19.5,0,0,1-1.079-8.37c-.087-.723-.129-1-.152-1.278q-.2-2.38-.387-4.762c-1.306,1.455-2.694,2.864-3.9,4.375-2.147,2.691-4.105,5.489-6.3,8.152a4.371,4.371,0,0,1-5.052,1.137c-1.675-.591-1.918-1.985-1.886-3.313.2-8.275.464-16.55.669-24.825.038-1.543.789-2.388,2.7-2.275,1.974.116,3.539.745,3.46,2.66-.22,5.388-.543,10.774-.779,16.162a18.64,18.64,0,0,0,.25,2.652,17.808,17.808,0,0,0,2.463-2.483,58.844,58.844,0,0,0,7.766-17.487c.348-1.319,2.229-1.643,3.448-1.387a3.53,3.53,0,0,1,3.029,3.585c.069,4.573.154,9.146.294,13.718.013.42.467.831.715,1.246a8.821,8.821,0,0,0,.7-1.174c2.453-6.114,2.362-12.572,3.659-18.841.172-.831.44-2.222,1.786-2.005,1.553.25,3.582.537,3.843,2.37.535,3.756.96,7.522,1.456,11.282a3.806,3.806,0,0,0,.419.958c.255-.3.689-.575.738-.895.6-3.94,1.12-7.89,1.734-11.83.217-1.388.175-3.042,2.532-3.269,2.643-.254,3.627,1.217,4.134,3.015,1.549,5.487,3.039,10.986,4.593,16.472.112.395.554.723.843,1.083a5.276,5.276,0,0,0,.977-1.026,77.39,77.39,0,0,0,6.77-16.938,2.617,2.617,0,0,1,2.816-2.322,3.324,3.324,0,0,1,3.418,2.78c.788,5.026,1.292,10.083,1.932,15.125a6.35,6.35,0,0,0,.5,1.348c.358-.373.752-.726,1.066-1.123,3.482-4.409,4.6-9.554,6.467-14.471.5-1.312.738-3.255,3.349-2.691,3.669.792,3.064,3.557,3.259,5.724.416,4.613.508,9.246.75,13.871.011.2.2.391.309.586a3.414,3.414,0,0,0,.794-.611c3.153-4.614,6.549-9.123,7.8-14.48a2.923,2.923,0,0,1,3.031-2.555c3.35.094,3.8,2.478,4.544,4.446,1.084,2.87,1.914,5.807,2.9,8.7.123.359.543.647.825.967a3.67,3.67,0,0,0,.447-1.074c.271-4.1.5-8.2.753-12.3a1.852,1.852,0,0,1,2.1-1.785c2,.024,3.737.866,3.658,2.6-.352,7.743.134,15.6-3.4,23.007a3.61,3.61,0,0,1-3.646,1.779,2.541,2.541,0,0,1-2.6-1.961c-1.379-4.342-2.891-8.655-4.388-12.971-.11-.316-.5-.565-.755-.845a5.554,5.554,0,0,0-1.448,1.008c-2.769,3.954-5.592,7.887-8.15,11.937a5.094,5.094,0,0,1-5.247,2.664c-2.5-.384-2.217-2.693-2.566-4.252a79,79,0,0,1-.993-7.863c-.051-.431-.176-.856-.268-1.285a11.1,11.1,0,0,0-1.171,1.279c-1.932,2.914-3.627,5.959-5.851,8.705-.721.891-3.3,1.759-4.159,1.352-2.923-1.384-2.635-4.361-3.522-6.724a34.112,34.112,0,0,1-1.108-4.988c-.881,1.463-1.778,2.921-2.638,4.393-.51.874-.884,1.81-1.457,2.652" fill="#b5f4f4"/>
      <path id="Path_892" data-name="Path 892" d="M331.293,254.081a14.389,14.389,0,0,0,.006,1.533c.377,2.057.768,4.112,1.156,6.168.635-2.275,1.342-4.541,1.891-6.827,1.1-4.558.586-9.331,3.236-13.678a3.049,3.049,0,0,1,3.244-1.849c2.135.155,3.114,1.189,3.5,2.492,1.6,5.493,3.82,10.907,3.964,16.6.012.464.6.921.918,1.381a5.273,5.273,0,0,0,.87-1.406c1.079-4.917-.037-10.127,3.773-14.688a3.354,3.354,0,0,1,3.687-1.362,3.425,3.425,0,0,1,3.032,3.022c.9,3.928,1.653,7.876,2.482,11.814.044.208.272.4.413.591a2.953,2.953,0,0,0,.455-.765c.892-4.06,1.756-8.123,2.637-12.183a2.435,2.435,0,0,1,2.868-2.063c1.93.281,4,.881,4.414,2.717.549,2.415,1.018,4.841,1.593,7.253.1.408.558.768.85,1.15a4.354,4.354,0,0,0,.36-1.274c-.194-5.426-.47-10.851-.619-16.278-.044-1.572,1.123-2.633,3.322-2.538,4.074.176,3.539,2.559,3.518,4.548-.083,8.188-.123,16.378-.45,24.561a16.575,16.575,0,0,1-1.863,6.4,3.923,3.923,0,0,1-4.166,1.6c-3.072-.537-2.862-2.9-4.061-4.462-.527-.686-.263-1.707-.757-2.419-.663-.954.46-2.8-1.709-2.756-.715.016-1.687,1.969-1.958,3.114-.636,2.7-1.688,5.556-5.727,5.6-4.868.047-4.036-3.526-4.839-5.911-.3-.878-.635-1.748-.954-2.621a27.179,27.179,0,0,0-1.249,2.49,55.8,55.8,0,0,1-2.236,6.021c-.884,1.7-2.682,3.8-5.221,2.992-4.046-1.29-3.56-4.744-4.328-7.468-.72-2.551-1.231-5.136-1.862-7.7-.023-.1-.493-.221-.5-.21a5.507,5.507,0,0,0-1.178,1.479c-1.474,4.295-2.771,8.626-4.344,12.9a4.479,4.479,0,0,1-5.469,2.875c-3.464-.707-3.031-3.407-3.541-5.345a90.913,90.913,0,0,1-1.432-9.391c-.062-.4-.48-.779-.733-1.167-.377.37-.937.7-1.1,1.117-1.768,4.428-3.452,8.874-5.206,13.305-.635,1.6-1.5,3.227-4.2,3.183a3.7,3.7,0,0,1-3.982-3.463c-1.714-9.788-3.2-19.6-5.017-29.376-.489-2.632-2.263-5.137-2.664-7.767-.2-1.277,1.457-3.219,3.515-3.126,4.621.209,4.216,3.4,4.666,5.689,1.613,8.215,2.947,16.461,4.416,24.692a3.738,3.738,0,0,0,.642,1.076,5.22,5.22,0,0,0,.716-1.123c2.375-7.728,1.678-15.852,5.369-23.4a2.6,2.6,0,0,1,1.8-1.234c1.427.108,2.862.439,3.612,1.643,2.9,4.66,2.872,9.81,4.45,13.853" fill="#b5f4f4"/>
      <path id="Path_893" data-name="Path 893" d="M346.686,202.169c-.264-4.2,1.278-8.514-.716-12.689-.606-1.27,1.246-1.94,2.6-2.066,3.643-.342,6.243,1.275,6.319,3.682.231,7.4.228,14.8-1.246,22.189a88.46,88.46,0,0,0-1.248,14.638c-.08,2.583-1.87,3.781-4.817,4.223s-3.409-1.236-3.912-2.873c-1.988-6.472-4.051-12.93-6.116-19.389-.1-.3-.486-.543-.739-.814a4.741,4.741,0,0,0-.836,1c-2.646,6.263-5.215,12.543-7.911,18.794-.858,1.991-3.091,3.028-5.75,3.027-2.683,0-2-1.94-2.645-3.156-3.254-6.139-2.1-12.642-3.028-18.971a4.642,4.642,0,0,0-.319-.883,3.526,3.526,0,0,0-.6.828c-1.893,5.77-6.028,10.784-9.783,15.92-.957,1.31-2.057,2.671-4.57,2.346a3.529,3.529,0,0,1-3.134-2.825c-.724-2.346-1.082-4.753-1.635-7.13a4.144,4.144,0,0,0-.6-1.026,4.276,4.276,0,0,0-.813.842c-3.124,6.154-6.215,12.317-9.331,18.473-1.035,2.045-3.489,2.382-5.887,2.255-2.342-.125-2.512-1.683-2.605-3.079-.247-3.7-.475-7.411-.75-11.115a7.74,7.74,0,0,0-.46-1.568c-.52.521-1.355,1-1.512,1.57-1.385,5.091-5.544,9.138-9.21,13.335-.951,1.089-3.506,2.266-5.041,1.36a6.121,6.121,0,0,1-2.7-4.331c-.409-3.808-.186-7.652-.282-11.481a4.732,4.732,0,0,0-.624-1.515,13.541,13.541,0,0,0-1.223,1.219c-2.77,3.584-3.18,8.276-9.324,10.27-3.238,1.049-4.339-.471-4.536-2.061q-1.116-9-1.556-18.04c-.249-4.939-.009-9.89-.138-14.833-.042-1.627.926-2.665,2.639-3.4,1.442-.621,3.3-.622,4.024.444a5.582,5.582,0,0,1,.834,4.1,122.613,122.613,0,0,0-.7,14.66c-.043,2.439.173,4.884.369,7.323a13.561,13.561,0,0,0,.667,2.463c.657-.8,1.641-1.535,1.919-2.4,1.894-5.881,3.608-11.792,5.453-17.681.543-1.734.995-4.122,4.009-3.876,3.16.256,3.809,2.378,3.81,4.711.005,7.442.3,14.883.584,22.323.02.524.834,1.031,1.279,1.547.752-.628,1.941-1.172,2.19-1.9q3.561-10.359,6.817-20.778c.585-1.864,1.351-3.585,4.354-3.489,3.352.105,3.476,2.217,3.646,4.023.553,5.873.987,11.754,1.505,17.63.031.344.4.673.607,1.01a8.042,8.042,0,0,0,.745-.876c5.429-8.587,6.236-17.926,8.055-27.1.38-1.917,1.1-4.177,4.282-4.1,2.868.073,3.49,2.115,3.736,4.049q1.21,9.521,2.62,19.025c.093.636.758,1.226,1.157,1.837a8.422,8.422,0,0,0,1.614-1.906c2.679-6.7,5.229-13.43,7.926-20.127a3.647,3.647,0,0,1,3.9-2.711c2.785.115,3.546,1.538,3.738,3.342q1.218,11.467,2.524,22.932a4.2,4.2,0,0,0,.457,1.075,3.908,3.908,0,0,0,.659-.921c2.1-6.54,4.216-13.078,6.228-19.634.616-2.006,1.433-3.985,4.468-4.334,3.284-.378,4.052,2.041,4.709,3.526,1.972,4.461,3.342,9.069,4.964,13.616a5.613,5.613,0,0,0,.569.946,2.8,2.8,0,0,0,.321-.877c.023-3.532.015-7.064.015-10.6" fill="#c5c2ef"/>
      <path id="Path_894" data-name="Path 894" d="M281.12,132.4c-.165,2.888-.37,6.2-.519,9.519-.014.306.334.622.514.934a3.568,3.568,0,0,0,.883-.661c4.067-6.089,4.965-13.112,8.132-19.478.889-1.785,1.582-3.446,4.338-2.722,2.856.749,2.453,2.9,2.446,4.777-.019,4.9-.1,9.8-.1,14.706,0,.414.5.827.768,1.241.421-.347,1.014-.631,1.235-1.052,1.7-3.218,3.38-6.443,4.94-9.708.964-2.017,1.6-4.2,5.171-3.32,3.507.869,1.5,3.226,1.679,4.836.388,3.485.217,7.013.319,10.522a3.739,3.739,0,0,0,.468,1.169c.421-.255,1.021-.431,1.235-.776,3.67-5.9,7.668-11.685,9.932-18.107.643-1.824,2.051-2.182,3.732-1.908,1.609.262,2.825.908,2.872,2.808.1,3.957.706,7.9,1.135,11.854.016.146.355.267.543.4a5.843,5.843,0,0,0,.686-1.041c2.162-5.615,4.292-11.239,6.455-16.854.416-1.081,1.151-2.071,2.714-1.781a4.077,4.077,0,0,1,3.393,2.8c1.38,5.418,2.564,10.871,3.869,16.3.077.323.574.575.876.861.274-.36.737-.7.794-1.082.714-4.775,1.362-9.557,2.044-14.335.254-1.777,1.412-2.771,3.6-2.409,2.216.366,2.573,1.628,2.187,3.386-1.5,6.808-2.872,13.635-4.262,20.46-.485,2.377-1.229,4.532-4.8,4.606-3.475.071-2.6-2.471-3.073-3.953-1.511-4.7-2.694-9.482-4.049-14.223a5.842,5.842,0,0,0-.875-1.375,17.6,17.6,0,0,0-1.657,2.649c-2.786,6.939-5.459,13.91-8.291,20.835a2.74,2.74,0,0,1-3.2,1.29,3.237,3.237,0,0,1-2.585-3.251c-.061-4.453.022-8.908-.012-13.361a11.119,11.119,0,0,0-.484-2.253c-.684.542-1.614.98-2.013,1.643-3.885,6.459-10.185,12.411-10.459,19.7-.189,5.016-.839,10.2-.058,15.288a3.893,3.893,0,0,1,.137.684c-.042,1.459-1.232,2.946.17,4.366.826-1.462,1.757-2.89,2.455-4.394,1.161-2.5,2.1-5.081,3.279-7.58.488-1.036.711-2.565,2.779-2.244a3.726,3.726,0,0,1,3.454,3.163c.45,3.059.673,6.142,1.047,9.21.156,1.274.457,2.536.691,3.8a31.523,31.523,0,0,0,2.8-4.177c.835-1.79,1.032-3.8,1.946-5.549s1.13-4.637,4.279-4.309c3.74.388,2.984,3.562,3.66,5.737.482,1.552.789,3.142,1.274,4.693.125.4.629.717.96,1.071a4.132,4.132,0,0,0,.621-1.023c1.214-4.9,2.394-9.795,3.585-14.694.332-1.367.927-2.781,2.571-3.163a3.943,3.943,0,0,1,2.8,1.173c1.076,1.091.59,2.439.118,3.715a124.206,124.206,0,0,0-6.795,24.661c-.288,1.936-2.221,2.025-3.788,2.375a1.949,1.949,0,0,1-2.472-1.563c-.632-2.444-1.142-4.914-1.889-7.333a47.185,47.185,0,0,0-1.985-4.667c-.8,1.458-1.631,2.907-2.4,4.376-1.324,2.512-2.722,5-3.883,7.567-.833,1.839-2.5,2.427-4.447,2.145-1.931-.28-2.4-1.95-2.533-3.274-.3-3.088-.212-6.2-.386-9.3a8.884,8.884,0,0,0-.754-2.24,10.235,10.235,0,0,0-1.546,1.869c-1.515,3.132-2.78,6.356-4.451,9.426-.684,1.256-1.073,3.477-3.979,2.494-2.634-.892-2.5-2.867-2.51-4.716-.03-8.124.135-16.25-.05-24.371-.123-5.41-.7-10.814-1.128-16.218a5.556,5.556,0,0,0-.748-1.66,7.378,7.378,0,0,0-1.214,1.406c-1.674,3.447-3.145,6.969-4.981,10.353-.737,1.358-2.681,1.832-4.345,1.359-2.18-.62-2.11-2.5-2.2-4.017-.269-4.536-.349-9.08-.524-13.62a2.228,2.228,0,0,0-.329-.732c-.231.222-.553.412-.682.67q-3.465,6.966-6.885,13.949c-.884,1.806-1.946,3.665-4.747,2.966-2.292-.572-2.418-2.426-2.522-4.228q-.573-9.9-1.4-19.783c-.15-1.781-1.218-4.08,1.529-4.623,2.863-.566,4.852.776,4.511,3.68a17.764,17.764,0,0,0,.383,3.627" fill="#fbd6fc"/>
      <path id="Path_895" data-name="Path 895" d="M235.919,194.488c-1.386,7.669-2.755,15.341-4.165,23.007-.658,3.579-1.588,7.136-2.024,10.728-.249,2.044-1.962,2.558-4.028,2.888-2.252.36-3.608-.573-4.215-2.083a43.5,43.5,0,0,1-3.47-14.135c-.026-.541-.5-1.071-.762-1.605a9.337,9.337,0,0,0-1.446,2.2c-.932,3.2-1.649,6.428-2.574,9.626-.53,1.831-2.09,3.076-4.751,2.9a4.5,4.5,0,0,1-4.352-3.579c-1.236-4.669-2.138-9.387-3.225-14.078-.1-.45-.582-.852-.887-1.277a6.686,6.686,0,0,0-1.025,1.2c-2.507,5.047-4.883,10.131-7.506,15.144-.9,1.722-3.151,2.135-5.5,1.983-1.985-.129-2.017-1.423-2.239-2.4-.81-3.567-1.461-7.152-2.177-10.73-.078-.389-.186-.775-.281-1.163-.311.342-.774.653-.909,1.029a36,36,0,0,1-8.927,13.5,5.2,5.2,0,0,1-5.2,1.377,3.614,3.614,0,0,1-2.719-3.223c-.575-3.776-1.261-7.542-1.965-11.306-.062-.334-.574-.621-.878-.93a7.247,7.247,0,0,0-1.675,1.2c-2.052,2.813-4.061,5.646-5.982,8.51a5.751,5.751,0,0,1-6.306,2.82c-2.936-.481-2.753-2.609-3.092-4.072a79.257,79.257,0,0,1-1.109-9.388,2.829,2.829,0,0,0-.317-.744c-.429.211-1.028.349-1.259.645-1.851,2.367-3.693,4.74-5.41,7.161-1.071,1.51-2.149,2.884-4.869,2.69-3.156-.226-3.705-2.047-3.864-3.817-.724-8.091-1.247-16.191-1.975-24.281a24.4,24.4,0,0,0-1.349-5.31c-.437-1.329-.424-2.476,1.12-3.41a5.345,5.345,0,0,1,5.074-.421c1.43.639,1.142,1.84,1.4,2.979,1.85,8.116,1.535,16.306,1.967,24.471.01.189.285.371.437.556a5.177,5.177,0,0,0,.574-.509c4.463-5.365,5.1-11.577,6.86-17.519.458-1.544,1.113-3.048,2.968-3.057,2.155-.01,4.073.875,4.2,3.127.4,6.993,1.084,13.978,1.721,20.962.04.432.614.838.939,1.256.755-1.025,1.543-2.038,2.26-3.078a49.2,49.2,0,0,0,6.522-14.4,3.665,3.665,0,0,1,4.035-2.217c1.968.207,3.274,1.12,3.424,2.958.484,5.906,1.228,11.8,1.967,17.7a8.443,8.443,0,0,0,1.133,2.349,11.464,11.464,0,0,0,1.95-2.3c2.77-6.157,5.354-12.354,6.025-18.882.214-2.088.935-4.192,4.294-4.107,4.164.106,3.715,2.979,4.112,4.979.965,4.858,1.59,9.753,2.367,14.632.09.566.276,1.123.417,1.683a7.052,7.052,0,0,0,1.311-1.746c1.731-5.419,3.513-10.833,4.988-16.292.613-2.271,1.146-4.773,4.82-4.586,3.879.2,3.4,3.332,4.138,5.275,1.5,3.944,2.334,8.024,3.562,12.028.21.683,1.013,1.267,1.542,1.9a7.87,7.87,0,0,0,.938-2.033c.721-5.2,1.372-10.4,2.015-15.6.258-2.081,1.741-3.607,4.49-3.61,2.366,0,2.954,1.938,3.279,3.293,1.474,6.147,2.683,12.329,4.015,18.494a10.227,10.227,0,0,0,.659,1.63c.351-.555.951-1.1,1.017-1.668.965-8.4,3.4-16.752,1.353-25.244-.318-1.322.307-2.475,2.262-2.795,2.01-.329,4.018-.285,4.757,1.543a17.7,17.7,0,0,1,1.523,7.176" fill="#fbd6fc"/>
      <path id="Path_896" data-name="Path 896" d="M144.173,106.6c-1.8,2.327-1.839,4.844-3.859,6.205-2.138,1.44-5.071,2.774-5.879-1.421-.586-3.04-1.609-6.022-2.479-9.021a3.881,3.881,0,0,0-.715-1,4.686,4.686,0,0,0-.652,1.008c-1.036,3.205-1.916,6.451-3.105,9.616a3.712,3.712,0,0,1-3.8,2.071c-2.344-.186-2.7-2.06-3.377-3.57-.348-.777-.8-1.521-1.2-2.28a10.781,10.781,0,0,0-1.647,2.058c-1.328,2.934-2.535,5.906-3.771,8.869-.677,1.625-2.5,1.82-4.056,2.027-1.345.178-1.848-.935-2.248-1.9a19.5,19.5,0,0,1-1.079-8.37c-.087-.723-.129-1-.152-1.278q-.2-2.38-.387-4.762c-1.306,1.455-2.694,2.864-3.9,4.375-2.147,2.691-4.1,5.489-6.3,8.152a4.371,4.371,0,0,1-5.052,1.137c-1.675-.591-1.918-1.985-1.886-3.313.2-8.275.464-16.55.669-24.825.038-1.543.789-2.388,2.7-2.275,1.974.116,3.539.745,3.46,2.66-.22,5.388-.543,10.774-.779,16.162a18.639,18.639,0,0,0,.25,2.652,17.807,17.807,0,0,0,2.463-2.483,58.843,58.843,0,0,0,7.766-17.487c.348-1.319,2.229-1.643,3.448-1.387a3.53,3.53,0,0,1,3.029,3.585c.069,4.573.154,9.146.294,13.718.013.42.466.831.715,1.246a8.819,8.819,0,0,0,.7-1.174c2.453-6.114,2.362-12.572,3.659-18.841.172-.831.44-2.222,1.786-2.005,1.553.25,3.582.537,3.843,2.37.535,3.756.96,7.522,1.456,11.282a3.807,3.807,0,0,0,.419.958c.255-.3.689-.575.738-.895.6-3.94,1.12-7.89,1.734-11.83.217-1.388.175-3.042,2.532-3.269,2.643-.254,3.627,1.217,4.134,3.015,1.549,5.487,3.039,10.986,4.593,16.472.112.395.554.723.843,1.083a5.277,5.277,0,0,0,.977-1.026,77.391,77.391,0,0,0,6.77-16.938,2.617,2.617,0,0,1,2.816-2.322,3.324,3.324,0,0,1,3.418,2.78c.788,5.026,1.292,10.083,1.932,15.125a6.351,6.351,0,0,0,.5,1.348c.358-.373.752-.726,1.066-1.123,3.482-4.409,4.6-9.554,6.467-14.471.5-1.312.738-3.255,3.349-2.691,3.669.792,3.064,3.557,3.259,5.724.416,4.613.508,9.246.75,13.871.011.2.2.391.309.586a3.414,3.414,0,0,0,.794-.611c3.153-4.614,6.549-9.123,7.795-14.48a2.923,2.923,0,0,1,3.03-2.555c3.351.094,3.8,2.478,4.545,4.446,1.084,2.87,1.914,5.807,2.9,8.7.123.359.543.647.825.967a3.669,3.669,0,0,0,.447-1.074c.271-4.1.5-8.2.753-12.3a1.852,1.852,0,0,1,2.1-1.785c2,.024,3.737.866,3.658,2.6-.352,7.743.134,15.6-3.4,23.007a3.61,3.61,0,0,1-3.646,1.779,2.541,2.541,0,0,1-2.6-1.961c-1.379-4.342-2.891-8.655-4.388-12.971-.11-.316-.5-.565-.755-.845a5.554,5.554,0,0,0-1.448,1.008c-2.769,3.954-5.592,7.887-8.15,11.937a5.094,5.094,0,0,1-5.247,2.664c-2.5-.384-2.217-2.693-2.566-4.252a79,79,0,0,1-.993-7.863c-.051-.431-.176-.856-.268-1.285a11.1,11.1,0,0,0-1.171,1.279c-1.932,2.914-3.627,5.959-5.851,8.705-.721.891-3.3,1.759-4.159,1.352-2.923-1.384-2.635-4.361-3.522-6.724a34.114,34.114,0,0,1-1.108-4.988c-.881,1.463-1.778,2.921-2.638,4.393-.51.874-.884,1.81-1.457,2.652" fill="#b5f4f4"/>
      <path id="Path_897" data-name="Path 897" d="M274.788,104.827c-.235-2.353-.492-4.705-.691-7.06-.06-.71-.634-.959-.971-.433-1.457,2.273-2.806,4.6-4.052,6.962-1.533,2.9-4.833,4.859-5.8,8.125-.6,2.008-.4,4.551-3.249,5.694-2.339.939-4.033.246-4.468-1.836-.856-4.1-1.44-8.235-2.209-12.347a22.418,22.418,0,0,0-1-2.988c-1.106,1.2-2.524,2.277-3.238,3.619-.89,1.673-.874,3.7-1.839,5.324-1.308,2.208-3.328,5.283-6.485,4.043-3.3-1.3-2.98-5.164-3.835-8.018-.658-2.195-1.02-4.451-1.543-6.676-.057-.241-.31-.45-.472-.674a5.751,5.751,0,0,0-.613.864c-1.477,3.194-2.809,6.441-4.455,9.573a4.213,4.213,0,0,1-4.2,1.825c-2.393-.252-1.655-2.318-2.151-3.511-.9-2.161-1.082-4.527-1.643-6.793A7.8,7.8,0,0,0,221,98.851c-.447.714-1.211,1.4-1.289,2.146-.623,5.912-4.028,10.947-7.248,16-.438.688-2.572,1.082-3.739.879-2.243-.389-1.922-2.367-2.1-3.724-1.329-9.875-2.5-19.765-3.75-29.648-.109-.861-.551-1.691-.683-2.552-.17-1.1-.045-2.332,1.355-2.73a4.365,4.365,0,0,1,3.1.229,3.908,3.908,0,0,1,1.984,2.946c.678,7.942,1.827,15.856,2.84,23.777.027.215.367.4.561.6.35-.331.893-.616,1.021-1,1.717-5.107,3.778-10.137,4.376-15.482.155-1.387.335-3.353,2.887-3.368,3.965-.023,4.468,2.833,5.564,5.091a15.45,15.45,0,0,1,.661,2.587c.49,1.719,1.017,3.432,1.528,5.147a53.13,53.13,0,0,0,2.493-5.672c.759-2.431.588-5.854,4.253-6.046,3.9-.205,3.5,3.514,4.844,5.661,1.942,3.107-.924,6.922,2.334,9.782a7.726,7.726,0,0,1,1.3,2.248,22.211,22.211,0,0,0,1.883-2.887c2.075-4.575,4.039-9.186,6.085-13.771.647-1.451,2.216-1.643,3.586-1.165,2.769.967,2.58,3.227,2.781,5.256.471,4.762.921,9.526,1.449,14.284.034.31.741.855.989.8a2.621,2.621,0,0,0,1.492-.853c4.39-6.213,7.065-13.031,9.851-19.808.741-1.8,1.435-4.141,4.295-3.566,3.467.7,2.442,3.629,2.753,5.716.707,4.756,1.195,9.534,1.791,14.3.016.127.253.235.387.352a4.24,4.24,0,0,0,.383-.6c2.173-5.126,4.369-10.246,6.485-15.388.635-1.542,1.091-3.483,3.67-2.439,2.679,1.084,3.238,3.092,2.687,5.655a32.643,32.643,0,0,0,.231,14.867c.038.154.407.251.622.375.231-.288.583-.551.675-.867,1.7-5.83,3.391-11.663,5.026-17.506.33-1.177.492-2.4,2.387-2.349a3.089,3.089,0,0,1,3.215,2.375c1.215,4.657,2.374,9.324,3.585,13.982a5.679,5.679,0,0,0,.664,1.21c.235-.391.635-.77.681-1.176.509-4.56.993-9.121,1.414-13.687.131-1.424-.269-3.043,1.494-3.878a3.355,3.355,0,0,1,2.592.305c1.725,1.191,1.335,2.984,1.076,4.534-1.29,7.725-2.778,15.426-4.056,23.151-.29,1.754-1.717,2.149-3.235,2.5s-1.989-.574-2.291-1.624q-2.021-7.032-4.117-14.05a4.747,4.747,0,0,0-.805-1.162c-.195.355-.421.7-.58,1.067-1.917,4.413-3.748,8.854-5.771,13.233-.785,1.7-1.438,4.209-4.409,3.529-2.51-.575-2.489-3.1-2.824-4.907a73.033,73.033,0,0,1-.584-7.88,17.649,17.649,0,0,0-.42-2.142,15.672,15.672,0,0,0-1.657,1.945c-1.316,2.173-2.422,4.44-3.835,6.565-1.074,1.615-2.775,3.272-5.071,2.805-2.05-.416-2.429-2.438-2.66-4.153-.172-1.281-.454-2.552-.687-3.827l.275-.032" fill="#fbd6fc"/>
      <path id="Path_898" data-name="Path 898" d="M217.224,250.258q0-6.373,0-12.748c0-1.665,1.364-2.643,3.315-2.575,1.8.063,3.71.692,3.613,2.548-.613,11.746-1.26,23.491-1.843,35.239-.093,1.876-.943,3.24-3.625,3.361s-3.6-1.023-4-2.993c-1.011-5.037-2.376-10.035-3.7-15.034a8.02,8.02,0,0,0-1.433-2.09,12.161,12.161,0,0,0-1.625,2.23c-2,4.77-3.812,9.584-5.9,14.331a3.426,3.426,0,0,1-3.615,1.732c-3.14-.411-2.925-2.583-3.244-4.19-.837-4.2-1.309-8.45-1.976-12.675-.065-.416-.474-.8-.723-1.2a8.517,8.517,0,0,0-.637,1.121c-2.194,5.741-4.336,11.493-6.581,17.223A3.121,3.121,0,0,1,181.7,276.3c-1.835-.277-3.26-1.105-3.343-2.747-.24-4.778-.476-9.556-.807-14.331-.037-.533-.679-1.042-1.04-1.563-.225.487-.481.966-.669,1.461-2.012,5.291-1.14,11-4.135,16.151a3.711,3.711,0,0,1-4.245,2.026c-2.23-.381-2.525-1.709-2.676-3.23-.438-4.422-1.061-8.835-1.649-13.248-.043-.324-.393-.624-.6-.935a3.778,3.778,0,0,0-.681.854c-1.232,3.3-2.466,6.59-3.622,9.9-.714,2.045-.9,4.7-4.514,4.727-4.575.039-4.106-3.1-4.421-5.3-1.607-11.239-2.944-22.5-4.61-33.735-.321-2.168,1.062-3.139,3.2-3.268,2.482-.151,3.98,1.106,4.162,3.115q1.068,11.786,2.245,23.566c.024.244.424.467.648.7.335-.474.878-.925.972-1.424,1.066-5.638,2-11.291,3.117-16.923.357-1.8.656-4.14,3.936-4.05,3.4.092,2.985,2.4,3.26,4.246.84,5.642,1.822,11.273,2.764,16.906.023.137.227.256.347.384.248-.348.643-.678.722-1.046,1.007-4.714,2.019-9.428,2.921-14.154.435-2.278.828-4.936,4.545-4.947,3.967-.012,3.871,3.121,4.217,5.064.949,5.331,1.26,10.725,1.858,16.092.028.259.379.5.579.745.369-.322.988-.613,1.07-.972q1.621-7.074,3.1-14.165c.558-2.7-.311-6.679,4.682-6.7,5.319-.019,3.959,4.419,4.788,6.909,1.372,4.116,1.617,8.443,2.367,12.678.047.27.353.515.539.771.2-.159.508-.294.581-.48,1.637-4.2,3.24-8.433,3.129-12.85-.06-2.374-.665-5.057,3.023-5.9,4.347-.992,4.1,2.024,4.947,3.993.908,2.115,2.078,4.166,3.017,6.274.585,1.313.954,2.681,1.42,4.025l.756-4.641-.374-.024" fill="#c5c2ef"/>
      <path id="Path_899" data-name="Path 899" d="M91.292,254.081a14.4,14.4,0,0,0,.006,1.533c.377,2.057.768,4.112,1.156,6.168.635-2.275,1.342-4.541,1.891-6.827,1.1-4.558.586-9.331,3.236-13.678a3.049,3.049,0,0,1,3.244-1.849c2.135.155,3.115,1.189,3.5,2.492,1.6,5.493,3.82,10.907,3.964,16.6.012.464.6.921.918,1.381a5.273,5.273,0,0,0,.87-1.406c1.079-4.917-.037-10.127,3.773-14.688a3.354,3.354,0,0,1,3.687-1.362,3.425,3.425,0,0,1,3.032,3.022c.9,3.928,1.653,7.876,2.482,11.814.044.208.272.4.413.591a2.953,2.953,0,0,0,.455-.765c.892-4.06,1.756-8.123,2.637-12.183a2.435,2.435,0,0,1,2.868-2.063c1.93.281,4,.881,4.414,2.717.549,2.415,1.018,4.841,1.593,7.253.1.408.558.768.85,1.15a4.355,4.355,0,0,0,.36-1.274c-.194-5.426-.47-10.851-.619-16.278-.044-1.572,1.123-2.633,3.322-2.538,4.074.176,3.539,2.559,3.518,4.548-.083,8.188-.123,16.378-.45,24.561a16.575,16.575,0,0,1-1.863,6.4,3.923,3.923,0,0,1-4.166,1.6c-3.072-.537-2.862-2.9-4.061-4.462-.527-.686-.263-1.707-.757-2.419-.663-.954.46-2.8-1.709-2.756-.715.016-1.687,1.969-1.958,3.114-.636,2.7-1.688,5.556-5.727,5.6-4.868.047-4.036-3.526-4.839-5.911-.3-.878-.635-1.748-.954-2.621a27.179,27.179,0,0,0-1.249,2.49,55.8,55.8,0,0,1-2.236,6.021c-.884,1.7-2.682,3.8-5.221,2.992-4.046-1.29-3.56-4.744-4.328-7.468-.72-2.551-1.231-5.136-1.862-7.7-.023-.1-.493-.221-.5-.21a5.507,5.507,0,0,0-1.178,1.479c-1.474,4.295-2.771,8.626-4.344,12.9a4.479,4.479,0,0,1-5.469,2.875c-3.464-.707-3.031-3.407-3.541-5.345a90.908,90.908,0,0,1-1.432-9.391c-.062-.4-.48-.779-.733-1.167-.377.37-.937.7-1.1,1.117-1.768,4.428-3.452,8.874-5.206,13.305-.635,1.6-1.5,3.227-4.2,3.183a3.7,3.7,0,0,1-3.982-3.463c-1.714-9.788-3.2-19.6-5.017-29.376-.489-2.632-2.263-5.137-2.664-7.767-.195-1.277,1.457-3.219,3.515-3.126,4.621.209,4.216,3.4,4.666,5.689,1.613,8.215,2.947,16.461,4.416,24.692a3.738,3.738,0,0,0,.642,1.076,5.221,5.221,0,0,0,.716-1.123c2.375-7.728,1.678-15.852,5.369-23.4a2.6,2.6,0,0,1,1.8-1.234c1.427.108,2.862.439,3.612,1.643,2.9,4.66,2.872,9.81,4.45,13.853" fill="#b5f4f4"/>
      <path id="Path_900" data-name="Path 900" d="M127.888,142.087c-.92-6.575.694-13.238-1.275-19.776-.234-.778.723-1.989,1.515-2.694.4-.355,1.717-.178,2.526.028a3.158,3.158,0,0,1,2.63,3.2q.251,6.809.581,13.616c.017.344.355.68.544,1.02a9.37,9.37,0,0,0,.387-.989c1.264-4.676,2.467-9.365,3.834-14.018.179-.61,1.25-1.522,1.792-1.463,1.516.166,3.254.34,3.947,1.908,2.068,4.679,2.046,9.584,2.53,14.436a5.386,5.386,0,0,0,.43,1.213c.319-.324.792-.606.935-.979,1.931-5.037,3.727-10.114,5.766-15.118.646-1.585,2.188-2.557,4.472-2.024,2.15.5,2.512,1.842,2.544,3.475.05,2.507.231,5.016.456,7.519a6.968,6.968,0,0,0,.747,1.862,7.925,7.925,0,0,0,1.388-1.589c1.917-4.065,3.681-8.184,5.675-12.222.574-1.164,1.372-2.632,3.5-2.146,4.071.928,3.579,3.832,3.8,6.353.422,4.9.733,9.8,1.153,14.7.032.362.575.7.88,1.049.335-.28.836-.509.982-.848,2.265-5.263,4.65-10.5,6.613-15.841.6-1.64,1.616-2.517,3.24-2.23,1.7.3,3.548.879,3.655,3.043.215,4.317.747,8.626,1.175,12.938.023.237.286.461.437.692.425-.253,1.028-.424,1.249-.77,2.58-4.03,5.153-8.065,7.612-12.149a3.073,3.073,0,0,1,3.86-1.5,3.813,3.813,0,0,1,3.119,3.584c.042.271-.1.558-.064.832.3,2.459.018,5.023,1.91,7.2.732-1.927,1.412-3.87,2.216-5.775.448-1.061,1.373-2.426,2.706-1.883,1.263.513,3.005,1.068,2.659,3.28-.827,5.281-3.952,10.124-3.672,15.611.075,1.474-1.842,1.728-3.294,1.713-2.983-.03-3.638-2.1-4.164-3.907-1.041-3.571-1.778-7.2-2.68-10.8-.077-.307-.449-.565-.684-.846-.434.329-1.026.588-1.275,1-2.466,4.037-4.886,8.1-7.293,12.158a4.755,4.755,0,0,1-4.78,2.392c-1.975-.161-2.269-1.74-2.557-2.938-.587-2.441-.86-4.931-1.255-7.4-.14-.881-.258-1.764-.386-2.646-.469.707-.978,1.4-1.4,2.125-2.221,3.817-4.456,7.628-6.607,11.473a4.169,4.169,0,0,1-4.268,2.295,2.836,2.836,0,0,1-2.782-2.624c-.715-5.564-1.258-11.142-1.876-16.714a2.659,2.659,0,0,0-.284-.68,2.823,2.823,0,0,0-.44.562c-2.378,5.584-7.581,9.924-9.567,15.716-.532,1.552-2.78,1.762-4.419,1.236a2.444,2.444,0,0,1-1.9-2.9,13.908,13.908,0,0,0,.478-2.464c.134-1.858.174-3.722.253-5.583a41.638,41.638,0,0,0-2.977,5.127c-1.073,2.615-1.819,5.33-2.644,8.017-.7,2.3-1.949,4.875-5.111,3.913-3.22-.979-2.664-4.18-2.74-6.636-.1-3.209-.008-6.419-.05-9.628,0-.28-.174-1.184-.805-.228a6.382,6.382,0,0,0-.724,1.447c-1.035,3.053-2.156,6.088-3.015,9.178-.639,2.3-.79,4.841-4.723,4.573-3.506-.24-2.853-2.79-3.335-4.6-.514-1.934-.777-3.911-1.149-5.87" fill="#fbd6fc"/>
      <path id="Path_901" data-name="Path 901" d="M227.235,163.736c.584,2.832,1.272,6.335,2.085,9.825.067.29-.207,1.429,1.271.823a3.169,3.169,0,0,0,1.5-1.574c1.924-3.843,3.685-7.719,5.67-11.547.854-1.649,1.006-4.534,4.422-4.069,4.459.606,4.55,3.737,5.026,6.272.769,4.106,1.613,8.205,2.463,12.3.034.163.461.293.7.439a8.378,8.378,0,0,0,.9-1.166c1.785-3.446,3.5-6.908,5.328-10.343.508-.955,1.606-1.6,3.376-1.275,1.941.359,3.4,1.016,3.532,2.482q.795,8.888,1.68,17.77c.026.263.472.508.722.762.334-.276.832-.52.976-.832,2.276-4.929,4.537-9.861,6.726-14.807.546-1.233,1.058-2.811,3.214-2.769,2.724.054,4.649,1.241,5.227,3.179.947,3.172,2.116,6.317,3.226,9.469.084.24.447.441.68.66.294-.285.786-.552.851-.856,1.028-4.779,1.924-9.57,3.04-14.339.3-1.285.391-3.149,3.44-2.95,2.894.189,4.542,1.113,4.08,3.492-1.722,8.854-4.949,17.609-4.577,26.613.084,2.041-1.722,3.228-4.826,3.478-2.944.237-3.136-1.367-3.956-2.579-2.984-4.414-4.034-9.13-5.452-13.792-.132-.435-.735-.812-1.12-1.216-.41.379-1.008.722-1.2,1.142-2.31,4.979-4.524,9.976-6.852,14.951-.543,1.162-2.21,1.615-3.922,1.664a4.07,4.07,0,0,1-3.667-1.8c-3.987-4.963-2.788-10.426-4.022-15.65a4.092,4.092,0,0,0-.58-.988,7.9,7.9,0,0,0-.876.893c-1.9,2.7-3.618,5.451-5.762,8.065-.5.612-2.438,1.084-3.661,1.037-1.984-.076-3.229-1.12-3.394-2.382-.531-4.056-.882-8.12-1.392-12.177a7.839,7.839,0,0,0-.934-2.063,10.017,10.017,0,0,0-1.835,1.582c-1.7,2.535-3.415,5.072-4.849,7.671-.911,1.652-1.932,3.027-5.109,2.938-5.666-.159-5.526-3.134-6.4-5.539-.61-1.676-.906-3.4-1.343-5.1-1.218,1.577-2.566,3.119-3.626,4.738-1.814,2.768-3.476,5.578-5.144,8.384a5.576,5.576,0,0,1-5.229,2.708c-2.682-.007-3.188-1.513-3.8-2.809-.315-.666-.464-1.367-.822-2.023-1.094-2.01.485-4.336-1.821-6.2-1.843,2.107-4.037,4.124-5.419,6.347-1.116,1.8-1.844,3.689-5.529,3.225-4.123-.518-4.017-2.971-4.175-4.941-.676-8.434-1.141-16.874-1.667-25.313-.077-1.239.061-2.691,2.383-2.822,2.456-.139,4.846.385,4.96,2.487.34,6.271.691,12.542,1.1,18.812.028.432.6.85.924,1.275.4-.42,1.044-.812,1.17-1.263,1.233-4.427,2.352-8.866,3.574-13.294.319-1.154.525-2.972,2.7-2.745,2.467.259,4.925,1.431,5.294,3.391.867,4.6,1.6,9.209,2.463,13.809a6.862,6.862,0,0,0,.949,1.766,8.873,8.873,0,0,0,1.642-1.4c3.409-5.01,7.116-9.957,7.922-15.519a2.564,2.564,0,0,1,3.075-2.1c4.029.6,5.034,2.69,4.664,5.788" fill="#b5f4f4"/>
      <path id="Path_902" data-name="Path 902" d="M131.978,65.554c-.05-.255-.389-1.971-.727-3.687a57.3,57.3,0,0,0-3.8,4.688c-1.287,1.964-2.287,4.063-3.379,6.115a4.792,4.792,0,0,1-4.967,2.62,3.594,3.594,0,0,1-3.4-3.512c-.557-7.024-1.027-14.055-1.294-21.091-.059-1.579,1.747-2.408,3.533-2.351,1.878.059,3.554.833,3.639,2.648.174,3.732.138,7.472.272,11.206.019.549.492,1.087.755,1.629a8.658,8.658,0,0,0,1.26-1.185c3.237-4.585,4.1-9.836,5.847-14.836.916-2.613,1.424-6.185,5.942-4.786,3.6,1.116,1.907,4.755,2.47,7.266a27.923,27.923,0,0,1,.159,5.487c0,.092.15.181.23.272.194-.267.5-.515.567-.8.759-3.223,1.4-6.466,2.247-9.673.387-1.473.915-3.252,3.335-3.01s3.73,1.524,3.669,3.759c-.139,5.12-.152,10.242-.154,15.364a4.954,4.954,0,0,0,.634,1.624,5.77,5.77,0,0,0,1.107-1.443c1.16-3.534,2.2-7.1,3.369-10.628a2.222,2.222,0,0,1,2.743-1.718c1.627.312,3.07.887,3.35,2.505.871,5.041,1.736,10.084,2.626,15.123a3.1,3.1,0,0,0,.466.847c.386-.413.986-.781,1.125-1.245,1.242-4.16,3.064-8.224,3.024-12.6-.012-1.345.351-2.79,1.928-3.3.889-.287,2.793,0,3.139.526a5.336,5.336,0,0,1,.428,3.381c-.845,7.819-4.734,15.031-6.54,22.664a2.869,2.869,0,0,1-2.88,1.969c-2.682.042-3.876-1.731-4.528-3.523-.886-2.435-1.325-4.982-2.058-7.459a12.317,12.317,0,0,0-1.2-2.23,12.484,12.484,0,0,0-1.843,2.581c-1.262,3.367-2.293,6.795-3.534,10.168-.553,1.5-2.093,2.162-3.87,2.236a2.458,2.458,0,0,1-2.642-2.133c-.6-3.2-.916-6.441-1.387-9.661a3.362,3.362,0,0,0-.588-1.023,7.173,7.173,0,0,0-.555,1.037c-.832,2.438-.851,6.425-2.593,7.05-6.829,2.446-4.9-2.992-5.864-5.615-.421-1.146-.071-2.492-.071-5.249" fill="#fbd6fc"/>
      <path id="Path_903" data-name="Path 903" d="M282.787,61.1l1.6,2.981c1.223-.673.958-1.731,1.214-2.739.956-3.764,2.472-7.418,1.171-11.389-.294-.9,1.3-1.307,2.378-1.276,2.415.068,3.537,1.443,3.534,3.222a46.861,46.861,0,0,1-2.428,14.663c-.924,2.8-1.758,5.62-2.632,8.431a3.219,3.219,0,0,1-3.26,2.339,3.544,3.544,0,0,1-3.7-2.068c-2.611-4.606-2.1-9.73-3.475-14.541a10.715,10.715,0,0,0-.621-1.4c-.372.481-.94.925-1.083,1.45-1.072,3.932-2.154,7.866-3.029,11.83-.338,1.534-1.424,2.14-2.953,2.422-1.626.3-3.136-.082-3.728-1.456-1.252-2.9-2.294-5.873-3.451-8.806a4.073,4.073,0,0,0-.67-.867c-.321.284-.768.521-.943.858-1.317,2.53-2.618,5.067-3.848,7.627-.735,1.53-.814,3.353-3.7,3.388-3.206.04-4.325-1.959-5.68-3.7a27.9,27.9,0,0,1-2.169-3.81c-.588,1.305-1.124,2.628-1.773,3.911-1.792,3.543-5.265,6.314-6.305,10.277-.425,1.621-3.126,1.751-4.9,1.453-1.983-.334-2.076-2.135-2.353-3.5-1.915-9.454-.263-19.126-2.545-28.594-.536-2.225,2.719-2.5,4.686-2.55,2.323-.059,2.313,1.863,2.412,3.19.469,6.286.78,12.58,1.174,18.87a4.411,4.411,0,0,0,.426,1.162,5.029,5.029,0,0,0,1.129-.661c4.337-4.5,3.454-10.354,5.652-15.417.62-1.43.692-3.035,1.38-4.433.9-1.828,3.132-1.431,4.66-1.076,2.119.494,1.97,2.261,2,3.849.071,3.649.265,7.3.535,10.941.042.563.746,1.093,1.144,1.638.458-.487,1.152-.917,1.338-1.468,1.94-5.748,3.9-11.495,5.617-17.291.516-1.744,1.788-1.809,3.313-1.776,1.863.042,3.679.509,3.548,2.384-.331,4.763,1.119,9.334,1.837,13.983.022.145.174.275.265.412a3.817,3.817,0,0,0,.252-.476c1.626-4.513,3.285-9.017,4.853-13.544.749-2.161,2.769-1.814,4.594-1.724,1.8.089,2.086,1.2,2.4,2.522.84,3.533,1.968,7.018,2.982,10.522l-.852.235" fill="#b5f4f4"/>
      <path id="Path_904" data-name="Path 904" d="M248.539,262.8l-.9-3.567a23.081,23.081,0,0,1-1.465,3.164,75.563,75.563,0,0,1-5.655,8.1c-.618.728-2.747,1-4.181,1a2.353,2.353,0,0,1-2.368-2.208c-.9-7.469-1.981-14.936-2.388-22.422-.133-2.446-3.916-4.75-.676-7.255a4.194,4.194,0,0,1,2.8-.808c1.574.412,3.712.639,3.867,2.4.529,6.023,1.014,12.048,1.56,18.07.036.4.436.781.667,1.17.575-.412,1.5-.756,1.672-1.247,1.794-5.186,3.549-10.381,5.133-15.6.621-2.05,2.277-2.373,4.647-2.253,2.7.136,2.365,1.434,2.366,2.856,0,4.906.077,9.816.375,14.716.042.7-.347,2.343,1.6,2.222,1.7-.105,1.165-1.506,1.481-2.391a103.659,103.659,0,0,1,3.711-9.9,5.14,5.14,0,0,1,3.672-2.341,3.476,3.476,0,0,1,3.533,2.891q.858,7.668,1.9,15.324a23.594,23.594,0,0,0,.912,3.253,12.236,12.236,0,0,0,2.122-2.53c1.708-3.91,3.235-7.865,4.837-11.8a4.7,4.7,0,0,1,4.867-3.056c2.885.088,3.5,1.876,3.908,3.65.793,3.414,1.6,6.827,2.463,10.23.084.332.626.6.956.9.222-.244.582-.468.647-.734,1.407-5.751,2.62-11.514,1.975-17.4-.147-1.34-.346-2.915,1.449-3.656a7.989,7.989,0,0,1,4.006-.2c2.644.48,1.625,1.974,1.574,3.4-.38,10.571-3.875,20.8-5.87,31.188a2.279,2.279,0,0,1-2.656,2.058c-1.911-.067-3.939-.029-4.468-1.976q-2.124-7.806-4.352-15.6a4.162,4.162,0,0,0-.705-1.031c-.225.307-.455.612-.673.921-3.235,4.579-4.718,9.84-9.46,13.814a4.082,4.082,0,0,1-2.876.713c-1.628-.5-2.98-1.359-3.154-2.978-.471-4.383-1.114-8.757-1.723-13.131-.037-.263-.372-.5-.568-.751a4.449,4.449,0,0,0-.519.679c-1.875,3.809-3.655,7.648-5.647,11.422-.707,1.34-2.561,1.315-4.206,1.22a2.929,2.929,0,0,1-2.916-2.377c-.744-2.67-1.283-5.374-1.9-8.064Z" fill="#fbd6fc"/>
      <path id="Path_905" data-name="Path 905" d="M316.116,68.488c0-2.323.023-4.646-.022-6.968a3.905,3.905,0,0,0-.462-1.211c-.458.264-1.126.439-1.344.8-2.408,4.04-4.759,8.1-7.1,12.172a3.645,3.645,0,0,1-4,1.621c-2.667-.825-3.129-3.29-3.194-5.261-.241-7.407-.124-14.824-.1-22.236,0-1.154.2-2.419,2.158-2.167,2.258.291,4.137.724,3.949,3.406-.291,4.16-.061,8.348.026,12.524.01.474.523.941.8,1.412.335-.327.807-.609.983-.987,2.411-5.189,4.874-10.364,7.108-15.606.687-1.614,1.806-1.933,3.518-1.742,1.877.21,3.119.733,3.137,2.691.069,7.648.315,15.3.511,22.942a4.524,4.524,0,0,0,.273,1.028,3.787,3.787,0,0,0,.61-.849c2.187-6.278,4.241-12.59,6.6-18.821.562-1.48,1.212-3.916,3.7-3.56,3.14.449,3.3,3.142,3.726,5.312.688,3.514,1.263,7.043,1.9,10.564a3.805,3.805,0,0,0,.343.8,2.649,2.649,0,0,0,.491-.709,54.426,54.426,0,0,0,1.634-17.082,2.594,2.594,0,0,1,1.692-2.619c1.714-.917,2.966-.062,4.183.758,1.073.724.153,1.568.149,2.375a80.482,80.482,0,0,1-1.979,17.369c-.884,3.918-1.8,7.833-2.869,11.718-.42,1.528-1.984,2.25-3.794,2.224-3.178-.044-3.508-2.494-4.006-4.155-.96-3.208-1.2-6.566-1.772-9.858a5.749,5.749,0,0,0-.517-1.217,5.957,5.957,0,0,0-.933,1.165c-2.056,4.7-3.995,9.435-6.149,14.1a4.164,4.164,0,0,1-4.166,2.744c-2.123-.109-2.782-1.6-3.6-2.939-1.911-3.118-1.043-6.481-1.495-9.744" fill="#c5c2ef"/>
      <path id="Path_906" data-name="Path 906" d="M185.7,45.565c0,5.582-.017,10.567.028,15.551a4.17,4.17,0,0,0,.612,1.421,7.116,7.116,0,0,0,.812-1.359c1.632-5.072,3.136-10.175,4.883-15.219.61-1.76,2.827-1.688,4.53-1.726,1.447-.032,1.726,1.273,1.882,2.174.883,5.073,1.63,10.162,2.455,15.242a12.422,12.422,0,0,0,.6,1.839,12.456,12.456,0,0,0,1.758-2.55c1.132-3.1,2.153-6.223,3.1-9.363.812-2.707,2.911-4.623,6.05-3.956,2.608.553,2.16,3.467,2.863,5.394.214.584-.244,1.335-.049,1.931.524,1.609,1.234,3.176,1.87,4.759,1.806-.941.687-2.5,1.073-3.746.761-2.457,1.192-4.986,1.775-7.482a2.821,2.821,0,0,1,3.411-2.209c1.894.264,3.177,1.494,2.724,3.141-1.713,6.226-1.207,12.824-4.838,18.769-.858,1.4.5,3.845-1.7,4.963-4.62,2.346-6.088-.466-7.132-3.453-.761-2.177-1.247-4.42-1.9-6.625A4.717,4.717,0,0,0,209.822,62c-.309.235-.738.421-.908.712a82.666,82.666,0,0,0-4.866,8.676,4.938,4.938,0,0,1-5.317,3.16c-2.053-.114-2.553-1.949-3.162-3.254a19.647,19.647,0,0,1-1.045-4.359c-.294-1.4-.553-2.814-.827-4.222-.732,1.461-1.425,2.937-2.2,4.381a87.914,87.914,0,0,1-5.28,9.3c-.534.755-3.217,1.186-4.363.751-2.865-1.088-2.325-3.761-2.4-5.806-.373-9.635.31-19.288-.942-28.914-.356-2.737,2.773-2,4.506-2.35,1.5-.307,2.067.863,2.252,1.928.239,1.376.341,2.769.434,3.568" fill="#c5c2ef"/>
      <path id="Path_907" data-name="Path 907" d="M164.889,172.107c-.515-4.428-.862-8.441-1.494-12.432-.345-2.177,1.336-3.075,4.018-3.178,2.525-.1,2.757,1.514,2.9,2.673a84.727,84.727,0,0,1-1.05,27.855c-.34,1.649-2.161,2.919-4.61,2.936-2.57.018-3.736-1.632-4.912-2.97-3.753-4.272-3.37-9.3-5.529-13.862a5.706,5.706,0,0,0-1.116-1.181,7.01,7.01,0,0,0-1.289,1.28c-2.318,4.2-4.537,8.424-6.874,12.619-.785,1.41-2.533,1.889-4.684,1.735s-2.9-1.3-3.08-2.429c-.7-4.508-1.178-9.031-1.768-13.546a7.182,7.182,0,0,0-.493-1.406,6.411,6.411,0,0,0-1.351.977c-1.327,1.732-2.678,3.462-3.81,5.253-1.291,2.043-3.612,3.212-6.711,3.039-2.805-.157-2.36-2.232-2.476-3.4-.746-7.506-1.221-15.024-1.614-22.543-.067-1.288-1.454-2.466-.026-3.96,1.348-1.41,2.749-1.643,4.808-1.3,2.178.366,1.977,1.506,2.021,2.663.221,5.82.522,11.639.826,17.457.011.22.349.433.535.648a3.424,3.424,0,0,0,.666-.654c1.6-2.995,3.282-5.973,4.706-9.006.554-1.18,1.008-2.226,3.188-1.912,2.115.3,4.189.865,4.536,2.569.94,4.611,1.76,9.233,2.67,13.847a8.587,8.587,0,0,0,.735,1.683,9.359,9.359,0,0,0,1.222-1.67c1.375-3.247,2.536-6.539,4.065-9.752.648-1.359,1.14-3.313,4.042-3.209,4.085.147,5.244,2.506,6.042,4.664,1.428,3.866,2.484,7.795,3.737,11.691.083.261.51.471.777.705.236-.259.636-.505.681-.778.3-1.838.518-3.682.709-5.113" fill="#c5c2ef"/>
      <path id="Path_908" data-name="Path 908" d="M232.767,130.288c-.138,2.408-.333,4.816-.378,7.225a6.59,6.59,0,0,0,.647,2.02,9.026,9.026,0,0,0,1.38-1.6,42.943,42.943,0,0,0,4.312-11.944c.269-1.531.938-3.318,3.515-2.979,3.376.446,3.043,2.62,3.118,4.8.135,3.949.645,7.89,1.04,11.831.023.234.413.442.632.663a3.26,3.26,0,0,0,.531-.66q2.831-6.5,5.621-13a2.235,2.235,0,0,1,2.373-1.62c1.572.2,3.507.258,3.9,2.053,1.05,4.8,2.034,9.619,3.063,14.426.046.213.285.4.434.594.272-.373.735-.728.786-1.121.329-2.558.46-5.138.886-7.683.2-1.215,1.77-1.676,2.85-1.393,1.258.329,2.951.995,2.765,2.45-.735,5.744-1.588,11.479-2.506,17.205a3.205,3.205,0,0,1-3.42,2.906,3.972,3.972,0,0,1-4.007-2.691c-1.365-4.3-2.454-8.667-3.722-12.993a22.391,22.391,0,0,0-1.305-2.9,18.3,18.3,0,0,0-1.9,2.721c-1.961,4.294-3.719,8.655-5.81,12.9-.334.678-1.947,1.031-3.051,1.295-1.194.286-1.523-.622-1.949-1.347-1.872-3.192-1.7-6.662-2.066-10.066a5.45,5.45,0,0,0-.914-1.711c-.441.546-1.215,1.069-1.269,1.64-.31,3.313-3.459,5.349-5.069,8.069-.712,1.2-2.735,1.419-4.041.94-2.068-.759-2.183-2.719-2.288-4.327-.533-8.171.732-16.4-1.226-24.538-.315-1.306.017-2.786,2.38-2.832,3.6-.069,4.283,1.942,4.363,4.3.084,2.454.019,4.911.019,7.366h.3" fill="#c5c2ef"/>
      <path id="Path_909" data-name="Path 909" d="M106.685,202.169c-.264-4.2,1.278-8.514-.716-12.689-.606-1.27,1.246-1.94,2.6-2.066,3.643-.342,6.243,1.275,6.319,3.682.231,7.4.228,14.8-1.246,22.189a88.462,88.462,0,0,0-1.248,14.638c-.08,2.583-1.87,3.781-4.817,4.223s-3.409-1.236-3.912-2.873c-1.988-6.472-4.051-12.93-6.116-19.389-.1-.3-.486-.543-.739-.814a4.741,4.741,0,0,0-.836,1c-2.646,6.263-5.215,12.543-7.911,18.794-.859,1.991-3.091,3.028-5.75,3.027-2.683,0-2-1.94-2.645-3.156-3.254-6.139-2.1-12.642-3.028-18.971a4.642,4.642,0,0,0-.319-.883,3.526,3.526,0,0,0-.605.828c-1.893,5.77-6.028,10.784-9.783,15.92-.957,1.31-2.057,2.671-4.57,2.346a3.529,3.529,0,0,1-3.134-2.825c-.724-2.346-1.082-4.753-1.635-7.13a4.144,4.144,0,0,0-.6-1.026,4.277,4.277,0,0,0-.813.842c-3.124,6.154-6.215,12.317-9.331,18.473-1.035,2.045-3.489,2.382-5.887,2.255-2.342-.125-2.512-1.683-2.6-3.079-.247-3.7-.475-7.411-.75-11.115a7.739,7.739,0,0,0-.46-1.568c-.52.521-1.355,1-1.512,1.57-1.385,5.091-5.544,9.138-9.21,13.335-.951,1.089-3.506,2.266-5.041,1.36a6.121,6.121,0,0,1-2.7-4.331c-.409-3.808-.186-7.652-.282-11.481a4.732,4.732,0,0,0-.624-1.515,13.538,13.538,0,0,0-1.223,1.219c-2.77,3.584-3.18,8.276-9.324,10.27-3.238,1.049-4.339-.471-4.536-2.061q-1.116-9-1.556-18.04C-.11,208.188.13,203.237,0,198.294c-.042-1.627.926-2.665,2.639-3.4,1.442-.621,3.3-.622,4.024.444a5.582,5.582,0,0,1,.834,4.1,122.611,122.611,0,0,0-.7,14.66c-.043,2.439.173,4.884.369,7.323a13.561,13.561,0,0,0,.667,2.463c.657-.8,1.641-1.535,1.919-2.4,1.894-5.881,3.608-11.792,5.453-17.681.543-1.734.995-4.122,4.009-3.876,3.16.256,3.809,2.378,3.81,4.711,0,7.442.3,14.883.584,22.323.02.524.834,1.031,1.279,1.547.752-.628,1.941-1.172,2.19-1.9q3.561-10.359,6.817-20.778c.585-1.864,1.351-3.585,4.354-3.489,3.352.105,3.476,2.217,3.646,4.023.553,5.873.987,11.754,1.505,17.63.031.344.4.673.607,1.01a8.045,8.045,0,0,0,.745-.876c5.429-8.587,6.236-17.926,8.055-27.1.38-1.917,1.1-4.177,4.282-4.1,2.868.073,3.49,2.115,3.736,4.049Q62.03,206.5,63.44,216c.093.636.758,1.226,1.157,1.837a8.422,8.422,0,0,0,1.614-1.906c2.679-6.7,5.229-13.43,7.926-20.127a3.647,3.647,0,0,1,3.9-2.711c2.785.115,3.546,1.538,3.738,3.342q1.218,11.467,2.524,22.932a4.2,4.2,0,0,0,.457,1.075,3.909,3.909,0,0,0,.659-.921c2.1-6.54,4.216-13.078,6.228-19.634.616-2.006,1.433-3.985,4.468-4.334,3.284-.378,4.052,2.041,4.709,3.526,1.972,4.461,3.342,9.069,4.964,13.616a5.614,5.614,0,0,0,.569.946,2.8,2.8,0,0,0,.321-.877c.023-3.532.015-7.064.015-10.6" fill="#c5c2ef"/>
      <path id="Path_910" data-name="Path 910" d="M41.119,132.4c-.165,2.888-.37,6.2-.519,9.519-.014.306.334.622.514.934a3.568,3.568,0,0,0,.883-.661c4.067-6.089,4.965-13.112,8.132-19.478.889-1.785,1.582-3.446,4.338-2.722,2.856.749,2.453,2.9,2.446,4.777-.019,4.9-.1,9.8-.095,14.706,0,.414.5.827.768,1.241.421-.347,1.014-.631,1.235-1.052,1.695-3.218,3.38-6.443,4.94-9.708.964-2.017,1.6-4.2,5.171-3.32,3.507.869,1.5,3.226,1.679,4.836.388,3.485.217,7.013.319,10.522a3.739,3.739,0,0,0,.468,1.169c.421-.255,1.021-.431,1.235-.776,3.67-5.9,7.668-11.685,9.932-18.107.643-1.824,2.051-2.182,3.732-1.908,1.609.262,2.825.908,2.872,2.808.1,3.957.706,7.9,1.135,11.854.016.146.355.267.543.4a5.842,5.842,0,0,0,.686-1.041c2.162-5.615,4.292-11.239,6.455-16.854.416-1.081,1.151-2.071,2.714-1.781a4.077,4.077,0,0,1,3.393,2.8c1.38,5.418,2.564,10.871,3.869,16.3.077.323.574.575.876.861.274-.36.737-.7.794-1.082.714-4.775,1.362-9.557,2.044-14.335.254-1.777,1.412-2.771,3.6-2.409,2.216.366,2.573,1.628,2.187,3.386-1.5,6.808-2.872,13.635-4.262,20.46-.485,2.377-1.229,4.532-4.8,4.606-3.475.071-2.6-2.471-3.073-3.953-1.511-4.7-2.694-9.482-4.049-14.223a5.843,5.843,0,0,0-.875-1.375,17.6,17.6,0,0,0-1.657,2.649c-2.786,6.939-5.459,13.91-8.291,20.835a2.74,2.74,0,0,1-3.2,1.29,3.237,3.237,0,0,1-2.585-3.251c-.061-4.453.022-8.908-.012-13.361a11.121,11.121,0,0,0-.484-2.253c-.684.542-1.614.98-2.013,1.643-3.885,6.459-10.185,12.411-10.459,19.7-.189,5.016-.839,10.2-.058,15.288a3.891,3.891,0,0,1,.137.684c-.042,1.459-1.232,2.946.17,4.366.826-1.462,1.757-2.89,2.455-4.394,1.161-2.5,2.1-5.081,3.279-7.58.488-1.036.711-2.565,2.779-2.244a3.726,3.726,0,0,1,3.454,3.163c.45,3.059.673,6.142,1.047,9.21.156,1.274.457,2.536.691,3.8a31.521,31.521,0,0,0,2.8-4.177c.835-1.79,1.032-3.8,1.946-5.549s1.13-4.637,4.279-4.309c3.74.388,2.984,3.562,3.66,5.737.482,1.552.789,3.142,1.274,4.693.125.4.629.717.96,1.071a4.133,4.133,0,0,0,.621-1.023c1.214-4.9,2.394-9.795,3.585-14.694.332-1.367.927-2.781,2.571-3.163a3.943,3.943,0,0,1,2.8,1.173c1.076,1.091.59,2.439.118,3.715a124.206,124.206,0,0,0-6.795,24.661c-.288,1.936-2.221,2.025-3.788,2.375a1.948,1.948,0,0,1-2.471-1.563c-.633-2.444-1.142-4.914-1.89-7.333a47.183,47.183,0,0,0-1.985-4.667c-.8,1.458-1.63,2.907-2.4,4.376-1.324,2.512-2.722,5-3.883,7.567-.833,1.839-2.5,2.427-4.447,2.145-1.931-.28-2.4-1.95-2.532-3.274-.3-3.088-.213-6.2-.387-9.3a8.885,8.885,0,0,0-.754-2.24,10.235,10.235,0,0,0-1.546,1.869c-1.515,3.132-2.78,6.356-4.451,9.426-.684,1.256-1.073,3.477-3.979,2.494-2.634-.892-2.5-2.867-2.51-4.716-.03-8.124.135-16.25-.05-24.371-.123-5.41-.7-10.814-1.128-16.218a5.556,5.556,0,0,0-.748-1.66,7.379,7.379,0,0,0-1.214,1.406c-1.674,3.447-3.145,6.969-4.981,10.353-.737,1.358-2.681,1.832-4.345,1.359-2.18-.62-2.11-2.5-2.2-4.017-.269-4.536-.349-9.08-.524-13.62a2.228,2.228,0,0,0-.329-.732c-.231.222-.553.412-.682.67q-3.465,6.966-6.885,13.949c-.884,1.806-1.946,3.665-4.747,2.966-2.292-.572-2.418-2.426-2.522-4.228q-.573-9.9-1.405-19.783c-.15-1.781-1.218-4.08,1.529-4.623,2.863-.566,4.852.776,4.511,3.68a17.762,17.762,0,0,0,.383,3.627" fill="#fbd6fc"/>
      <path id="Path_911" data-name="Path 911" d="M76.115,68.488c0-2.323.023-4.646-.022-6.968a3.906,3.906,0,0,0-.462-1.211c-.458.264-1.126.439-1.344.8-2.408,4.04-4.759,8.1-7.1,12.172a3.645,3.645,0,0,1-4,1.621c-2.667-.825-3.129-3.29-3.194-5.261-.241-7.407-.124-14.824-.1-22.236,0-1.154.2-2.419,2.158-2.167,2.258.291,4.137.724,3.949,3.406-.291,4.16-.061,8.348.026,12.524.01.474.523.941.8,1.412.335-.327.807-.609.983-.987,2.411-5.189,4.874-10.364,7.108-15.606.687-1.614,1.806-1.933,3.518-1.742,1.877.21,3.119.733,3.137,2.691.069,7.648.315,15.3.511,22.942a4.524,4.524,0,0,0,.273,1.028,3.786,3.786,0,0,0,.61-.849c2.187-6.278,4.241-12.59,6.6-18.821.562-1.48,1.212-3.916,3.7-3.56,3.14.449,3.3,3.142,3.726,5.312.688,3.514,1.263,7.043,1.9,10.564a3.805,3.805,0,0,0,.343.8,2.649,2.649,0,0,0,.491-.709,54.425,54.425,0,0,0,1.634-17.082,2.594,2.594,0,0,1,1.692-2.619c1.714-.917,2.966-.062,4.183.758,1.073.724.153,1.568.149,2.375a80.483,80.483,0,0,1-1.979,17.369c-.884,3.918-1.8,7.833-2.869,11.718-.42,1.528-1.984,2.25-3.794,2.224-3.178-.044-3.508-2.494-4.006-4.155-.96-3.208-1.2-6.566-1.772-9.858a5.746,5.746,0,0,0-.517-1.217,5.957,5.957,0,0,0-.933,1.165c-2.056,4.7-4,9.435-6.149,14.1a4.164,4.164,0,0,1-4.166,2.744c-2.123-.109-2.782-1.6-3.6-2.939-1.911-3.118-1.043-6.481-1.5-9.744" fill="#c5c2ef"/>
    </g>
  </g>
</svg>
