<?xml version="1.0" encoding="UTF-8"?>
<svg id="Layer_1" data-name="Layer 1" xmlns="http://www.w3.org/2000/svg" viewBox="0 0 113.24 156.26">
  <defs>
    <style>
      .cls-1, .cls-2, .cls-3, .cls-4 {
        stroke: #5b667b;
        stroke-width: 2px;
      }

      .cls-1, .cls-3 {
        fill: #fff;
      }

      .cls-2 {
        fill: none;
      }

      .cls-2, .cls-3 {
        stroke-linecap: round;
        stroke-linejoin: round;
      }

      .cls-4 {
        fill: #5b667b;
      }
    </style>
  </defs>
  <g id="doll">
    <g id="Group_774" data-name="Group 774">
      <path id="Path_12808" data-name="Path 12808" class="cls-3" d="m37.34,121.62c-7.04,5.54-8.29,16.21-10.33,23.81-1.95,2.76-6.12,1.58-2.03,5.65,2.7,1.53,6.53,2.5,8.66.87,1.17-1.02,2.21-2.19,3.09-3.47,1.95-3.51,7.87-4.34,11.19-6.76,8.5-6.11-.57-19.43-10.59-20.09Z"/>
      <path id="Path_12809" data-name="Path 12809" class="cls-1" d="m35.8,89.41c-4.24-.45-8.86,1.67-10.57,4.15-.42-3.84-1.77-6.82-6.05-9.56-4.95-1.82-8.39,3.57-4.18,5.81,3.08,2.57,2.07,8.96,4.03,10.86,3.81,3.69,13.26,1.99,19.26-1.8"/>
      <path id="Path_12810" data-name="Path 12810" class="cls-2" d="m35.8,89.41c-4.24-.45-8.86,1.67-10.57,4.15-.42-3.84-1.77-6.82-6.05-9.56-4.95-1.82-8.39,3.57-4.18,5.81,3.08,2.57,2.07,8.96,4.03,10.86,3.81,3.69,13.26,1.99,19.26-1.8"/>
      <path id="Path_12811" data-name="Path 12811" class="cls-1" d="m41.48,135.54c10.41,4.78,23.9,3.4,32.43-1.9,5.23-3.05,8.67-8.45,9.22-14.48.56-4.61,0-10.34-2-17.54-6.09-21.89-23.27-35.12-43.58-14.27-8.36,8.21-11.88,29.01-6.15,39.97.99,1.41,2.14,2.7,3.41,3.86"/>
      <path id="Path_12812" data-name="Path 12812" class="cls-2" d="m41.48,135.54c10.41,4.78,23.9,3.4,32.43-1.9,5.23-3.05,8.67-8.45,9.22-14.48.56-4.61,0-10.34-2-17.54-6.09-21.89-23.27-35.12-43.58-14.27-8.36,8.21-11.88,29.01-6.15,39.97.99,1.41,2.14,2.7,3.41,3.86"/>
      <path id="Path_12813" data-name="Path 12813" class="cls-1" d="m41.89,89.33C16.87,88.53.84,73.21,1,55.42,1.36,16.61,30.84-2.01,65.03,1.4c34.21,2.37,53.7,33.85,45.24,65.47-2.92,10.92-16.2,24.89-46.52,22.27"/>
      <path id="Path_12814" data-name="Path 12814" class="cls-2" d="m41.89,89.33C16.87,88.53.84,73.21,1,55.42,1.36,16.61,30.84-2.01,65.03,1.4c34.21,2.37,53.7,33.85,45.24,65.47-2.92,10.92-16.2,24.89-46.52,22.27"/>
      <path id="Path_12815" data-name="Path 12815" class="cls-4" d="m73.61,53.82c.08-3.08,2.64-5.51,5.72-5.43,3.08.08,5.51,2.64,5.43,5.72-.08,3.02-2.55,5.43-5.57,5.43-3.12-.04-5.62-2.6-5.57-5.72"/>
      <ellipse id="Ellipse_241" data-name="Ellipse 241" class="cls-2" cx="79.18" cy="53.82" rx="5.57" ry="5.72"/>
      <path id="Path_12816" data-name="Path 12816" class="cls-4" d="m17.56,47.66c.08-3.08,2.64-5.51,5.72-5.43,3.08.08,5.51,2.64,5.43,5.72-.08,3.02-2.55,5.43-5.57,5.43-3.12-.04-5.62-2.6-5.58-5.72"/>
      <ellipse id="Ellipse_242" data-name="Ellipse 242" class="cls-2" cx="23.14" cy="47.66" rx="5.57" ry="5.72"/>
      <path id="Path_12817" data-name="Path 12817" class="cls-1" d="m36.24,58.74c-2.1,1.27-2.78,4-1.51,6.1,0,.01.01.02.02.03,3.83,5.07,12.42,1.86,13.37-4.23.83,5.88,13.6,8.89,13.81,1.62"/>
      <path id="Path_12818" data-name="Path 12818" class="cls-2" d="m36.24,58.74c-2.1,1.27-2.78,4-1.51,6.1,0,.01.01.02.02.03,3.83,5.07,12.42,1.86,13.37-4.23.83,5.88,13.6,8.89,13.81,1.62"/>
      <path id="Path_12819" data-name="Path 12819" class="cls-1" d="m44.36,50.31c2.31-1.82,8.89-1.12,11.57,1.15"/>
      <path id="Path_12820" data-name="Path 12820" class="cls-2" d="m44.36,50.31c2.31-1.82,8.89-1.12,11.57,1.15"/>
      <path id="Path_12821" data-name="Path 12821" class="cls-1" d="m42.81,76.43c3.42.99,7.02,1.12,10.5.4"/>
      <path id="Path_12822" data-name="Path 12822" class="cls-2" d="m42.81,76.43c3.42.99,7.02,1.12,10.5.4"/>
      <path id="Path_12823" data-name="Path 12823" class="cls-1" d="m75.47,89.41c4.24-.45,8.87,1.67,10.57,4.15.18-3.2,1.69-6.18,4.18-8.21.59-.49,1.21-.95,1.86-1.36,4.95-1.82,8.39,3.57,4.18,5.81-3.08,2.57-2.07,8.96-4.03,10.86-3.81,3.69-13.26,1.99-19.26-1.8"/>
      <path id="Path_12824" data-name="Path 12824" class="cls-2" d="m75.47,89.41c4.24-.45,8.87,1.67,10.57,4.15.18-3.2,1.69-6.18,4.18-8.21.59-.49,1.21-.95,1.86-1.36,4.95-1.82,8.39,3.57,4.18,5.81-3.08,2.57-2.07,8.96-4.03,10.86-3.81,3.69-13.26,1.99-19.26-1.8"/>
      <path id="Path_12826" data-name="Path 12826" class="cls-3" d="m55.37,127.69c-4.08,6,3.72,19.01,12.15,22.56,1.58,2.09-1.47,2.33.46,4.08,3,2.72,7.59-1.03,7.92-5.07.24-2.88-1.66-8.21-1.94-10.33-.33-2.59,1.68-6.07,4.57-8.95"/>
    </g>
  </g>
</svg>