<svg xmlns="http://www.w3.org/2000/svg" width="113.408" height="157.339" viewBox="0 0 113.408 157.339">
  <g id="doll" transform="translate(1 1.038)">
    <g id="Group_774" data-name="Group 774">
      <path id="Path_12807" data-name="Path 12807" d="M54.72,211.078c-3.713,8.149.068,18.208,1.735,25.895-.466,3.349-4.711,4.212.792,5.953,3.107.123,6.953-.769,8.091-3.2a18.521,18.521,0,0,0,1.157-4.507c.127-4.012,5-7.466,6.847-11.139,4.75-9.33-9.411-17.006-18.622-13" transform="translate(-22.836 -87.641)" fill="#fff" stroke="#5b667b" stroke-width="2"/>
      <path id="Path_12808" data-name="Path 12808" d="M54.72,211.078c-3.713,8.149.068,18.208,1.735,25.895-.466,3.349-4.711,4.212.792,5.953,3.107.123,6.953-.769,8.091-3.2a18.521,18.521,0,0,0,1.157-4.507c.127-4.012,5-7.466,6.847-11.139C78.092,214.75,63.931,207.074,54.72,211.078Z" transform="translate(-22.836 -87.641)" fill="none" stroke="#5b667b" stroke-linecap="round" stroke-linejoin="round" stroke-width="2"/>
      <path id="Path_12809" data-name="Path 12809" d="M44.831,148.088c-4.235-.447-8.865,1.671-10.57,4.148-.418-3.843-1.768-6.825-6.046-9.563-4.946-1.815-8.394,3.566-4.181,5.809,3.077,2.574,2.071,8.959,4.034,10.861,3.811,3.692,13.261,1.988,19.258-1.8" transform="translate(-10.028 -59.676)" fill="#fff" stroke="#5b667b" stroke-width="2"/>
      <path id="Path_12810" data-name="Path 12810" d="M44.831,148.088c-4.235-.447-8.865,1.671-10.57,4.148-.418-3.843-1.768-6.825-6.046-9.563-4.946-1.815-8.394,3.566-4.181,5.809,3.077,2.574,2.071,8.959,4.034,10.861,3.811,3.692,13.261,1.988,19.258-1.8" transform="translate(-10.028 -59.676)" fill="none" stroke="#5b667b" stroke-linecap="round" stroke-linejoin="round" stroke-width="2"/>
      <path id="Path_12811" data-name="Path 12811" d="M61.411,189.475c10.41,4.78,23.9,3.4,32.43-1.9a18.724,18.724,0,0,0,9.216-14.48c.563-4.609.006-10.339-2-17.539-6.089-21.894-23.274-35.117-43.577-14.274-8.359,8.21-11.877,29.012-6.155,39.969a23.7,23.7,0,0,0,3.411,3.857" transform="translate(-20.928 -54.931)" fill="#fff" stroke="#5b667b" stroke-width="2"/>
      <path id="Path_12812" data-name="Path 12812" d="M61.411,189.475c10.41,4.78,23.9,3.4,32.43-1.9a18.724,18.724,0,0,0,9.216-14.48c.563-4.609.006-10.339-2-17.539-6.089-21.894-23.274-35.117-43.577-14.274-8.359,8.21-11.877,29.012-6.155,39.969a23.7,23.7,0,0,0,3.411,3.857" transform="translate(-20.928 -54.931)" fill="none" stroke="#5b667b" stroke-linecap="round" stroke-linejoin="round" stroke-width="2"/>
      <path id="Path_12813" data-name="Path 12813" d="M42.388,89.833C17.364,89.03,1.337,73.716,1.5,55.925,1.859,17.11,31.338-1.506,65.532,1.9c34.208,2.374,53.7,33.846,45.237,65.468-2.923,10.916-16.2,24.887-46.523,22.269" transform="translate(-1.5 -1.5)" fill="#fff" stroke="#5b667b" stroke-width="2"/>
      <path id="Path_12814" data-name="Path 12814" d="M42.388,89.833C17.364,89.03,1.337,73.716,1.5,55.925,1.859,17.11,31.338-1.506,65.532,1.9c34.208,2.374,53.7,33.846,45.237,65.468-2.923,10.916-16.2,24.887-46.523,22.269" transform="translate(-1.5 -1.5)" fill="none" stroke="#5b667b" stroke-linecap="round" stroke-linejoin="round" stroke-width="2"/>
      <path id="Path_12815" data-name="Path 12815" d="M125.222,87.489A5.577,5.577,0,1,1,130.8,93.21a5.65,5.65,0,0,1-5.575-5.722" transform="translate(-52.617 -34.664)" fill="#5b667b" stroke="#5b667b" stroke-width="2"/>
      <ellipse id="Ellipse_241" data-name="Ellipse 241" cx="5.575" cy="5.722" rx="5.575" ry="5.722" transform="translate(72.604 47.103)" fill="none" stroke="#5b667b" stroke-linecap="round" stroke-linejoin="round" stroke-width="2"/>
      <path id="Path_12816" data-name="Path 12816" d="M29.722,76.989A5.577,5.577,0,1,1,35.3,82.71a5.65,5.65,0,0,1-5.575-5.722" transform="translate(-13.16 -30.325)" fill="#5b667b" stroke="#5b667b" stroke-width="2"/>
      <ellipse id="Ellipse_242" data-name="Ellipse 242" cx="5.575" cy="5.722" rx="5.575" ry="5.722" transform="translate(16.562 40.941)" fill="none" stroke="#5b667b" stroke-linecap="round" stroke-linejoin="round" stroke-width="2"/>
      <path id="Path_12817" data-name="Path 12817" d="M60.03,99.9a4.44,4.44,0,0,0-1.488,6.13c3.831,5.073,12.416,1.858,13.373-4.233.827,5.88,13.6,8.885,13.806,1.619" transform="translate(-24.79 -42.154)" fill="#fff" stroke="#5b667b" stroke-width="2"/>
      <path id="Path_12818" data-name="Path 12818" d="M60.03,99.9a4.44,4.44,0,0,0-1.488,6.13c3.831,5.073,12.416,1.858,13.373-4.233.827,5.88,13.6,8.885,13.806,1.619" transform="translate(-24.79 -42.154)" fill="none" stroke="#5b667b" stroke-linecap="round" stroke-linejoin="round" stroke-width="2"/>
      <path id="Path_12819" data-name="Path 12819" d="M75.39,84.8c2.31-1.818,8.891-1.119,11.571,1.148" transform="translate(-32.029 -35.488)" fill="#fff" stroke="#5b667b" stroke-width="2"/>
      <path id="Path_12820" data-name="Path 12820" d="M75.39,84.8c2.31-1.818,8.891-1.119,11.571,1.148" transform="translate(-32.029 -35.488)" fill="none" stroke="#5b667b" stroke-linecap="round" stroke-linejoin="round" stroke-width="2"/>
      <path id="Path_12821" data-name="Path 12821" d="M72.743,130.049a21.833,21.833,0,0,0,10.5.4" transform="translate(-30.935 -54.612)" fill="#fff" stroke="#5b667b" stroke-width="2"/>
      <path id="Path_12822" data-name="Path 12822" d="M72.743,130.049a21.833,21.833,0,0,0,10.5.4" transform="translate(-30.935 -54.612)" fill="none" stroke="#5b667b" stroke-linecap="round" stroke-linejoin="round" stroke-width="2"/>
      <path id="Path_12823" data-name="Path 12823" d="M126.636,148.088c4.235-.447,8.865,1.671,10.57,4.148a11.385,11.385,0,0,1,4.182-8.205,17.952,17.952,0,0,1,1.864-1.358c4.946-1.815,8.394,3.566,4.181,5.809-3.077,2.574-2.071,8.959-4.034,10.861-3.811,3.692-13.261,1.988-19.258-1.8" transform="translate(-52.171 -59.676)" fill="#fff" stroke="#5b667b" stroke-width="2"/>
      <path id="Path_12824" data-name="Path 12824" d="M126.636,148.088c4.235-.447,8.865,1.671,10.57,4.148a11.385,11.385,0,0,1,4.182-8.205,17.952,17.952,0,0,1,1.864-1.358c4.946-1.815,8.394,3.566,4.181,5.809-3.077,2.574-2.071,8.959-4.034,10.861-3.811,3.692-13.261,1.988-19.258-1.8" transform="translate(-52.171 -59.676)" fill="none" stroke="#5b667b" stroke-linecap="round" stroke-linejoin="round" stroke-width="2"/>
      <path id="Path_12825" data-name="Path 12825" d="M97.97,223.782c-1.6,7.081,10.42,16.329,19.561,16.549,2.239,1.368-.517,2.707,1.927,3.631,3.785,1.432,6.682-3.735,5.519-7.619-.827-2.765-4.553-7.026-5.587-8.9-1.258-2.285-.657-6.264.981-10" transform="translate(-41.298 -90.718)" fill="#fff" stroke="#5b667b" stroke-width="2"/>
      <path id="Path_12826" data-name="Path 12826" d="M97.97,223.782c-1.6,7.081,10.42,16.329,19.561,16.549,2.239,1.368-.517,2.707,1.927,3.631,3.785,1.432,6.682-3.735,5.519-7.619-.827-2.765-4.553-7.026-5.587-8.9-1.258-2.285-.657-6.264.981-10" transform="translate(-41.298 -90.718)" fill="none" stroke="#5b667b" stroke-linecap="round" stroke-linejoin="round" stroke-width="2"/>
    </g>
  </g>
</svg>
