<?xml version="1.0" encoding="UTF-8"?>
<svg id="Layer_1" data-name="Layer 1" xmlns="http://www.w3.org/2000/svg" viewBox="0 0 113.24 156.77">
  <defs>
    <style>
      .cls-1, .cls-2, .cls-3, .cls-4 {
        stroke: #5b667b;
        stroke-width: 2px;
      }

      .cls-1, .cls-3 {
        fill: #fff;
      }

      .cls-2 {
        fill: none;
      }

      .cls-2, .cls-3 {
        stroke-linecap: round;
        stroke-linejoin: round;
      }

      .cls-4 {
        fill: #5b667b;
      }
    </style>
  </defs>
  <g id="doll">
    <g id="Group_774" data-name="Group 774">
      <path class="cls-3" d="m81.49,112.72c1.09,3.88.74,7.09.6,8.1-.65,4.81-2.96,8.16-4.21,9.73l.32.04c-2.93,2.84-4.98,6.3-4.68,8.89.25,2.13,2.1,7.48,1.82,10.35-.38,4.04-5.01,7.73-7.98,4.98-1.92-1.78,1.14-1.98-.42-4.09-5.72-2.48-11.09-9.35-12.61-15.36-1.21.08-2.35.14-3.4.19-.76,2.82-2.72,4.96-2.95,5.13-3.31,2.44-9.22,3.31-11.15,6.83-.87,1.29-1.91,2.46-3.07,3.49-2.12,1.64-5.95.7-8.66-.82-4.12-4.04.06-2.89,1.99-5.66.09-1.78.45-4.46,1.74-7.43,1.8-4.12,4.5-6.67,6.03-7.93.49-.68,1.14-1.73,1.57-3.13.5-1.66.44-2.99.26-5.48-.27-3.91-.41-5.87-.52-6.52-.41-2.41-1.4-6.46-4.17-11.22-.9.94-6.73,6.82-14.59,5.88-.83-.1-6.52-1.75-10-6-1.9-2.32-1.34-5.19,0-6,1.21-.73,3.59-.12,5,2,1.47,1.96,3.75,2,4,2,2.45,0,3.85-1.8,4-2,.76-1.46,3.46-6.21,9.16-8.32,1.24-.46,2.42-.72,3.49-.86.25-.33.51-.66.8-.99.32-.4.67-.8,1.03-1.2.66-.73,15.29-14.48,24.21-10.2,5.17,2.48,3.57,8.68,11.25,13.43,1.46.9,2.75,1.44,3.96,3.06,2.36,3.16.71,5.44,2.3,10.24,1.49,4.49,3.54,4.09,4.88,8.86Z"/>
      <path id="Path_12813" data-name="Path 12813" class="cls-1" d="m41.89,89.33C16.87,88.53.84,73.21,1,55.42,1.36,16.61,30.84-2.01,65.03,1.4c34.21,2.37,53.7,33.85,45.24,65.47-2.92,10.92-16.2,24.89-46.52,22.27"/>
      <path id="Path_12814" data-name="Path 12814" class="cls-2" d="m41.89,89.33C16.87,88.53.84,73.21,1,55.42,1.36,16.61,30.84-2.01,65.03,1.4c34.21,2.37,53.7,33.85,45.24,65.47-2.92,10.92-16.2,24.89-46.52,22.27"/>
      <path id="Path_12815" data-name="Path 12815" class="cls-4" d="m74.9,53.02c.71-3.04,3.31-4.9,5.65-4.59,2.53.34,3.71,3.1,3.78,3.28.68,1.67.59,3.86-.13,4.12-.85.31-1.7-2.4-4.22-3.32-1.87-.68-3.8-.06-5.07.51h-.01Z"/>
      <path id="Path_12816" data-name="Path 12816" class="cls-4" d="m18.41,47.71c.71-3.04,3.68-4.69,6-4,3.12.93,3.62,5.62,3,6-.38.23-1.14-1.15-3-2-2.03-.92-4.24-.57-6,0Z"/>
      <path id="Path_12817" data-name="Path 12817" class="cls-1" d="m36.24,58.74c-2.1,1.27-2.78,4-1.51,6.1,0,.01,0,.02.02.03,3.83,5.07,12.42,1.86,13.37-4.23.83,5.88,13.6,8.89,13.81,1.62"/>
      <path id="Path_12818" data-name="Path 12818" class="cls-2" d="m36.24,58.74c-2.1,1.27-2.78,4-1.51,6.1,0,.01,0,.02.02.03,3.83,5.07,12.42,1.86,13.37-4.23.83,5.88,13.6,8.89,13.81,1.62"/>
      <path id="Path_12819" data-name="Path 12819" class="cls-1" d="m44.36,50.31c2.31-1.82,8.89-1.12,11.57,1.15"/>
      <path id="Path_12820" data-name="Path 12820" class="cls-2" d="m44.36,50.31c2.31-1.82,8.89-1.12,11.57,1.15"/>
      <path id="Path_12821" data-name="Path 12821" class="cls-1" d="m42.81,76.43c3.42.99,7.02,1.12,10.5.4"/>
      <path id="Path_12822" data-name="Path 12822" class="cls-2" d="m42.81,76.43c3.42.99,7.02,1.12,10.5.4"/>
      <path id="Path_12823" data-name="Path 12823" class="cls-1" d="m74.31,93.63c4.24-.45,8.87,1.66,10.57,4.14.18-3.2,1.68-6.18,4.17-8.21.59-.49,1.21-.95,1.86-1.36,4.95-1.82,8.39,3.56,4.19,5.81-3.08,2.57-2.06,8.96-4.02,10.86-3.81,3.69-13.26,2-19.26-1.78"/>
    </g>
  </g>
</svg>