<?xml version="1.0" encoding="UTF-8"?>
<svg id="Layer_1" data-name="Layer 1" xmlns="http://www.w3.org/2000/svg" viewBox="0 0 113.24 153.78">
  <defs>
    <style>
      .cls-1, .cls-2, .cls-3, .cls-4 {
        stroke: #5b667b;
        stroke-width: 2px;
      }

      .cls-1, .cls-3 {
        fill: #fff;
      }

      .cls-2 {
        fill: none;
      }

      .cls-2, .cls-3 {
        stroke-linecap: round;
        stroke-linejoin: round;
      }

      .cls-4 {
        fill: #5b667b;
      }
    </style>
  </defs>
  <g id="doll">
    <g id="Group_774" data-name="Group 774">
      <polygon class="cls-3" points="37.34 121.62 37.34 121.63 37.33 121.63 37.34 121.62"/>
      <path class="cls-1" d="m72.41,129.71c-3.44,2.89-6.97,4.03-10,5-2.59.83-3.43,1.38-4.63,1.2-3.83-.59-6.29-5.44-6.84-6.52-.47-.92-.76-1.72-.94-2.26-5.84,2.52-7.87,5.37-8.61,7.57-.06.16.05.03-1.83,6.78,0,0-.4,1.47-1.3,3.91-.48,1.29-.98,2.52-1.53,3.08-.09.09-.61.57-1.18,1.36,0,0,0,0,0,0-.93,1.12-1.12,1.5-1.91,2.11-2.13,1.63-5.96.66-8.66-.87-4.09-4.07.08-2.89,2.03-5.65.7-1.35,1.86-4.05,1.84-7.61-.02-2.77-.74-4.94-1.28-6.24-.17-1.02-.34-2.46-.26-4.17.08-1.82.4-3.3.78-4.7,1.04-3.82,2.25-5.95,2.87-7.57.95-2.44,1.55-6.24-.26-12-.76.82-5.97,6.3-13.3,5.57-.5-.05-6.41-1.62-10-6-1.9-2.32-1.34-5.19,0-6,1.21-.73,3.59-.12,5,2,1.47,1.96,3.75,2,4,2,2.45,0,3.85-1.8,4-2,.76-1.46,3.46-6.21,9.16-8.32,1.61-.6,3.13-.86,4.42-.95.13-.59.38-1.35.9-2.1,1.57-2.27,5.07-3.08,21.64-.9,8.7,1.14,10.12,1.69,11.57,2.97,3.94,3.5,4.95,9.76,5.12,10.85.34,2.14.14,3.11.78,6.78.6,3.45.94,3.56,1.3,6,.24,1.64.76,5.39-.26,9.91-.37,1.64-1.1,4.05-2.63,6.75Z"/>
      <path id="Path_12813" data-name="Path 12813" class="cls-1" d="m41.89,89.33C16.87,88.53.84,73.21,1,55.42,1.36,16.61,30.84-2.01,65.03,1.4c34.21,2.37,53.7,33.85,45.24,65.47-2.92,10.92-16.2,24.89-46.52,22.27"/>
      <path id="Path_12814" data-name="Path 12814" class="cls-2" d="m41.89,89.33C16.87,88.53.84,73.21,1,55.42,1.36,16.61,30.84-2.01,65.03,1.4c34.21,2.37,53.7,33.85,45.24,65.47-2.92,10.92-16.2,24.89-46.52,22.27"/>
      <path id="Path_12815" data-name="Path 12815" class="cls-4" d="m74.9,53.02c.71-3.04,3.31-4.9,5.65-4.59,2.53.34,3.71,3.1,3.78,3.28.68,1.67.59,3.86-.13,4.12-.85.31-1.7-2.4-4.22-3.32-1.87-.68-3.8-.06-5.07.51,0,0-.01,0-.01,0Z"/>
      <path id="Path_12816" data-name="Path 12816" class="cls-4" d="m18.41,47.71c.71-3.04,3.68-4.69,6-4,3.12.93,3.62,5.62,3,6-.38.23-1.14-1.15-3-2-2.03-.92-4.24-.57-6,0Z"/>
      <path id="Path_12817" data-name="Path 12817" class="cls-1" d="m36.24,58.74c-2.1,1.27-2.78,4-1.51,6.1,0,.01,0,.02.02.03,3.83,5.07,12.42,1.86,13.37-4.23.83,5.88,13.6,8.89,13.81,1.62"/>
      <path id="Path_12818" data-name="Path 12818" class="cls-2" d="m36.24,58.74c-2.1,1.27-2.78,4-1.51,6.1,0,.01,0,.02.02.03,3.83,5.07,12.42,1.86,13.37-4.23.83,5.88,13.6,8.89,13.81,1.62"/>
      <path id="Path_12819" data-name="Path 12819" class="cls-1" d="m44.36,50.31c2.31-1.82,8.89-1.12,11.57,1.15"/>
      <path id="Path_12820" data-name="Path 12820" class="cls-2" d="m44.36,50.31c2.31-1.82,8.89-1.12,11.57,1.15"/>
      <path id="Path_12821" data-name="Path 12821" class="cls-1" d="m42.81,76.43c3.42.99,7.02,1.12,10.5.4"/>
      <path id="Path_12822" data-name="Path 12822" class="cls-2" d="m42.81,76.43c3.42.99,7.02,1.12,10.5.4"/>
      <path id="Path_12823" data-name="Path 12823" class="cls-1" d="m66.81,90.3c2.08-.37,8.41-1.21,14.19,2.53,1.74,1.13,3.04,2.42,4,3.58.49-3.17,2.28-5.99,4.96-7.77.63-.43,1.3-.83,1.98-1.17,5.1-1.33,8,4.37,3.6,6.19-.03.91-.35,7.09-5.06,10.42-5.12,3.62-13.46,2.49-18.99-3.66"/>
      <path id="Path_12826" data-name="Path 12826" class="cls-3" d="m51.72,130.65c-2.08,6.95,9.28,17,18.38,17.85,2.14,1.52-.7,2.67,1.67,3.75,3.68,1.69,6.92-3.27,6.03-7.22-.64-2.82-4.06-7.32-4.96-9.26-1.1-2.37-.23-6.29,1.66-9.91"/>
    </g>
  </g>
</svg>