<?xml version="1.0" encoding="UTF-8"?><svg id="_レイヤー_2" xmlns="http://www.w3.org/2000/svg" xmlns:xlink="http://www.w3.org/1999/xlink" viewBox="0 0 316.8 275.57"><defs><style>.cls-1{fill:url(#_名称未設定グラデーション_145);}.cls-1,.cls-2,.cls-3,.cls-4,.cls-5,.cls-6,.cls-7,.cls-8,.cls-9,.cls-10,.cls-11,.cls-12,.cls-13,.cls-14,.cls-15,.cls-16,.cls-17,.cls-18,.cls-19,.cls-20{stroke:#5b667b;stroke-linejoin:round;stroke-width:2.38px;}.cls-2{fill:url(#_名称未設定グラデーション_144);}.cls-3{fill:url(#_名称未設定グラデーション_119);}.cls-4{fill:url(#_名称未設定グラデーション_87-2);}.cls-5{fill:url(#_名称未設定グラデーション_87-4);}.cls-6{fill:url(#_名称未設定グラデーション_87-3);}.cls-7{fill:url(#_名称未設定グラデーション_87-6);}.cls-8{fill:url(#_名称未設定グラデーション_87-5);}.cls-9{fill:url(#_名称未設定グラデーション_119-3);}.cls-10{fill:url(#_名称未設定グラデーション_119-2);}.cls-11{fill:url(#_名称未設定グラデーション_145-3);}.cls-12{fill:url(#_名称未設定グラデーション_145-2);}.cls-13{fill:url(#_名称未設定グラデーション_144-6);}.cls-14{fill:url(#_名称未設定グラデーション_144-2);}.cls-15{fill:url(#_名称未設定グラデーション_144-4);}.cls-16{fill:url(#_名称未設定グラデーション_144-3);}.cls-17{fill:url(#_名称未設定グラデーション_144-5);}.cls-18{fill:#f8ec00;}.cls-19{fill:#5b667b;}.cls-20{fill:url(#_名称未設定グラデーション_87);}</style><linearGradient id="_名称未設定グラデーション_119" x1="94.36" y1="120.74" x2="94.36" y2="162.49" gradientUnits="userSpaceOnUse"><stop offset="0" stop-color="#786495"/><stop offset="1" stop-color="#008aae"/></linearGradient><linearGradient id="_名称未設定グラデーション_119-2" x1="298.8" y1="127.25" x2="298.8" y2="163.23" xlink:href="#_名称未設定グラデーション_119"/><linearGradient id="_名称未設定グラデーション_119-3" x1="235.23" y1="120.84" x2="235.23" y2="162.67" xlink:href="#_名称未設定グラデーション_119"/><linearGradient id="_名称未設定グラデーション_87" x1="49.57" y1="116.52" x2="49.57" y2="154.8" gradientUnits="userSpaceOnUse"><stop offset="0" stop-color="#ebc0e4"/><stop offset="1" stop-color="#55e8ff"/></linearGradient><linearGradient id="_名称未設定グラデーション_87-2" x1="142.13" y1="116.52" x2="142.13" y2="154.8" xlink:href="#_名称未設定グラデーション_87"/><linearGradient id="_名称未設定グラデーション_87-3" x1="152.61" y1="116.52" x2="152.61" y2="154.8" xlink:href="#_名称未設定グラデーション_87"/><linearGradient id="_名称未設定グラデーション_87-4" x1="294.62" y1="116.52" x2="294.62" y2="154.8" xlink:href="#_名称未設定グラデーション_87"/><linearGradient id="_名称未設定グラデーション_87-5" x1="201.67" y1="116.52" x2="201.67" y2="154.8" xlink:href="#_名称未設定グラデーション_87"/><linearGradient id="_名称未設定グラデーション_87-6" x1="246.67" y1="116.52" x2="246.67" y2="154.8" xlink:href="#_名称未設定グラデーション_87"/><linearGradient id="_名称未設定グラデーション_145" x1="94.36" y1="227.15" x2="94.36" y2="268.91" gradientUnits="userSpaceOnUse"><stop offset="0" stop-color="#78a743"/><stop offset="1" stop-color="#00cf5c"/></linearGradient><linearGradient id="_名称未設定グラデーション_145-2" x1="298.8" y1="233.66" x2="298.8" y2="269.64" xlink:href="#_名称未設定グラデーション_145"/><linearGradient id="_名称未設定グラデーション_145-3" x1="235.23" y1="227.25" x2="235.23" y2="269.08" xlink:href="#_名称未設定グラデーション_145"/><linearGradient id="_名称未設定グラデーション_144" x1="49.57" y1="222.93" x2="49.57" y2="261.21" gradientUnits="userSpaceOnUse"><stop offset="0" stop-color="#ebff90"/><stop offset="1" stop-color="#55ffa9"/></linearGradient><linearGradient id="_名称未設定グラデーション_144-2" x1="142.13" y1="222.93" x2="142.13" y2="261.21" xlink:href="#_名称未設定グラデーション_144"/><linearGradient id="_名称未設定グラデーション_144-3" x1="152.61" y1="222.93" x2="152.61" y2="261.21" xlink:href="#_名称未設定グラデーション_144"/><linearGradient id="_名称未設定グラデーション_144-4" x1="294.62" y1="222.93" x2="294.62" y2="261.21" xlink:href="#_名称未設定グラデーション_144"/><linearGradient id="_名称未設定グラデーション_144-5" x1="201.67" y1="222.93" x2="201.67" y2="261.21" xlink:href="#_名称未設定グラデーション_144"/><linearGradient id="_名称未設定グラデーション_144-6" x1="246.67" y1="222.93" x2="246.67" y2="261.21" xlink:href="#_名称未設定グラデーション_144"/></defs><g id="_レイヤー_1-2"><g><g><path class="cls-3" d="M164.35,95.12c-.38-1.16-1.07-2.15-1.93-2.93-.15-.17-.32-.33-.49-.49-.16-.17-.32-.33-.49-.49-.15-.17-.32-.33-.49-.49-.16-.17-.32-.33-.49-.49-.15-.17-.32-.33-.49-.49-.16-.17-.32-.33-.49-.49-.15-.17-.32-.33-.49-.49-.16-.17-.32-.33-.49-.49-.16-.17-.32-.33-.49-.49-.15-.17-.32-.33-.49-.49-.16-.17-.32-.33-.49-.49-.15-.17-.32-.33-.49-.49-.16-.17-.32-.33-.49-.49-.15-.17-.32-.33-.49-.49-.16-.17-.32-.33-.49-.49-.15-.17-.32-.33-.49-.49-1.27-1.4-3.08-2.26-5.06-2.26h-14.89c-2.96,0-5.58,1.9-6.51,4.71l-22.22,67.69V81.42c0-1.44-.65-2.71-1.66-3.59-.15-.17-.31-.34-.49-.49-.15-.17-.31-.34-.49-.49-.15-.17-.31-.34-.49-.49-.15-.17-.31-.34-.49-.49-.15-.17-.31-.34-.49-.49-.15-.17-.31-.34-.49-.49-.15-.17-.31-.34-.49-.49-.15-.17-.31-.34-.49-.49-.15-.17-.31-.34-.49-.49-.15-.17-.31-.34-.49-.49-.15-.17-.31-.34-.49-.49-.15-.17-.31-.34-.49-.49-.15-.17-.31-.34-.49-.49-.15-.17-.31-.34-.49-.49-.15-.17-.31-.34-.49-.49-.15-.17-.31-.34-.49-.49-.87-1.01-2.15-1.66-3.59-1.66h-20.49c-1.63,0-3.14,.83-4.02,2.21l-17.07,26.83-12.11-18.6c-.24-.37-.53-.69-.86-.98-.15-.18-.31-.34-.49-.49-.15-.18-.32-.34-.49-.49-.15-.18-.31-.34-.49-.49-.15-.18-.31-.34-.49-.49-.15-.18-.31-.34-.49-.49-.15-.18-.31-.34-.49-.49-.15-.18-.31-.34-.49-.49-.15-.18-.31-.34-.49-.49-.15-.18-.31-.34-.49-.49-.15-.18-.31-.34-.49-.49-.15-.18-.31-.34-.49-.49-.15-.18-.31-.34-.49-.49-.15-.18-.31-.34-.49-.49-.15-.18-.31-.34-.49-.49-.15-.18-.31-.34-.49-.49-.15-.18-.31-.34-.49-.49-.9-1.05-2.22-1.67-3.62-1.67H6.32c-2.63,0-4.76,2.13-4.76,4.76v81.6c0,1.44,.65,2.71,1.66,3.59,.15,.17,.31,.34,.49,.49,.15,.17,.31,.34,.49,.49,.15,.17,.31,.34,.49,.49,.15,.17,.31,.34,.49,.49,.15,.17,.31,.34,.49,.49,.15,.17,.31,.34,.49,.49,.15,.17,.31,.34,.49,.49,.15,.17,.31,.34,.49,.49,.15,.17,.31,.34,.49,.49,.15,.17,.31,.34,.49,.49,.15,.17,.31,.34,.49,.49,.15,.17,.31,.34,.49,.49,.15,.17,.31,.34,.49,.49,.15,.17,.31,.34,.49,.49,.15,.17,.31,.34,.49,.49,.15,.17,.31,.34,.49,.49,.87,1.01,2.15,1.66,3.59,1.66H31.14c2.63,0,4.76-2.13,4.76-4.76v-46.81l9.84,14.07c.27,.38,.58,.69,.92,.97,.16,.17,.31,.34,.49,.49,.16,.17,.31,.34,.49,.49,.16,.17,.31,.34,.49,.49,.16,.17,.31,.34,.49,.49,.16,.17,.31,.34,.49,.49,.16,.17,.31,.34,.49,.49,.16,.17,.31,.34,.49,.49,.16,.17,.31,.34,.49,.49,.16,.17,.31,.34,.49,.49,.16,.17,.31,.34,.49,.49,.16,.17,.31,.34,.49,.49,.16,.17,.31,.34,.49,.49,.16,.17,.31,.34,.49,.49,.16,.17,.31,.34,.49,.49,.16,.17,.31,.34,.49,.49,.16,.17,.31,.34,.49,.49,2.01,2.18,5.58,2.05,7.36-.46l9.81-13.85v30.02c0,1.44,.65,2.71,1.66,3.59,.15,.17,.31,.34,.49,.49,.15,.17,.31,.34,.49,.49,.15,.17,.31,.34,.49,.49,.15,.17,.31,.34,.49,.49,.15,.17,.31,.34,.49,.49,.15,.17,.31,.34,.49,.49,.15,.17,.31,.34,.49,.49,.15,.17,.31,.34,.49,.49,.15,.17,.31,.34,.49,.49,.15,.17,.31,.34,.49,.49,.15,.17,.31,.34,.49,.49,.15,.17,.31,.34,.49,.49,.15,.17,.31,.34,.49,.49,.15,.17,.31,.34,.49,.49,.15,.17,.31,.34,.49,.49,.15,.17,.31,.34,.49,.49,.87,1.01,2.15,1.66,3.59,1.66h16.54c2.63,0,4.76-2.13,4.76-4.76v-4.91c.18,.28,.4,.53,.66,.74,.14,.18,.31,.34,.49,.49,.14,.18,.31,.34,.49,.49,.14,.18,.31,.34,.49,.49,.14,.18,.31,.34,.49,.49,.14,.18,.31,.34,.49,.49,.14,.18,.31,.34,.49,.49,.14,.18,.31,.34,.49,.49,.14,.18,.31,.34,.49,.49,.14,.18,.31,.34,.49,.49,.14,.18,.31,.34,.49,.49,.14,.18,.31,.34,.49,.49,.14,.18,.31,.34,.49,.49,.14,.18,.31,.34,.49,.49,.14,.18,.31,.34,.49,.49,.14,.18,.31,.34,.49,.49,.14,.18,.31,.34,.49,.49,.54,.68,1.37,1.14,2.34,1.14h13.65c1.32,0,2.49-.86,2.87-2.13l4.26-14.01c.18-.61,.74-1.02,1.38-1.02h18.5l2.06,6.76c.18,.6,.55,1.11,1.02,1.48,.14,.18,.31,.35,.49,.49,.14,.18,.31,.34,.49,.49,.14,.18,.31,.35,.49,.49,.14,.18,.31,.34,.49,.49,.14,.18,.31,.34,.49,.49,.14,.18,.31,.35,.49,.49,.14,.18,.31,.34,.49,.49,.14,.18,.31,.34,.49,.49,.14,.18,.31,.35,.49,.49,.14,.18,.31,.34,.49,.49,.14,.18,.31,.34,.49,.49,.14,.18,.31,.35,.49,.49,.14,.18,.31,.34,.49,.49,.14,.18,.31,.35,.49,.49,.14,.18,.31,.34,.49,.49,.14,.18,.31,.34,.49,.49,.56,.7,1.41,1.13,2.34,1.13h13.53c2.05,0,3.49-2,2.85-3.94l-22.66-68.72Zm-14.48,30.76h-4.24l2.07-7.1,2.17,7.1Z"/><path class="cls-10" d="M314.04,91.5c-.15-.18-.31-.34-.49-.49-.15-.18-.31-.34-.49-.49-.15-.18-.31-.34-.49-.49-.15-.18-.31-.34-.49-.49-.15-.18-.31-.34-.49-.49-.15-.18-.31-.34-.49-.49-.15-.18-.31-.34-.49-.49-.15-.18-.31-.34-.49-.49-.15-.18-.31-.34-.49-.49-.15-.18-.31-.34-.49-.49-.15-.18-.31-.34-.49-.49-.15-.18-.31-.34-.49-.49-.15-.18-.31-.34-.49-.49-.15-.18-.31-.34-.49-.49-.15-.18-.31-.34-.49-.49-.15-.18-.31-.34-.49-.49-.82-.95-2.01-1.57-3.36-1.57h-16.44c-2.45,0-4.44,1.99-4.44,4.44v68.47c0,1.35,.62,2.55,1.57,3.36,.15,.18,.31,.34,.49,.49,.15,.18,.31,.34,.49,.49,.15,.18,.31,.34,.49,.49,.15,.18,.31,.34,.49,.49,.15,.18,.31,.34,.49,.49,.15,.18,.31,.34,.49,.49,.15,.18,.31,.34,.49,.49,.15,.18,.31,.34,.49,.49,.15,.18,.31,.34,.49,.49,.15,.18,.31,.34,.49,.49,.15,.18,.31,.34,.49,.49,.15,.18,.31,.34,.49,.49,.15,.18,.31,.34,.49,.49,.15,.18,.31,.34,.49,.49,.15,.18,.31,.34,.49,.49,.15,.18,.31,.34,.49,.49,.82,.95,2.01,1.57,3.36,1.57h16.44c2.45,0,4.44-1.99,4.44-4.44V94.86c0-1.35-.62-2.55-1.57-3.36Z"/><path class="cls-9" d="M255.03,124.6c-1.44-2.15-1.43-4.95,.02-7.09l24.3-35.93c.95-1.41,.53-3.16-.64-4.09-.14-.18-.3-.34-.49-.49-.14-.18-.31-.34-.49-.49-.14-.18-.3-.34-.49-.49-.14-.18-.3-.34-.49-.49-.14-.18-.3-.34-.49-.49-.14-.18-.31-.34-.49-.49-.14-.18-.3-.34-.49-.49-.14-.18-.3-.34-.49-.49-.14-.18-.31-.34-.49-.49-.14-.18-.3-.34-.49-.49-.14-.18-.3-.34-.49-.49-.14-.18-.3-.34-.49-.49-.14-.18-.3-.34-.49-.49-.14-.18-.31-.34-.49-.49-.14-.18-.3-.34-.49-.49-.14-.18-.3-.34-.49-.49-.54-.67-1.36-1.13-2.36-1.13h-16.91c-2.16,0-4.17,1.1-5.34,2.91l-23.66,36.77v-27.15c0-1.35-.62-2.55-1.57-3.36-.15-.18-.31-.34-.49-.49-.15-.18-.31-.34-.49-.49-.15-.18-.31-.34-.49-.49-.15-.18-.31-.34-.49-.49-.15-.18-.31-.34-.49-.49-.15-.18-.31-.34-.49-.49-.15-.18-.31-.34-.49-.49-.15-.18-.31-.34-.49-.49-.15-.18-.31-.34-.49-.49-.15-.18-.31-.34-.49-.49-.15-.18-.31-.34-.49-.49-.15-.18-.31-.34-.49-.49-.15-.18-.31-.34-.49-.49-.15-.18-.31-.34-.49-.49-.15-.18-.31-.34-.49-.49-.15-.18-.31-.34-.49-.49-.82-.95-2.01-1.57-3.36-1.57h-16.44c-2.45,0-4.44,1.99-4.44,4.44v82.23c0,1.35,.62,2.55,1.57,3.36,.15,.18,.31,.34,.49,.49,.15,.18,.31,.34,.49,.49,.15,.18,.31,.34,.49,.49,.15,.18,.31,.34,.49,.49,.15,.18,.31,.34,.49,.49,.15,.18,.31,.34,.49,.49,.15,.18,.31,.34,.49,.49,.15,.18,.31,.34,.49,.49,.15,.18,.31,.34,.49,.49,.15,.18,.31,.34,.49,.49,.15,.18,.31,.34,.49,.49,.15,.18,.31,.34,.49,.49,.15,.18,.31,.34,.49,.49,.15,.18,.31,.34,.49,.49,.15,.18,.31,.34,.49,.49,.15,.18,.31,.34,.49,.49,.82,.95,2.01,1.57,3.36,1.57h16.44c2.45,0,4.44-1.99,4.44-4.44v-43.98l23.89,37.41c.32,.5,.71,.94,1.14,1.32,.15,.17,.32,.33,.49,.49,.15,.17,.32,.33,.49,.49,.15,.17,.32,.33,.49,.49,.15,.17,.32,.33,.49,.49,.15,.17,.32,.33,.49,.49,.15,.17,.32,.33,.49,.49,.15,.17,.32,.33,.49,.49,.15,.17,.32,.33,.49,.49,.15,.17,.32,.33,.49,.49,.15,.17,.32,.33,.49,.49,.15,.17,.32,.33,.49,.49,.15,.17,.32,.33,.49,.49,.15,.17,.32,.33,.49,.49,.15,.17,.32,.33,.49,.49,.15,.17,.32,.33,.49,.49,.15,.17,.32,.33,.49,.49,1.19,1.32,2.89,2.09,4.7,2.09h18.2c2.42,0,3.87-2.7,2.52-4.72l-25.86-38.65Z"/></g><g><path class="cls-20" d="M97.63,73.1v81.6c0,2.63-2.13,4.76-4.76,4.76h-16.54c-2.63,0-4.76-2.13-4.76-4.76v-48.93c0-.33-.42-.46-.61-.19l-17.48,24.69c-1.9,2.69-5.9,2.68-7.79-.02l-17.51-25.04c-.19-.27-.61-.14-.61,.19v49.31c0,2.63-2.13,4.76-4.76,4.76H6.27c-2.63,0-4.76-2.13-4.76-4.76V73.1c0-2.63,2.13-4.76,4.76-4.76H26.91c1.61,0,3.11,.81,3.99,2.16l18.29,28.1c.31,.48,1.01,.47,1.32,0l17.84-28.05c.87-1.37,2.39-2.21,4.02-2.21h20.49c2.63,0,4.76,2.13,4.76,4.76Z"/><g><path class="cls-4" d="M158.83,129.74l1.64,5.68c.99,3.45-1.59,6.89-5.18,6.89h-24.71c-.63,0-1.19,.41-1.38,1.02l-4.26,14.01c-.38,1.27-1.55,2.13-2.87,2.13h-13.65c-2.04,0-3.49-2-2.85-3.94l22.56-68.71c.92-2.81,3.55-4.71,6.5-4.71h14.89c2.96,0,5.58,1.9,6.5,4.7l22.66,68.72c.64,1.94-.81,3.94-2.85,3.94h-13.53c-1.32,0-2.49-.86-2.87-2.13l-15.77-51.69c-.44-1.43-2.46-1.42-2.88,.02l-5.29,18.14c-.3,1.02,.47,2.04,1.53,2.04h16.63c2.4,0,4.51,1.59,5.18,3.9Z"/><path class="cls-6" d="M143.6,125.84h12.19c1.13,0,2.13,.75,2.45,1.84l3.28,11.37c.47,1.63-.75,3.25-2.45,3.25h-15.47"/></g><path class="cls-5" d="M307.28,86.54v68.47c0,2.45-1.99,4.44-4.44,4.44h-16.44c-2.45,0-4.44-1.99-4.44-4.44V86.54c0-2.45,1.99-4.44,4.44-4.44h16.44c2.45,0,4.44,1.99,4.44,4.44Z"/><path class="cls-8" d="M209.89,159.46h-16.44c-2.45,0-4.44-1.99-4.44-4.44V72.78c0-2.45,1.99-4.44,4.44-4.44h16.44c2.45,0,4.44,1.99,4.44,4.44v82.23c0,2.45-1.99,4.44-4.44,4.44Z"/><path class="cls-7" d="M272.57,154.92l-25.86-38.65c-1.44-2.15-1.43-4.95,.02-7.09l24.3-35.93c1.36-2.01-.08-4.73-2.51-4.73h-16.91c-2.16,0-4.17,1.1-5.34,2.91l-25.01,38.88c-1.34,2.09-1.35,4.76-.01,6.85l25.26,39.54c1.17,1.83,3.18,2.93,5.35,2.93h18.2c2.42,0,3.87-2.7,2.52-4.72Z"/></g><g><path class="cls-1" d="M164.35,201.53c-.38-1.16-1.07-2.15-1.93-2.93-.15-.17-.32-.33-.49-.49-.16-.17-.32-.33-.49-.49-.15-.17-.32-.33-.49-.49-.16-.17-.32-.33-.49-.49-.15-.17-.32-.33-.49-.49-.16-.17-.32-.33-.49-.49-.15-.17-.32-.33-.49-.49-.16-.17-.32-.33-.49-.49-.16-.17-.32-.33-.49-.49-.15-.17-.32-.33-.49-.49-.16-.17-.32-.33-.49-.49-.15-.17-.32-.33-.49-.49-.16-.17-.32-.33-.49-.49-.15-.17-.32-.33-.49-.49-.16-.17-.32-.33-.49-.49-.15-.17-.32-.33-.49-.49-1.27-1.4-3.08-2.26-5.06-2.26h-14.89c-2.96,0-5.58,1.9-6.51,4.71l-22.22,67.69v-73.13c0-1.44-.65-2.71-1.66-3.59-.15-.17-.31-.34-.49-.49-.15-.17-.31-.34-.49-.49-.15-.17-.31-.34-.49-.49-.15-.17-.31-.34-.49-.49-.15-.17-.31-.34-.49-.49-.15-.17-.31-.34-.49-.49-.15-.17-.31-.34-.49-.49-.15-.17-.31-.34-.49-.49-.15-.17-.31-.34-.49-.49-.15-.17-.31-.34-.49-.49-.15-.17-.31-.34-.49-.49-.15-.17-.31-.34-.49-.49-.15-.17-.31-.34-.49-.49-.15-.17-.31-.34-.49-.49-.15-.17-.31-.34-.49-.49-.15-.17-.31-.34-.49-.49-.87-1.01-2.15-1.66-3.59-1.66h-20.49c-1.63,0-3.14,.83-4.02,2.21l-17.07,26.83-12.11-18.6c-.24-.37-.53-.69-.86-.98-.15-.18-.31-.34-.49-.49-.15-.18-.32-.34-.49-.49-.15-.18-.31-.34-.49-.49-.15-.18-.31-.34-.49-.49-.15-.18-.31-.34-.49-.49-.15-.18-.31-.34-.49-.49-.15-.18-.31-.34-.49-.49-.15-.18-.31-.34-.49-.49-.15-.18-.31-.34-.49-.49-.15-.18-.31-.34-.49-.49-.15-.18-.31-.34-.49-.49-.15-.18-.31-.34-.49-.49-.15-.18-.31-.34-.49-.49-.15-.18-.31-.34-.49-.49-.15-.18-.31-.34-.49-.49-.15-.18-.31-.34-.49-.49-.9-1.05-2.22-1.67-3.62-1.67H6.32c-2.63,0-4.76,2.13-4.76,4.76v81.6c0,1.44,.65,2.71,1.66,3.59,.15,.17,.31,.34,.49,.49,.15,.17,.31,.34,.49,.49,.15,.17,.31,.34,.49,.49,.15,.17,.31,.34,.49,.49,.15,.17,.31,.34,.49,.49,.15,.17,.31,.34,.49,.49,.15,.17,.31,.34,.49,.49,.15,.17,.31,.34,.49,.49,.15,.17,.31,.34,.49,.49,.15,.17,.31,.34,.49,.49,.15,.17,.31,.34,.49,.49,.15,.17,.31,.34,.49,.49,.15,.17,.31,.34,.49,.49,.15,.17,.31,.34,.49,.49,.15,.17,.31,.34,.49,.49,.15,.17,.31,.34,.49,.49,.87,1.01,2.15,1.66,3.59,1.66H31.14c2.63,0,4.76-2.13,4.76-4.76v-46.81l9.84,14.07c.27,.38,.58,.69,.92,.97,.16,.17,.31,.34,.49,.49,.16,.17,.31,.34,.49,.49,.16,.17,.31,.34,.49,.49,.16,.17,.31,.34,.49,.49,.16,.17,.31,.34,.49,.49,.16,.17,.31,.34,.49,.49,.16,.17,.31,.34,.49,.49,.16,.17,.31,.34,.49,.49,.16,.17,.31,.34,.49,.49,.16,.17,.31,.34,.49,.49,.16,.17,.31,.34,.49,.49,.16,.17,.31,.34,.49,.49,.16,.17,.31,.34,.49,.49,.16,.17,.31,.34,.49,.49,.16,.17,.31,.34,.49,.49,.16,.17,.31,.34,.49,.49,2.01,2.18,5.58,2.05,7.36-.46l9.81-13.85v30.02c0,1.44,.65,2.71,1.66,3.59,.15,.17,.31,.34,.49,.49,.15,.17,.31,.34,.49,.49,.15,.17,.31,.34,.49,.49,.15,.17,.31,.34,.49,.49,.15,.17,.31,.34,.49,.49,.15,.17,.31,.34,.49,.49,.15,.17,.31,.34,.49,.49,.15,.17,.31,.34,.49,.49,.15,.17,.31,.34,.49,.49,.15,.17,.31,.34,.49,.49,.15,.17,.31,.34,.49,.49,.15,.17,.31,.34,.49,.49,.15,.17,.31,.34,.49,.49,.15,.17,.31,.34,.49,.49,.15,.17,.31,.34,.49,.49,.15,.17,.31,.34,.49,.49,.87,1.01,2.15,1.66,3.59,1.66h16.54c2.63,0,4.76-2.13,4.76-4.76v-4.91c.18,.28,.4,.53,.66,.74,.14,.18,.31,.34,.49,.49,.14,.18,.31,.34,.49,.49,.14,.18,.31,.34,.49,.49,.14,.18,.31,.34,.49,.49,.14,.18,.31,.34,.49,.49,.14,.18,.31,.34,.49,.49,.14,.18,.31,.34,.49,.49,.14,.18,.31,.34,.49,.49,.14,.18,.31,.34,.49,.49,.14,.18,.31,.34,.49,.49,.14,.18,.31,.34,.49,.49,.14,.18,.31,.34,.49,.49,.14,.18,.31,.34,.49,.49,.14,.18,.31,.34,.49,.49,.14,.18,.31,.34,.49,.49,.14,.18,.31,.34,.49,.49,.54,.68,1.37,1.14,2.34,1.14h13.65c1.32,0,2.49-.86,2.87-2.13l4.26-14.01c.18-.61,.74-1.02,1.38-1.02h18.5l2.06,6.76c.18,.6,.55,1.11,1.02,1.48,.14,.18,.31,.35,.49,.49,.14,.18,.31,.34,.49,.49,.14,.18,.31,.35,.49,.49,.14,.18,.31,.34,.49,.49,.14,.18,.31,.34,.49,.49,.14,.18,.31,.35,.49,.49,.14,.18,.31,.34,.49,.49,.14,.18,.31,.34,.49,.49,.14,.18,.31,.35,.49,.49,.14,.18,.31,.34,.49,.49,.14,.18,.31,.34,.49,.49,.14,.18,.31,.35,.49,.49,.14,.18,.31,.34,.49,.49,.14,.18,.31,.35,.49,.49,.14,.18,.31,.34,.49,.49,.14,.18,.31,.34,.49,.49,.56,.7,1.41,1.13,2.34,1.13h13.53c2.05,0,3.49-2,2.85-3.94l-22.66-68.72Zm-14.48,30.76h-4.24l2.07-7.1,2.17,7.1Z"/><path class="cls-12" d="M314.04,197.91c-.15-.18-.31-.34-.49-.49-.15-.18-.31-.34-.49-.49-.15-.18-.31-.34-.49-.49-.15-.18-.31-.34-.49-.49-.15-.18-.31-.34-.49-.49-.15-.18-.31-.34-.49-.49-.15-.18-.31-.34-.49-.49-.15-.18-.31-.34-.49-.49-.15-.18-.31-.34-.49-.49-.15-.18-.31-.34-.49-.49-.15-.18-.31-.34-.49-.49-.15-.18-.31-.34-.49-.49-.15-.18-.31-.34-.49-.49-.15-.18-.31-.34-.49-.49-.15-.18-.31-.34-.49-.49-.15-.18-.31-.34-.49-.49-.82-.95-2.01-1.57-3.36-1.57h-16.44c-2.45,0-4.44,1.99-4.44,4.44v68.47c0,1.35,.62,2.55,1.57,3.36,.15,.18,.31,.34,.49,.49,.15,.18,.31,.34,.49,.49,.15,.18,.31,.34,.49,.49,.15,.18,.31,.34,.49,.49,.15,.18,.31,.34,.49,.49,.15,.18,.31,.34,.49,.49,.15,.18,.31,.34,.49,.49,.15,.18,.31,.34,.49,.49,.15,.18,.31,.34,.49,.49,.15,.18,.31,.34,.49,.49,.15,.18,.31,.34,.49,.49,.15,.18,.31,.34,.49,.49,.15,.18,.31,.34,.49,.49,.15,.18,.31,.34,.49,.49,.15,.18,.31,.34,.49,.49,.15,.18,.31,.34,.49,.49,.82,.95,2.01,1.57,3.36,1.57h16.44c2.45,0,4.44-1.99,4.44-4.44v-68.47c0-1.35-.62-2.55-1.57-3.36Z"/><path class="cls-11" d="M255.03,231.01c-1.44-2.15-1.43-4.95,.02-7.09l24.3-35.93c.95-1.41,.53-3.16-.64-4.09-.14-.18-.3-.34-.49-.49-.14-.18-.31-.34-.49-.49-.14-.18-.3-.34-.49-.49-.14-.18-.3-.34-.49-.49-.14-.18-.3-.34-.49-.49-.14-.18-.31-.34-.49-.49-.14-.18-.3-.34-.49-.49-.14-.18-.3-.34-.49-.49-.14-.18-.31-.34-.49-.49-.14-.18-.3-.34-.49-.49-.14-.18-.3-.34-.49-.49-.14-.18-.3-.34-.49-.49-.14-.18-.3-.34-.49-.49-.14-.18-.31-.34-.49-.49-.14-.18-.3-.34-.49-.49-.14-.18-.3-.34-.49-.49-.54-.67-1.36-1.13-2.36-1.13h-16.91c-2.16,0-4.17,1.1-5.34,2.91l-23.66,36.77v-27.15c0-1.35-.62-2.55-1.57-3.36-.15-.18-.31-.34-.49-.49-.15-.18-.31-.34-.49-.49-.15-.18-.31-.34-.49-.49-.15-.18-.31-.34-.49-.49-.15-.18-.31-.34-.49-.49-.15-.18-.31-.34-.49-.49-.15-.18-.31-.34-.49-.49-.15-.18-.31-.34-.49-.49-.15-.18-.31-.34-.49-.49-.15-.18-.31-.34-.49-.49-.15-.18-.31-.34-.49-.49-.15-.18-.31-.34-.49-.49-.15-.18-.31-.34-.49-.49-.15-.18-.31-.34-.49-.49-.15-.18-.31-.34-.49-.49-.15-.18-.31-.34-.49-.49-.82-.95-2.01-1.57-3.36-1.57h-16.44c-2.45,0-4.44,1.99-4.44,4.44v82.23c0,1.35,.62,2.55,1.57,3.36,.15,.18,.31,.34,.49,.49,.15,.18,.31,.34,.49,.49,.15,.18,.31,.34,.49,.49,.15,.18,.31,.34,.49,.49,.15,.18,.31,.34,.49,.49,.15,.18,.31,.34,.49,.49,.15,.18,.31,.34,.49,.49,.15,.18,.31,.34,.49,.49,.15,.18,.31,.34,.49,.49,.15,.18,.31,.34,.49,.49,.15,.18,.31,.34,.49,.49,.15,.18,.31,.34,.49,.49,.15,.18,.31,.34,.49,.49,.15,.18,.31,.34,.49,.49,.15,.18,.31,.34,.49,.49,.15,.18,.31,.34,.49,.49,.82,.95,2.01,1.57,3.36,1.57h16.44c2.45,0,4.44-1.99,4.44-4.44v-43.98l23.89,37.41c.32,.5,.71,.94,1.14,1.32,.15,.17,.32,.33,.49,.49,.15,.17,.32,.33,.49,.49,.15,.17,.32,.33,.49,.49,.15,.17,.32,.33,.49,.49,.15,.17,.32,.33,.49,.49,.15,.17,.32,.33,.49,.49,.15,.17,.32,.33,.49,.49,.15,.17,.32,.33,.49,.49,.15,.17,.32,.33,.49,.49,.15,.17,.32,.33,.49,.49,.15,.17,.32,.33,.49,.49,.15,.17,.32,.33,.49,.49,.15,.17,.32,.33,.49,.49,.15,.17,.32,.33,.49,.49,.15,.17,.32,.33,.49,.49,.15,.17,.32,.33,.49,.49,1.19,1.32,2.89,2.09,4.7,2.09h18.2c2.42,0,3.87-2.7,2.52-4.72l-25.86-38.65Z"/></g><g><path class="cls-2" d="M97.63,179.51v81.6c0,2.63-2.13,4.76-4.76,4.76h-16.54c-2.63,0-4.76-2.13-4.76-4.76v-48.93c0-.33-.42-.46-.61-.19l-17.48,24.69c-1.9,2.69-5.9,2.68-7.79-.02l-17.51-25.04c-.19-.27-.61-.14-.61,.19v49.31c0,2.63-2.13,4.76-4.76,4.76H6.27c-2.63,0-4.76-2.13-4.76-4.76v-81.6c0-2.63,2.13-4.76,4.76-4.76H26.91c1.61,0,3.11,.81,3.99,2.16l18.29,28.1c.31,.48,1.01,.47,1.32,0l17.84-28.05c.87-1.37,2.39-2.21,4.02-2.21h20.49c2.63,0,4.76,2.13,4.76,4.76Z"/><g><path class="cls-14" d="M158.83,236.15l1.64,5.68c.99,3.45-1.59,6.89-5.18,6.89h-24.71c-.63,0-1.19,.41-1.38,1.02l-4.26,14.01c-.38,1.27-1.55,2.13-2.87,2.13h-13.65c-2.04,0-3.49-2-2.85-3.94l22.56-68.71c.92-2.81,3.55-4.71,6.5-4.71h14.89c2.96,0,5.58,1.9,6.5,4.7l22.66,68.72c.64,1.94-.81,3.94-2.85,3.94h-13.53c-1.32,0-2.49-.86-2.87-2.13l-15.77-51.69c-.44-1.43-2.46-1.42-2.88,.02l-5.29,18.14c-.3,1.02,.47,2.04,1.53,2.04h16.63c2.4,0,4.51,1.59,5.18,3.9Z"/><path class="cls-16" d="M143.6,232.25h12.19c1.13,0,2.13,.75,2.45,1.84l3.28,11.37c.47,1.63-.75,3.25-2.45,3.25h-15.47"/></g><path class="cls-15" d="M307.28,192.95v68.47c0,2.45-1.99,4.44-4.44,4.44h-16.44c-2.45,0-4.44-1.99-4.44-4.44v-68.47c0-2.45,1.99-4.44,4.44-4.44h16.44c2.45,0,4.44,1.99,4.44,4.44Z"/><path class="cls-17" d="M209.89,265.87h-16.44c-2.45,0-4.44-1.99-4.44-4.44v-82.23c0-2.45,1.99-4.44,4.44-4.44h16.44c2.45,0,4.44,1.99,4.44,4.44v82.23c0,2.45-1.99,4.44-4.44,4.44Z"/><path class="cls-13" d="M272.57,261.34l-25.86-38.65c-1.44-2.15-1.43-4.95,.02-7.09l24.3-35.93c1.36-2.01-.08-4.73-2.51-4.73h-16.91c-2.16,0-4.17,1.1-5.34,2.91l-25.01,38.88c-1.34,2.09-1.35,4.76-.01,6.85l25.26,39.54c1.17,1.83,3.18,2.93,5.35,2.93h18.2c2.42,0,3.87-2.7,2.52-4.72Z"/></g><g><path class="cls-19" d="M42.46,31.74c-.18-.18-.35-.36-.53-.53-.18-.18-.35-.36-.53-.53-.18-.18-.35-.36-.53-.53-.18-.18-.35-.36-.53-.53-.18-.18-.35-.36-.53-.53-.18-.18-.35-.36-.53-.53-.18-.18-.35-.36-.53-.53-.18-.18-.35-.36-.53-.53-.18-.18-.35-.36-.53-.53-.18-.18-.35-.36-.53-.53-.18-.18-.35-.36-.53-.53-1.3-1.33-2.79-2.41-4.48-3.21-2.03-.96-4.61-1.93-7.74-2.91-.68-.22-1.29-.42-1.86-.62,.16-.33,.37-.63,.66-.87,.65-.55,1.49-.83,2.52-.83,.5,0,.95,.06,1.37,.15,.04,.03,.08,.04,.13,.06,.11,.23,.29,.41,.53,.53,.11,.23,.29,.41,.53,.53,.11,.23,.29,.41,.53,.53,.11,.23,.29,.41,.53,.53,.11,.23,.29,.41,.53,.53,.11,.23,.29,.41,.53,.53,.19,.41,.64,.69,1.14,.69h12.4c.75,0,1.36-.59,1.28-1.27-.4-3.09-1.66-5.64-3.75-7.67-.17-.18-.35-.36-.53-.53-.17-.18-.35-.36-.53-.53-.17-.18-.35-.36-.53-.53-.17-.18-.35-.36-.53-.53-.17-.18-.35-.36-.53-.53-.17-.18-.35-.36-.53-.53-.17-.18-.35-.36-.53-.53-.17-.18-.35-.36-.53-.53-.17-.18-.35-.36-.53-.53-.17-.18-.35-.36-.53-.53-.17-.18-.35-.36-.53-.53-.63-.69-1.35-1.33-2.17-1.91-3.43-2.45-8.02-3.68-13.77-3.68-3.55,0-6.72,.53-9.53,1.6-2.8,1.07-5,2.63-6.58,4.7-1.59,2.07-2.38,4.55-2.38,7.45s.73,5.17,2.21,6.94c.43,.52,.89,.98,1.36,1.43,.17,.18,.35,.36,.53,.53,.17,.18,.35,.36,.53,.53,.17,.18,.35,.36,.53,.53,.17,.18,.35,.36,.53,.53,.17,.18,.35,.36,.53,.53,.17,.18,.35,.36,.53,.53,.17,.18,.35,.36,.53,.53,.17,.18,.35,.36,.53,.53,.17,.18,.35,.36,.53,.53,.17,.18,.35,.36,.53,.53,.17,.18,.35,.36,.53,.53,1.28,1.33,2.73,2.38,4.36,3.13,1.98,.92,4.59,1.87,7.81,2.84,.67,.2,1.29,.39,1.88,.58-.2,.36-.48,.68-.86,.94-.82,.58-1.86,.86-3.12,.86-.42,0-.8-.04-1.17-.11-.01,0-.03-.01-.04-.02-.11-.23-.29-.41-.53-.53-.11-.23-.29-.41-.53-.53-.11-.23-.29-.41-.53-.53-.11-.23-.29-.41-.53-.53-.11-.23-.29-.41-.53-.53-.11-.23-.29-.41-.53-.53-.11-.23-.29-.41-.53-.53-.19-.42-.66-.7-1.17-.7H2.48c-.75,0-1.37,.6-1.28,1.28,.43,3.18,1.75,5.8,3.92,7.88,.17,.18,.35,.36,.53,.53,.17,.18,.35,.36,.53,.53,.17,.18,.35,.36,.53,.53,.17,.18,.35,.36,.53,.53,.17,.18,.35,.36,.53,.53,.17,.18,.35,.36,.53,.53,.17,.18,.35,.36,.53,.53,.17,.18,.35,.36,.53,.53,.17,.18,.35,.36,.53,.53,.17,.18,.35,.36,.53,.53,.17,.18,.35,.36,.53,.53,.71,.76,1.52,1.46,2.44,2.08,3.69,2.49,8.41,3.74,14.15,3.74,3.78,0,7.06-.62,9.84-1.85,2.78-1.24,4.91-2.92,6.38-5.05,1.47-2.13,2.21-4.54,2.21-7.22s-.74-4.83-2.21-6.55c-.41-.48-.85-.93-1.31-1.35Z"/><path class="cls-19" d="M122.01,8.7c-.15-.2-.33-.38-.53-.53-.15-.2-.33-.38-.53-.53-.15-.2-.33-.38-.53-.53-.15-.2-.33-.38-.53-.53-.15-.2-.33-.38-.53-.53-.15-.2-.33-.38-.53-.53-.15-.2-.33-.38-.53-.53-.15-.2-.33-.38-.53-.53-.15-.2-.33-.38-.53-.53-.15-.2-.33-.38-.53-.53-.15-.2-.33-.38-.53-.53-.42-.59-1.11-.97-1.88-.97h-7.88c-1.28,0-2.32,1.04-2.32,2.32V44.63c0,.78,.39,1.46,.97,1.88,.15,.2,.33,.38,.53,.53,.15,.2,.33,.38,.53,.53,.15,.2,.33,.38,.53,.53,.15,.2,.33,.38,.53,.53,.15,.2,.33,.38,.53,.53,.15,.2,.33,.38,.53,.53,.15,.2,.33,.38,.53,.53,.15,.2,.33,.38,.53,.53,.15,.2,.33,.38,.53,.53,.15,.2,.33,.38,.53,.53,.15,.2,.33,.38,.53,.53,.42,.59,1.11,.97,1.88,.97h7.88c1.28,0,2.32-1.04,2.32-2.32V10.59c0-.78-.39-1.46-.97-1.88Z"/><path class="cls-19" d="M173.82,32.87c-.17-.19-.35-.36-.53-.53-.17-.19-.35-.36-.53-.53-.17-.19-.35-.36-.53-.53-.17-.19-.35-.36-.53-.53-.17-.19-.35-.36-.53-.53-.17-.19-.35-.36-.53-.53-.06-.06-.12-.12-.17-.18,1.48-.69,2.72-1.66,3.72-2.94,1.39-1.77,2.08-3.97,2.08-6.61,0-3.37-1.09-6.04-3.25-8.04-.17-.18-.34-.36-.53-.53-.17-.18-.35-.36-.53-.53-.17-.18-.34-.36-.53-.53-.17-.18-.35-.36-.53-.53-.17-.18-.34-.36-.53-.53-.17-.18-.35-.36-.53-.53-.17-.18-.34-.36-.53-.53-.17-.18-.35-.36-.53-.53-.17-.18-.34-.36-.53-.53-.17-.18-.34-.36-.53-.53-.17-.18-.35-.36-.53-.53-.37-.4-.76-.78-1.21-1.12-2.62-2.04-6.23-3.07-10.83-3.07h-22.89c-1.28,0-2.32,1.04-2.32,2.32V44.63c0,.78,.39,1.46,.97,1.88,.15,.2,.33,.38,.53,.53,.15,.2,.33,.38,.53,.53,.15,.2,.33,.38,.53,.53,.15,.2,.33,.38,.53,.53,.15,.2,.33,.38,.53,.53,.15,.2,.33,.38,.53,.53,.15,.2,.33,.38,.53,.53,.15,.2,.33,.38,.53,.53,.15,.2,.33,.38,.53,.53,.15,.2,.33,.38,.53,.53,.15,.2,.33,.38,.53,.53,.42,.59,1.11,.97,1.88,.97h7.88c1.28,0,2.32-1.04,2.32-2.32v-3.64c.08,.08,.17,.15,.27,.22,.15,.2,.33,.38,.53,.53,.15,.2,.33,.38,.53,.53,.15,.2,.33,.38,.53,.53,.15,.2,.33,.38,.53,.53,.15,.2,.33,.38,.53,.53,.15,.2,.33,.38,.53,.53,.15,.2,.33,.38,.53,.53,.15,.2,.33,.38,.53,.53,.15,.2,.33,.38,.53,.53,.42,.59,1.11,.97,1.88,.97h6.47c4.77,0,8.48-1.09,11.12-3.26,2.64-2.17,3.96-5.18,3.96-9.01,0-2.6-.78-4.91-2.33-6.93-.35-.45-.73-.87-1.13-1.25Zm-17.35-14.64c-.73,1.04-2.09,1.56-4.08,1.56h-3.01c-.19,0-.38,.03-.56,.08v-.47c0-.64,.52-1.16,1.16-1.16h6.49Zm-7.66,10.84c.08,.08,.17,.15,.27,.22,.15,.2,.33,.38,.53,.53,.15,.2,.33,.38,.53,.53,.15,.2,.33,.38,.53,.53,.15,.2,.33,.38,.53,.53,.15,.2,.33,.38,.53,.53,.15,.2,.33,.38,.53,.53,.15,.2,.33,.38,.53,.53,.15,.2,.33,.38,.53,.53,.15,.2,.33,.38,.53,.53,.42,.59,1.11,.97,1.88,.97h1.82c-.69,1.2-2.08,1.81-4.21,1.81h-3.97c-.19,0-.38,.03-.56,.08v-7.86Z"/><path class="cls-19" d="M270.28,17.07v-6.48c0-.78-.39-1.46-.97-1.88-.15-.2-.33-.38-.53-.53-.15-.2-.33-.38-.53-.53-.15-.2-.33-.38-.53-.53-.15-.2-.33-.38-.53-.53-.15-.2-.33-.38-.53-.53-.15-.2-.33-.38-.53-.53-.15-.2-.33-.38-.53-.53-.15-.2-.33-.38-.53-.53-.15-.2-.33-.38-.53-.53-.15-.2-.33-.38-.53-.53-.15-.2-.33-.38-.53-.53-.42-.59-1.11-.97-1.88-.97h-34.11c-1.28,0-2.32,1.04-2.32,2.32v6.48c0,.78,.39,1.46,.97,1.88,.15,.2,.33,.38,.53,.53,.15,.2,.33,.38,.53,.53,.15,.2,.33,.38,.53,.53,.15,.2,.33,.38,.53,.53,.15,.2,.33,.38,.53,.53,.15,.2,.33,.38,.53,.53,.15,.2,.33,.38,.53,.53,.15,.2,.33,.38,.53,.53,.15,.2,.33,.38,.53,.53,.15,.2,.33,.38,.53,.53,.15,.2,.33,.38,.53,.53,.42,.59,1.11,.97,1.88,.97h4.36v25.23c0,.78,.39,1.46,.97,1.88,.15,.2,.33,.38,.53,.53,.15,.2,.33,.38,.53,.53,.15,.2,.33,.38,.53,.53,.15,.2,.33,.38,.53,.53,.15,.2,.33,.38,.53,.53,.15,.2,.33,.38,.53,.53,.15,.2,.33,.38,.53,.53,.15,.2,.33,.38,.53,.53,.15,.2,.33,.38,.53,.53,.15,.2,.33,.38,.53,.53,.15,.2,.33,.38,.53,.53,.42,.59,1.11,.97,1.88,.97h7.88c1.28,0,2.32-1.04,2.32-2.32V19.39h10.85c1.28,0,2.32-1.04,2.32-2.32Z"/><path class="cls-19" d="M214.39,10.71c-.24-.73-.69-1.35-1.26-1.82-.16-.19-.34-.37-.53-.53-.16-.19-.34-.37-.53-.53-.16-.19-.34-.37-.53-.53-.16-.19-.34-.37-.53-.53-.16-.19-.34-.37-.53-.53-.16-.19-.34-.37-.53-.53-.16-.19-.34-.37-.53-.53-.16-.19-.34-.37-.53-.53-.16-.19-.34-.37-.53-.53-.16-.19-.34-.37-.53-.53-.16-.19-.34-.37-.53-.53-.75-.9-1.86-1.46-3.09-1.46h-8.73c-1.74,0-3.27,1.11-3.81,2.76l-13.23,40.3c-.26,.8,.08,1.61,.73,2.02,.14,.21,.32,.39,.53,.53,.14,.21,.32,.39,.53,.53,.14,.21,.32,.39,.53,.53,.14,.21,.32,.39,.53,.53,.14,.21,.32,.39,.53,.53,.14,.21,.32,.39,.53,.53,.14,.21,.32,.39,.53,.53,.14,.21,.32,.39,.53,.53,.14,.21,.32,.39,.53,.53,.14,.21,.32,.39,.53,.53,.14,.21,.32,.39,.53,.53,.31,.48,.84,.82,1.48,.82h8c.78,0,1.46-.51,1.69-1.25l2.5-8.22c.11-.36,.44-.6,.81-.6h9.8l.75,2.45c.12,.41,.4,.73,.74,.96,.14,.22,.32,.39,.53,.53,.14,.22,.32,.39,.53,.53,.14,.22,.32,.39,.53,.53,.14,.22,.32,.39,.53,.53,.14,.22,.32,.39,.53,.53,.14,.22,.32,.39,.53,.53,.14,.22,.32,.39,.53,.53,.14,.22,.32,.39,.53,.53,.14,.22,.32,.39,.53,.53,.14,.22,.32,.39,.53,.53,.14,.22,.32,.39,.53,.53,.32,.5,.86,.82,1.48,.82h7.94c1.2,0,2.05-1.17,1.67-2.31l-13.29-40.3Zm-10.54,16.53l.26-.89,.27,.89h-.53Z"/><path class="cls-19" d="M313.24,51.01l-13.29-40.3c-.24-.73-.69-1.35-1.26-1.82-.16-.19-.34-.37-.53-.53-.16-.19-.34-.37-.53-.53-.16-.19-.34-.37-.53-.53-.16-.19-.34-.37-.53-.53-.16-.19-.34-.37-.53-.53-.16-.19-.34-.37-.53-.53-.16-.19-.34-.37-.53-.53-.16-.19-.34-.37-.53-.53-.16-.19-.34-.37-.53-.53-.16-.19-.34-.37-.53-.53-.16-.19-.34-.37-.53-.53-.75-.9-1.86-1.46-3.09-1.46h-8.73c-1.74,0-3.27,1.11-3.81,2.76l-13.23,40.3c-.26,.8,.08,1.61,.73,2.02,.14,.21,.32,.39,.53,.53,.14,.21,.32,.39,.53,.53,.14,.21,.32,.39,.53,.53,.14,.21,.32,.39,.53,.53,.14,.21,.32,.39,.53,.53,.14,.21,.32,.39,.53,.53,.14,.21,.32,.39,.53,.53,.14,.21,.32,.39,.53,.53,.14,.21,.32,.39,.53,.53,.14,.21,.32,.39,.53,.53,.14,.21,.32,.39,.53,.53,.31,.48,.84,.82,1.48,.82h8c.78,0,1.46-.51,1.69-1.25l2.5-8.22c.11-.36,.44-.6,.81-.6h9.8l.75,2.45c.12,.41,.4,.73,.74,.96,.14,.22,.32,.39,.53,.53,.14,.22,.32,.39,.53,.53,.14,.22,.32,.39,.53,.53,.14,.22,.32,.39,.53,.53,.14,.22,.32,.39,.53,.53,.14,.22,.32,.39,.53,.53,.14,.22,.32,.39,.53,.53,.14,.22,.32,.39,.53,.53,.14,.22,.32,.39,.53,.53,.14,.22,.32,.39,.53,.53,.14,.22,.32,.39,.53,.53,.32,.5,.86,.82,1.48,.82h7.94c1.2,0,2.05-1.17,1.67-2.31Zm-23.83-23.77l.26-.89,.27,.89h-.53Z"/><path class="cls-19" d="M95.29,8.7c-.15-.2-.33-.38-.53-.53-.15-.2-.33-.38-.53-.53-.15-.2-.33-.38-.53-.53-.15-.2-.33-.38-.53-.53-.15-.2-.33-.38-.53-.53-.15-.2-.33-.38-.53-.53-.15-.2-.33-.38-.53-.53-.15-.2-.33-.38-.53-.53-.15-.2-.33-.38-.53-.53-.15-.2-.33-.38-.53-.53-.15-.2-.33-.38-.53-.53-.42-.59-1.11-.97-1.88-.97h-7.88c-1.28,0-2.32,1.04-2.32,2.32V22.22h-7.07V10.59c0-.78-.39-1.46-.97-1.88-.15-.2-.33-.38-.53-.53-.15-.2-.33-.38-.53-.53-.15-.2-.33-.38-.53-.53-.15-.2-.33-.38-.53-.53-.15-.2-.33-.38-.53-.53-.15-.2-.33-.38-.53-.53-.15-.2-.33-.38-.53-.53-.15-.2-.33-.38-.53-.53-.15-.2-.33-.38-.53-.53-.15-.2-.33-.38-.53-.53-.15-.2-.33-.38-.53-.53-.42-.59-1.11-.97-1.88-.97h-7.88c-1.28,0-2.32,1.04-2.32,2.32V44.63c0,.78,.39,1.46,.97,1.88,.15,.2,.33,.38,.53,.53,.15,.2,.33,.38,.53,.53,.15,.2,.33,.38,.53,.53,.15,.2,.33,.38,.53,.53,.15,.2,.33,.38,.53,.53,.15,.2,.33,.38,.53,.53,.15,.2,.33,.38,.53,.53,.15,.2,.33,.38,.53,.53,.15,.2,.33,.38,.53,.53,.15,.2,.33,.38,.53,.53,.15,.2,.33,.38,.53,.53,.42,.59,1.11,.97,1.88,.97h7.88c1.28,0,2.32-1.04,2.32-2.32v-11.21c0-.64,.52-1.16,1.16-1.16h5.91v6.01c0,.78,.39,1.46,.97,1.88,.15,.2,.33,.38,.53,.53,.15,.2,.33,.38,.53,.53,.15,.2,.33,.38,.53,.53,.15,.2,.33,.38,.53,.53,.15,.2,.33,.38,.53,.53,.15,.2,.33,.38,.53,.53,.15,.2,.33,.38,.53,.53,.15,.2,.33,.38,.53,.53,.15,.2,.33,.38,.53,.53,.15,.2,.33,.38,.53,.53,.15,.2,.33,.38,.53,.53,.42,.59,1.11,.97,1.88,.97h7.88c1.28,0,2.32-1.04,2.32-2.32V10.59c0-.78-.39-1.46-.97-1.88Z"/></g><g><path class="cls-18" d="M7.03,43.66c-3.34-2.26-5.29-5.4-5.83-9.43-.09-.68,.53-1.28,1.28-1.28H14.59c.59,0,1.15,.36,1.26,.9,.23,1.13,.7,1.98,1.41,2.56,.89,.72,2.03,1.09,3.43,1.09,1.26,0,2.3-.29,3.12-.86,.82-.57,1.22-1.37,1.22-2.4,0-1.32-.68-2.34-2.03-3.07-1.35-.72-3.55-1.53-6.58-2.43-3.22-.98-5.83-1.93-7.81-2.84-1.99-.92-3.71-2.26-5.18-4.03s-2.21-4.08-2.21-6.94,.79-5.38,2.38-7.45c1.59-2.07,3.78-3.63,6.58-4.7,2.8-1.06,5.98-1.6,9.53-1.6,5.75,0,10.33,1.23,13.77,3.68,3.1,2.21,4.89,5.23,5.39,9.05,.09,.68-.53,1.27-1.28,1.27h-12.4c-.59,0-1.13-.37-1.23-.91-.18-.92-.61-1.64-1.27-2.16-.86-.68-1.97-1.02-3.33-1.02-1.03,0-1.87,.28-2.52,.83-.66,.55-.98,1.34-.98,2.36,0,.85,.36,1.59,1.09,2.2,.72,.62,1.62,1.15,2.7,1.6s2.66,1.01,4.76,1.69c3.13,.98,5.71,1.95,7.74,2.91,2.03,.96,3.78,2.3,5.25,4.03,1.47,1.73,2.21,3.91,2.21,6.55s-.74,5.09-2.21,7.22c-1.47,2.13-3.6,3.81-6.38,5.05s-6.06,1.85-9.84,1.85c-5.74,0-10.46-1.25-14.15-3.74Z"/><path class="cls-18" d="M116.61,4.22V44.63c0,1.28-1.04,2.32-2.32,2.32h-7.88c-1.28,0-2.32-1.04-2.32-2.32V4.22c0-1.28,1.04-2.32,2.32-2.32h7.88c1.28,0,2.32,1.04,2.32,2.32Z"/><path class="cls-18" d="M168.58,27.75c-1.56-2.02-3.66-3.33-6.3-3.93,2.3-.64,4.14-1.84,5.53-3.61,1.39-1.77,2.08-3.97,2.08-6.61,0-3.71-1.31-6.58-3.93-8.63-2.62-2.04-6.23-3.07-10.83-3.07h-22.89c-1.28,0-2.32,1.04-2.32,2.32V44.63c0,1.28,1.04,2.32,2.32,2.32h7.88c1.28,0,2.32-1.04,2.32-2.32V13.03c0-.64,.52-1.16,1.16-1.16h8.78c3.15,0,4.73,1.34,4.73,4.03s-1.58,3.9-4.73,3.9h-3.01c-1.28,0-2.32,1.04-2.32,2.32v4.23c0,1.28,1.04,2.32,2.32,2.32h3.91c1.53,0,2.72,.36,3.55,1.09,.83,.72,1.25,1.77,1.25,3.13,0,2.64-1.58,3.96-4.73,3.96h-3.97c-1.28,0-2.32,1.04-2.32,2.32v5.45c0,1.28,1.04,2.32,2.32,2.32h6.47c4.77,0,8.48-1.09,11.12-3.26,2.64-2.17,3.96-5.18,3.96-9.01,0-2.6-.78-4.91-2.33-6.93Z"/><path class="cls-18" d="M263.91,4.22v6.48c0,1.28-1.04,2.32-2.32,2.32h-10.85v31.6c0,1.28-1.04,2.32-2.32,2.32h-7.88c-1.28,0-2.32-1.04-2.32-2.32V13.03h-10.73c-1.28,0-2.32-1.04-2.32-2.32V4.22c0-1.28,1.04-2.32,2.32-2.32h34.11c1.28,0,2.32,1.04,2.32,2.32Z"/><g><path class="cls-18" d="M209.67,29.52l.96,3.33c.58,2.02-.93,4.04-3.04,4.04h-14.49c-.37,0-.7,.24-.81,.6l-2.5,8.22c-.23,.74-.91,1.25-1.69,1.25h-8c-1.2,0-2.05-1.17-1.67-2.31l13.23-40.3c.54-1.65,2.08-2.76,3.81-2.76h8.73c1.73,0,3.27,1.11,3.81,2.76l13.29,40.3c.38,1.14-.47,2.31-1.67,2.31h-7.94c-.77,0-1.46-.51-1.68-1.25l-9.25-30.32c-.26-.84-1.44-.83-1.69,.01l-3.1,10.64c-.17,.6,.27,1.2,.9,1.2h9.75c1.41,0,2.65,.93,3.04,2.28Z"/><path class="cls-18" d="M200.73,27.24h7.15c.66,0,1.25,.44,1.43,1.08l1.92,6.67c.28,.95-.44,1.91-1.43,1.91h-9.08"/></g><g><path class="cls-18" d="M295.23,29.52l.96,3.33c.58,2.02-.93,4.04-3.04,4.04h-14.49c-.37,0-.7,.24-.81,.6l-2.5,8.22c-.23,.74-.91,1.25-1.69,1.25h-8c-1.2,0-2.05-1.17-1.67-2.31l13.23-40.3c.54-1.65,2.08-2.76,3.81-2.76h8.73c1.73,0,3.27,1.11,3.81,2.76l13.29,40.3c.38,1.14-.47,2.31-1.67,2.31h-7.94c-.77,0-1.46-.51-1.68-1.25l-9.25-30.32c-.26-.84-1.44-.83-1.69,.01l-3.1,10.64c-.17,.6,.27,1.2,.9,1.2h9.75c1.41,0,2.65,.93,3.04,2.28Z"/><path class="cls-18" d="M286.3,27.24h7.15c.66,0,1.25,.44,1.43,1.08l1.92,6.67c.28,.95-.44,1.91-1.43,1.91h-9.08"/></g><g><path class="cls-18" d="M79.69,1.89c-1.28,0-2.32,1.04-2.32,2.32V44.63c0,1.28,1.04,2.32,2.32,2.32h7.88c1.28,0,2.32-1.04,2.32-2.32V4.22c0-1.28-1.04-2.32-2.32-2.32h-7.88Z"/><path class="cls-18" d="M63.93,21.06V4.22c0-1.28-1.04-2.32-2.32-2.32h-7.88c-1.28,0-2.32,1.04-2.32,2.32V44.63c0,1.28,1.04,2.32,2.32,2.32h7.88c1.28,0,2.32-1.04,2.32-2.32v-11.21c0-.64,.52-1.16,1.16-1.16h15.98c.64,0,1.16-.52,1.16-1.16v-7.71c0-.64-.52-1.16-1.16-1.16h-15.98c-.64,0-1.16-.52-1.16-1.16Z"/></g></g></g></g></svg>