<svg id="me_bg" xmlns="http://www.w3.org/2000/svg" xmlns:xlink="http://www.w3.org/1999/xlink" width="240" height="240" viewBox="0 0 240 240">
  <defs>
    <clipPath id="clip-path">
      <rect id="Rectangle_173" data-name="Rectangle 173" width="240" height="240" transform="translate(43.719 52.985)" fill="none"/>
    </clipPath>
  </defs>
  <rect id="Rectangle_172" data-name="Rectangle 172" width="240" height="240" fill="#fc758b"/>
  <g id="Group_429" data-name="Group 429" transform="translate(-43.719 -52.985)">
    <g id="Group_428" data-name="Group 428" clip-path="url(#clip-path)">
      <path id="Path_748" data-name="Path 748" d="M129.592,276.241c-1.77,1.1-3.708,2.7-3.3,5.045a3.366,3.366,0,0,0,1.294,2.173c.977.719,2.128.387,2.428,2.132.187,1.087-1.189,2.74-1.768,3.532-.725.992.277,2.187,1.3,2.257,2.539.172,3.04,2.587,2.308,4.552a4.18,4.18,0,0,0-.438,2.909c.592,1.86,3.668,1.868,3.113,3.7-.535,1.761-2.2,2.79-1.28,4.837a3.252,3.252,0,0,0,1.792,1.652c1.75.8,3.823.487,2.2,3.106-1.1,1.766-3.4,3.358-3,5.751.437,2.622,3.258,1.274,4.114,2.974,1.032,2.052-2.654,3.034-2.4,5.354.234,2.148,2.562,2.621,4.331,2.538,1.922-.089,1.933-3.09,0-3-1.644.077.222-.938.654-1.567a4.3,4.3,0,0,0,.721-2.646c-.107-2.129-1.373-3.357-3.111-4.289-.583-.313-.78.14-.947-.505-.176-.682.989-1.481,1.415-2a8.091,8.091,0,0,0,1.731-2.981,3.89,3.89,0,0,0-2.178-4.93c-1.449-.58-2.875-.433-1.788-2.235a7.317,7.317,0,0,0,1.163-2.493,3.159,3.159,0,0,0-.494-2.314c-.615-.906-1.573-.863-2.274-1.509-.91-.836-.833.078-.225-1.874a8.492,8.492,0,0,0,.344-1.246,5.724,5.724,0,0,0-.583-3.464,6.033,6.033,0,0,0-5.16-3.311l1.295,2.257c1.311-1.794,2.63-3.923,2.032-6.251a4.686,4.686,0,0,0-1.092-2.054c-.291-.3-.912-.484-1.1-.782a2.089,2.089,0,0,1,.434-2.719c1.637-1.016.133-3.612-1.514-2.59" fill="#b1dddd"/>
      <path id="Path_749" data-name="Path 749" d="M244.256,313.676a8.691,8.691,0,0,1,5.335-.874c.84.106,1.454-.775,1.5-1.5.078-1.234.173-3.019.93-4.089.994-1.4,2.4-.9,3.873-1.253,1.755-.426,2.49-1.683,2.778-3.365.136-.792-.044-1.146.568-1.716.691-.643,1.163-.249,2.012-.33a3.632,3.632,0,0,0,2.262-.946c1.508-1.5.486-3.33,1.182-5,.92-2.212,4.471-.621,6.423-1.488,2.131-.947,1.68-2.675,2.609-4.4,1.361-2.519,4.88-1.09,7.1-2.437a3.893,3.893,0,0,0,1.589-1.765c.372-.876.45-4.714,2.23-2.9a1.513,1.513,0,0,0,2.356-.3,7.363,7.363,0,0,0,.763-4.814l-1.048,1.845a6.676,6.676,0,0,1,4.231.429,1.494,1.494,0,0,0,1.694-.689,7.581,7.581,0,0,0,.772-3.494,1.5,1.5,0,0,0-3,0l-.362,1.98,1.694-.69a9.374,9.374,0,0,0-5.826-.429,1.54,1.54,0,0,0-1.048,1.845q-.231,1.251-.461,2.5l2.356-.3a4.2,4.2,0,0,0-5.722-.294,4.063,4.063,0,0,0-1.366,2.5c-.249.99.194,1.559-.835,2.153-.758.438-1.844.21-2.681.241-2.956.111-4.691,1.3-5.406,4.187-.533,2.152-1.176,2.293-3.281,2.157a7.21,7.21,0,0,0-3.383.289c-2.673,1.135-1.884,3.432-2.482,5.653-.5,1.842-2.277.684-3.793,1.391a3.253,3.253,0,0,0-1.73,1.938c-.578,1.6.022,2.949-2.041,3.353-1.207.236-2.053.16-3.1.93-2.247,1.65-2.688,4.729-2.853,7.317l1.5-1.5a11.341,11.341,0,0,0-6.849,1.284c-1.717.885-.2,3.474,1.514,2.59" fill="#f9d79b"/>
      <path id="Path_750" data-name="Path 750" d="M153.685,302.362a5.27,5.27,0,1,1,5.271-5.27,5.276,5.276,0,0,1-5.271,5.27m0-7.218a1.948,1.948,0,1,0,1.948,1.948,1.95,1.95,0,0,0-1.948-1.948" fill="#f9d79b"/>
      <path id="Path_751" data-name="Path 751" d="M4.256,313.676a8.691,8.691,0,0,1,5.335-.874c.84.106,1.454-.775,1.5-1.5.078-1.234.173-3.019.93-4.089.994-1.4,2.4-.9,3.873-1.253,1.755-.426,2.49-1.683,2.778-3.365.136-.792-.044-1.146.568-1.716.691-.643,1.163-.249,2.012-.33a3.632,3.632,0,0,0,2.262-.946c1.508-1.5.486-3.33,1.182-5,.92-2.212,4.471-.621,6.423-1.488,2.131-.947,1.68-2.675,2.609-4.4,1.361-2.519,4.88-1.09,7.1-2.437a3.893,3.893,0,0,0,1.589-1.765c.372-.876.45-4.714,2.23-2.9a1.513,1.513,0,0,0,2.356-.3,7.363,7.363,0,0,0,.763-4.814l-1.048,1.845a6.676,6.676,0,0,1,4.231.429,1.494,1.494,0,0,0,1.694-.689,7.581,7.581,0,0,0,.772-3.494,1.5,1.5,0,0,0-3,0q-.182.99-.362,1.98l1.694-.69a9.374,9.374,0,0,0-5.826-.429,1.54,1.54,0,0,0-1.048,1.845l-.461,2.5,2.356-.3a4.2,4.2,0,0,0-5.722-.294,4.063,4.063,0,0,0-1.366,2.5c-.249.99.194,1.559-.835,2.153-.758.438-1.844.21-2.681.241-2.956.111-4.691,1.3-5.406,4.187-.533,2.152-1.176,2.293-3.281,2.157a7.21,7.21,0,0,0-3.383.289c-2.673,1.135-1.884,3.432-2.482,5.653-.5,1.842-2.277.684-3.793,1.391a3.253,3.253,0,0,0-1.73,1.938c-.578,1.6.022,2.949-2.041,3.353-1.207.236-2.053.16-3.1.93-2.247,1.65-2.688,4.729-2.853,7.317l1.5-1.5a11.341,11.341,0,0,0-6.849,1.284c-1.717.885-.2,3.474,1.514,2.59" fill="#f9d79b"/>
      <path id="Path_752" data-name="Path 752" d="M283.719,221.036a5.27,5.27,0,1,1,5.271-5.27,5.276,5.276,0,0,1-5.271,5.27m0-7.218a1.948,1.948,0,1,0,1.948,1.948,1.95,1.95,0,0,0-1.948-1.948" fill="#c088e5"/>
      <path id="Path_753" data-name="Path 753" d="M287.328,164.542a5.27,5.27,0,1,1,5.27-5.27,5.277,5.277,0,0,1-5.27,5.27m0-7.218a1.948,1.948,0,1,0,1.947,1.948,1.95,1.95,0,0,0-1.947-1.948" fill="#f9d79b"/>
      <path id="Path_754" data-name="Path 754" d="M78.266,80.251c-1.335,2.289-4.815,7.3-.466,8.636a7.089,7.089,0,0,0,2.513-.029,1.5,1.5,0,0,1,1.576.267q1.693-.006.918,1.465a3.9,3.9,0,0,1-1.134,2.478c-.938,1.265-2.111,2.711-.733,4.144,1.228,1.277,3.72,1.088,5.278.722a17.063,17.063,0,0,1,1.845-.633l.892-.324.6,1.669c-.167.981-1.493,1.961-1.814,3.03-.948,3.165,2.161,6.036,4.93,3.755,1.492-1.228-.641-3.339-2.121-2.121a3.719,3.719,0,0,1,1-2.337,6.718,6.718,0,0,0,.844-1.247,5.13,5.13,0,0,0,.68-1.923,3.654,3.654,0,0,0-1.009-3.121,3.764,3.764,0,0,0-3.464-.7c-1.1.226-2.072.841-3.176,1.056l-1.638.119a.989.989,0,0,0,.382-.41c.323-1.418,1.72-2.4,1.876-4.069A5.122,5.122,0,0,0,84.723,86.7a4.046,4.046,0,0,0-3.345-1.134c-.694.061-1.969.593-2.314-.483-.176-.548,1.495-2.806,1.792-3.317a1.5,1.5,0,0,0-2.59-1.514" fill="#c088e5"/>
      <path id="Path_755" data-name="Path 755" d="M144.608,180.186l.021-4.047c.007-1.191-.358-3.071,1.234-2.6s2.563,2.888,4.243,3.643a1.52,1.52,0,0,0,2.2-.9c.154-.847.886-5.275,1.86-5.5-.118.027.313.226.7.568.823.73,1.625,1.485,2.437,2.227a1.523,1.523,0,0,0,2.507-.662c.408-1.036.766-2.112,1.231-3.125a4.412,4.412,0,0,1,.936-1.8c.055.215.11.431.166.646.729.685.72,1.628,1.9,1.977,2.406.712,4.08-1.572,4.483-3.592.2-.991-.345-3.273,1.588-2.413.476.211.964,1.179,1.4,1.53a5.124,5.124,0,0,0,3.228,1.222,4.229,4.229,0,0,0,2.731-1.062c.968-.868.812-2.969,1.62-3.573,1.529-1.141.035-3.747-1.514-2.59-1.453,1.084-.976,1.963-1.836,3.352-1.511,2.438-3.214-1.216-4.5-2.121-2.247-1.579-4.675.244-5.323,2.556-.159.566-.066,1.671-.269,2.2-.991,2.6-.633.523-1.113.081-.995-.916-1.311-1.669-2.914-1.429-2.982.446-3.83,5.122-4.7,7.339l2.507-.662c-1.525-1.394-3.67-4.492-6.04-3.747-2.651.832-3.55,5.46-3.97,7.775l2.2-.9c-2.682-1.206-4.058-5.516-7.761-4.242-3.491,1.2-2.237,7.11-2.251,9.832a1.5,1.5,0,0,0,3,0" fill="#c088e5"/>
      <path id="Path_756" data-name="Path 756" d="M265.109,190.743c-2.7.571-6.421,3.671-3.142,6.284.351.28,1.936.821,1.932,1.124-.006.4-1.193,1.108-1.463,1.4a3.366,3.366,0,0,0-1.082,3.277,1.531,1.531,0,0,0,1.446,1.1q3.122.962,1.677,1.6-.391.219-.795.412c-.377.318-.885.454-1.254.805a3.129,3.129,0,0,0-1.026,2.3,1.462,1.462,0,0,0,.743,1.295c1.317.651,2.565,1.154,1.428,2.672-.318.424-1.053.684-1.469,1.021a4.1,4.1,0,0,0-1.7,2.525,3.819,3.819,0,0,0,.821,2.844c.325.464.866.818,1.152,1.3,1.083,1.809.131,2.125-.884,3.291-1.361,1.564-3.55,4.118-1.306,5.993,1.015.848,2.627.24,2.865,1.814.121.8-.775,1.929-1.129,2.625-.714,1.4-1.486,2.783-2.228,4.173-.91,1.7,1.679,3.22,2.59,1.515,1.422-2.662,5.506-7.824,3.121-11.012a3.286,3.286,0,0,0-1.386-1.044c-.339-.14-.937-.1-1.221-.281-.7-.442-.562.032.046-.838,1.032-1.478,2.709-2.382,3.1-4.277a4.421,4.421,0,0,0-1.221-3.825c-.763-.94-1.62-1.32-.773-2.432.417-.547,1.314-.858,1.845-1.319,3.1-2.69.882-5.842-2.132-7.331l.743,1.295c.029-.408,2.252-1.276,2.633-1.625a3.4,3.4,0,0,0,1.218-2.589c-.072-2.916-3.134-3.7-5.453-3.9l1.446,1.1c-.07-.343,1.651-1.55,1.891-1.842a3.447,3.447,0,0,0,.943-2.083,2.955,2.955,0,0,0-.81-2.042c-.378-.4-1.078-.528-1.424-.891l-.637-.276a1.649,1.649,0,0,1,1.7-1.257c1.887-.4,1.088-3.293-.8-2.893" fill="#c088e5"/>
      <path id="Path_757" data-name="Path 757" d="M199.875,71.1c-.487,1.927-.79,4.188.836,5.685,1.753,1.616,2.97.233,4.848.117l-1.295-.743c.677,1.271-.179,2.909.489,4.255a3.1,3.1,0,0,0,2.126,1.676c.616.154,3.463-.528,3.8-.241.09.078-.2,2.443.241,3.054.678.938,1.518.708,2.4,1.116,1.281.592.4-1.238.6,1.044a12.143,12.143,0,0,0-.009,1.527c.72,3.414,4.565,3.335,7.214,2.7l-1.694-.689c.874,1.6-.337,3.6.865,5.18a3.109,3.109,0,0,0,1.813,1.128c.808.174,1.883-.405,2.573-.2.938.276.379,1.188.506,2.242a3.452,3.452,0,0,0,.753,1.96c1.3,1.448,3.8.364,4.884,1.523,1.319,1.415,3.437-.709,2.121-2.121s-2.739-.54-4.183-1.284c-1.181-.609-.145-3.032-1.192-4.323-1.026-1.267-2.081-.84-3.476-.945-1.637-.123-1.31-.935-1.411-2.392a5.147,5.147,0,0,0-.662-2.28,1.532,1.532,0,0,0-1.694-.69c-1.1.265-2.981-.335-3.373-1.487-.137-.4.144-1.084.047-1.573a2.792,2.792,0,0,0-1.1-1.818c-.473-.323-2.4-.288-2.583-.5a14.626,14.626,0,0,0,.066-2.367c-.571-1.541-2.025-1.852-3.493-1.736-1.643.13-2.225.47-2.436-1.314a6.785,6.785,0,0,0-.6-2.957,1.475,1.475,0,0,0-1.295-.743c-1.615.1-3.563,1.052-2.791-2,.473-1.873-2.42-2.672-2.893-.8" fill="#c088e5"/>
      <path id="Path_758" data-name="Path 758" d="M83.79,278.8c-1.8-1.372-.491-3.529,1.057-4.071a3.98,3.98,0,0,1,3.619.72c1.21.786,2.391-.507,2.2-1.694-.138-.871-.624-3.5.12-4.235.834-.818,2.268-.725,3.281-.855a3.29,3.29,0,0,0,2.282-.781c1.478-1.453.453-3.371,1.222-4.933.365-.743.042-.534,1.137-.711.406-.065.861.1,1.284-.008a2.768,2.768,0,0,0,1.857-1.653c.4-.938.131-1.911.322-2.866.482-2.418,2.869-2.164,4.895-1.736a1.525,1.525,0,0,0,1.846-1.845c-.329-2.305-.633-6.715,2.943-6.051,1.419.264,2.482.954,3.772-.072a3.312,3.312,0,0,0,1.117-2.417,10.725,10.725,0,0,1,.031-2.324,2.43,2.43,0,0,1,3.7-1.125,1.508,1.508,0,0,0,2.257-1.295c-.224-1.754-.785-4.925,1.181-5.935,1.112-.571,2.591.14,3.773-.522a3.682,3.682,0,0,0,1.548-4.505c-.649-1.8-3.549-1.026-2.892.8.409,1.138-2.435,1.047-3.056,1.257a5.233,5.233,0,0,0-2.473,1.833c-1.559,2.054-1.39,4.657-1.081,7.075l2.257-1.3a5.338,5.338,0,0,0-5.853-.015,5.18,5.18,0,0,0-2.022,2.327c-.317.758-.163,2.966-.694,3.27-.66.377-2.466-.384-3.5-.123a5.431,5.431,0,0,0-2.717,1.805c-1.928,2.3-1.577,5.349-1.183,8.113l1.845-1.845c-2.789-.589-6.9-.856-8.276,2.3a6.461,6.461,0,0,0-.417,2.328c-.076,1.4.156,1.047-.951,1.377-1.2.358-1.979-.09-2.879,1.127a6.237,6.237,0,0,0-.805,3.281c-.034.383.093,2.045-.3,2.243-.182.092-2.271-.381-2.761-.283-4.265.856-4.231,5.776-3.706,9.1l2.2-1.694c-2.718-1.765-6.727-1.977-8.879.834a5.419,5.419,0,0,0,1.175,7.7c1.534,1.172,3.03-1.433,1.514-2.59" fill="#b1dddd"/>
      <path id="Path_759" data-name="Path 759" d="M146.2,113.845a4.346,4.346,0,0,0,2.56,5.529,4.394,4.394,0,0,0,5.429-2.782c.68-1.81-2.219-2.591-2.893-.8a1.347,1.347,0,0,1-1.619.731,1.4,1.4,0,0,1-.584-1.882c.7-1.8-2.2-2.581-2.893-.8" fill="#f9d79b"/>
      <path id="Path_760" data-name="Path 760" d="M192.258,203.622c-.572-1.062,2.75-.38,2.961-.35a3.093,3.093,0,0,0,2.077-.409c.925-.576,2.6-4.341,2.384-4.417.228.082.75,1.218,1.134,1.454a2.826,2.826,0,0,0,1.655.413c1.78-.091,2.765-1.49,3.435-2.982.787-1.746-1.8-3.273-2.59-1.514s-.854.75-1.613-.064a2.7,2.7,0,0,0-2.239-.773,3.326,3.326,0,0,0-2.185,1.2c-.927,1.116-.595,3.029-1.914,3.472-1.08.364-1.871-.384-3-.238a3.573,3.573,0,0,0-2.069,1.067,3.817,3.817,0,0,0-.629,4.655c.916,1.7,3.506.188,2.591-1.514" fill="#f9d79b"/>
      <path id="Path_761" data-name="Path 761" d="M157.51,257.932c-.692,2.375-.689,6.349,2.775,6.463.5.016,1.031-.349,1.485-.342q.9-.945.5-.111a4.591,4.591,0,0,0,.215,1.2,3.056,3.056,0,0,0,2.156,2.239c.98.235,2.6-.846,3.27-.561.412.178.735,3.964,1.276,4.632a3.183,3.183,0,0,0,5.3-.2,1.5,1.5,0,0,0-2.59-1.515c-.154.267-.707-2-.714-2.074a11.431,11.431,0,0,0-.135-1.345,3.552,3.552,0,0,0-.849-1.8c-1.408-1.393-2.509-.151-4.031-.288-1.37-.123-1.048-2.526-2.425-3.38a2.583,2.583,0,0,0-1.646-.382c-.216.029-.737.374-.888.352-.985-.143-1.124-1.006-.807-2.093a1.5,1.5,0,0,0-2.893-.8" fill="#f9d79b"/>
      <path id="Path_762" data-name="Path 762" d="M69.243,150.789c-.778,1.609-.875,3.435.539,4.761,1.951,1.83,3.378.412,5.471.129l-1.46-.386c.973.86.668,3.672,1.522,4.917a4.317,4.317,0,0,0,2.748,1.906c1.413.224,1.882-.512,3.053-.994,1.114-.459.405-.666,1,.529.232.471.245,1.074.464,1.567a3.37,3.37,0,0,0,1.681,1.867,3.131,3.131,0,0,0,1.636.224c.252-.03,1.772-.739,1.927-.685,1.081.375,1.04,2.428,2.033,3.212a2.554,2.554,0,0,0,2.967.213c1.76-.783.236-3.369-1.514-2.59,1.008-.448-.767-3.164-1.2-3.485a3.251,3.251,0,0,0-2.763-.383c-.54.092-1.467.829-2.058.34-.289-.239-.284-1.226-.409-1.617a3.956,3.956,0,0,0-1.464-2.346,2.809,2.809,0,0,0-2.566-.246c-.454.171-.878.728-1.308.846-1.8.494-2.143-1.243-2.384-2.518-.2-1.078-.347-2.369-1.388-3-.5-.3-4.2-.185-3.93-.752.837-1.73-1.749-3.254-2.59-1.514" fill="#b1dddd"/>
      <path id="Path_763" data-name="Path 763" d="M204.236,122.653c-.522,2.506-.611,5.852,2.376,6.806a4.718,4.718,0,0,0,3.22-.352c2.415-.931,2.208.424,3.066,2.233.926,1.951,3.16,3.419,5.305,2.33.879-.447,1.878-1.252,2.974-.4.541.421.774,1.575,1.18,2.172a4.754,4.754,0,0,0,2.8,2.211,3.88,3.88,0,0,0,3.079-.752c.693-.442,1.06-1.216,1.875-.959.667.21.825,1.2,1.136,1.744.985,1.715,2.464,3.039,4.557,2.207,1.053-.419,1.539-1.435,2.444-1.993,1.642-1.013,2.328,1.214,3.761,1.974,2.1,1.115,4.8-.169,4.561-2.689-.184-1.9-3.186-1.924-3,0-.044-.458-2.351-2.223-2.982-2.524a3.41,3.41,0,0,0-2.177-.273c-1.52.308-3.12,3.086-4.44,2.033-1.254-1-1.029-2.92-2.861-3.574-2.193-.783-3.369,1.527-5.224,1.231-2.035-.324-2.38-3.693-4.553-4.6-2.1-.879-4.942,2.169-6.042-.364-.718-1.656-.642-3.455-2.827-3.825a4.357,4.357,0,0,0-2.289.4,8.469,8.469,0,0,1-1.227.553q-1.083.9-1.5-.456a1.641,1.641,0,0,1-.325-2.333c.392-1.884-2.5-2.69-2.893-.8" fill="#b1dddd"/>
      <path id="Path_764" data-name="Path 764" d="M129.592,36.241c-1.77,1.1-3.708,2.695-3.3,5.045a3.366,3.366,0,0,0,1.294,2.173c.977.719,2.128.387,2.428,2.132.187,1.087-1.189,2.74-1.768,3.532-.725.992.277,2.187,1.3,2.257,2.539.172,3.04,2.587,2.308,4.552a4.18,4.18,0,0,0-.438,2.909c.592,1.86,3.668,1.868,3.113,3.695-.535,1.761-2.2,2.79-1.28,4.837a3.252,3.252,0,0,0,1.792,1.652c1.75.8,3.823.487,2.2,3.106-1.1,1.766-3.4,3.358-3,5.751.437,2.622,3.258,1.274,4.114,2.974,1.032,2.052-2.654,3.034-2.4,5.354.234,2.148,2.562,2.621,4.331,2.538,1.922-.089,1.933-3.09,0-3-1.644.077.222-.938.654-1.567a4.3,4.3,0,0,0,.721-2.646c-.107-2.129-1.373-3.357-3.111-4.289-.583-.313-.78.14-.947-.505-.176-.682.989-1.481,1.415-2a8.091,8.091,0,0,0,1.731-2.981,3.89,3.89,0,0,0-2.178-4.93c-1.449-.58-2.875-.433-1.788-2.235a7.317,7.317,0,0,0,1.163-2.493,3.159,3.159,0,0,0-.494-2.314c-.615-.906-1.573-.863-2.274-1.509-.91-.836-.833.078-.225-1.874a8.492,8.492,0,0,0,.344-1.246,5.724,5.724,0,0,0-.583-3.464,6.033,6.033,0,0,0-5.16-3.311l1.295,2.257c1.311-1.794,2.63-3.923,2.032-6.251a4.686,4.686,0,0,0-1.092-2.054c-.291-.3-.912-.484-1.1-.782a2.089,2.089,0,0,1,.434-2.719c1.637-1.016.133-3.612-1.514-2.59" fill="#b1dddd"/>
      <path id="Path_765" data-name="Path 765" d="M244.256,73.676a8.69,8.69,0,0,1,5.335-.874c.84.106,1.454-.775,1.5-1.5.078-1.234.173-3.019.93-4.089.994-1.4,2.4-.9,3.873-1.253,1.755-.426,2.49-1.683,2.778-3.365.136-.792-.044-1.146.568-1.716.691-.643,1.163-.249,2.012-.33a3.632,3.632,0,0,0,2.262-.946c1.508-1.5.486-3.33,1.182-5,.92-2.212,4.471-.621,6.423-1.488,2.131-.947,1.68-2.675,2.609-4.4,1.361-2.519,4.88-1.09,7.1-2.437a3.893,3.893,0,0,0,1.589-1.765c.372-.876.45-4.714,2.23-2.9a1.513,1.513,0,0,0,2.356-.3,7.362,7.362,0,0,0,.763-4.814l-1.048,1.845a6.675,6.675,0,0,1,4.231.429,1.494,1.494,0,0,0,1.694-.689,7.581,7.581,0,0,0,.772-3.494,1.5,1.5,0,0,0-3,0l-.362,1.98,1.694-.69a9.374,9.374,0,0,0-5.826-.429,1.54,1.54,0,0,0-1.048,1.845q-.231,1.251-.461,2.5l2.356-.3a4.2,4.2,0,0,0-5.722-.294,4.063,4.063,0,0,0-1.366,2.5c-.249.99.194,1.559-.835,2.153-.758.438-1.844.21-2.681.241-2.956.111-4.691,1.3-5.406,4.187-.533,2.152-1.176,2.293-3.281,2.157a7.21,7.21,0,0,0-3.383.289c-2.673,1.135-1.884,3.432-2.482,5.653-.5,1.842-2.277.684-3.793,1.391a3.253,3.253,0,0,0-1.73,1.938c-.578,1.6.022,2.949-2.041,3.353-1.207.236-2.053.16-3.1.93-2.247,1.649-2.688,4.729-2.853,7.317l1.5-1.5a11.341,11.341,0,0,0-6.849,1.284c-1.717.885-.2,3.474,1.514,2.59" fill="#f9d79b"/>
      <path id="Path_766" data-name="Path 766" d="M213.643,238.408c-1.509,1.369-3,3.176-2.367,5.368a3.4,3.4,0,0,0,1.6,2.036c.9.49.994-.038,1.154,1.162.175,1.307-1.06,1.533-1.915,2.2-1.647,1.293-3.058,3.131-2.332,5.335a5.991,5.991,0,0,0,1.572,2.211c1.387,1.412,2.04,1.926,1.194,3.973-.77,1.866-2.1,3.437-1.425,5.585.331,1.058,1.408,1.694,1.76,2.666.516,1.424-.809,2.911-1.339,4.1-1.033,2.321-.347,3.386.531,5.516,1.151,2.789-1.857,4.337-1.557,7.187.2,1.9,3.2,1.921,3,0-.226-2.147,2.235-3.7,2.181-5.965a5.627,5.627,0,0,0-.817-2.426c-.447-.923-1-1.4-.794-2.5a6.3,6.3,0,0,1,.744-1.623c.835-1.7,1.715-3.272.945-5.177-.455-1.126-1.513-1.79-1.663-3-.162-1.3.914-2.5,1.417-3.665a4.822,4.822,0,0,0-.15-4.778c-.507-.789-1.413-1.265-1.9-2.018-1.337-2.046.511-2.932,1.975-4.125s2.606-2.9,2.05-4.871a3.308,3.308,0,0,0-1.529-1.959c-.309-.171-.923-.148-1.149-.367-1.2-1.161.21-2.085.945-2.752,1.433-1.3-.693-3.416-2.121-2.121" fill="#b1dddd"/>
      <path id="Path_767" data-name="Path 767" d="M66.641,212.443l2.79-1.187.922.753c.3.13.529.408.845.53a2.939,2.939,0,0,0,1.977.079c2.11-.678,2.094-3.46,4.488-2.84,1.473.381,2.489,1.344,4.077.53,1.242-.637,1.472-1.6,3.09-1.371a29.217,29.217,0,0,1,4.66,1.553c1.836.612,2.623-2.285.8-2.893-1.952-.65-4.357-1.875-6.43-2.006-1.511-.1-1.8.837-2.937,1.4q-.744,1.194-1.744.2a8.459,8.459,0,0,0-1.313-.637,4.431,4.431,0,0,0-1.416-.343,3.518,3.518,0,0,0-2.85,1.52c-.435.554-.673,1.777-1.6,1.741-.456-.018-1.434-1.031-1.9-1.236a5.206,5.206,0,0,0-4.041-.189,4.126,4.126,0,0,0-2.01,5.913,1.5,1.5,0,0,0,2.59-1.514" fill="#c088e5"/>
      <path id="Path_768" data-name="Path 768" d="M270.829,98.795a3.748,3.748,0,0,0,.2,4.054,3.621,3.621,0,0,0,1.605,1.283,8.411,8.411,0,0,0,1.652.257c.373.335.477,1.489.815,1.966a4.849,4.849,0,0,0,1.585,1.388c1.233.7,4.983.988,4.97,2.777a1.5,1.5,0,0,0,3,0c.023-3.256-3.017-4.095-5.542-4.995-1.9-.677-1.5-2.008-2.635-3.3a2.551,2.551,0,0,0-1.368-.8c-.468-.107-2.425.3-1.7-1.114.886-1.712-1.7-3.231-2.59-1.514" fill="#c088e5"/>
      <path id="Path_769" data-name="Path 769" d="M117.919,186.285h-.4a1.5,1.5,0,1,0,0,3h.4a1.5,1.5,0,0,0,0-3" fill="#f9d79b"/>
      <path id="Path_770" data-name="Path 770" d="M214.719,162.485h.8a1.5,1.5,0,0,0,0-3h-.8a1.5,1.5,0,0,0,0,3" fill="#f9d79b"/>
      <path id="Path_771" data-name="Path 771" d="M189.019,247.764a1.166,1.166,0,0,1-.5,1.275,1.186,1.186,0,0,1-1.551-.464,1.621,1.621,0,0,0,.9.689,1.5,1.5,0,0,0,1.694-2.2,1.9,1.9,0,0,0-1.122-.83,1.941,1.941,0,0,0-1.379.191,1.856,1.856,0,0,0-.932,2.14,1.5,1.5,0,0,0,2.893-.8" fill="#f9d79b"/>
      <path id="Path_772" data-name="Path 772" d="M242.1,264.576c.04.079.129.238.035.076-.15-.26.041.2.005.048a.694.694,0,0,1,0-.1c0-.084,0-.068-.009.047s-.017.131,0,.049c.012-.05.027-.1.044-.148.005,0-.165.28-.021.08.113-.156,0-.007-.054.058.164-.187-.172.04-.034,0a1.872,1.872,0,0,0,.226-.118l-2.053-.538q.125.223-.01-.025c-.016-.18-.024-.212-.023-.1s0,.081.008-.1q.123-.253-.006-.033a1.512,1.512,0,0,0,.538,2.052,1.531,1.531,0,0,0,2.052-.538,2.689,2.689,0,0,0,.032-2.772,1.542,1.542,0,0,0-2.053-.538,3.026,3.026,0,0,0-1.27,4.11,1.51,1.51,0,0,0,2.052.538,1.535,1.535,0,0,0,.538-2.052" fill="#f9d79b"/>
      <path id="Path_773" data-name="Path 773" d="M108.528,122.8a1.577,1.577,0,0,0-.161,2.073,1.681,1.681,0,0,0,1.355.648,1.79,1.79,0,0,0,1.237-.5,1.581,1.581,0,0,0-.045-2.224,1.5,1.5,0,0,0-2.121,2.122c-.112-.194-.224-.387-.335-.581v-.8l-.006.021.385-.662a1.2,1.2,0,0,1,1.769,0c.128.221.257.441.386.662l-.007-.021v.8l-.336.579a1.5,1.5,0,0,0-2.121-2.121" fill="#f9d79b"/>
      <path id="Path_774" data-name="Path 774" d="M101.4,62.18a1.176,1.176,0,0,1-.049.7q-.1.215-.027.084l-.166.219c.134-.164-.29.188-.148.114.121-.063-.4.121-.173.069.194-.044-.233.021-.229.02.072-.007.259.017-.032-.021-.161-.028-.192-.03-.092,0l-.261-.108-.217-.17c-.166-.24-.21-.3-.134-.168a1.5,1.5,0,1,0,2.59-1.514A2.109,2.109,0,0,0,99.98,60.5a2.284,2.284,0,0,0-1.218.914,2.107,2.107,0,0,0-.259,1.567,1.5,1.5,0,0,0,.69.9,1.5,1.5,0,0,0,2.052-.538,1.758,1.758,0,0,0,.151-1.156" fill="#f9d79b"/>
      <path id="Path_775" data-name="Path 775" d="M52.59,81.4a1.874,1.874,0,0,0,3.746-.039,1.634,1.634,0,0,0-.44-1.06,1.528,1.528,0,0,0-1.06-.44c-.737.033-1.595.665-1.5,1.5q.036.4.179-.583l.451-.448q-.187.106.233-.1-.144.032.1-.012a.872.872,0,0,1,.546.074,1.229,1.229,0,0,1,.74,1.1,1.5,1.5,0,0,0-3,0" fill="#f9d79b"/>
      <path id="Path_776" data-name="Path 776" d="M55.252,181.763a1.064,1.064,0,1,1-1.343-1.066,1.63,1.63,0,0,0-.9.689,1.5,1.5,0,0,0,1.694,2.2,2.016,2.016,0,0,0,1.331-1.4,1.933,1.933,0,0,0-.542-1.886,1.964,1.964,0,0,0-3.243,1.462,1.5,1.5,0,0,0,3,0" fill="#f9d79b"/>
      <path id="Path_777" data-name="Path 777" d="M175.965,63.877a1.723,1.723,0,0,0,1.773.053,2.05,2.05,0,0,0,.992-2.262,1.818,1.818,0,0,0-1.237-1.232,1.509,1.509,0,0,0-1.845,1.047,1.536,1.536,0,0,0,1.048,1.845,1.3,1.3,0,0,1-.9-1.17q.085-.473.027-.252c.124-.266.157-.346.1-.241a1.1,1.1,0,0,1,.237-.254,1.007,1.007,0,0,1,.744-.259q.911.367.583.135a1.507,1.507,0,0,0-1.156-.152,1.5,1.5,0,0,0-1.047,1.846,1.747,1.747,0,0,0,.689.9" fill="#f9d79b"/>
      <path id="Path_778" data-name="Path 778" d="M196.359,108.108a1.611,1.611,0,0,1,2.927.877c.105,1.92,3.105,1.933,3,0a4.594,4.594,0,0,0-8.517-2.391c-1.11,1.585,1.489,3.085,2.59,1.514" fill="#f9d79b"/>
      <path id="Path_779" data-name="Path 779" d="M278.312,133.576a3.627,3.627,0,0,0-4.352,3.452c-.072,2.219,1.722,3.774,3.6,4.545a1.511,1.511,0,0,0,1.845-1.048,1.536,1.536,0,0,0-1.047-1.845,2.35,2.35,0,0,1-1.336-1.222c-.112-.332.046-1.089.492-.989,1.881.422,2.684-2.47.8-2.893" fill="#f9d79b"/>
      <path id="Path_780" data-name="Path 780" d="M150.833,214.539a1.818,1.818,0,0,1,2.036,3c-1.413,1.322.712,3.44,2.122,2.122a4.808,4.808,0,0,0-5.672-7.71c-1.7.923-.184,3.514,1.514,2.59" fill="#f9d79b"/>
      <path id="Path_781" data-name="Path 781" d="M65.462,241.164c2.448,1.32,6.066,1.724,7.867-.876,1.315-1.9,1.069-4.925-1.148-6.039-1.72-.865-3.241,1.722-1.514,2.59.683.343.6,1.349.113,1.869-.957,1.019-2.786.415-3.8-.134-1.7-.917-3.216,1.672-1.514,2.59" fill="#b1dddd"/>
      <path id="Path_782" data-name="Path 782" d="M194.5,288.6a6.625,6.625,0,0,0,8.536,8.037c1.809-.636,1.03-3.535-.8-2.892a3.611,3.611,0,0,1-4.845-4.347,1.5,1.5,0,0,0-2.893-.8" fill="#f9d79b"/>
      <path id="Path_783" data-name="Path 783" d="M225.141,212.9a1.784,1.784,0,0,1,3.307,1.275c-.44,1.878,2.452,2.679,2.893.8a4.775,4.775,0,0,0-8.79-3.587,1.5,1.5,0,0,0,2.59,1.514" fill="#c088e5"/>
      <path id="Path_784" data-name="Path 784" d="M245.163,164.214a4.908,4.908,0,1,0,9.4-2.826,1.5,1.5,0,0,0-2.893.8,1.908,1.908,0,1,1-3.612,1.231c-.617-1.818-3.516-1.037-2.893.8" fill="#c088e5"/>
      <path id="Path_785" data-name="Path 785" d="M126.271,148.128c.667-1.3,3.006-1.288,4.135-.716a2.487,2.487,0,0,1,1.134,3.424,1.5,1.5,0,0,0,2.59,1.514,5.525,5.525,0,0,0-2.172-7.515c-2.5-1.384-6.848-1.01-8.277,1.779-.88,1.715,1.708,3.234,2.59,1.514" fill="#c088e5"/>
      <path id="Path_786" data-name="Path 786" d="M59.217,117.252c1.809-1.065,1.629,4.025.687,3.824-1.883-.4-2.687,2.489-.8,2.893,3.026.647,4.682-2.565,4.472-5.185-.231-2.893-2.812-5.927-5.876-4.122a1.5,1.5,0,0,0,1.514,2.59" fill="#c088e5"/>
      <path id="Path_787" data-name="Path 787" d="M167.029,82.3c1.625,1.53,3.678,3.115,6.058,2.508a4.381,4.381,0,0,0,3.183-4.567c-.172-1.907-3.173-1.925-3,0,.082.9-.369,1.747-1.378,1.684-1.078-.067-2.005-1.052-2.742-1.746-1.4-1.323-3.53.794-2.121,2.121" fill="#c088e5"/>
      <path id="Path_788" data-name="Path 788" d="M233.344,284.357a5.687,5.687,0,0,0,8.39-.934c1.151-1.552-1.452-3.05-2.59-1.514a2.646,2.646,0,0,1-3.679.327c-1.441-1.276-3.57.838-2.121,2.121" fill="#c088e5"/>
      <path id="Path_789" data-name="Path 789" d="M197.919,222.485a1.5,1.5,0,0,0,0-3,1.5,1.5,0,0,0,0,3" fill="#c088e5"/>
      <path id="Path_790" data-name="Path 790" d="M178.219,136.585v-1.2a1.5,1.5,0,0,0-3,0v1.2a1.5,1.5,0,0,0,3,0" fill="#c088e5"/>
      <path id="Path_791" data-name="Path 791" d="M272.134,76.4l.788-.812a1.5,1.5,0,0,0-2.121-2.121q-.395.4-.788.812a1.5,1.5,0,0,0,2.121,2.121" fill="#b1dddd"/>
      <path id="Path_792" data-name="Path 792" d="M92.98,137.646l.4-.4a1.5,1.5,0,0,0-2.121-2.121q-.2.2-.4.4a1.5,1.5,0,0,0,2.121,2.121" fill="#c088e5"/>
      <path id="Path_793" data-name="Path 793" d="M90.592,194.185l.008-.052-.575.748-.267.111q-.459.037-.271.037c.076,0,.036-.005-.122-.018a.55.55,0,0,1-.282-.073.613.613,0,0,1-.421-.429q-.339-.627-.281-.321a1.5,1.5,0,0,0,.689.9,1.5,1.5,0,0,0,2.053-.538,1.758,1.758,0,0,0,.151-1.156,1.855,1.855,0,0,0-3.575,0,1.645,1.645,0,0,0,.151,1.156,1.5,1.5,0,0,0,2.742-.358" fill="#c088e5"/>
      <path id="Path_794" data-name="Path 794" d="M114.674,220.507q-1.35.739-1.924-.1a1.234,1.234,0,0,1-.09-1.415l.538-.538-.041.03a1.622,1.622,0,0,0-.689.9,1.535,1.535,0,0,0,.151,1.156,1.517,1.517,0,0,0,2.052.538,1.728,1.728,0,0,0,.822-1.4,1.78,1.78,0,0,0-.5-1.236,1.685,1.685,0,0,0-2.438-.047,1.5,1.5,0,0,0,2.121,2.121" fill="#c088e5"/>
      <path id="Path_795" data-name="Path 795" d="M70.6,294.174a1,1,0,0,1-.1.734c-.171.2-.2.241-.1.133a.843.843,0,0,1-.6.29.932.932,0,0,1-1.033-1.177,1.5,1.5,0,0,0,2.892.8,2.114,2.114,0,0,0-.28-1.667,2.058,2.058,0,0,0-1.743-.936,2.1,2.1,0,0,0-1.924,2.623,1.515,1.515,0,0,0,1.845,1.047,1.531,1.531,0,0,0,1.048-1.845" fill="#c088e5"/>
      <path id="Path_796" data-name="Path 796" d="M168.089,195.055a5.27,5.27,0,1,1,5.271-5.27,5.276,5.276,0,0,1-5.271,5.27m0-7.218a1.948,1.948,0,1,0,1.948,1.948,1.95,1.95,0,0,0-1.948-1.948" fill="#c088e5"/>
      <path id="Path_797" data-name="Path 797" d="M168.089,246a5.27,5.27,0,1,1,5.271-5.27,5.276,5.276,0,0,1-5.271,5.27m0-7.218a1.948,1.948,0,1,0,1.948,1.948,1.95,1.95,0,0,0-1.948-1.948" fill="#c088e5"/>
      <path id="Path_798" data-name="Path 798" d="M267.723,263.6a5.27,5.27,0,1,1,5.271-5.27,5.276,5.276,0,0,1-5.271,5.27m0-7.218a1.948,1.948,0,1,0,1.948,1.948,1.95,1.95,0,0,0-1.948-1.948" fill="#b1dddd"/>
      <path id="Path_799" data-name="Path 799" d="M249.946,119.514a5.27,5.27,0,1,1,5.271-5.27,5.277,5.277,0,0,1-5.271,5.27m0-7.218a1.948,1.948,0,1,0,1.948,1.948,1.95,1.95,0,0,0-1.948-1.948" fill="#c088e5"/>
      <path id="Path_800" data-name="Path 800" d="M113.148,165.7a5.27,5.27,0,1,1,5.27-5.27,5.277,5.277,0,0,1-5.27,5.27m0-7.218a1.948,1.948,0,1,0,1.947,1.948,1.95,1.95,0,0,0-1.947-1.948" fill="#c088e5"/>
      <path id="Path_801" data-name="Path 801" d="M113.994,92.554a5.27,5.27,0,1,1,5.27-5.27,5.277,5.277,0,0,1-5.27,5.27m0-7.218a1.948,1.948,0,1,0,1.947,1.948,1.95,1.95,0,0,0-1.947-1.948" fill="#c088e5"/>
      <path id="Path_802" data-name="Path 802" d="M43.719,221.036a5.27,5.27,0,1,1,5.271-5.27,5.276,5.276,0,0,1-5.271,5.27m0-7.218a1.948,1.948,0,1,0,1.948,1.948,1.95,1.95,0,0,0-1.948-1.948" fill="#c088e5"/>
      <path id="Path_803" data-name="Path 803" d="M158.493,144.116a5.27,5.27,0,1,1,5.271-5.27,5.276,5.276,0,0,1-5.271,5.27m0-7.218a1.948,1.948,0,1,0,1.948,1.948,1.95,1.95,0,0,0-1.948-1.948" fill="#b1dddd"/>
      <path id="Path_804" data-name="Path 804" d="M96.33,237.205a5.27,5.27,0,1,1,5.271-5.27,5.276,5.276,0,0,1-5.271,5.27m0-7.218a1.948,1.948,0,1,0,1.948,1.948,1.95,1.95,0,0,0-1.948-1.948" fill="#f9d79b"/>
      <path id="Path_805" data-name="Path 805" d="M109.9,285.369a5.27,5.27,0,1,1,5.27-5.27,5.277,5.277,0,0,1-5.27,5.27m0-7.218a1.948,1.948,0,1,0,1.947,1.948,1.95,1.95,0,0,0-1.947-1.948" fill="#f9d79b"/>
      <path id="Path_806" data-name="Path 806" d="M234.406,186.992a5.27,5.27,0,1,1,5.27-5.27,5.277,5.277,0,0,1-5.27,5.27m0-7.218a1.948,1.948,0,1,0,1.947,1.948,1.95,1.95,0,0,0-1.947-1.948" fill="#f9d79b"/>
      <path id="Path_807" data-name="Path 807" d="M129.171,115.9a5.27,5.27,0,1,1,5.271-5.27,5.276,5.276,0,0,1-5.271,5.27m0-7.218a1.948,1.948,0,1,0,1.948,1.948,1.95,1.95,0,0,0-1.948-1.948" fill="#f9d79b"/>
      <path id="Path_808" data-name="Path 808" d="M153.685,62.363a5.27,5.27,0,1,1,5.271-5.27,5.276,5.276,0,0,1-5.271,5.27m0-7.218a1.948,1.948,0,1,0,1.948,1.948,1.95,1.95,0,0,0-1.948-1.948" fill="#f9d79b"/>
      <path id="Path_809" data-name="Path 809" d="M47.328,164.542a5.27,5.27,0,1,1,5.27-5.27,5.277,5.277,0,0,1-5.27,5.27m0-7.218a1.948,1.948,0,1,0,1.947,1.948,1.95,1.95,0,0,0-1.947-1.948" fill="#f9d79b"/>
      <path id="Path_810" data-name="Path 810" d="M4.256,73.676A8.69,8.69,0,0,1,9.591,72.8c.84.106,1.454-.775,1.5-1.5.078-1.234.173-3.019.93-4.089.994-1.4,2.4-.9,3.873-1.253,1.755-.426,2.49-1.683,2.778-3.365.136-.792-.044-1.146.568-1.716.691-.643,1.163-.249,2.012-.33a3.632,3.632,0,0,0,2.262-.946c1.508-1.5.486-3.33,1.182-5,.92-2.212,4.471-.621,6.423-1.488,2.131-.947,1.68-2.675,2.609-4.4,1.361-2.519,4.88-1.09,7.1-2.437a3.893,3.893,0,0,0,1.589-1.765c.372-.876.45-4.714,2.23-2.9a1.513,1.513,0,0,0,2.356-.3,7.363,7.363,0,0,0,.763-4.814l-1.048,1.845a6.675,6.675,0,0,1,4.231.429,1.494,1.494,0,0,0,1.694-.689,7.581,7.581,0,0,0,.772-3.494,1.5,1.5,0,0,0-3,0q-.182.99-.362,1.98l1.694-.69a9.374,9.374,0,0,0-5.826-.429,1.54,1.54,0,0,0-1.048,1.845q-.231,1.251-.461,2.5l2.356-.3a4.2,4.2,0,0,0-5.722-.294,4.063,4.063,0,0,0-1.366,2.5c-.249.99.194,1.559-.835,2.153-.758.438-1.844.21-2.681.241-2.956.111-4.691,1.3-5.406,4.187-.533,2.152-1.176,2.293-3.281,2.157a7.21,7.21,0,0,0-3.383.289c-2.673,1.135-1.884,3.432-2.482,5.653-.5,1.842-2.277.684-3.793,1.391a3.253,3.253,0,0,0-1.73,1.938c-.578,1.6.022,2.949-2.041,3.353-1.207.236-2.053.16-3.1.93C8.7,65.634,8.256,68.714,8.091,71.3l1.5-1.5a11.341,11.341,0,0,0-6.849,1.284c-1.717.885-.2,3.474,1.514,2.59" fill="#f9d79b"/>
      <path id="Path_811" data-name="Path 811" d="M30.829,98.795a3.748,3.748,0,0,0,.2,4.054,3.621,3.621,0,0,0,1.6,1.283,8.411,8.411,0,0,0,1.652.257c.373.335.477,1.489.815,1.966a4.849,4.849,0,0,0,1.585,1.388c1.233.7,4.983.988,4.97,2.777a1.5,1.5,0,0,0,3,0c.023-3.256-3.017-4.095-5.542-4.995-1.9-.677-1.5-2.008-2.635-3.3a2.551,2.551,0,0,0-1.368-.8c-.468-.107-2.425.3-1.7-1.114.886-1.712-1.7-3.231-2.59-1.514" fill="#c088e5"/>
      <path id="Path_812" data-name="Path 812" d="M194.5,48.6a6.625,6.625,0,0,0,8.536,8.037c1.809-.636,1.03-3.535-.8-2.892a3.611,3.611,0,0,1-4.845-4.347,1.5,1.5,0,0,0-2.893-.8" fill="#f9d79b"/>
      <path id="Path_813" data-name="Path 813" d="M70.6,54.174a1,1,0,0,1-.1.734c-.171.2-.2.241-.1.133a.843.843,0,0,1-.6.29.932.932,0,0,1-1.033-1.177,1.5,1.5,0,1,0,2.892.8,2.114,2.114,0,0,0-.28-1.667,2.058,2.058,0,0,0-1.743-.936,2.1,2.1,0,0,0-1.924,2.623,1.515,1.515,0,0,0,1.845,1.047A1.531,1.531,0,0,0,70.6,54.174" fill="#c088e5"/>
    </g>
  </g>
</svg>
