<svg id="music_stop" xmlns="http://www.w3.org/2000/svg" width="67" height="67" viewBox="0 0 67 67">
  <circle id="楕円形_244" data-name="楕円形 244" cx="33.5" cy="33.5" r="33.5" fill="#fc7d66"/>
  <g id="グループ_948" data-name="グループ 948" transform="translate(-1110 -431)">
    <path id="パス_21717" data-name="パス 21717" d="M-11.886-8.424V0h-2.052V-5.052L-15.822,0h-1.656l-1.9-5.064V0h-2.052V-8.424H-19l2.364,5.832,2.34-5.832Zm4.692,0v5.04A1.668,1.668,0,0,0-6.822-2.22a1.4,1.4,0,0,0,1.092.408,1.443,1.443,0,0,0,1.1-.408,1.634,1.634,0,0,0,.384-1.164v-5.04H-2.19V-3.4a3.575,3.575,0,0,1-.48,1.908A3.074,3.074,0,0,1-3.96-.312a4.057,4.057,0,0,1-1.806.4,3.956,3.956,0,0,1-1.782-.39A2.907,2.907,0,0,1-8.79-1.482,3.756,3.756,0,0,1-9.246-3.4V-8.424ZM3.5.084a4.333,4.333,0,0,1-1.656-.3A2.7,2.7,0,0,1,.672-1.1,2.426,2.426,0,0,1,.21-2.52H2.394a1.06,1.06,0,0,0,.324.714,1.042,1.042,0,0,0,.72.246,1.126,1.126,0,0,0,.72-.21.7.7,0,0,0,.264-.582.689.689,0,0,0-.21-.516A1.694,1.694,0,0,0,3.7-3.2a8.3,8.3,0,0,0-.87-.3,9.473,9.473,0,0,1-1.332-.5,2.461,2.461,0,0,1-.888-.744A2.073,2.073,0,0,1,.234-6.036a2.208,2.208,0,0,1,.852-1.842,3.5,3.5,0,0,1,2.22-.666,3.541,3.541,0,0,1,2.244.666,2.384,2.384,0,0,1,.912,1.854H4.242a.868.868,0,0,0-.3-.642A1.057,1.057,0,0,0,3.234-6.9a.882.882,0,0,0-.6.2.714.714,0,0,0-.228.57A.707.707,0,0,0,2.79-5.5,6.3,6.3,0,0,0,3.99-5a11.1,11.1,0,0,1,1.326.528,2.524,2.524,0,0,1,.882.732A1.959,1.959,0,0,1,6.57-2.508,2.425,2.425,0,0,1,6.2-1.2a2.563,2.563,0,0,1-1.062.936A3.636,3.636,0,0,1,3.5.084Zm7.584-8.508V0H9.03V-8.424Zm2.34,4.2a4.528,4.528,0,0,1,.54-2.226,3.859,3.859,0,0,1,1.506-1.524,4.372,4.372,0,0,1,2.19-.546,4.19,4.19,0,0,1,2.568.792,3.8,3.8,0,0,1,1.428,2.16H19.4a1.822,1.822,0,0,0-.714-.8,2.008,2.008,0,0,0-1.05-.276,1.96,1.96,0,0,0-1.536.66,2.554,2.554,0,0,0-.588,1.764A2.554,2.554,0,0,0,16.1-2.46a1.96,1.96,0,0,0,1.536.66,2.008,2.008,0,0,0,1.05-.276,1.822,1.822,0,0,0,.714-.8h2.256A3.776,3.776,0,0,1,20.226-.726,4.212,4.212,0,0,1,17.658.06a4.372,4.372,0,0,1-2.19-.546A3.87,3.87,0,0,1,13.962-2,4.494,4.494,0,0,1,13.422-4.224Z" transform="translate(1143.426 458)" fill="#fff"/>
    <rect id="長方形_388" data-name="長方形 388" width="3" height="17" transform="translate(1140 467)" fill="#fff"/>
    <rect id="長方形_389" data-name="長方形 389" width="3" height="17" transform="translate(1146 467)" fill="#fff"/>
  </g>
</svg>
