<svg id="nav93" xmlns="http://www.w3.org/2000/svg" xmlns:xlink="http://www.w3.org/1999/xlink" width="470" height="93" viewBox="0 0 470 93">
  <defs>
    <style>
      .cls-1, .cls-3 {
        fill: #5b667b;
      }

      .cls-2 {
        fill: #fff;
      }

      .cls-10, .cls-11, .cls-12, .cls-13, .cls-14, .cls-15, .cls-16, .cls-17, .cls-18, .cls-19, .cls-20, .cls-21, .cls-22, .cls-3, .cls-4, .cls-5, .cls-6, .cls-7, .cls-8, .cls-9 {
        stroke: #5b667b;
        stroke-linejoin: round;
      }

      .cls-10, .cls-11, .cls-12, .cls-13, .cls-14, .cls-15, .cls-3, .cls-4, .cls-5, .cls-6, .cls-7, .cls-8, .cls-9 {
        stroke-width: 1.5px;
      }

      .cls-4 {
        fill: url(#linear-gradient);
      }

      .cls-5 {
        fill: url(#linear-gradient-2);
      }

      .cls-6 {
        fill: url(#linear-gradient-3);
      }

      .cls-7 {
        fill: url(#linear-gradient-4);
      }

      .cls-8 {
        fill: url(#linear-gradient-5);
      }

      .cls-9 {
        fill: url(#linear-gradient-6);
      }

      .cls-10 {
        fill: url(#linear-gradient-7);
      }

      .cls-11 {
        fill: url(#linear-gradient-8);
      }

      .cls-12 {
        fill: url(#linear-gradient-9);
      }

      .cls-13 {
        fill: url(#linear-gradient-10);
      }

      .cls-14 {
        fill: url(#linear-gradient-11);
      }

      .cls-15 {
        fill: url(#linear-gradient-12);
      }

      .cls-16 {
        fill: url(#linear-gradient-13);
      }

      .cls-17 {
        fill: url(#linear-gradient-14);
      }

      .cls-18 {
        fill: url(#linear-gradient-15);
      }

      .cls-19 {
        fill: url(#linear-gradient-16);
      }

      .cls-20 {
        fill: url(#linear-gradient-17);
      }

      .cls-21 {
        fill: url(#linear-gradient-18);
      }

      .cls-22 {
        fill: #f8ec00;
      }
    </style>
    <linearGradient id="linear-gradient" x1="0.499" y1="0.526" x2="0.499" y2="0.945" gradientUnits="objectBoundingBox">
      <stop offset="0" stop-color="#786495"/>
      <stop offset="1" stop-color="#008aae"/>
    </linearGradient>
    <linearGradient id="linear-gradient-2" x1="0.5" y1="0.527" x2="0.5" y2="0.947" xlink:href="#linear-gradient"/>
    <linearGradient id="linear-gradient-3" x1="0.501" y1="0.527" x2="0.501" y2="0.947" xlink:href="#linear-gradient"/>
    <linearGradient id="linear-gradient-4" x1="0.5" y1="0.529" x2="0.5" y2="0.949" gradientUnits="objectBoundingBox">
      <stop offset="0" stop-color="#ebc0e4"/>
      <stop offset="1" stop-color="#55e8ff"/>
    </linearGradient>
    <linearGradient id="linear-gradient-5" y1="0.445" y2="0.94" xlink:href="#linear-gradient-4"/>
    <linearGradient id="linear-gradient-6" y1="-0.566" y2="1.759" xlink:href="#linear-gradient-4"/>
    <linearGradient id="linear-gradient-7" y1="0.445" y2="0.94" xlink:href="#linear-gradient-4"/>
    <linearGradient id="linear-gradient-8" y1="0.529" y2="0.949" xlink:href="#linear-gradient-4"/>
    <linearGradient id="linear-gradient-9" y1="0.527" y2="0.947" xlink:href="#linear-gradient-4"/>
    <linearGradient id="linear-gradient-10" x1="0.499" y1="0.527" x2="0.499" y2="0.946" gradientUnits="objectBoundingBox">
      <stop offset="0" stop-color="#78a743"/>
      <stop offset="1" stop-color="#00cf5c"/>
    </linearGradient>
    <linearGradient id="linear-gradient-11" x1="0.5" y1="0.527" x2="0.5" y2="0.947" xlink:href="#linear-gradient-10"/>
    <linearGradient id="linear-gradient-12" x1="0.501" y1="0.527" x2="0.501" y2="0.947" xlink:href="#linear-gradient-10"/>
    <linearGradient id="linear-gradient-13" x1="0.5" y1="0.529" x2="0.5" y2="0.949" gradientUnits="objectBoundingBox">
      <stop offset="0" stop-color="#ebff90"/>
      <stop offset="1" stop-color="#55ffa9"/>
    </linearGradient>
    <linearGradient id="linear-gradient-14" y1="0.445" y2="0.94" xlink:href="#linear-gradient-13"/>
    <linearGradient id="linear-gradient-15" y1="-0.566" y2="1.759" xlink:href="#linear-gradient-13"/>
    <linearGradient id="linear-gradient-16" y1="0.445" y2="0.94" xlink:href="#linear-gradient-13"/>
    <linearGradient id="linear-gradient-17" y1="0.529" y2="0.949" xlink:href="#linear-gradient-13"/>
    <linearGradient id="linear-gradient-18" y1="0.527" y2="0.947" xlink:href="#linear-gradient-13"/>
  </defs>
  <rect id="Rectangle_104" data-name="Rectangle 104" class="cls-1" width="470" height="93"/>
  <g id="Group_394" data-name="Group 394" transform="translate(155.407 53)">
    <g id="Group_393" data-name="Group 393" transform="translate(1.593 6)">
      <g id="Group_748" data-name="Group 748">
        <path id="Path_12768" data-name="Path 12768" class="cls-2" d="M6.984-3.708C5.616-1.026,3.708.18,2.556-.756c-.882-.72-1.062-3.384.522-6.012,1.62-2.682,4.356-4.14,4.86-3.6.414.432-.234,1.458-.522,2.412a1.413,1.413,0,0,0,.432,1.728c.216.144.342.036.4-.108.2-.522.45-1.224.72-1.782A2.061,2.061,0,0,0,9.126-9.7a3.335,3.335,0,0,0-.954-1.314,2.353,2.353,0,0,0-2.43-.054C3.726-10.3.522-7.038.594-3.222A3.475,3.475,0,0,0,2.142-.2,3.638,3.638,0,0,0,5.9-.576c.756-.54,1.908-1.89,1.458-3.1C7.272-3.906,7.074-3.906,6.984-3.708Z" transform="translate(-0.593 11.374)"/>
      </g>
    </g>
    <path id="Path_579" data-name="Path 579" class="cls-2" d="M25.576,27.744c-1.414,0-1.767-1.026-1.262-2.491.555-1.632,2.019-3.382,1.75-3.534-.236-.135-2.07,1.01-3.046,2.608a22.052,22.052,0,0,0-1.633,3.2c-.067.151-.185.185-.286.067-.269-.3-.421-.774-.067-1.784A58.871,58.871,0,0,1,26.485,16.5c.151-.2.32-.185.4.017a2.719,2.719,0,0,1-.471,2.39c-.4.674-1.3,2.037-2.019,3.164a3.58,3.58,0,0,1,2.019-1.178,1.184,1.184,0,0,1,.656,1.767c-.37.74-1.178,1.969-1.565,2.844-.421.976-.337,1.767.286,1.734.69-.034,1.615-1.245,2.137-2.323a.161.161,0,0,1,.3-.017,1.294,1.294,0,0,1-.168,1.044A3.107,3.107,0,0,1,25.576,27.744ZM29.2,27.66c-1.548,0-1.885-2.137-.488-4.157,1.346-1.935,2.676-2.709,3.534-2.709a1,1,0,0,1,.993,1.111c.252-.421.471-.757.589-.926.135-.2.269-.252.4-.1a1.822,1.822,0,0,1,.017,1.851c-.337.757-1.228,2.07-1.6,2.928-.4.959-.337,1.582.186,1.531,1.077-.1,2.591-2.171,3.382-4.645-1.363-.488.236-2.777.909-2.827.522-.034.353.959,0,2.12a4.229,4.229,0,0,0,1.868-.791c.236-.168.354-.2.505-.034.32.353.724,1.127.236,1.7a10.234,10.234,0,0,0-1.919,2.928c-.286.926-.1,1.582.421,1.615.707.05,1.549-1.06,2.087-2.323.067-.135.185-.168.252,0a1.487,1.487,0,0,1-.067,1.094,2.711,2.711,0,0,1-2.356,1.716c-1.279-.05-1.784-1.212-1.38-2.558a9.864,9.864,0,0,1,2.087-3.164,4.107,4.107,0,0,1-1.986.623c-.825,2.373-2.339,4.914-4.14,5.049a1.233,1.233,0,0,1-1.414-1.38A2.992,2.992,0,0,1,29.2,27.66Zm.623-3.484c-.909,1.448-1.094,2.912-.438,2.928.673.017,1.548-1.01,2.406-2.525,1.044-1.834,1.2-2.894.707-2.928C31.974,21.618,30.745,22.7,29.82,24.176Zm16.549-3.2q.227-.328.4-.1a1.834,1.834,0,0,1-.017,1.868c-.37.757-1.212,2.019-1.616,2.912-.421.942-.438,1.666.135,1.632.69-.034,1.616-1.178,2.2-2.339.084-.151.2-.168.269-.017a1.513,1.513,0,0,1-.151,1.044,3.023,3.023,0,0,1-2.424,1.8,1.306,1.306,0,0,1-1.38-1.38,2.947,2.947,0,0,1-2.1,1.313c-1.565,0-1.885-2.137-.488-4.174,1.363-1.986,2.692-2.743,3.534-2.743a1.027,1.027,0,0,1,1.026,1.212C45.981,21.6,46.183,21.248,46.369,20.979Zm-1.347.69c-.538-.05-1.767,1.043-2.692,2.541-.892,1.448-1.111,2.928-.454,2.945.69.017,1.565-1.06,2.423-2.541C45.358,22.763,45.51,21.719,45.022,21.669Zm7.493.236c.353.707-.32,1.6-.656,2.507-.067.2-.135.252-.353.135-.4-.2-.639-.707-.4-1.464.185-.606.69-1.329.454-1.514-.286-.236-1.548.841-2.305,2.373-.926,1.9-.572,3.3.421,3.315,1.414.017,2.625-1.329,3.315-2.39.084-.135.236-.151.3.017a1.526,1.526,0,0,1-.3,1.01,4.2,4.2,0,0,1-3.248,1.834c-2.137.034-2.861-2.053-1.767-4.224,1.077-2.12,2.777-3.029,3.618-2.524A2.224,2.224,0,0,1,52.515,21.9Zm1.4-1.414c-.168-.236-.067-.353.185-.337a9.591,9.591,0,0,0,1.4-.067A21.645,21.645,0,0,1,56.772,18c.151-.219.32-.2.4,0a2.3,2.3,0,0,1-.219,1.9,1.054,1.054,0,0,1,1.044.5c.118.2.05.32-.2.32a5.023,5.023,0,0,0-1.313.067c-.656,1.127-1.615,2.76-2.255,4.173-.555,1.229-.37,2.272.337,2.306.757.034,1.716-1.161,2.339-2.424.1-.2.286-.236.353,0a1.41,1.41,0,0,1-.168.96c-.219.488-1.329,1.969-2.676,1.918-1.111-.034-2-1.279-1.195-3.215.353-.841,1.06-2.255,1.784-3.584A1.388,1.388,0,0,1,53.912,20.491Zm11.7,7.236c-1.279-.067-1.784-1.212-1.363-2.575a10.035,10.035,0,0,1,2.087-3.18,3.917,3.917,0,0,1-2.019.639c-1.4,2.928-3.214,5.049-5.217,5.082-2.137.034-2.861-2.053-1.767-4.207,1.06-2.087,2.777-3.029,3.618-2.541a3.085,3.085,0,0,1,.993.858,2.251,2.251,0,0,1-.555,2.255,2.012,2.012,0,0,1-3.1.5c-.538,1.532-.118,2.626.74,2.659,1.851.084,3.7-2.575,4.628-4.712-1.3-.538.353-2.777,1.06-2.81.522-.017.353,1.01-.067,2.1a4.5,4.5,0,0,0,1.834-.791c.2-.135.354-.219.472-.05.337.37.757,1.178.252,1.733a9.385,9.385,0,0,0-1.936,2.928c-.286.926-.084,1.6.421,1.615.707.034,1.565-1.077,2.1-2.323.067-.135.185-.168.252-.017a1.511,1.511,0,0,1-.084,1.094A2.683,2.683,0,0,1,65.607,27.727Zm-5.183-4.359c.538-.69.892-1.565.673-1.75-.37-.32-1.751.74-2.525,2.289-.05.084-.084.2-.135.286C59.263,24.7,59.919,24.008,60.425,23.368Zm15.6,1.851c-.825.084-1.329-.168-1.565-.673-.067-.151-.05-.269.168-.269,1.06.017,2.406-.488,3.45-.555a1.424,1.424,0,0,1,1.514.808c.05.185.017.286-.168.269a5.784,5.784,0,0,0-1.7.1,2.23,2.23,0,0,1-.572,1.818c-.959,1.245-3.113,2.2-4.712.808-1.817-1.582-.353-4.578,2.306-5.335a1.374,1.374,0,0,1-.993-1.313c-.084-1.649,1.8-3.114,2.928-3.467a2.213,2.213,0,0,1,2.373.252,1.4,1.4,0,0,1,.37,1.986c-.236.5-.538,1.212-.69,1.632-.05.135-.151.185-.353.084-.387-.2-.673-.757-.37-1.615.32-.926.841-1.431.538-1.717-.5-.488-3.719,1.38-3.6,3.063.05.673.572.774,1.228.757a1.162,1.162,0,0,1,1.245.707c.067.168-.017.219-.185.236-2.49.2-4.561,1.733-4.611,3.349a1.149,1.149,0,0,0,1.128,1.262A3.663,3.663,0,0,0,76.8,25.085C76.512,25.135,76.259,25.2,76.024,25.219Z" transform="translate(-11.354 -10.359)"/>
    <path id="Path_12769" data-name="Path 12769" class="cls-2" d="M11.932-3.648a6.453,6.453,0,0,1,1.33-.038c.247.038.285-.1.19-.3a1.669,1.669,0,0,0-1.729-.969c-1.159.019-2.6.494-4.085.513-.228,0-.285.114-.19.3a1.658,1.658,0,0,0,1.824.912c.456-.038,1.064-.152,1.672-.266C9.785-1.2,7.562.228,6.517-.741c-.76-.7-.817-3.591.95-6.289,1.805-2.755,4.9-4.389,5.51-3.762.418.418-.285,1.482-.532,2.432a1.526,1.526,0,0,0,.494,1.8c.209.19.342.057.4-.1.209-.551.513-1.311.741-1.824a2.21,2.21,0,0,0,.133-1.653,2.554,2.554,0,0,0-.988-1.349,2.76,2.76,0,0,0-2.565-.114c-2.147.7-5.985,4.313-5.947,8.4A3.42,3.42,0,0,0,5.985-.266a3.45,3.45,0,0,0,3.173.38C10.108-.152,12.426-1.862,11.932-3.648Z" transform="translate(68.046 17.84)"/>
    <path id="Path_12770" data-name="Path 12770" class="cls-2" d="M2.64-5.344c.4-.955.528-1.835.032-1.82C2.08-7.148.688-5.359,1.6-4.8c-.592.8-1.664,2.229-2.032,2.9A1.526,1.526,0,0,0-.4.024c.144.136.24.061.272-.076.3-1.38,1.84-3.533,2.448-4.595a3.615,3.615,0,0,0,1.872-.576,9.345,9.345,0,0,0-1.92,2.775c-.4,1.137.064,2.138,1.216,2.184A2.41,2.41,0,0,0,5.632-1.75a1.258,1.258,0,0,0,.08-.94c-.064-.121-.16-.106-.224.015-.512,1.092-1.28,2.032-1.9,2-.464-.015-.656-.607-.4-1.4a8.128,8.128,0,0,1,1.76-2.517c.464-.5.08-1.168-.224-1.486-.112-.121-.24-.091-.432.03A3.891,3.891,0,0,1,2.64-5.344Zm8-.136a.942.942,0,0,0-.976-1.092c-.8,0-2.064.682-3.36,2.472C4.976-2.265,5.28-.34,6.768-.34a2.827,2.827,0,0,0,2-1.183A1.209,1.209,0,0,0,10.08-.279a2.866,2.866,0,0,0,2.3-1.623,1.3,1.3,0,0,0,.144-.94c-.064-.136-.176-.121-.256.015-.56,1.046-1.44,2.078-2.1,2.108-.544.03-.528-.622-.128-1.471.384-.8,1.184-1.941,1.536-2.623A1.579,1.579,0,0,0,11.6-6.5q-.168-.2-.384.091A10.643,10.643,0,0,0,10.64-5.48ZM9.248-3.13C8.432-1.8,7.6-.825,6.944-.84c-.624-.015-.416-1.35.432-2.654.88-1.35,2.048-2.335,2.56-2.29C10.4-5.738,10.256-4.8,9.248-3.13ZM15.68-.612A4.7,4.7,0,0,0,17.36-2.69c.592-1.243.944-2.593.176-3.367-.688-.682-1.632-.258-2.336.318a1.545,1.545,0,0,0-.1-.682c-.08-.182-.224-.212-.384-.015a44.632,44.632,0,0,0-4.176,7.552c-.3.925-.224,1.35.016,1.668.1.136.208.106.272-.03.768-1.683,1.584-3.23,2.336-4.534a1.545,1.545,0,0,0,.544,1.016A2.9,2.9,0,0,0,15.968-.2a3.428,3.428,0,0,0,2.848-1.623,1.443,1.443,0,0,0,.208-1c-.032-.152-.208-.212-.3,0A3.661,3.661,0,0,1,15.68-.612ZM14.064-3.3c.192-.318.368-.591.544-.864.752-1.168,1.744-1.926,2.128-1.744.4.182.224,1.441-.4,2.654-.752,1.456-1.792,2.563-2.3,2.169C13.584-1.431,13.664-2.341,14.064-3.3ZM25.28-1.932a1.112,1.112,0,0,0,.16-.94.156.156,0,0,0-.288.015c-.5.971-1.376,2.062-2.032,2.093-.592.03-.672-.682-.272-1.562.368-.789,1.136-1.9,1.488-2.563a1.052,1.052,0,0,0-.624-1.592,3.456,3.456,0,0,0-1.92,1.062c.688-1.016,1.536-2.244,1.92-2.851a2.346,2.346,0,0,0,.448-2.153c-.08-.182-.24-.2-.384-.015a52.488,52.488,0,0,0-5.184,8.386c-.336.91-.192,1.334.064,1.607.1.106.208.076.272-.061A19.494,19.494,0,0,1,20.48-3.388c.928-1.441,2.672-2.472,2.9-2.351.256.136-1.136,1.714-1.664,3.185-.48,1.319-.144,2.244,1.2,2.244A2.95,2.95,0,0,0,25.28-1.932Zm3.584-5.581c-.208-.409-.672-.591-.928-.334a.9.9,0,0,0-.08,1.122.593.593,0,0,0,.9.227A.878.878,0,0,0,28.864-7.512ZM26.256-.324A2.872,2.872,0,0,0,28.64-1.9a1.031,1.031,0,0,0,.112-.94c-.064-.121-.176-.136-.256,0-.48,1.046-1.36,2.047-2.08,2.078-.512.03-.544-.561-.16-1.441.336-.758,1.008-1.789,1.344-2.457a1.518,1.518,0,0,0,.016-1.653c-.128-.136-.24-.091-.384.091a18.41,18.41,0,0,0-2.048,3.685C24.736-1.295,25.04-.324,26.256-.324ZM32.5-6.405c-.8-.455-2.416.364-3.44,2.275-1.04,1.956-.352,3.837,1.68,3.806a4.046,4.046,0,0,0,3.088-1.653,1.322,1.322,0,0,0,.288-.91c-.064-.152-.208-.136-.288-.015-.656.955-1.808,2.169-3.152,2.153-.944-.015-1.28-1.274-.4-2.987.72-1.38,1.92-2.351,2.192-2.138.224.167-.256.819-.432,1.365-.224.682,0,1.137.384,1.319.208.106.272.061.336-.121.32-.819.96-1.623.624-2.26A2.061,2.061,0,0,0,32.5-6.405Z" transform="translate(82.315 16.568)"/>
    <path id="Path_12771" data-name="Path 12771" class="cls-2" d="M7.242-8.517a30.3,30.3,0,0,0-3.111,6c-.357,1.105-.272,1.36.051,1.8A3.661,3.661,0,0,0,4.9.017,1,1,0,0,0,5.984.136C10.54-1.377,13.566-6.341,12-9.061a2.451,2.451,0,0,0-2.567-1.5c-1.1.17-1.955.85-3.128,1-.221.034-.238.136-.17.323A1.229,1.229,0,0,0,7.242-8.517Zm.9-.17c1.19-.391,2.431-1.292,3.026-.34,1,1.6-1.139,6.46-5.78,8.228-.51.187-.629-.051-.408-.765A35.117,35.117,0,0,1,7.7-6.9,2.7,2.7,0,0,0,8.143-8.687Z" transform="translate(117.183 16.587)"/>
    <path id="Path_12772" data-name="Path 12772" class="cls-2" d="M1.472-3.01a2.012,2.012,0,0,0,2.976-.439c.672-.772.8-1.7.512-2.059a2.931,2.931,0,0,0-.944-.787c-.8-.439-2.432.348-3.472,2.3S.208-.149,2.24-.179A4.116,4.116,0,0,0,5.376-1.814a1.178,1.178,0,0,0,.272-.939c-.064-.136-.192-.136-.272-.015-.688,1-1.856,2.21-3.184,2.15C1.344-.664.96-1.617,1.472-3.01Zm.144-.333c.032-.076.08-.167.128-.257C2.5-5.039,3.824-5.947,4.16-5.689c.224.167-.128.954-.64,1.589C3.056-3.525,2.4-2.874,1.616-3.343ZM5.9-2.9c-.016-.121-.016-.242-.032-.363-.016-.242-.144-.3-.336-.151a1.744,1.744,0,0,0-.208,2.1A2.4,2.4,0,0,0,7.7-.179a3.4,3.4,0,0,0,2.832-1.665,1.31,1.31,0,0,0,.224-1,.161.161,0,0,0-.3,0A3.977,3.977,0,0,1,8.3-.739a1.833,1.833,0,0,0,.72-1.589c.048-1.045-.256-2.225-.144-3.618.064-.106.112-.2.176-.288.208-.348.288-.515.128-.666-.144-.136-.512-.076-.864.227a1.606,1.606,0,0,0-.576,1.166A29.926,29.926,0,0,1,5.9-2.9ZM7.712-4.539c.064,1.211.3,3.588-.432,3.8-.528.151-.992-.469-1.232-1.347A26.462,26.462,0,0,0,7.712-4.539ZM14-7.37c-.208-.409-.672-.59-.928-.333a.9.9,0,0,0-.08,1.12.594.594,0,0,0,.9.227A.876.876,0,0,0,14-7.37ZM11.392-.194a2.872,2.872,0,0,0,2.384-1.574,1.027,1.027,0,0,0,.112-.939c-.064-.121-.176-.136-.256,0-.48,1.045-1.36,2.044-2.08,2.074-.512.03-.544-.56-.16-1.438.336-.757,1.008-1.786,1.344-2.452a1.513,1.513,0,0,0,.016-1.65c-.128-.136-.24-.091-.384.091A18.368,18.368,0,0,0,10.32-2.4C9.872-1.163,10.176-.194,11.392-.194Zm8.816-1.589a1.43,1.43,0,0,0,.32-.878c-.032-.151-.176-.151-.272-.03A7.883,7.883,0,0,1,17.392-.422c.672-1.468,1.68-3.3,2.16-4.208a1.526,1.526,0,0,0,.032-1.665c-.112-.136-.272-.121-.4.091-.16.257-.336.53-.528.833a.906.906,0,0,0-.944-1c-.816,0-2.112.681-3.36,2.437-1.3,1.817-1.008,3.709.464,3.709a2.432,2.432,0,0,0,1.616-.757c-.16.348-.3.711-.464,1.045a5.251,5.251,0,0,0-3.424,2.861,1.823,1.823,0,0,0,.32,1.877.733.733,0,0,0,.928.318c1.3-.484,2.432-2.891,3.312-4.92A5.958,5.958,0,0,0,20.208-1.784ZM17.264-2.965c-.816,1.332-1.632,2.286-2.256,2.271-.64-.015-.464-1.347.4-2.649.88-1.317,2.048-2.286,2.544-2.256C18.416-5.568,18.272-4.63,17.264-2.965ZM15.7.684c-1.04,2.3-2.3,3.875-2.512,3.588C12.912,3.908,13.616,1.834,15.7.684ZM22.88-4.872a1.708,1.708,0,0,0-.048-1.438c-.1-.151-.224-.167-.336,0a23.6,23.6,0,0,0-2.56,4.466c-.256.757-.16,1.256.16,1.559.144.136.24.076.3-.061a14.9,14.9,0,0,1,2.336-3.845,4.2,4.2,0,0,1,2.112-1.423c.288.121-1.12,1.726-1.648,3.209-.464,1.317-.144,2.256,1.216,2.256a2.983,2.983,0,0,0,2.368-1.62c.224-.439.256-.787.144-.954-.08-.121-.192-.121-.272.015-.608,1.06-1.392,2.059-2.048,2.089-.576.03-.672-.681-.256-1.559.368-.787,1.152-1.907,1.488-2.573a1.08,1.08,0,0,0-.624-1.6C24.688-6.431,23.6-5.6,22.88-4.872Z" transform="translate(129.602 15.822)"/>
  </g>
  <g id="Group_533" data-name="Group 533" transform="translate(1.018 0.723)">
    <g id="Group_532" data-name="Group 532" transform="translate(81.982 19.277)">
      <g id="Group_446" data-name="Group 446" transform="translate(0 6.887)">
        <path id="Union_2" data-name="Union 2" class="cls-3" d="M3.765,15.073a4.368,4.368,0,0,1-.753-.642c-.056-.052-.111-.108-.164-.163s-.111-.108-.164-.164S2.574,14,2.521,13.94s-.111-.108-.163-.164-.111-.108-.164-.164-.111-.108-.164-.164-.111-.108-.164-.164-.111-.108-.164-.164-.111-.108-.164-.164-.111-.108-.164-.163-.111-.108-.164-.164A4.009,4.009,0,0,1,0,10.2a.376.376,0,0,1,.4-.4H4.139a.4.4,0,0,1,.361.216.352.352,0,0,1,.164.164.35.35,0,0,1,.163.163.351.351,0,0,1,.164.164.351.351,0,0,1,.164.164.352.352,0,0,1,.164.164A.349.349,0,0,1,5.482,11a.349.349,0,0,1,.164.164.023.023,0,0,0,.012.006,1.912,1.912,0,0,0,.361.034,1.628,1.628,0,0,0,.963-.265.846.846,0,0,0,.265-.29c-.182-.059-.373-.117-.58-.179a18.639,18.639,0,0,1-2.411-.877A4.43,4.43,0,0,1,2.91,8.628c-.056-.053-.111-.108-.163-.164s-.111-.108-.164-.164-.111-.108-.164-.164-.111-.108-.164-.164-.111-.108-.164-.164-.111-.108-.164-.164-.111-.108-.164-.164-.111-.108-.164-.164-.111-.108-.164-.163-.111-.108-.163-.164-.111-.108-.164-.164a5.157,5.157,0,0,1-.42-.441A3.2,3.2,0,0,1,.009,4.244a3.662,3.662,0,0,1,.735-2.3A4.5,4.5,0,0,1,2.774.494,8.212,8.212,0,0,1,5.716,0a7.172,7.172,0,0,1,4.25,1.136,4.133,4.133,0,0,1,.67.59c.056.053.111.108.163.164s.111.108.164.164.111.108.164.164.111.108.164.164.111.108.164.164.111.108.164.163.111.108.164.164.111.108.164.164.111.108.163.164.111.108.164.164.111.108.164.164a3.891,3.891,0,0,1,1.158,2.367.375.375,0,0,1-.4.392H9.371a.387.387,0,0,1-.352-.213.351.351,0,0,1-.163-.164.351.351,0,0,1-.164-.164.351.351,0,0,1-.164-.164.349.349,0,0,1-.164-.164A.349.349,0,0,1,8.2,5.254a.349.349,0,0,1-.164-.164A.156.156,0,0,1,8,5.072a2,2,0,0,0-.423-.046,1.164,1.164,0,0,0-.778.256.787.787,0,0,0-.2.269c.176.062.364.123.574.191a18.929,18.929,0,0,1,2.389.9,4.791,4.791,0,0,1,1.383.991c.055.053.108.108.163.164s.108.108.164.163.108.108.164.164.108.108.164.164.108.108.164.164.108.108.164.164.108.108.164.164.108.108.164.164.108.108.163.164.108.108.164.164.108.108.164.163h0a4.736,4.736,0,0,1,.4.417,2.986,2.986,0,0,1,.682,2.022A3.835,3.835,0,0,1,13.14,14.1a4.591,4.591,0,0,1-1.969,1.559,7.463,7.463,0,0,1-3.038.571A7.656,7.656,0,0,1,3.765,15.073ZM83.6,16.094a.541.541,0,0,1-.457-.253.581.581,0,0,1-.164-.164.581.581,0,0,1-.164-.164.588.588,0,0,1-.164-.163.6.6,0,0,1-.164-.164.6.6,0,0,1-.164-.164.6.6,0,0,1-.164-.164A.6.6,0,0,1,82,14.7a.6.6,0,0,1-.164-.164.583.583,0,0,1-.163-.164.581.581,0,0,1-.164-.164.581.581,0,0,1-.164-.164.537.537,0,0,1-.225-.623L85.206.978A1.234,1.234,0,0,1,86.382.127h2.695a1.238,1.238,0,0,1,.954.451,1.359,1.359,0,0,1,.164.164A1.342,1.342,0,0,1,90.357.9a1.358,1.358,0,0,1,.164.163,1.381,1.381,0,0,1,.164.164,1.377,1.377,0,0,1,.164.164,1.378,1.378,0,0,1,.164.164,1.38,1.38,0,0,1,.164.164,1.36,1.36,0,0,1,.163.164,1.337,1.337,0,0,1,.164.164,1.378,1.378,0,0,1,.164.164,1.342,1.342,0,0,1,.164.164,1.228,1.228,0,0,1,.389.562l4.1,12.44h0a.542.542,0,0,1-.516.713H93.358a.538.538,0,0,1-.457-.253.543.543,0,0,1-.164-.164.544.544,0,0,1-.164-.164.546.546,0,0,1-.164-.164.552.552,0,0,1-.164-.163.556.556,0,0,1-.164-.164.556.556,0,0,1-.164-.164.556.556,0,0,1-.164-.164.557.557,0,0,1-.164-.164.55.55,0,0,1-.163-.164.544.544,0,0,1-.164-.164.544.544,0,0,1-.164-.164.547.547,0,0,1-.228-.3l-.232-.756H87.617a.262.262,0,0,0-.25.185l-.772,2.537a.546.546,0,0,1-.522.386Zm5.362-8.053h.164l-.083-.274ZM57.194,16.094a.54.54,0,0,1-.457-.253.587.587,0,0,1-.164-.164.589.589,0,0,1-.164-.164.591.591,0,0,1-.164-.163.6.6,0,0,1-.164-.164.6.6,0,0,1-.164-.164.59.59,0,0,1-.163-.164.588.588,0,0,1-.164-.164.588.588,0,0,1-.164-.164.586.586,0,0,1-.164-.164.587.587,0,0,1-.164-.164.588.588,0,0,1-.164-.164.537.537,0,0,1-.225-.623L58.8.978A1.234,1.234,0,0,1,59.972.127h2.695a1.239,1.239,0,0,1,.954.451,1.375,1.375,0,0,1,.164.164A1.318,1.318,0,0,1,63.947.9a1.316,1.316,0,0,1,.164.163,1.362,1.362,0,0,1,.164.164,1.378,1.378,0,0,1,.164.164,1.378,1.378,0,0,1,.164.164,1.381,1.381,0,0,1,.164.164,1.381,1.381,0,0,1,.164.164,1.378,1.378,0,0,1,.164.164,1.378,1.378,0,0,1,.164.164,1.317,1.317,0,0,1,.163.164,1.223,1.223,0,0,1,.389.562h0l4.1,12.44a.542.542,0,0,1-.515.713H66.948a.539.539,0,0,1-.457-.253.551.551,0,0,1-.164-.164.55.55,0,0,1-.164-.164A.55.55,0,0,1,66,15.347a.552.552,0,0,1-.164-.163.552.552,0,0,1-.163-.164.551.551,0,0,1-.164-.164.551.551,0,0,1-.164-.164.554.554,0,0,1-.164-.164.553.553,0,0,1-.164-.164.55.55,0,0,1-.164-.164.55.55,0,0,1-.164-.164.548.548,0,0,1-.228-.3l-.231-.756H61.206a.261.261,0,0,0-.25.185l-.772,2.537a.546.546,0,0,1-.522.386Zm5.362-8.053h.164l-.083-.274Zm-14.85,8.047a.712.712,0,0,1-.58-.3.814.814,0,0,1-.164-.164.82.82,0,0,1-.164-.163.83.83,0,0,1-.164-.164.83.83,0,0,1-.164-.164.831.831,0,0,1-.164-.164.821.821,0,0,1-.163-.164.816.816,0,0,1-.164-.164.821.821,0,0,1-.164-.164.815.815,0,0,1-.164-.164.6.6,0,0,1-.083-.068v1.123a.717.717,0,0,1-.716.716H42.421a.711.711,0,0,1-.58-.3.809.809,0,0,1-.164-.164.821.821,0,0,1-.164-.163.829.829,0,0,1-.164-.164.83.83,0,0,1-.164-.164.831.831,0,0,1-.164-.164.831.831,0,0,1-.164-.164.821.821,0,0,1-.163-.164.816.816,0,0,1-.164-.164.8.8,0,0,1-.164-.164.8.8,0,0,1-.164-.164.821.821,0,0,1-.164-.163.717.717,0,0,1-.3-.58V.935a.717.717,0,0,1,.716-.716h7.065a5.315,5.315,0,0,1,3.343.948,2.856,2.856,0,0,1,.373.346c.056.053.111.108.164.164s.111.108.164.164.111.108.164.164.111.108.164.164.111.108.164.164.111.108.163.164.111.108.164.164.111.108.164.164.111.108.164.163.111.108.164.164.111.108.164.164a3.217,3.217,0,0,1,1,2.482,3.2,3.2,0,0,1-.642,2.04,3.086,3.086,0,0,1-1.148.908c.016.018.034.037.052.056.056.053.111.1.164.164s.111.1.164.163.111.105.164.164.111.105.164.164.111.105.164.164.111.105.164.164l0,0a3.494,3.494,0,0,1,.349.386,3.419,3.419,0,0,1,.719,2.139,3.405,3.405,0,0,1-1.222,2.781A5.265,5.265,0,0,1,49.7,16.088Zm-2.139-5.059A.644.644,0,0,1,45.739,11h1.225a1.368,1.368,0,0,0,1.3-.559H47.7a.711.711,0,0,1-.58-.3.815.815,0,0,1-.164-.164.815.815,0,0,1-.164-.164.822.822,0,0,1-.164-.163.831.831,0,0,1-.164-.164.83.83,0,0,1-.164-.164.82.82,0,0,1-.163-.164A.816.816,0,0,1,45.977,9a.816.816,0,0,1-.164-.164.824.824,0,0,1-.164-.164.617.617,0,0,1-.083-.068v2.423Zm0-5.408v.145a.644.644,0,0,1,.173-.025h.929a1.442,1.442,0,0,0,1.257-.479h-2A.358.358,0,0,0,45.569,5.621ZM34.445,16.088a.711.711,0,0,1-.58-.3.8.8,0,0,1-.164-.164.814.814,0,0,1-.164-.163.83.83,0,0,1-.164-.164.829.829,0,0,1-.164-.164.83.83,0,0,1-.164-.164.83.83,0,0,1-.164-.164.831.831,0,0,1-.164-.164.821.821,0,0,1-.163-.164.8.8,0,0,1-.164-.164.8.8,0,0,1-.164-.164.807.807,0,0,1-.164-.163.716.716,0,0,1-.3-.58V.935a.717.717,0,0,1,.716-.716h2.432a.711.711,0,0,1,.58.3.808.808,0,0,1,.164.164.821.821,0,0,1,.164.163.829.829,0,0,1,.164.164.83.83,0,0,1,.164.164.83.83,0,0,1,.164.164.831.831,0,0,1,.164.164.82.82,0,0,1,.163.164.815.815,0,0,1,.164.164.8.8,0,0,1,.164.164.816.816,0,0,1,.164.164.821.821,0,0,1,.164.163v0a.716.716,0,0,1,.3.58v12.47a.717.717,0,0,1-.716.716Zm-8.248,0a.711.711,0,0,1-.58-.3.808.808,0,0,1-.164-.164.82.82,0,0,1-.164-.163.829.829,0,0,1-.164-.164.829.829,0,0,1-.164-.164.83.83,0,0,1-.164-.164.83.83,0,0,1-.164-.164.831.831,0,0,1-.164-.164.82.82,0,0,1-.163-.164.8.8,0,0,1-.164-.164.808.808,0,0,1-.164-.164.821.821,0,0,1-.164-.163.716.716,0,0,1-.3-.58V11.554H21.693a.358.358,0,0,0-.358.358v3.46a.717.717,0,0,1-.716.716H18.187a.712.712,0,0,1-.58-.3.815.815,0,0,1-.164-.164.823.823,0,0,1-.164-.163.822.822,0,0,1-.163-.164.816.816,0,0,1-.164-.164.824.824,0,0,1-.164-.164.829.829,0,0,1-.164-.164.83.83,0,0,1-.164-.164.831.831,0,0,1-.164-.164.814.814,0,0,1-.164-.164.813.813,0,0,1-.164-.164.812.812,0,0,1-.163-.163.716.716,0,0,1-.3-.58V.938a.717.717,0,0,1,.716-.716h2.432a.712.712,0,0,1,.58.3A.816.816,0,0,1,19.4.685a.816.816,0,0,1,.164.164.82.82,0,0,1,.164.163.83.83,0,0,1,.164.164.83.83,0,0,1,.164.164.823.823,0,0,1,.163.164.814.814,0,0,1,.164.164.822.822,0,0,1,.164.164.83.83,0,0,1,.164.164.815.815,0,0,1,.164.164.815.815,0,0,1,.164.164.716.716,0,0,1,.3.58v3.59h2.182V.935a.717.717,0,0,1,.716-.716h2.432a.711.711,0,0,1,.58.3.8.8,0,0,1,.164.164.815.815,0,0,1,.164.163.83.83,0,0,1,.164.164.83.83,0,0,1,.164.164.83.83,0,0,1,.164.164.83.83,0,0,1,.164.164.83.83,0,0,1,.164.164.822.822,0,0,1,.163.164.8.8,0,0,1,.164.164.8.8,0,0,1,.164.164.822.822,0,0,1,.164.163v0a.715.715,0,0,1,.3.58v12.47a.717.717,0,0,1-.716.716Zm49.644,0a.711.711,0,0,1-.58-.3.8.8,0,0,1-.164-.164.814.814,0,0,1-.164-.164.822.822,0,0,1-.164-.163.83.83,0,0,1-.164-.164.83.83,0,0,1-.164-.164.83.83,0,0,1-.164-.164.82.82,0,0,1-.163-.164.815.815,0,0,1-.164-.164.815.815,0,0,1-.164-.164.81.81,0,0,1-.164-.164.815.815,0,0,1-.164-.164.715.715,0,0,1-.3-.58V5.618H71.816a.711.711,0,0,1-.58-.3.821.821,0,0,1-.164-.163.83.83,0,0,1-.164-.164.83.83,0,0,1-.164-.164.831.831,0,0,1-.164-.164.83.83,0,0,1-.164-.164.822.822,0,0,1-.163-.164.814.814,0,0,1-.164-.164.8.8,0,0,1-.164-.164.8.8,0,0,1-.164-.164.822.822,0,0,1-.164-.163.831.831,0,0,1-.164-.164.717.717,0,0,1-.3-.58v-2a.717.717,0,0,1,.716-.716H80.381a.712.712,0,0,1,.58.3.815.815,0,0,1,.164.164.815.815,0,0,1,.164.164.821.821,0,0,1,.164.163.822.822,0,0,1,.163.164.815.815,0,0,1,.164.164.815.815,0,0,1,.164.164.823.823,0,0,1,.164.164.83.83,0,0,1,.164.164.831.831,0,0,1,.164.164.815.815,0,0,1,.164.164.815.815,0,0,1,.164.164.716.716,0,0,1,.3.58v2h-.006a.716.716,0,0,1-.716.716H78.989v9.751a.717.717,0,0,1-.716.716Z" transform="translate(0)"/>
      </g>
      <g id="Group_531" data-name="Group 531">
        <g id="Group_440" data-name="Group 440" transform="translate(104.188)">
          <path id="Path_912" data-name="Path 912" class="cls-4" d="M51.809,76.353a2.055,2.055,0,0,0-.6-.881c-.046-.051-.1-.1-.151-.147s-.1-.1-.151-.147-.1-.1-.151-.147-.1-.1-.151-.147-.1-.1-.151-.147-.1-.1-.151-.147-.1-.1-.151-.147-.1-.1-.151-.147-.1-.1-.151-.147-.1-.1-.151-.147-.1-.1-.151-.147-.1-.1-.151-.147-.1-.1-.151-.147-.1-.1-.151-.147-.1-.1-.151-.147-.1-.1-.151-.147a2.131,2.131,0,0,0-1.562-.68h-4.6a2.113,2.113,0,0,0-2.009,1.417L33.767,94.21V72.232a1.412,1.412,0,0,0-.512-1.08,45479.862,45479.862,0,0,1-.454-.442,3281.33,3281.33,0,0,1-.3-.295,53039.847,53039.847,0,0,1-.454-.442,6562.967,6562.967,0,0,1-.3-.295,19688.655,19688.655,0,0,0-.454-.442,4646.653,4646.653,0,0,0-.3-.295,1.381,1.381,0,0,0-.151-.147,1.475,1.475,0,0,0-1.108-.5H23.4a1.479,1.479,0,0,0-1.241.665l-5.269,8.07-3.738-5.594a1.434,1.434,0,0,0-.265-.295,1.152,1.152,0,0,0-.151-.147,1.381,1.381,0,0,0-.151-.147,1.152,1.152,0,0,0-.151-.147,1.152,1.152,0,0,0-.151-.147,1.153,1.153,0,0,0-.151-.147,1.153,1.153,0,0,0-.151-.147,1.152,1.152,0,0,0-.151-.147,1.153,1.153,0,0,0-.151-.147,1.153,1.153,0,0,0-.151-.147,1.153,1.153,0,0,0-.151-.147,1.153,1.153,0,0,0-.151-.147,1.152,1.152,0,0,0-.151-.147,1.152,1.152,0,0,0-.151-.147,1.153,1.153,0,0,0-.151-.147,1.153,1.153,0,0,0-.151-.147,1.153,1.153,0,0,0-.151-.147,1.49,1.49,0,0,0-1.117-.5H3.029A1.45,1.45,0,0,0,1.56,69.712V94.255a1.412,1.412,0,0,0,.512,1.08,1.382,1.382,0,0,0,.151.147,1.382,1.382,0,0,0,.151.147,1.381,1.381,0,0,0,.151.147,1.381,1.381,0,0,0,.151.147,1.382,1.382,0,0,0,.151.147,1.382,1.382,0,0,0,.151.147,1.382,1.382,0,0,0,.151.147,1.381,1.381,0,0,0,.151.147,1.382,1.382,0,0,0,.151.147,1.382,1.382,0,0,0,.151.147,1.382,1.382,0,0,0,.151.147,1.384,1.384,0,0,0,.151.147,1.382,1.382,0,0,0,.151.147,1.381,1.381,0,0,0,.151.147,1.382,1.382,0,0,0,.151.147,1.382,1.382,0,0,0,.151.147,1.475,1.475,0,0,0,1.108.5h5.09a1.45,1.45,0,0,0,1.469-1.432V82.681L15.2,86.913a1.522,1.522,0,0,0,.284.292,7275.572,7275.572,0,0,1,.3.295,9293.749,9293.749,0,0,0,.3.295,16752.364,16752.364,0,0,0,.3.295,8161.766,8161.766,0,0,1,.3.295,3281.606,3281.606,0,0,0,.3.295,30320.133,30320.133,0,0,1,.3.295,5487.983,5487.983,0,0,0,.3.295,8161.71,8161.71,0,0,0,.3.295,1.487,1.487,0,0,0,2.272-.138L23.2,85.259v9.029a1.412,1.412,0,0,0,.512,1.08,4646.653,4646.653,0,0,0,.3.295,5395.4,5395.4,0,0,0,.3.295,8162.383,8162.383,0,0,0,.3.295,8161.655,8161.655,0,0,1,.3.295,4133.714,4133.714,0,0,1,.3.295,33504.4,33504.4,0,0,0,.3.295,6562.906,6562.906,0,0,1,.3.295,10790.31,10790.31,0,0,0,.3.295,1.475,1.475,0,0,0,1.108.5h5.105a1.45,1.45,0,0,0,1.469-1.432V95.317a.942.942,0,0,0,.2.223,15916.286,15916.286,0,0,1,.3.295,50255.574,50255.574,0,0,0,.454.442,5085492605855.823,5085492605855.823,0,0,1,.3.295,15916.451,15916.451,0,0,1,.3.295,8161.916,8161.916,0,0,0,.454.442,4133.714,4133.714,0,0,1,.3.295,5487.983,5487.983,0,0,0,.3.295.926.926,0,0,0,.722.343h4.213a.921.921,0,0,0,.886-.641l1.315-4.214A.44.44,0,0,1,44,93.079h5.71l.636,2.033a.9.9,0,0,0,.315.445.866.866,0,0,0,.151.147.989.989,0,0,0,.151.147.866.866,0,0,0,.151.147,16753.014,16753.014,0,0,1,.3.295.866.866,0,0,0,.151.147,4081.065,4081.065,0,0,0,.3.295.866.866,0,0,0,.151.147,16752.364,16752.364,0,0,0,.3.295.866.866,0,0,0,.151.147.989.989,0,0,0,.151.147.866.866,0,0,0,.151.147,16753.014,16753.014,0,0,1,.3.295.933.933,0,0,0,.722.34h4.176a.906.906,0,0,0,.88-1.185L51.868,76.4ZM47.339,85.6H46.031l.639-2.136Z" transform="translate(-1.56 -68.28)"/>
          <path id="Path_913" data-name="Path 913" class="cls-5" d="M291.862,84.908a6083.071,6083.071,0,0,1-.454-.44,283165628555.848,283165628555.848,0,0,1-.3-.293,24331.978,24331.978,0,0,1-.454-.44,1924.4,1924.4,0,0,1-.454-.44,273044829875.559,273044829875.559,0,0,1-.3-.294,24331.159,24331.159,0,0,0-.454-.44,1.384,1.384,0,0,0-1.037-.47h-5.075a1.351,1.351,0,0,0-1.371,1.33v20.506a1.306,1.306,0,0,0,.485,1.006,8110.523,8110.523,0,0,1,.3.293,3597.722,3597.722,0,0,1,.454.44,8446.621,8446.621,0,0,1,.605.587,2089.473,2089.473,0,0,1,.3.294,8111.136,8111.136,0,0,1,.3.294,4055.415,4055.415,0,0,1,.3.294,1.153,1.153,0,0,0,.151.147,1.384,1.384,0,0,0,1.037.47h5.075a1.351,1.351,0,0,0,1.37-1.33V85.914A1.306,1.306,0,0,0,291.862,84.908Z" transform="translate(-195.408 -77.827)"/>
          <path id="Path_914" data-name="Path 914" class="cls-6" d="M209.347,85.22a1.867,1.867,0,0,1,.006-2.133l7.5-10.807a.9.9,0,0,0-.2-1.23.866.866,0,0,0-.151-.147.987.987,0,0,0-.151-.147,2816.481,2816.481,0,0,1-.3-.295.865.865,0,0,0-.151-.147.99.99,0,0,0-.151-.147,282505436455.724,282505436455.724,0,0,0-.3-.295.99.99,0,0,0-.151-.147,2767.843,2767.843,0,0,1-.3-.295,4080.645,4080.645,0,0,0-.3-.295.99.99,0,0,0-.151-.147,8160.982,8160.982,0,0,1-.3-.295.932.932,0,0,0-.728-.34h-5.22a1.977,1.977,0,0,0-1.648.875l-7.3,11.06V72.121a1.314,1.314,0,0,0-.485-1.011,2499.6,2499.6,0,0,1-.454-.442,2867.413,2867.413,0,0,1-.3-.295,28673.8,28673.8,0,0,1-.756-.737,8303.382,8303.382,0,0,1-.454-.442,12563.783,12563.783,0,0,1-.454-.442,1.381,1.381,0,0,0-1.037-.472h-5.075a1.354,1.354,0,0,0-1.37,1.335V94.348a1.314,1.314,0,0,0,.485,1.011,2066.962,2066.962,0,0,1,.3.295,8602.238,8602.238,0,0,1,.3.295,8602.238,8602.238,0,0,1,.3.295,12564.083,12564.083,0,0,1,.454.442,2767.843,2767.843,0,0,1,.3.295,5105.788,5105.788,0,0,1,.454.442,2094.249,2094.249,0,0,0,.3.295,1.381,1.381,0,0,0,1.037.472h5.075a1.354,1.354,0,0,0,1.371-1.335V83.626l7.374,11.252a1.91,1.91,0,0,0,.352.4c.046.051.1.1.151.147s.1.1.151.147.1.1.151.147.1.1.151.147.1.1.151.147.1.1.151.147.1.1.151.147.1.1.151.147.1.1.151.147.1.1.151.147.1.1.151.147.1.1.151.147.1.1.151.147.1.1.151.147.1.1.151.147.1.1.151.147a1.975,1.975,0,0,0,1.451.629h5.618a.912.912,0,0,0,.778-1.42l-7.982-11.625Z" transform="translate(-131.108 -68.28)"/>
        </g>
        <g id="Group_442" data-name="Group 442" transform="translate(104.173 0.018)">
          <path id="Path_915" data-name="Path 915" class="cls-7" d="M31.18,69.768V94.251a1.449,1.449,0,0,1-1.469,1.428H24.6a1.449,1.449,0,0,1-1.469-1.428V79.57a.1.1,0,0,0-.188-.057l-5.4,7.408a1.5,1.5,0,0,1-2.4-.006L9.742,79.4a.1.1,0,0,0-.188.057V94.254a1.449,1.449,0,0,1-1.469,1.428H2.979A1.449,1.449,0,0,1,1.51,94.254V69.768A1.449,1.449,0,0,1,2.979,68.34H9.35a1.48,1.48,0,0,1,1.232.648l5.646,8.431a.248.248,0,0,0,.407,0L22.142,69a1.483,1.483,0,0,1,1.241-.663h6.325a1.449,1.449,0,0,1,1.469,1.428Z" transform="translate(-1.51 -68.34)"/>
          <g id="Group_441" data-name="Group 441" transform="translate(32.073 3.463)">
            <path id="Path_916" data-name="Path 916" class="cls-8" d="M121.9,96.812l.506,1.753a1.665,1.665,0,0,1-1.6,2.127h-7.627a.446.446,0,0,0-.426.315l-1.315,4.325a.923.923,0,0,1-.886.657h-4.213a.927.927,0,0,1-.88-1.216l6.964-21.209a2.113,2.113,0,0,1,2.006-1.454h4.6a2.111,2.111,0,0,1,2.006,1.451l6.995,21.212a.927.927,0,0,1-.88,1.216h-4.176a.923.923,0,0,1-.886-.657l-4.868-15.955a.463.463,0,0,0-.889.006l-1.633,5.6a.492.492,0,0,0,.472.63h5.133a1.666,1.666,0,0,1,1.6,1.2Z" transform="translate(-105.417 -82.11)"/>
            <path id="Path_917" data-name="Path 917" class="cls-9" d="M143.6,125.84h3.763a.79.79,0,0,1,.756.568l1.012,3.51a.785.785,0,0,1-.756,1H143.6" transform="translate(-131.814 -112.342)"/>
          </g>
          <path id="Path_918" data-name="Path 918" class="cls-10" d="M289.776,83.471v21.135a1.371,1.371,0,0,1-1.37,1.371H283.33a1.371,1.371,0,0,1-1.37-1.371V83.471a1.371,1.371,0,0,1,1.37-1.371h5.075A1.371,1.371,0,0,1,289.776,83.471Z" transform="translate(-195.393 -78.64)"/>
          <path id="Path_919" data-name="Path 919" class="cls-11" d="M195.455,95.679h-5.075a1.353,1.353,0,0,1-1.37-1.332V69.672a1.353,1.353,0,0,1,1.37-1.332h5.075a1.353,1.353,0,0,1,1.371,1.332V94.344a1.353,1.353,0,0,1-1.371,1.332Z" transform="translate(-131.134 -68.34)"/>
          <path id="Path_920" data-name="Path 920" class="cls-12" d="M236.4,94.443l-7.982-11.6a1.858,1.858,0,0,1,.006-2.127l7.5-10.78a.909.909,0,0,0-.775-1.419h-5.22a1.979,1.979,0,0,0-1.648.873l-7.72,11.665a1.857,1.857,0,0,0,0,2.055l7.8,11.863a1.971,1.971,0,0,0,1.651.879h5.618a.909.909,0,0,0,.778-1.416Z" transform="translate(-152.731 -68.464)"/>
        </g>
        <g id="Group_443" data-name="Group 443" transform="translate(207.061)">
          <path id="Path_921" data-name="Path 921" class="cls-13" d="M51.809,182.721a2.054,2.054,0,0,0-.6-.881c-.046-.051-.1-.1-.151-.147s-.1-.1-.151-.147-.1-.1-.151-.147-.1-.1-.151-.147-.1-.1-.151-.147-.1-.1-.151-.147-.1-.1-.151-.147-.1-.1-.151-.147-.1-.1-.151-.147-.1-.1-.151-.147-.1-.1-.151-.147-.1-.1-.151-.147-.1-.1-.151-.147-.1-.1-.151-.147-.1-.1-.151-.147-.1-.1-.151-.147a2.131,2.131,0,0,0-1.562-.68h-4.6a2.113,2.113,0,0,0-2.009,1.417l-6.859,20.36v-22a1.412,1.412,0,0,0-.512-1.08,4483.018,4483.018,0,0,0-.454-.442,16752.147,16752.147,0,0,0-.454-.442,4872.451,4872.451,0,0,1-.454-.442,4646.676,4646.676,0,0,1-.3-.295,3921.881,3921.881,0,0,1-.454-.442,3637.622,3637.622,0,0,0-.3-.295,1.475,1.475,0,0,0-1.108-.5H23.4a1.479,1.479,0,0,0-1.241.665l-5.269,8.07-3.738-5.594a1.434,1.434,0,0,0-.265-.295,1.153,1.153,0,0,0-.151-.147,1.38,1.38,0,0,0-.151-.147,1.154,1.154,0,0,0-.151-.147,1.153,1.153,0,0,0-.151-.147,1.151,1.151,0,0,0-.151-.147,1.153,1.153,0,0,0-.151-.147,1.154,1.154,0,0,0-.151-.147,1.154,1.154,0,0,0-.151-.147,1.154,1.154,0,0,0-.151-.147,1.153,1.153,0,0,0-.151-.147,1.154,1.154,0,0,0-.151-.147,1.153,1.153,0,0,0-.151-.147,1.153,1.153,0,0,0-.151-.147,1.153,1.153,0,0,0-.151-.147,1.154,1.154,0,0,0-.151-.147,1.155,1.155,0,0,0-.151-.147,1.49,1.49,0,0,0-1.117-.5H3.029a1.45,1.45,0,0,0-1.469,1.432V200.6a1.412,1.412,0,0,0,.512,1.08,1.385,1.385,0,0,0,.151.147,1.384,1.384,0,0,0,.151.147,1.382,1.382,0,0,0,.151.147,1.38,1.38,0,0,0,.151.147,1.381,1.381,0,0,0,.151.147,1.384,1.384,0,0,0,.151.147,1.378,1.378,0,0,0,.151.147,1.381,1.381,0,0,0,.151.147,1.38,1.38,0,0,0,.151.147,1.38,1.38,0,0,0,.151.147,1.381,1.381,0,0,0,.151.147,1.381,1.381,0,0,0,.151.147,1.385,1.385,0,0,0,.151.147,1.382,1.382,0,0,0,.151.147,1.382,1.382,0,0,0,.151.147,1.384,1.384,0,0,0,.151.147,1.475,1.475,0,0,0,1.108.5h5.09a1.45,1.45,0,0,0,1.469-1.432V189.031l3.037,4.232a1.521,1.521,0,0,0,.284.292,2104.6,2104.6,0,0,0,.3.295,1980.215,1980.215,0,0,1,.3.295,2323.536,2323.536,0,0,1,.3.295,4080.728,4080.728,0,0,1,.3.295,16752.364,16752.364,0,0,0,.3.295,2988.663,2988.663,0,0,0,.3.295,1818.96,1818.96,0,0,0,.3.295,2040.5,2040.5,0,0,0,.3.295,1.487,1.487,0,0,0,2.272-.138l3.028-4.166v9.029a1.412,1.412,0,0,0,.512,1.08,4646.653,4646.653,0,0,0,.3.295,2323.525,2323.525,0,0,0,.3.295,4080.728,4080.728,0,0,1,.3.295,2040.182,2040.182,0,0,1,.3.295,2697.7,2697.7,0,0,0,.3.295,33502.8,33502.8,0,0,0,.3.295,33503.752,33503.752,0,0,1,.3.295,4646.676,4646.676,0,0,0,.3.295,1.475,1.475,0,0,0,1.108.5h5.105a1.45,1.45,0,0,0,1.469-1.432v-1.477a.941.941,0,0,0,.2.223,7073.228,7073.228,0,0,1,.454.442,2040.5,2040.5,0,0,1,.3.295,635704312854.333,635704312854.333,0,0,1,.3.295,2126.963,2126.963,0,0,1,.454.442,4871.638,4871.638,0,0,1,.454.442,2323.513,2323.513,0,0,1,.3.295.988.988,0,0,0,.151.147.926.926,0,0,0,.722.343h4.213a.921.921,0,0,0,.886-.641l1.315-4.214a.44.44,0,0,1,.426-.307h5.71l.636,2.033a.9.9,0,0,0,.315.445.866.866,0,0,0,.151.147.988.988,0,0,0,.151.147.866.866,0,0,0,.151.147,3281.452,3281.452,0,0,1,.3.295.867.867,0,0,0,.151.147,4081.373,4081.373,0,0,0,.3.295.866.866,0,0,0,.151.147,3281.391,3281.391,0,0,0,.3.295.865.865,0,0,0,.151.147.988.988,0,0,0,.151.147.865.865,0,0,0,.151.147,5394.943,5394.943,0,0,0,.3.295.933.933,0,0,0,.722.34h4.176a.906.906,0,0,0,.88-1.185l-6.995-20.669Zm-4.47,9.252H46.031l.639-2.135Z" transform="translate(-1.56 -174.63)"/>
          <path id="Path_922" data-name="Path 922" class="cls-14" d="M291.862,191.318a603589892436.775,603589892436.775,0,0,1-.454-.44,6465.9,6465.9,0,0,1-.454-.44,1379.29,1379.29,0,0,1-.3-.294,3183.215,3183.215,0,0,1-.454-.44,3041.74,3041.74,0,0,1-.454-.44,201196630815.446,201196630815.446,0,0,0-.3-.293,1.384,1.384,0,0,0-1.037-.47h-5.075a1.351,1.351,0,0,0-1.371,1.33v20.506a1.306,1.306,0,0,0,.485,1.006,7645471970831.014,7645471970831.014,0,0,1,.6.587,20898.467,20898.467,0,0,1,.756.734,1029.086,1029.086,0,0,1,.3.294,1013.777,1013.777,0,0,1,.3.293,546105140777.166,546105140777.166,0,0,1,.3.293,1.153,1.153,0,0,0,.151.147,1.384,1.384,0,0,0,1.037.47h5.075a1.351,1.351,0,0,0,1.37-1.33V192.324a1.306,1.306,0,0,0-.485-1.006Z" transform="translate(-195.408 -184.219)"/>
          <path id="Path_923" data-name="Path 923" class="cls-15" d="M209.347,191.63a1.867,1.867,0,0,1,.006-2.132l7.5-10.807a.9.9,0,0,0-.2-1.23.865.865,0,0,0-.151-.147.988.988,0,0,0-.151-.147,1033.427,1033.427,0,0,1-.3-.295.866.866,0,0,0-.151-.147.99.99,0,0,0-.151-.147,448672590173.533,448672590173.533,0,0,0-.3-.295.99.99,0,0,0-.151-.147,1372.051,1372.051,0,0,1-.3-.295,1360.215,1360.215,0,0,1-.3-.295.99.99,0,0,0-.151-.147,2542478010902.15,2542478010902.15,0,0,0-.3-.295.932.932,0,0,0-.728-.34h-5.22a1.977,1.977,0,0,0-1.648.875l-7.3,11.06v-8.166a1.314,1.314,0,0,0-.485-1.011,1774.917,1774.917,0,0,1-.454-.442,828.932,828.932,0,0,1-.3-.295,159253.917,159253.917,0,0,1-.3-.295,2474,2474,0,0,1-.454-.442,159253.931,159253.931,0,0,1-.3-.295,2542478010995.907,2542478010995.907,0,0,1-.3-.295,4188.172,4188.172,0,0,1-.3-.295,1.381,1.381,0,0,0-1.037-.472h-5.075a1.354,1.354,0,0,0-1.37,1.335v24.733a1.314,1.314,0,0,0,.485,1.011,2066.859,2066.859,0,0,1,.3.295,1372.051,1372.051,0,0,1,.3.295,2066.859,2066.859,0,0,1,.3.295,12563.483,12563.483,0,0,1,.454.442,10679.736,10679.736,0,0,1,.756.737,1383.977,1383.977,0,0,0,.3.295,1.381,1.381,0,0,0,1.037.472h5.075a1.354,1.354,0,0,0,1.371-1.335V190.035l7.374,11.252a1.91,1.91,0,0,0,.352.4c.046.051.1.1.151.147s.1.1.151.147.1.1.151.147.1.1.151.147.1.1.151.147.1.1.151.147.1.1.151.147.1.1.151.147.1.1.151.147.1.1.151.147.1.1.151.147.1.1.151.147.1.1.151.147.1.1.151.147.1.1.151.147.1.1.151.147a1.975,1.975,0,0,0,1.451.629h5.618a.912.912,0,0,0,.778-1.42l-7.982-11.625Z" transform="translate(-131.108 -174.671)"/>
        </g>
        <g id="Group_445" data-name="Group 445" transform="translate(207.046 0.04)">
          <path id="Path_924" data-name="Path 924" class="cls-16" d="M31.18,176.185v24.483A1.449,1.449,0,0,1,29.71,202.1H24.6a1.449,1.449,0,0,1-1.469-1.428V185.987a.1.1,0,0,0-.188-.057l-5.4,7.408a1.5,1.5,0,0,1-2.4-.006l-5.4-7.513a.1.1,0,0,0-.188.057v14.795A1.449,1.449,0,0,1,8.085,202.1H2.979a1.449,1.449,0,0,1-1.469-1.428V176.188a1.449,1.449,0,0,1,1.469-1.428H9.35a1.48,1.48,0,0,1,1.232.648l5.646,8.431a.248.248,0,0,0,.407,0l5.507-8.416a1.483,1.483,0,0,1,1.241-.663h6.325a1.449,1.449,0,0,1,1.469,1.428Z" transform="translate(-1.51 -174.76)"/>
          <g id="Group_444" data-name="Group 444" transform="translate(32.073 3.46)">
            <path id="Path_925" data-name="Path 925" class="cls-17" d="M121.9,203.222l.506,1.753a1.665,1.665,0,0,1-1.6,2.127h-7.627a.446.446,0,0,0-.426.315l-1.315,4.325a.923.923,0,0,1-.886.657h-4.213a.927.927,0,0,1-.88-1.216l6.964-21.209a2.113,2.113,0,0,1,2.006-1.454h4.6a2.111,2.111,0,0,1,2.006,1.451l6.995,21.212a.927.927,0,0,1-.88,1.216h-4.176a.923.923,0,0,1-.886-.657l-4.868-15.955a.463.463,0,0,0-.889.006l-1.633,5.6a.492.492,0,0,0,.472.63h5.133a1.666,1.666,0,0,1,1.6,1.2Z" transform="translate(-105.417 -188.52)"/>
            <path id="Path_926" data-name="Path 926" class="cls-18" d="M143.6,232.25h3.763a.79.79,0,0,1,.756.568l1.012,3.51a.785.785,0,0,1-.756,1H143.6" transform="translate(-131.814 -218.752)"/>
          </g>
          <path id="Path_927" data-name="Path 927" class="cls-19" d="M289.776,189.881v21.135a1.371,1.371,0,0,1-1.37,1.371H283.33a1.371,1.371,0,0,1-1.37-1.371V189.88a1.371,1.371,0,0,1,1.37-1.37h5.075a1.371,1.371,0,0,1,1.37,1.37Z" transform="translate(-195.393 -185.053)"/>
          <path id="Path_928" data-name="Path 928" class="cls-20" d="M195.455,202.1h-5.075a1.353,1.353,0,0,1-1.37-1.332V176.092a1.353,1.353,0,0,1,1.37-1.332h5.075a1.353,1.353,0,0,1,1.371,1.332v24.672A1.353,1.353,0,0,1,195.455,202.1Z" transform="translate(-131.134 -174.76)"/>
          <path id="Path_929" data-name="Path 929" class="cls-21" d="M236.4,200.863l-7.982-11.6a1.858,1.858,0,0,1,.006-2.127l7.5-10.78a.909.909,0,0,0-.775-1.419h-5.22a1.979,1.979,0,0,0-1.648.873l-7.72,11.665a1.857,1.857,0,0,0,0,2.055l7.8,11.863a1.971,1.971,0,0,0,1.651.879h5.618a.909.909,0,0,0,.778-1.416Z" transform="translate(-152.731 -174.884)"/>
        </g>
        <g id="Group_450" data-name="Group 450" transform="translate(0 6.93)">
          <path id="Path_937" data-name="Path 937" class="cls-22" d="M2.994,14.292a4.01,4.01,0,0,1-1.8-2.911.375.375,0,0,1,.4-.4H5.327a.385.385,0,0,1,.389.278,1.316,1.316,0,0,0,.435.79,1.629,1.629,0,0,0,1.059.336,1.65,1.65,0,0,0,.963-.265.848.848,0,0,0,.377-.741,1.042,1.042,0,0,0-.627-.948,11.9,11.9,0,0,0-2.031-.75A19.643,19.643,0,0,1,3.481,8.81a4.532,4.532,0,0,1-1.6-1.244A3.242,3.242,0,0,1,1.2,5.424a3.685,3.685,0,0,1,.735-2.3A4.517,4.517,0,0,1,3.966,1.674,8.267,8.267,0,0,1,6.908,1.18a7.178,7.178,0,0,1,4.25,1.136,3.911,3.911,0,0,1,1.664,2.793.373.373,0,0,1-.4.392H8.6a.374.374,0,0,1-.38-.281,1.083,1.083,0,0,0-.392-.667A1.607,1.607,0,0,0,6.8,4.239a1.164,1.164,0,0,0-.778.256.894.894,0,0,0-.3.728.859.859,0,0,0,.336.679,3.084,3.084,0,0,0,.833.494c.333.139.821.312,1.469.522a18.95,18.95,0,0,1,2.389.9A4.79,4.79,0,0,1,12.368,9.06a3.013,3.013,0,0,1,.682,2.022,3.863,3.863,0,0,1-.682,2.229A4.588,4.588,0,0,1,10.4,14.87a7.408,7.408,0,0,1-3.037.571,7.655,7.655,0,0,1-4.368-1.154Z" transform="translate(-1.191 -1.18)"/>
          <path id="Path_938" data-name="Path 938" class="cls-22" d="M107.955,2.616V15.09a.717.717,0,0,1-.716.716h-2.432a.717.717,0,0,1-.716-.716V2.616a.717.717,0,0,1,.716-.716h2.432A.717.717,0,0,1,107.955,2.616Z" transform="translate(-72.328 -1.678)"/>
          <path id="Path_939" data-name="Path 939" class="cls-22" d="M141.853,9.879a3.3,3.3,0,0,0-1.945-1.213,3.1,3.1,0,0,0,2.349-3.155,3.186,3.186,0,0,0-1.213-2.664A5.315,5.315,0,0,0,137.7,1.9h-7.066a.717.717,0,0,0-.716.716V15.09a.717.717,0,0,0,.716.716h2.432a.717.717,0,0,0,.716-.716V5.336a.358.358,0,0,1,.358-.358h2.71q1.458,0,1.46,1.244c0,.83-.488,1.2-1.46,1.2h-.929a.717.717,0,0,0-.716.716V9.447a.717.717,0,0,0,.716.716h1.207a1.611,1.611,0,0,1,1.1.336,1.213,1.213,0,0,1,.386.966q0,1.222-1.46,1.222h-1.225a.717.717,0,0,0-.716.716v1.682a.717.717,0,0,0,.716.716h2a5.266,5.266,0,0,0,3.432-1.006,3.406,3.406,0,0,0,1.222-2.781,3.421,3.421,0,0,0-.719-2.139Z" transform="translate(-90.185 -1.678)"/>
          <path id="Path_940" data-name="Path 940" class="cls-22" d="M237.128,2.616v2a.717.717,0,0,1-.716.716h-3.349v9.754a.717.717,0,0,1-.716.716h-2.432a.717.717,0,0,1-.716-.716V5.336h-3.312a.717.717,0,0,1-.716-.716v-2a.717.717,0,0,1,.716-.716h10.529a.717.717,0,0,1,.716.716Z" transform="translate(-156.034 -1.678)"/>
          <g id="Group_447" data-name="Group 447" transform="translate(54.681 0.127)">
            <path id="Path_941" data-name="Path 941" class="cls-22" d="M188.01,10.211l.3,1.028a.977.977,0,0,1-.938,1.247h-4.473a.261.261,0,0,0-.25.185l-.772,2.537a.546.546,0,0,1-.522.386h-2.469a.542.542,0,0,1-.515-.713l4.084-12.44a1.237,1.237,0,0,1,1.176-.852h2.695a1.237,1.237,0,0,1,1.176.852l4.1,12.44a.542.542,0,0,1-.516.713h-2.451a.543.543,0,0,1-.519-.386L185.259,5.85a.272.272,0,0,0-.522,0l-.957,3.284a.289.289,0,0,0,.278.37h3.01a.976.976,0,0,1,.938.7Z" transform="translate(-178.338 -1.59)"/>
            <path id="Path_942" data-name="Path 942" class="cls-22" d="M200.723,27.24h2.207a.459.459,0,0,1,.441.333l.593,2.059a.461.461,0,0,1-.441.59h-2.8" transform="translate(-193.811 -19.323)"/>
          </g>
          <g id="Group_448" data-name="Group 448" transform="translate(81.091 0.127)">
            <path id="Path_943" data-name="Path 943" class="cls-22" d="M273.57,10.211l.3,1.028a.977.977,0,0,1-.938,1.247h-4.473a.261.261,0,0,0-.25.185l-.772,2.537a.546.546,0,0,1-.522.386h-2.469a.542.542,0,0,1-.515-.713l4.084-12.44a1.237,1.237,0,0,1,1.176-.852h2.695a1.237,1.237,0,0,1,1.176.852l4.1,12.44a.542.542,0,0,1-.515.713h-2.451a.543.543,0,0,1-.519-.386L270.819,5.85a.272.272,0,0,0-.522,0l-.957,3.284a.289.289,0,0,0,.278.37h3.01a.976.976,0,0,1,.938.7Z" transform="translate(-263.898 -1.59)"/>
            <path id="Path_944" data-name="Path 944" class="cls-22" d="M286.293,27.24H288.5a.459.459,0,0,1,.441.333l.593,2.059a.461.461,0,0,1-.441.59h-2.8" transform="translate(-279.378 -19.323)"/>
          </g>
          <g id="Group_449" data-name="Group 449" transform="translate(15.501 0.219)">
            <path id="Path_945" data-name="Path 945" class="cls-22" d="M78.086,1.89a.717.717,0,0,0-.716.716V15.083a.717.717,0,0,0,.716.716h2.432a.717.717,0,0,0,.716-.716V2.609a.717.717,0,0,0-.716-.716H78.086Z" transform="translate(-69.357 -1.89)"/>
            <path id="Path_946" data-name="Path 946" class="cls-22" d="M55.275,7.814v-5.2a.717.717,0,0,0-.716-.716H52.126a.717.717,0,0,0-.716.716V15.09a.717.717,0,0,0,.716.716h2.432a.717.717,0,0,0,.716-.716v-3.46a.358.358,0,0,1,.358-.358h4.933a.358.358,0,0,0,.358-.358V8.533a.358.358,0,0,0-.358-.358H55.633a.358.358,0,0,1-.358-.358Z" transform="translate(-51.41 -1.897)"/>
          </g>
        </g>
      </g>
    </g>
  </g>
</svg>
