<svg id="shop_bg" xmlns="http://www.w3.org/2000/svg" xmlns:xlink="http://www.w3.org/1999/xlink" width="240" height="240.001" viewBox="0 0 240 240.001">
  <defs>
    <clipPath id="clip-path">
      <rect id="Rectangle_177" data-name="Rectangle 177" width="120" height="240.001" fill="none"/>
    </clipPath>
  </defs>
  <rect id="Rectangle_176" data-name="Rectangle 176" width="240" height="240.001" fill="#a6f1d5"/>
  <g id="Group_928" data-name="Group 928" transform="translate(120)">
    <g id="Group_431" data-name="Group 431" clip-path="url(#clip-path)">
      <path id="Path_815" data-name="Path 815" d="M290.775,299.746c5.142.557,7.651,5.788,5.663,10.453a25.237,25.237,0,0,1-1.853,3.115,3.889,3.889,0,0,1-4.254,1.885c-2.811-.422-4.432-2.129-5.132-5.2-.51-2.233-.659-4.329.912-6.2a23.05,23.05,0,0,0,1.436-2.424,3.177,3.177,0,0,1,3.227-1.634" transform="translate(-165.402 -85.4)" fill="#fbd1ea" fill-rule="evenodd"/>
      <path id="Path_816" data-name="Path 816" d="M288.59,295.307a6.418,6.418,0,0,1-3.854,6.023,2.725,2.725,0,0,1-1.441.148c-2.469-.5-4.507-1.768-5.27-4.612-.668-2.491-1.481-5.023-.369-7.675a3.126,3.126,0,0,1,2.5-2.14c3.447-.637,8.529,2.612,8.434,8.256" transform="translate(-166.943 -89.751)" fill="#dffbda" fill-rule="evenodd"/>
      <path id="Path_817" data-name="Path 817" d="M275.188,301.939c1.306-.2,2.639.543,3.882,1.9,3.046,3.34,3.264,3.713,1.6,8.753a6.189,6.189,0,0,1-.669,1.478c-.71,1.081-1.035,2.7-2.523,2.794a5.224,5.224,0,0,1-4.434-1.683c-2.134-2.354-3.02-7.281-1.86-10.425.872-2.368,1.411-2.794,4-2.821" transform="translate(-168.223 -84.652)" fill="#fff79e" fill-rule="evenodd"/>
      <path id="Path_818" data-name="Path 818" d="M280.24,322.066c-.034-3.859,2.038-6.013,4.8-5.426a16.168,16.168,0,0,1,4.187,1.659,4.048,4.048,0,0,1,2.029,4.142,13.845,13.845,0,0,1-2.375,6.9c-2.33,3.1-5.189,2.267-6.263-.586-.483-1.281-1.187-2.457-1.643-3.745a24.621,24.621,0,0,1-.737-2.942" transform="translate(-166.319 -79.655)" fill="#fff79e" fill-rule="evenodd"/>
      <path id="Path_819" data-name="Path 819" d="M269.346,299.558a3.413,3.413,0,0,1-3.282-1.489c-2.956-3.465-3.127-6.969-.351-10.606a3.2,3.2,0,0,1,1.91-1.086c3.1-.53,5.761,1.337,6.913,4.7.176.512.362,1.022.536,1.54.989,2.934-.18,5.683-2.806,6.441a24.46,24.46,0,0,1-2.92.5" transform="translate(-169.604 -89.984)" fill="#fff79e" fill-rule="evenodd"/>
      <path id="Path_820" data-name="Path 820" d="M253.977,275.078a4.692,4.692,0,0,1,3.766,1.522c1.564,1.587,3.237,3.061,3.876,5.486.7,2.669-.825,5.815-3.2,6.624a3.371,3.371,0,0,1-3.826-.9c-1.886-2.343-4.058-4.507-4.789-7.82-.562-2.549.048-4.027,2.332-4.645a15.639,15.639,0,0,1,1.841-.271" transform="translate(-172.416 -93.814)" fill="#dffbda" fill-rule="evenodd"/>
      <path id="Path_821" data-name="Path 821" d="M241.2,290.746a4.077,4.077,0,0,1-3.783-1.941,13.054,13.054,0,0,1-2.068-8.193,1.876,1.876,0,0,1,.4-1.127,12.111,12.111,0,0,0,3.12-3.973,1.126,1.126,0,0,1,.981-.416,25.822,25.822,0,0,1,3.639.7,2.056,2.056,0,0,1,1.405,1.768,5.388,5.388,0,0,1,.072,2.455c-1.16,2.978.218,6.435-1.519,9.288a2.51,2.51,0,0,1-2.246,1.439" transform="translate(-175.27 -93.807)" fill="#fbd1ea" fill-rule="evenodd"/>
      <path id="Path_822" data-name="Path 822" d="M263.119,280.016a21.706,21.706,0,0,1,.48-2.6c.7-2.452,2.917-3.545,5.031-2.444a9.62,9.62,0,0,1,5.2,8,4.848,4.848,0,0,1-2.095,4.934,4.521,4.521,0,0,1-4.965.306,6.354,6.354,0,0,1-3.483-5.466c-.044-.691-.088-1.386-.171-2.734" transform="translate(-169.727 -93.992)" fill="#fbd1ea" fill-rule="evenodd"/>
      <path id="Path_823" data-name="Path 823" d="M260.711,296.327c1.832-.027,3.33,1.592,4.626,3.555a2.639,2.639,0,0,1,.236,2.381,33.447,33.447,0,0,0-1.411,6.861c-.285,2.354-2.024,2.989-3.9,1.73-2.516-1.687-3.795-4.377-4.592-7.32-.561-2.081.29-4.162,1.183-5.924.587-1.156,1.964-1.63,3.855-1.284" transform="translate(-171.245 -86.595)" fill="#dffbda" fill-rule="evenodd"/>
      <path id="Path_824" data-name="Path 824" d="M260.4,311.629c2.1,0,3.958,1.737,5.372,4.158a2.915,2.915,0,0,1,.192,1.965,16.851,16.851,0,0,1-3.631,6.69c-1.417,1.636-3.211,1.549-4.523-.268a17.4,17.4,0,0,1-1.9-3.971,13.628,13.628,0,0,1-.564-2.813,4.777,4.777,0,0,1,5.054-5.761" transform="translate(-171.288 -81.333)" fill="#fbd1ea" fill-rule="evenodd"/>
      <path id="Path_825" data-name="Path 825" d="M254.454,298.012a4.874,4.874,0,0,1-3.218,4.887,5.687,5.687,0,0,1-6.4-2.968,12.029,12.029,0,0,1-1.346-5.942c.171-1.989.936-3.069,2.628-3.465a8.385,8.385,0,0,0,1.824-.271c1.748-.879,2.947.148,3.823,1.505a39.126,39.126,0,0,1,2.5,5.057,3.579,3.579,0,0,1,.2,1.2" transform="translate(-173.641 -88.742)" fill="#fff79e" fill-rule="evenodd"/>
      <path id="Path_826" data-name="Path 826" d="M289.491,281.939a12.3,12.3,0,0,1-.829,2.357c-2.2,3.874-5.06,3.337-7.182.279a9.419,9.419,0,0,1-1.45-7.053c.436-2.484,1.851-3.48,4.035-3.128,3.742.608,5.131,3.2,5.426,7.545" transform="translate(-166.392 -94.068)" fill="#fff79e" fill-rule="evenodd"/>
      <path id="Path_827" data-name="Path 827" d="M224.56,281.44c-.024,4.35-1.963,7.375-4.287,10.192a1.873,1.873,0,0,1-2.056.637,4.578,4.578,0,0,1-3.29-2.506c-1.576-3.457-2.512-6.989-.863-10.778.219-.5.394-1.026.577-1.543.561-1.59,1.145-3.139,2.989-3.269,2.206-.161,4.216.1,5.562,2.475a7.728,7.728,0,0,1,1.368,4.791" transform="translate(-179.663 -94.133)" fill="#dffbda" fill-rule="evenodd"/>
      <path id="Path_828" data-name="Path 828" d="M190.695,299.746c5.14.557,7.651,5.788,5.663,10.453a25.233,25.233,0,0,1-1.853,3.115,3.889,3.889,0,0,1-4.254,1.885c-2.811-.422-4.432-2.129-5.132-5.2-.51-2.233-.659-4.329.912-6.2a23.055,23.055,0,0,0,1.436-2.424,3.177,3.177,0,0,1,3.227-1.634" transform="translate(-185.322 -85.4)" fill="#fbd1ea" fill-rule="evenodd"/>
      <path id="Path_829" data-name="Path 829" d="M188.51,295.307a6.418,6.418,0,0,1-3.854,6.023,2.725,2.725,0,0,1-1.441.148c-2.469-.5-4.507-1.768-5.27-4.612-.668-2.491-1.481-5.023-.369-7.675a3.126,3.126,0,0,1,2.5-2.14c3.447-.637,8.529,2.612,8.434,8.256" transform="translate(-186.863 -89.751)" fill="#dffbda" fill-rule="evenodd"/>
      <path id="Path_830" data-name="Path 830" d="M180.16,322.066c-.034-3.859,2.038-6.013,4.8-5.426a16.169,16.169,0,0,1,4.187,1.659,4.048,4.048,0,0,1,2.029,4.142,13.845,13.845,0,0,1-2.375,6.9c-2.33,3.1-5.189,2.267-6.263-.586-.483-1.281-1.187-2.457-1.643-3.745a25.1,25.1,0,0,1-.737-2.942" transform="translate(-186.239 -79.655)" fill="#fff79e" fill-rule="evenodd"/>
      <path id="Path_831" data-name="Path 831" d="M190.872,319.007c.191-.734.39-1.683.682-2.592a3.589,3.589,0,0,1,4.173-2.459,8.5,8.5,0,0,1,5.228,4.319,5.516,5.516,0,0,1-.472,6.825c-2.706,3.394-4.231,3.49-7.406.1a9.331,9.331,0,0,1-2.2-6.19" transform="translate(-184.111 -80.569)" fill="#fff79e" fill-rule="evenodd"/>
      <path id="Path_832" data-name="Path 832" d="M203.2,280.941c.126-1.321.169-2.294.321-3.243a3,3,0,0,1,2.153-2.585,5.809,5.809,0,0,1,6.182,1.724,3.914,3.914,0,0,1,.959,2.153,18.861,18.861,0,0,1-.11,4.52c-.386,2.314-1.418,4.125-3.836,4.262a1.179,1.179,0,0,0-.357.111c-2.885,1.187-4-.168-4.854-3.2a22.2,22.2,0,0,1-.459-3.747" transform="translate(-181.653 -93.889)" fill="#fff79e" fill-rule="evenodd"/>
      <path id="Path_833" data-name="Path 833" d="M204.112,291.34a3.028,3.028,0,0,1,3.125-3.243,17.621,17.621,0,0,1,4.01.883c2.661,1.019,4.243,3.4,5.132,6.2.725,2.278-1.9,4.947-4.18,4.42a20.672,20.672,0,0,1-3.548-1.187c-2.356-1.015-4.5-4.436-4.538-7.072" transform="translate(-181.472 -89.374)" fill="#fbd1ea" fill-rule="evenodd"/>
      <path id="Path_834" data-name="Path 834" d="M189.411,281.939a12.3,12.3,0,0,1-.829,2.357c-2.2,3.874-5.06,3.337-7.182.279a9.419,9.419,0,0,1-1.45-7.053c.436-2.484,1.851-3.48,4.035-3.128,3.742.608,5.131,3.2,5.426,7.545" transform="translate(-186.312 -94.068)" fill="#fff79e" fill-rule="evenodd"/>
      <path id="Path_835" data-name="Path 835" d="M205.572,299.719a3.837,3.837,0,0,1,3.269,1.854,26.271,26.271,0,0,1,1.965,4,2.33,2.33,0,0,1-.048,1.6,9.02,9.02,0,0,1-4.147,4.621c-1.878.942-4.062-.456-5.038-2.944a8.607,8.607,0,0,1,.325-6.807c.807-1.865,2.573-1.922,3.675-2.321" transform="translate(-182.088 -85.399)" fill="#dffbda" fill-rule="evenodd"/>
      <path id="Path_836" data-name="Path 836" d="M192.763,278.251c.065-2.233,1.278-3.615,3.23-3.7a5.062,5.062,0,0,1,5.246,3.105c.174.365.417.687.607,1.046,1.272,2.4,1.056,4.389-.728,6.318a9.414,9.414,0,0,1-1.478,1.241,1.939,1.939,0,0,1-2.118.15,9.152,9.152,0,0,1-4.759-8.165" transform="translate(-183.731 -93.992)" fill="#fbd1ea" fill-rule="evenodd"/>
      <path id="Path_837" data-name="Path 837" d="M199.495,293.191a5.582,5.582,0,0,1-1.411,3.451,2.571,2.571,0,0,1-2.375.979c-3.156-.685-6.285-4.032-5.647-7.968a4.406,4.406,0,0,1,1.107-2.087,19.405,19.405,0,0,1,2.149-1.646,2.717,2.717,0,0,1,2.837-.362c2.451.828,2.649,1.1,2.9,4.047.094,1.1.27,2.2.444,3.586" transform="translate(-184.285 -90.313)" fill="#fff79e" fill-rule="evenodd"/>
      <path id="Path_838" data-name="Path 838" d="M274.6,191.98c-.024,4.35-1.964,7.375-4.287,10.192a1.873,1.873,0,0,1-2.056.637,4.581,4.581,0,0,1-3.29-2.506c-1.576-3.457-2.512-6.989-.863-10.778.219-.5.395-1.026.577-1.543.561-1.59,1.145-3.139,2.989-3.269,2.206-.161,4.216.1,5.562,2.475a7.728,7.728,0,0,1,1.368,4.791" transform="translate(-169.703 -124.673)" fill="#dffbda" fill-rule="evenodd"/>
      <path id="Path_839" data-name="Path 839" d="M240.735,210.287c5.14.557,7.651,5.788,5.663,10.453a25.226,25.226,0,0,1-1.852,3.115,3.889,3.889,0,0,1-4.254,1.885c-2.811-.423-4.432-2.129-5.132-5.2-.51-2.233-.66-4.329.912-6.2a23.042,23.042,0,0,0,1.436-2.424,3.175,3.175,0,0,1,3.227-1.634" transform="translate(-175.362 -115.94)" fill="#fbd1ea" fill-rule="evenodd"/>
      <path id="Path_840" data-name="Path 840" d="M238.55,205.847a6.418,6.418,0,0,1-3.854,6.023,2.725,2.725,0,0,1-1.441.148c-2.469-.5-4.507-1.768-5.27-4.61-.668-2.492-1.481-5.025-.369-7.677a3.126,3.126,0,0,1,2.5-2.14c3.447-.637,8.529,2.612,8.434,8.256" transform="translate(-176.903 -120.291)" fill="#dffbda" fill-rule="evenodd"/>
      <path id="Path_841" data-name="Path 841" d="M225.148,212.479c1.306-.2,2.639.543,3.882,1.9,3.046,3.34,3.264,3.713,1.6,8.753a6.19,6.19,0,0,1-.669,1.478c-.71,1.081-1.035,2.7-2.523,2.794a5.224,5.224,0,0,1-4.434-1.683c-2.134-2.354-3.02-7.281-1.86-10.425.872-2.368,1.411-2.794,4-2.821" transform="translate(-178.183 -115.192)" fill="#fff79e" fill-rule="evenodd"/>
      <path id="Path_842" data-name="Path 842" d="M230.2,232.606c-.034-3.859,2.038-6.013,4.8-5.426a16.169,16.169,0,0,1,4.187,1.659,4.048,4.048,0,0,1,2.029,4.142,13.845,13.845,0,0,1-2.375,6.9c-2.33,3.1-5.189,2.267-6.263-.586-.483-1.281-1.187-2.457-1.643-3.745a24.856,24.856,0,0,1-.737-2.942" transform="translate(-176.279 -110.195)" fill="#fff79e" fill-rule="evenodd"/>
      <path id="Path_843" data-name="Path 843" d="M219.306,210.1a3.413,3.413,0,0,1-3.282-1.489c-2.956-3.465-3.127-6.968-.351-10.606a3.2,3.2,0,0,1,1.91-1.087c3.1-.53,5.761,1.337,6.912,4.7.176.512.362,1.022.536,1.54.989,2.934-.18,5.683-2.806,6.441a24.446,24.446,0,0,1-2.92.5" transform="translate(-179.564 -120.525)" fill="#fff79e" fill-rule="evenodd"/>
      <path id="Path_844" data-name="Path 844" d="M203.937,185.618a4.692,4.692,0,0,1,3.766,1.522c1.564,1.587,3.237,3.061,3.876,5.486.7,2.669-.825,5.815-3.2,6.624a3.37,3.37,0,0,1-3.826-.9c-1.886-2.343-4.058-4.507-4.789-7.82-.562-2.549.048-4.027,2.332-4.644a15.385,15.385,0,0,1,1.841-.272" transform="translate(-182.376 -124.355)" fill="#dffbda" fill-rule="evenodd"/>
      <path id="Path_845" data-name="Path 845" d="M191.156,201.286a4.077,4.077,0,0,1-3.783-1.941,13.054,13.054,0,0,1-2.068-8.193,1.875,1.875,0,0,1,.4-1.127,12.111,12.111,0,0,0,3.12-3.973,1.13,1.13,0,0,1,.981-.416,26.011,26.011,0,0,1,3.639.7,2.056,2.056,0,0,1,1.405,1.768,5.387,5.387,0,0,1,.072,2.455c-1.159,2.978.218,6.435-1.519,9.288a2.51,2.51,0,0,1-2.246,1.439" transform="translate(-185.23 -124.348)" fill="#fbd1ea" fill-rule="evenodd"/>
      <path id="Path_846" data-name="Path 846" d="M213.079,190.556a21.7,21.7,0,0,1,.48-2.6c.7-2.452,2.917-3.545,5.031-2.444a9.62,9.62,0,0,1,5.2,8,4.848,4.848,0,0,1-2.095,4.934,4.521,4.521,0,0,1-4.965.306,6.354,6.354,0,0,1-3.483-5.466c-.044-.691-.088-1.386-.171-2.734" transform="translate(-179.687 -124.533)" fill="#fbd1ea" fill-rule="evenodd"/>
      <path id="Path_847" data-name="Path 847" d="M210.671,206.867c1.832-.027,3.33,1.592,4.626,3.555a2.64,2.64,0,0,1,.236,2.381,33.444,33.444,0,0,0-1.411,6.861c-.285,2.354-2.024,2.989-3.9,1.73-2.516-1.687-3.795-4.377-4.592-7.32-.561-2.08.29-4.162,1.183-5.924.588-1.156,1.964-1.63,3.855-1.284" transform="translate(-181.205 -117.135)" fill="#dffbda" fill-rule="evenodd"/>
      <path id="Path_848" data-name="Path 848" d="M240.912,229.547c.191-.734.39-1.683.682-2.592a3.589,3.589,0,0,1,4.173-2.459,8.5,8.5,0,0,1,5.228,4.319,5.516,5.516,0,0,1-.472,6.825c-2.706,3.394-4.231,3.49-7.406.1a9.331,9.331,0,0,1-2.2-6.19" transform="translate(-174.151 -111.109)" fill="#fff79e" fill-rule="evenodd"/>
      <path id="Path_849" data-name="Path 849" d="M210.359,222.169c2.1,0,3.958,1.737,5.372,4.158a2.915,2.915,0,0,1,.192,1.965,16.85,16.85,0,0,1-3.631,6.689c-1.417,1.637-3.211,1.549-4.523-.268a17.4,17.4,0,0,1-1.9-3.97,13.627,13.627,0,0,1-.564-2.813,4.776,4.776,0,0,1,5.054-5.761" transform="translate(-181.248 -111.874)" fill="#fbd1ea" fill-rule="evenodd"/>
      <path id="Path_850" data-name="Path 850" d="M204.412,208.552a4.872,4.872,0,0,1-3.217,4.887,5.688,5.688,0,0,1-6.4-2.968,12.016,12.016,0,0,1-1.347-5.942c.171-1.989.936-3.069,2.627-3.465a8.381,8.381,0,0,0,1.825-.271c1.748-.879,2.947.148,3.821,1.505a39.128,39.128,0,0,1,2.5,5.057,3.536,3.536,0,0,1,.2,1.2" transform="translate(-183.601 -119.283)" fill="#fff79e" fill-rule="evenodd"/>
      <path id="Path_851" data-name="Path 851" d="M253.239,191.482c.126-1.321.169-2.294.321-3.243a3,3,0,0,1,2.153-2.585,5.808,5.808,0,0,1,6.182,1.724,3.914,3.914,0,0,1,.959,2.153,18.862,18.862,0,0,1-.11,4.52c-.386,2.314-1.418,4.125-3.836,4.262a1.18,1.18,0,0,0-.357.111c-2.885,1.187-4-.168-4.854-3.2a22.205,22.205,0,0,1-.459-3.746" transform="translate(-171.693 -124.43)" fill="#fff79e" fill-rule="evenodd"/>
      <path id="Path_852" data-name="Path 852" d="M233.608,261.837a9.366,9.366,0,0,1-.783,2.857c-1.747,2.676-2.788,3.215-5.688,1.6-3.61-2.009-4.914-7.485-3.555-10.272a3.616,3.616,0,0,1,2.155-2.082c3.378-1.111,6.621.915,7.514,4.719a28.189,28.189,0,0,1,.357,3.175" transform="translate(-177.701 -101.13)" fill="#dffbda" fill-rule="evenodd"/>
      <path id="Path_853" data-name="Path 853" d="M226.674,235.65a10.121,10.121,0,0,1-.947,5.2c-1.084,2.126-3.221,2.774-5.044,1.445a3.736,3.736,0,0,1-1.113-1.066c-1.055-1.858-2.09-3.734-3.025-5.666a4.806,4.806,0,0,1-.253-2.007,1.535,1.535,0,0,1,.4-1.1,18.528,18.528,0,0,1,4.221-2.329,4.808,4.808,0,0,1,4.58,1,3.207,3.207,0,0,1,.968,1.647,18.974,18.974,0,0,1,.211,2.867" transform="translate(-179.048 -109.225)" fill="#dffbda" fill-rule="evenodd"/>
      <path id="Path_854" data-name="Path 854" d="M254.152,201.88a3.028,3.028,0,0,1,3.125-3.243,17.623,17.623,0,0,1,4.01.883c2.661,1.019,4.243,3.4,5.132,6.2.725,2.278-1.9,4.947-4.18,4.42a20.794,20.794,0,0,1-3.548-1.187c-2.356-1.015-4.5-4.436-4.538-7.072" transform="translate(-171.512 -119.914)" fill="#fbd1ea" fill-rule="evenodd"/>
      <path id="Path_855" data-name="Path 855" d="M239.451,192.479a12.3,12.3,0,0,1-.829,2.357c-2.2,3.874-5.06,3.337-7.182.279a9.419,9.419,0,0,1-1.45-7.053c.436-2.484,1.851-3.48,4.035-3.128,3.742.608,5.131,3.2,5.426,7.545" transform="translate(-176.352 -124.609)" fill="#fff79e" fill-rule="evenodd"/>
      <path id="Path_856" data-name="Path 856" d="M255.612,210.259a3.837,3.837,0,0,1,3.269,1.854,26.274,26.274,0,0,1,1.965,4,2.329,2.329,0,0,1-.048,1.6,9.02,9.02,0,0,1-4.147,4.621c-1.878.942-4.062-.456-5.038-2.944a8.607,8.607,0,0,1,.325-6.808c.807-1.865,2.573-1.922,3.675-2.321" transform="translate(-172.128 -115.939)" fill="#dffbda" fill-rule="evenodd"/>
      <path id="Path_857" data-name="Path 857" d="M242.8,188.791c.065-2.233,1.278-3.615,3.23-3.7a5.062,5.062,0,0,1,5.246,3.105c.174.365.417.687.607,1.046,1.272,2.4,1.056,4.389-.728,6.318a9.412,9.412,0,0,1-1.478,1.241,1.939,1.939,0,0,1-2.117.15,9.152,9.152,0,0,1-4.759-8.165" transform="translate(-173.771 -124.532)" fill="#fbd1ea" fill-rule="evenodd"/>
      <path id="Path_858" data-name="Path 858" d="M249.535,203.731a5.582,5.582,0,0,1-1.411,3.451,2.571,2.571,0,0,1-2.375.979c-3.156-.685-6.285-4.032-5.647-7.968a4.406,4.406,0,0,1,1.107-2.087,19.406,19.406,0,0,1,2.149-1.646,2.717,2.717,0,0,1,2.837-.362c2.451.828,2.649,1.1,2.9,4.047.094,1.1.27,2.2.444,3.586" transform="translate(-174.325 -120.853)" fill="#fff79e" fill-rule="evenodd"/>
      <path id="Path_859" data-name="Path 859" d="M241.462,249.132a17.4,17.4,0,0,1-.435,2.435c-1.018,3.115-4.259,3.722-6.261,1.21a13.619,13.619,0,0,1-2.635-6.354,10.544,10.544,0,0,1,.392-3.239.952.952,0,0,1,.464-.61c1.646-.7,3.321-1.408,4.914.117a23.1,23.1,0,0,1,2.423,2.566,5.425,5.425,0,0,1,1.139,3.877" transform="translate(-175.903 -105.178)" fill="#fbd1ea" fill-rule="evenodd"/>
      <path id="Path_860" data-name="Path 860" d="M219.74,242.462a13.915,13.915,0,0,1,1.646.252,6.476,6.476,0,0,1,4.734,6.086c.239,2.85-2.746,5.292-5.059,4.078a6.925,6.925,0,0,1-3.329-3.732,21.236,21.236,0,0,1-.99-3.961,2.173,2.173,0,0,1,2.076-2.72c.245-.009.492,0,.922,0" transform="translate(-178.966 -104.947)" fill="#fff79e" fill-rule="evenodd"/>
      <path id="Path_861" data-name="Path 861" d="M280.24,143.146c-.034-3.859,2.038-6.013,4.8-5.426a16.17,16.17,0,0,1,4.187,1.659,4.048,4.048,0,0,1,2.029,4.142,13.845,13.845,0,0,1-2.375,6.9c-2.33,3.1-5.189,2.267-6.263-.586-.483-1.281-1.187-2.459-1.643-3.745a24.619,24.619,0,0,1-.737-2.942" transform="translate(-166.319 -140.736)" fill="#fff79e" fill-rule="evenodd"/>
      <path id="Path_862" data-name="Path 862" d="M260.4,132.709c2.1,0,3.958,1.737,5.372,4.158a2.915,2.915,0,0,1,.192,1.965,16.85,16.85,0,0,1-3.631,6.69c-1.417,1.636-3.211,1.549-4.523-.268a17.4,17.4,0,0,1-1.9-3.971,13.629,13.629,0,0,1-.564-2.813,4.776,4.776,0,0,1,5.054-5.761" transform="translate(-171.288 -142.414)" fill="#fbd1ea" fill-rule="evenodd"/>
      <path id="Path_863" data-name="Path 863" d="M283.648,172.377a9.366,9.366,0,0,1-.783,2.857c-1.747,2.676-2.788,3.215-5.69,1.6-3.609-2.009-4.912-7.485-3.554-10.272a3.616,3.616,0,0,1,2.155-2.082c3.378-1.111,6.621.915,7.514,4.719a28.18,28.18,0,0,1,.357,3.175" transform="translate(-167.741 -131.67)" fill="#dffbda" fill-rule="evenodd"/>
      <path id="Path_864" data-name="Path 864" d="M276.714,146.19a10.12,10.12,0,0,1-.947,5.2c-1.084,2.126-3.221,2.774-5.044,1.445a3.735,3.735,0,0,1-1.113-1.066c-1.055-1.858-2.09-3.734-3.025-5.666a4.807,4.807,0,0,1-.253-2.007,1.535,1.535,0,0,1,.4-1.1,18.529,18.529,0,0,1,4.221-2.329,4.808,4.808,0,0,1,4.58,1,3.206,3.206,0,0,1,.968,1.647,18.97,18.97,0,0,1,.211,2.867" transform="translate(-169.088 -139.765)" fill="#dffbda" fill-rule="evenodd"/>
      <path id="Path_865" data-name="Path 865" d="M291.5,159.672a17.408,17.408,0,0,1-.435,2.435c-1.018,3.115-4.259,3.722-6.261,1.21a13.619,13.619,0,0,1-2.635-6.354,10.545,10.545,0,0,1,.392-3.239.952.952,0,0,1,.464-.61c1.646-.7,3.321-1.408,4.914.117a23.108,23.108,0,0,1,2.423,2.566,5.426,5.426,0,0,1,1.139,3.877" transform="translate(-165.943 -135.718)" fill="#fbd1ea" fill-rule="evenodd"/>
      <path id="Path_866" data-name="Path 866" d="M269.78,153a14.16,14.16,0,0,1,1.646.251,6.479,6.479,0,0,1,4.734,6.087c.239,2.85-2.746,5.292-5.059,4.078a6.925,6.925,0,0,1-3.329-3.732,21.24,21.24,0,0,1-.99-3.961,2.173,2.173,0,0,1,2.076-2.72c.245-.009.492,0,.922,0" transform="translate(-169.006 -135.487)" fill="#fff79e" fill-rule="evenodd"/>
      <path id="Path_867" data-name="Path 867" d="M180.16,143.146c-.034-3.859,2.038-6.013,4.8-5.426a16.17,16.17,0,0,1,4.187,1.659,4.048,4.048,0,0,1,2.029,4.142,13.845,13.845,0,0,1-2.375,6.9c-2.33,3.1-5.189,2.267-6.263-.586-.483-1.281-1.187-2.459-1.643-3.745a25.1,25.1,0,0,1-.737-2.942" transform="translate(-186.239 -140.736)" fill="#fff79e" fill-rule="evenodd"/>
      <path id="Path_868" data-name="Path 868" d="M190.872,140.087c.191-.734.39-1.683.682-2.592a3.589,3.589,0,0,1,4.173-2.459,8.5,8.5,0,0,1,5.228,4.319,5.516,5.516,0,0,1-.472,6.825c-2.706,3.394-4.231,3.49-7.406.1a9.331,9.331,0,0,1-2.2-6.19" transform="translate(-184.111 -141.65)" fill="#fff79e" fill-rule="evenodd"/>
      <path id="Path_869" data-name="Path 869" d="M191.422,159.672a17.571,17.571,0,0,1-.434,2.435c-1.019,3.115-4.26,3.722-6.263,1.21a13.619,13.619,0,0,1-2.636-6.354,10.547,10.547,0,0,1,.392-3.239.952.952,0,0,1,.464-.61c1.646-.7,3.321-1.408,4.914.117a23.1,23.1,0,0,1,2.423,2.566,5.426,5.426,0,0,1,1.139,3.877" transform="translate(-185.863 -135.718)" fill="#fbd1ea" fill-rule="evenodd"/>
    </g>
  </g>
  <g id="Group_929" data-name="Group 929">
    <g id="Group_431-2" data-name="Group 431" clip-path="url(#clip-path)">
      <path id="Path_815-2" data-name="Path 815" d="M290.775,299.746c5.142.557,7.651,5.788,5.663,10.453a25.237,25.237,0,0,1-1.853,3.115,3.889,3.889,0,0,1-4.254,1.885c-2.811-.422-4.432-2.129-5.132-5.2-.51-2.233-.659-4.329.912-6.2a23.05,23.05,0,0,0,1.436-2.424,3.177,3.177,0,0,1,3.227-1.634" transform="translate(-165.402 -85.4)" fill="#fbd1ea" fill-rule="evenodd"/>
      <path id="Path_816-2" data-name="Path 816" d="M288.59,295.307a6.418,6.418,0,0,1-3.854,6.023,2.725,2.725,0,0,1-1.441.148c-2.469-.5-4.507-1.768-5.27-4.612-.668-2.491-1.481-5.023-.369-7.675a3.126,3.126,0,0,1,2.5-2.14c3.447-.637,8.529,2.612,8.434,8.256" transform="translate(-166.943 -89.751)" fill="#dffbda" fill-rule="evenodd"/>
      <path id="Path_817-2" data-name="Path 817" d="M275.188,301.939c1.306-.2,2.639.543,3.882,1.9,3.046,3.34,3.264,3.713,1.6,8.753a6.189,6.189,0,0,1-.669,1.478c-.71,1.081-1.035,2.7-2.523,2.794a5.224,5.224,0,0,1-4.434-1.683c-2.134-2.354-3.02-7.281-1.86-10.425.872-2.368,1.411-2.794,4-2.821" transform="translate(-168.223 -84.652)" fill="#fff79e" fill-rule="evenodd"/>
      <path id="Path_818-2" data-name="Path 818" d="M280.24,322.066c-.034-3.859,2.038-6.013,4.8-5.426a16.168,16.168,0,0,1,4.187,1.659,4.048,4.048,0,0,1,2.029,4.142,13.845,13.845,0,0,1-2.375,6.9c-2.33,3.1-5.189,2.267-6.263-.586-.483-1.281-1.187-2.457-1.643-3.745a24.621,24.621,0,0,1-.737-2.942" transform="translate(-166.319 -79.655)" fill="#fff79e" fill-rule="evenodd"/>
      <path id="Path_819-2" data-name="Path 819" d="M269.346,299.558a3.413,3.413,0,0,1-3.282-1.489c-2.956-3.465-3.127-6.969-.351-10.606a3.2,3.2,0,0,1,1.91-1.086c3.1-.53,5.761,1.337,6.913,4.7.176.512.362,1.022.536,1.54.989,2.934-.18,5.683-2.806,6.441a24.46,24.46,0,0,1-2.92.5" transform="translate(-169.604 -89.984)" fill="#fff79e" fill-rule="evenodd"/>
      <path id="Path_820-2" data-name="Path 820" d="M253.977,275.078a4.692,4.692,0,0,1,3.766,1.522c1.564,1.587,3.237,3.061,3.876,5.486.7,2.669-.825,5.815-3.2,6.624a3.371,3.371,0,0,1-3.826-.9c-1.886-2.343-4.058-4.507-4.789-7.82-.562-2.549.048-4.027,2.332-4.645a15.639,15.639,0,0,1,1.841-.271" transform="translate(-172.416 -93.814)" fill="#dffbda" fill-rule="evenodd"/>
      <path id="Path_821-2" data-name="Path 821" d="M241.2,290.746a4.077,4.077,0,0,1-3.783-1.941,13.054,13.054,0,0,1-2.068-8.193,1.876,1.876,0,0,1,.4-1.127,12.111,12.111,0,0,0,3.12-3.973,1.126,1.126,0,0,1,.981-.416,25.822,25.822,0,0,1,3.639.7,2.056,2.056,0,0,1,1.405,1.768,5.388,5.388,0,0,1,.072,2.455c-1.16,2.978.218,6.435-1.519,9.288a2.51,2.51,0,0,1-2.246,1.439" transform="translate(-175.27 -93.807)" fill="#fbd1ea" fill-rule="evenodd"/>
      <path id="Path_822-2" data-name="Path 822" d="M263.119,280.016a21.706,21.706,0,0,1,.48-2.6c.7-2.452,2.917-3.545,5.031-2.444a9.62,9.62,0,0,1,5.2,8,4.848,4.848,0,0,1-2.095,4.934,4.521,4.521,0,0,1-4.965.306,6.354,6.354,0,0,1-3.483-5.466c-.044-.691-.088-1.386-.171-2.734" transform="translate(-169.727 -93.992)" fill="#fbd1ea" fill-rule="evenodd"/>
      <path id="Path_823-2" data-name="Path 823" d="M260.711,296.327c1.832-.027,3.33,1.592,4.626,3.555a2.639,2.639,0,0,1,.236,2.381,33.447,33.447,0,0,0-1.411,6.861c-.285,2.354-2.024,2.989-3.9,1.73-2.516-1.687-3.795-4.377-4.592-7.32-.561-2.081.29-4.162,1.183-5.924.587-1.156,1.964-1.63,3.855-1.284" transform="translate(-171.245 -86.595)" fill="#dffbda" fill-rule="evenodd"/>
      <path id="Path_824-2" data-name="Path 824" d="M260.4,311.629c2.1,0,3.958,1.737,5.372,4.158a2.915,2.915,0,0,1,.192,1.965,16.851,16.851,0,0,1-3.631,6.69c-1.417,1.636-3.211,1.549-4.523-.268a17.4,17.4,0,0,1-1.9-3.971,13.628,13.628,0,0,1-.564-2.813,4.777,4.777,0,0,1,5.054-5.761" transform="translate(-171.288 -81.333)" fill="#fbd1ea" fill-rule="evenodd"/>
      <path id="Path_825-2" data-name="Path 825" d="M254.454,298.012a4.874,4.874,0,0,1-3.218,4.887,5.687,5.687,0,0,1-6.4-2.968,12.029,12.029,0,0,1-1.346-5.942c.171-1.989.936-3.069,2.628-3.465a8.385,8.385,0,0,0,1.824-.271c1.748-.879,2.947.148,3.823,1.505a39.126,39.126,0,0,1,2.5,5.057,3.579,3.579,0,0,1,.2,1.2" transform="translate(-173.641 -88.742)" fill="#fff79e" fill-rule="evenodd"/>
      <path id="Path_826-2" data-name="Path 826" d="M289.491,281.939a12.3,12.3,0,0,1-.829,2.357c-2.2,3.874-5.06,3.337-7.182.279a9.419,9.419,0,0,1-1.45-7.053c.436-2.484,1.851-3.48,4.035-3.128,3.742.608,5.131,3.2,5.426,7.545" transform="translate(-166.392 -94.068)" fill="#fff79e" fill-rule="evenodd"/>
      <path id="Path_827-2" data-name="Path 827" d="M224.56,281.44c-.024,4.35-1.963,7.375-4.287,10.192a1.873,1.873,0,0,1-2.056.637,4.578,4.578,0,0,1-3.29-2.506c-1.576-3.457-2.512-6.989-.863-10.778.219-.5.394-1.026.577-1.543.561-1.59,1.145-3.139,2.989-3.269,2.206-.161,4.216.1,5.562,2.475a7.728,7.728,0,0,1,1.368,4.791" transform="translate(-179.663 -94.133)" fill="#dffbda" fill-rule="evenodd"/>
      <path id="Path_828-2" data-name="Path 828" d="M190.695,299.746c5.14.557,7.651,5.788,5.663,10.453a25.233,25.233,0,0,1-1.853,3.115,3.889,3.889,0,0,1-4.254,1.885c-2.811-.422-4.432-2.129-5.132-5.2-.51-2.233-.659-4.329.912-6.2a23.055,23.055,0,0,0,1.436-2.424,3.177,3.177,0,0,1,3.227-1.634" transform="translate(-185.322 -85.4)" fill="#fbd1ea" fill-rule="evenodd"/>
      <path id="Path_829-2" data-name="Path 829" d="M188.51,295.307a6.418,6.418,0,0,1-3.854,6.023,2.725,2.725,0,0,1-1.441.148c-2.469-.5-4.507-1.768-5.27-4.612-.668-2.491-1.481-5.023-.369-7.675a3.126,3.126,0,0,1,2.5-2.14c3.447-.637,8.529,2.612,8.434,8.256" transform="translate(-186.863 -89.751)" fill="#dffbda" fill-rule="evenodd"/>
      <path id="Path_830-2" data-name="Path 830" d="M180.16,322.066c-.034-3.859,2.038-6.013,4.8-5.426a16.169,16.169,0,0,1,4.187,1.659,4.048,4.048,0,0,1,2.029,4.142,13.845,13.845,0,0,1-2.375,6.9c-2.33,3.1-5.189,2.267-6.263-.586-.483-1.281-1.187-2.457-1.643-3.745a25.1,25.1,0,0,1-.737-2.942" transform="translate(-186.239 -79.655)" fill="#fff79e" fill-rule="evenodd"/>
      <path id="Path_831-2" data-name="Path 831" d="M190.872,319.007c.191-.734.39-1.683.682-2.592a3.589,3.589,0,0,1,4.173-2.459,8.5,8.5,0,0,1,5.228,4.319,5.516,5.516,0,0,1-.472,6.825c-2.706,3.394-4.231,3.49-7.406.1a9.331,9.331,0,0,1-2.2-6.19" transform="translate(-184.111 -80.569)" fill="#fff79e" fill-rule="evenodd"/>
      <path id="Path_832-2" data-name="Path 832" d="M203.2,280.941c.126-1.321.169-2.294.321-3.243a3,3,0,0,1,2.153-2.585,5.809,5.809,0,0,1,6.182,1.724,3.914,3.914,0,0,1,.959,2.153,18.861,18.861,0,0,1-.11,4.52c-.386,2.314-1.418,4.125-3.836,4.262a1.179,1.179,0,0,0-.357.111c-2.885,1.187-4-.168-4.854-3.2a22.2,22.2,0,0,1-.459-3.747" transform="translate(-181.653 -93.889)" fill="#fff79e" fill-rule="evenodd"/>
      <path id="Path_833-2" data-name="Path 833" d="M204.112,291.34a3.028,3.028,0,0,1,3.125-3.243,17.621,17.621,0,0,1,4.01.883c2.661,1.019,4.243,3.4,5.132,6.2.725,2.278-1.9,4.947-4.18,4.42a20.672,20.672,0,0,1-3.548-1.187c-2.356-1.015-4.5-4.436-4.538-7.072" transform="translate(-181.472 -89.374)" fill="#fbd1ea" fill-rule="evenodd"/>
      <path id="Path_834-2" data-name="Path 834" d="M189.411,281.939a12.3,12.3,0,0,1-.829,2.357c-2.2,3.874-5.06,3.337-7.182.279a9.419,9.419,0,0,1-1.45-7.053c.436-2.484,1.851-3.48,4.035-3.128,3.742.608,5.131,3.2,5.426,7.545" transform="translate(-186.312 -94.068)" fill="#fff79e" fill-rule="evenodd"/>
      <path id="Path_835-2" data-name="Path 835" d="M205.572,299.719a3.837,3.837,0,0,1,3.269,1.854,26.271,26.271,0,0,1,1.965,4,2.33,2.33,0,0,1-.048,1.6,9.02,9.02,0,0,1-4.147,4.621c-1.878.942-4.062-.456-5.038-2.944a8.607,8.607,0,0,1,.325-6.807c.807-1.865,2.573-1.922,3.675-2.321" transform="translate(-182.088 -85.399)" fill="#dffbda" fill-rule="evenodd"/>
      <path id="Path_836-2" data-name="Path 836" d="M192.763,278.251c.065-2.233,1.278-3.615,3.23-3.7a5.062,5.062,0,0,1,5.246,3.105c.174.365.417.687.607,1.046,1.272,2.4,1.056,4.389-.728,6.318a9.414,9.414,0,0,1-1.478,1.241,1.939,1.939,0,0,1-2.118.15,9.152,9.152,0,0,1-4.759-8.165" transform="translate(-183.731 -93.992)" fill="#fbd1ea" fill-rule="evenodd"/>
      <path id="Path_837-2" data-name="Path 837" d="M199.495,293.191a5.582,5.582,0,0,1-1.411,3.451,2.571,2.571,0,0,1-2.375.979c-3.156-.685-6.285-4.032-5.647-7.968a4.406,4.406,0,0,1,1.107-2.087,19.405,19.405,0,0,1,2.149-1.646,2.717,2.717,0,0,1,2.837-.362c2.451.828,2.649,1.1,2.9,4.047.094,1.1.27,2.2.444,3.586" transform="translate(-184.285 -90.313)" fill="#fff79e" fill-rule="evenodd"/>
      <path id="Path_838-2" data-name="Path 838" d="M274.6,191.98c-.024,4.35-1.964,7.375-4.287,10.192a1.873,1.873,0,0,1-2.056.637,4.581,4.581,0,0,1-3.29-2.506c-1.576-3.457-2.512-6.989-.863-10.778.219-.5.395-1.026.577-1.543.561-1.59,1.145-3.139,2.989-3.269,2.206-.161,4.216.1,5.562,2.475a7.728,7.728,0,0,1,1.368,4.791" transform="translate(-169.703 -124.673)" fill="#dffbda" fill-rule="evenodd"/>
      <path id="Path_839-2" data-name="Path 839" d="M240.735,210.287c5.14.557,7.651,5.788,5.663,10.453a25.226,25.226,0,0,1-1.852,3.115,3.889,3.889,0,0,1-4.254,1.885c-2.811-.423-4.432-2.129-5.132-5.2-.51-2.233-.66-4.329.912-6.2a23.042,23.042,0,0,0,1.436-2.424,3.175,3.175,0,0,1,3.227-1.634" transform="translate(-175.362 -115.94)" fill="#fbd1ea" fill-rule="evenodd"/>
      <path id="Path_840-2" data-name="Path 840" d="M238.55,205.847a6.418,6.418,0,0,1-3.854,6.023,2.725,2.725,0,0,1-1.441.148c-2.469-.5-4.507-1.768-5.27-4.61-.668-2.492-1.481-5.025-.369-7.677a3.126,3.126,0,0,1,2.5-2.14c3.447-.637,8.529,2.612,8.434,8.256" transform="translate(-176.903 -120.291)" fill="#dffbda" fill-rule="evenodd"/>
      <path id="Path_841-2" data-name="Path 841" d="M225.148,212.479c1.306-.2,2.639.543,3.882,1.9,3.046,3.34,3.264,3.713,1.6,8.753a6.19,6.19,0,0,1-.669,1.478c-.71,1.081-1.035,2.7-2.523,2.794a5.224,5.224,0,0,1-4.434-1.683c-2.134-2.354-3.02-7.281-1.86-10.425.872-2.368,1.411-2.794,4-2.821" transform="translate(-178.183 -115.192)" fill="#fff79e" fill-rule="evenodd"/>
      <path id="Path_842-2" data-name="Path 842" d="M230.2,232.606c-.034-3.859,2.038-6.013,4.8-5.426a16.169,16.169,0,0,1,4.187,1.659,4.048,4.048,0,0,1,2.029,4.142,13.845,13.845,0,0,1-2.375,6.9c-2.33,3.1-5.189,2.267-6.263-.586-.483-1.281-1.187-2.457-1.643-3.745a24.856,24.856,0,0,1-.737-2.942" transform="translate(-176.279 -110.195)" fill="#fff79e" fill-rule="evenodd"/>
      <path id="Path_843-2" data-name="Path 843" d="M219.306,210.1a3.413,3.413,0,0,1-3.282-1.489c-2.956-3.465-3.127-6.968-.351-10.606a3.2,3.2,0,0,1,1.91-1.087c3.1-.53,5.761,1.337,6.912,4.7.176.512.362,1.022.536,1.54.989,2.934-.18,5.683-2.806,6.441a24.446,24.446,0,0,1-2.92.5" transform="translate(-179.564 -120.525)" fill="#fff79e" fill-rule="evenodd"/>
      <path id="Path_844-2" data-name="Path 844" d="M203.937,185.618a4.692,4.692,0,0,1,3.766,1.522c1.564,1.587,3.237,3.061,3.876,5.486.7,2.669-.825,5.815-3.2,6.624a3.37,3.37,0,0,1-3.826-.9c-1.886-2.343-4.058-4.507-4.789-7.82-.562-2.549.048-4.027,2.332-4.644a15.385,15.385,0,0,1,1.841-.272" transform="translate(-182.376 -124.355)" fill="#dffbda" fill-rule="evenodd"/>
      <path id="Path_845-2" data-name="Path 845" d="M191.156,201.286a4.077,4.077,0,0,1-3.783-1.941,13.054,13.054,0,0,1-2.068-8.193,1.875,1.875,0,0,1,.4-1.127,12.111,12.111,0,0,0,3.12-3.973,1.13,1.13,0,0,1,.981-.416,26.011,26.011,0,0,1,3.639.7,2.056,2.056,0,0,1,1.405,1.768,5.387,5.387,0,0,1,.072,2.455c-1.159,2.978.218,6.435-1.519,9.288a2.51,2.51,0,0,1-2.246,1.439" transform="translate(-185.23 -124.348)" fill="#fbd1ea" fill-rule="evenodd"/>
      <path id="Path_846-2" data-name="Path 846" d="M213.079,190.556a21.7,21.7,0,0,1,.48-2.6c.7-2.452,2.917-3.545,5.031-2.444a9.62,9.62,0,0,1,5.2,8,4.848,4.848,0,0,1-2.095,4.934,4.521,4.521,0,0,1-4.965.306,6.354,6.354,0,0,1-3.483-5.466c-.044-.691-.088-1.386-.171-2.734" transform="translate(-179.687 -124.533)" fill="#fbd1ea" fill-rule="evenodd"/>
      <path id="Path_847-2" data-name="Path 847" d="M210.671,206.867c1.832-.027,3.33,1.592,4.626,3.555a2.64,2.64,0,0,1,.236,2.381,33.444,33.444,0,0,0-1.411,6.861c-.285,2.354-2.024,2.989-3.9,1.73-2.516-1.687-3.795-4.377-4.592-7.32-.561-2.08.29-4.162,1.183-5.924.588-1.156,1.964-1.63,3.855-1.284" transform="translate(-181.205 -117.135)" fill="#dffbda" fill-rule="evenodd"/>
      <path id="Path_848-2" data-name="Path 848" d="M240.912,229.547c.191-.734.39-1.683.682-2.592a3.589,3.589,0,0,1,4.173-2.459,8.5,8.5,0,0,1,5.228,4.319,5.516,5.516,0,0,1-.472,6.825c-2.706,3.394-4.231,3.49-7.406.1a9.331,9.331,0,0,1-2.2-6.19" transform="translate(-174.151 -111.109)" fill="#fff79e" fill-rule="evenodd"/>
      <path id="Path_849-2" data-name="Path 849" d="M210.359,222.169c2.1,0,3.958,1.737,5.372,4.158a2.915,2.915,0,0,1,.192,1.965,16.85,16.85,0,0,1-3.631,6.689c-1.417,1.637-3.211,1.549-4.523-.268a17.4,17.4,0,0,1-1.9-3.97,13.627,13.627,0,0,1-.564-2.813,4.776,4.776,0,0,1,5.054-5.761" transform="translate(-181.248 -111.874)" fill="#fbd1ea" fill-rule="evenodd"/>
      <path id="Path_850-2" data-name="Path 850" d="M204.412,208.552a4.872,4.872,0,0,1-3.217,4.887,5.688,5.688,0,0,1-6.4-2.968,12.016,12.016,0,0,1-1.347-5.942c.171-1.989.936-3.069,2.627-3.465a8.381,8.381,0,0,0,1.825-.271c1.748-.879,2.947.148,3.821,1.505a39.128,39.128,0,0,1,2.5,5.057,3.536,3.536,0,0,1,.2,1.2" transform="translate(-183.601 -119.283)" fill="#fff79e" fill-rule="evenodd"/>
      <path id="Path_851-2" data-name="Path 851" d="M253.239,191.482c.126-1.321.169-2.294.321-3.243a3,3,0,0,1,2.153-2.585,5.808,5.808,0,0,1,6.182,1.724,3.914,3.914,0,0,1,.959,2.153,18.862,18.862,0,0,1-.11,4.52c-.386,2.314-1.418,4.125-3.836,4.262a1.18,1.18,0,0,0-.357.111c-2.885,1.187-4-.168-4.854-3.2a22.205,22.205,0,0,1-.459-3.746" transform="translate(-171.693 -124.43)" fill="#fff79e" fill-rule="evenodd"/>
      <path id="Path_852-2" data-name="Path 852" d="M233.608,261.837a9.366,9.366,0,0,1-.783,2.857c-1.747,2.676-2.788,3.215-5.688,1.6-3.61-2.009-4.914-7.485-3.555-10.272a3.616,3.616,0,0,1,2.155-2.082c3.378-1.111,6.621.915,7.514,4.719a28.189,28.189,0,0,1,.357,3.175" transform="translate(-177.701 -101.13)" fill="#dffbda" fill-rule="evenodd"/>
      <path id="Path_853-2" data-name="Path 853" d="M226.674,235.65a10.121,10.121,0,0,1-.947,5.2c-1.084,2.126-3.221,2.774-5.044,1.445a3.736,3.736,0,0,1-1.113-1.066c-1.055-1.858-2.09-3.734-3.025-5.666a4.806,4.806,0,0,1-.253-2.007,1.535,1.535,0,0,1,.4-1.1,18.528,18.528,0,0,1,4.221-2.329,4.808,4.808,0,0,1,4.58,1,3.207,3.207,0,0,1,.968,1.647,18.974,18.974,0,0,1,.211,2.867" transform="translate(-179.048 -109.225)" fill="#dffbda" fill-rule="evenodd"/>
      <path id="Path_854-2" data-name="Path 854" d="M254.152,201.88a3.028,3.028,0,0,1,3.125-3.243,17.623,17.623,0,0,1,4.01.883c2.661,1.019,4.243,3.4,5.132,6.2.725,2.278-1.9,4.947-4.18,4.42a20.794,20.794,0,0,1-3.548-1.187c-2.356-1.015-4.5-4.436-4.538-7.072" transform="translate(-171.512 -119.914)" fill="#fbd1ea" fill-rule="evenodd"/>
      <path id="Path_855-2" data-name="Path 855" d="M239.451,192.479a12.3,12.3,0,0,1-.829,2.357c-2.2,3.874-5.06,3.337-7.182.279a9.419,9.419,0,0,1-1.45-7.053c.436-2.484,1.851-3.48,4.035-3.128,3.742.608,5.131,3.2,5.426,7.545" transform="translate(-176.352 -124.609)" fill="#fff79e" fill-rule="evenodd"/>
      <path id="Path_856-2" data-name="Path 856" d="M255.612,210.259a3.837,3.837,0,0,1,3.269,1.854,26.274,26.274,0,0,1,1.965,4,2.329,2.329,0,0,1-.048,1.6,9.02,9.02,0,0,1-4.147,4.621c-1.878.942-4.062-.456-5.038-2.944a8.607,8.607,0,0,1,.325-6.808c.807-1.865,2.573-1.922,3.675-2.321" transform="translate(-172.128 -115.939)" fill="#dffbda" fill-rule="evenodd"/>
      <path id="Path_857-2" data-name="Path 857" d="M242.8,188.791c.065-2.233,1.278-3.615,3.23-3.7a5.062,5.062,0,0,1,5.246,3.105c.174.365.417.687.607,1.046,1.272,2.4,1.056,4.389-.728,6.318a9.412,9.412,0,0,1-1.478,1.241,1.939,1.939,0,0,1-2.117.15,9.152,9.152,0,0,1-4.759-8.165" transform="translate(-173.771 -124.532)" fill="#fbd1ea" fill-rule="evenodd"/>
      <path id="Path_858-2" data-name="Path 858" d="M249.535,203.731a5.582,5.582,0,0,1-1.411,3.451,2.571,2.571,0,0,1-2.375.979c-3.156-.685-6.285-4.032-5.647-7.968a4.406,4.406,0,0,1,1.107-2.087,19.406,19.406,0,0,1,2.149-1.646,2.717,2.717,0,0,1,2.837-.362c2.451.828,2.649,1.1,2.9,4.047.094,1.1.27,2.2.444,3.586" transform="translate(-174.325 -120.853)" fill="#fff79e" fill-rule="evenodd"/>
      <path id="Path_859-2" data-name="Path 859" d="M241.462,249.132a17.4,17.4,0,0,1-.435,2.435c-1.018,3.115-4.259,3.722-6.261,1.21a13.619,13.619,0,0,1-2.635-6.354,10.544,10.544,0,0,1,.392-3.239.952.952,0,0,1,.464-.61c1.646-.7,3.321-1.408,4.914.117a23.1,23.1,0,0,1,2.423,2.566,5.425,5.425,0,0,1,1.139,3.877" transform="translate(-175.903 -105.178)" fill="#fbd1ea" fill-rule="evenodd"/>
      <path id="Path_860-2" data-name="Path 860" d="M219.74,242.462a13.915,13.915,0,0,1,1.646.252,6.476,6.476,0,0,1,4.734,6.086c.239,2.85-2.746,5.292-5.059,4.078a6.925,6.925,0,0,1-3.329-3.732,21.236,21.236,0,0,1-.99-3.961,2.173,2.173,0,0,1,2.076-2.72c.245-.009.492,0,.922,0" transform="translate(-178.966 -104.947)" fill="#fff79e" fill-rule="evenodd"/>
      <path id="Path_861-2" data-name="Path 861" d="M280.24,143.146c-.034-3.859,2.038-6.013,4.8-5.426a16.17,16.17,0,0,1,4.187,1.659,4.048,4.048,0,0,1,2.029,4.142,13.845,13.845,0,0,1-2.375,6.9c-2.33,3.1-5.189,2.267-6.263-.586-.483-1.281-1.187-2.459-1.643-3.745a24.619,24.619,0,0,1-.737-2.942" transform="translate(-166.319 -140.736)" fill="#fff79e" fill-rule="evenodd"/>
      <path id="Path_862-2" data-name="Path 862" d="M260.4,132.709c2.1,0,3.958,1.737,5.372,4.158a2.915,2.915,0,0,1,.192,1.965,16.85,16.85,0,0,1-3.631,6.69c-1.417,1.636-3.211,1.549-4.523-.268a17.4,17.4,0,0,1-1.9-3.971,13.629,13.629,0,0,1-.564-2.813,4.776,4.776,0,0,1,5.054-5.761" transform="translate(-171.288 -142.414)" fill="#fbd1ea" fill-rule="evenodd"/>
      <path id="Path_863-2" data-name="Path 863" d="M283.648,172.377a9.366,9.366,0,0,1-.783,2.857c-1.747,2.676-2.788,3.215-5.69,1.6-3.609-2.009-4.912-7.485-3.554-10.272a3.616,3.616,0,0,1,2.155-2.082c3.378-1.111,6.621.915,7.514,4.719a28.18,28.18,0,0,1,.357,3.175" transform="translate(-167.741 -131.67)" fill="#dffbda" fill-rule="evenodd"/>
      <path id="Path_864-2" data-name="Path 864" d="M276.714,146.19a10.12,10.12,0,0,1-.947,5.2c-1.084,2.126-3.221,2.774-5.044,1.445a3.735,3.735,0,0,1-1.113-1.066c-1.055-1.858-2.09-3.734-3.025-5.666a4.807,4.807,0,0,1-.253-2.007,1.535,1.535,0,0,1,.4-1.1,18.529,18.529,0,0,1,4.221-2.329,4.808,4.808,0,0,1,4.58,1,3.206,3.206,0,0,1,.968,1.647,18.97,18.97,0,0,1,.211,2.867" transform="translate(-169.088 -139.765)" fill="#dffbda" fill-rule="evenodd"/>
      <path id="Path_865-2" data-name="Path 865" d="M291.5,159.672a17.408,17.408,0,0,1-.435,2.435c-1.018,3.115-4.259,3.722-6.261,1.21a13.619,13.619,0,0,1-2.635-6.354,10.545,10.545,0,0,1,.392-3.239.952.952,0,0,1,.464-.61c1.646-.7,3.321-1.408,4.914.117a23.108,23.108,0,0,1,2.423,2.566,5.426,5.426,0,0,1,1.139,3.877" transform="translate(-165.943 -135.718)" fill="#fbd1ea" fill-rule="evenodd"/>
      <path id="Path_866-2" data-name="Path 866" d="M269.78,153a14.16,14.16,0,0,1,1.646.251,6.479,6.479,0,0,1,4.734,6.087c.239,2.85-2.746,5.292-5.059,4.078a6.925,6.925,0,0,1-3.329-3.732,21.24,21.24,0,0,1-.99-3.961,2.173,2.173,0,0,1,2.076-2.72c.245-.009.492,0,.922,0" transform="translate(-169.006 -135.487)" fill="#fff79e" fill-rule="evenodd"/>
      <path id="Path_867-2" data-name="Path 867" d="M180.16,143.146c-.034-3.859,2.038-6.013,4.8-5.426a16.17,16.17,0,0,1,4.187,1.659,4.048,4.048,0,0,1,2.029,4.142,13.845,13.845,0,0,1-2.375,6.9c-2.33,3.1-5.189,2.267-6.263-.586-.483-1.281-1.187-2.459-1.643-3.745a25.1,25.1,0,0,1-.737-2.942" transform="translate(-186.239 -140.736)" fill="#fff79e" fill-rule="evenodd"/>
      <path id="Path_868-2" data-name="Path 868" d="M190.872,140.087c.191-.734.39-1.683.682-2.592a3.589,3.589,0,0,1,4.173-2.459,8.5,8.5,0,0,1,5.228,4.319,5.516,5.516,0,0,1-.472,6.825c-2.706,3.394-4.231,3.49-7.406.1a9.331,9.331,0,0,1-2.2-6.19" transform="translate(-184.111 -141.65)" fill="#fff79e" fill-rule="evenodd"/>
      <path id="Path_869-2" data-name="Path 869" d="M191.422,159.672a17.571,17.571,0,0,1-.434,2.435c-1.019,3.115-4.26,3.722-6.263,1.21a13.619,13.619,0,0,1-2.636-6.354,10.547,10.547,0,0,1,.392-3.239.952.952,0,0,1,.464-.61c1.646-.7,3.321-1.408,4.914.117a23.1,23.1,0,0,1,2.423,2.566,5.426,5.426,0,0,1,1.139,3.877" transform="translate(-185.863 -135.718)" fill="#fbd1ea" fill-rule="evenodd"/>
    </g>
  </g>
</svg>
