<svg xmlns="http://www.w3.org/2000/svg" xmlns:xlink="http://www.w3.org/1999/xlink" width="290.874" height="312.156" viewBox="0 0 290.874 312.156">
  <defs>
    <linearGradient id="linear-gradient" x1="0.499" y1="0.526" x2="0.499" y2="0.945" gradientUnits="objectBoundingBox">
      <stop offset="0" stop-color="#786495"/>
      <stop offset="1" stop-color="#008aae"/>
    </linearGradient>
    <linearGradient id="linear-gradient-2" x1="0.5" y1="0.527" x2="0.5" y2="0.947" xlink:href="#linear-gradient"/>
    <linearGradient id="linear-gradient-3" x1="0.501" y1="0.527" x2="0.501" y2="0.947" xlink:href="#linear-gradient"/>
    <linearGradient id="linear-gradient-4" x1="0.5" y1="0.529" x2="0.5" y2="0.949" gradientUnits="objectBoundingBox">
      <stop offset="0" stop-color="#ebc0e4"/>
      <stop offset="1" stop-color="#55e8ff"/>
    </linearGradient>
    <linearGradient id="linear-gradient-5" y1="0.445" y2="0.94" xlink:href="#linear-gradient-4"/>
    <linearGradient id="linear-gradient-6" y1="-0.566" y2="1.759" xlink:href="#linear-gradient-4"/>
    <linearGradient id="linear-gradient-7" y1="0.445" y2="0.94" xlink:href="#linear-gradient-4"/>
    <linearGradient id="linear-gradient-8" y1="0.529" y2="0.949" xlink:href="#linear-gradient-4"/>
    <linearGradient id="linear-gradient-9" y1="0.527" y2="0.947" xlink:href="#linear-gradient-4"/>
    <linearGradient id="linear-gradient-10" x1="0.499" y1="0.527" x2="0.499" y2="0.946" gradientUnits="objectBoundingBox">
      <stop offset="0" stop-color="#78a743"/>
      <stop offset="1" stop-color="#00cf5c"/>
    </linearGradient>
    <linearGradient id="linear-gradient-11" x1="0.5" y1="0.527" x2="0.5" y2="0.947" xlink:href="#linear-gradient-10"/>
    <linearGradient id="linear-gradient-12" x1="0.501" y1="0.527" x2="0.501" y2="0.947" xlink:href="#linear-gradient-10"/>
    <linearGradient id="linear-gradient-13" x1="0.5" y1="0.529" x2="0.5" y2="0.949" gradientUnits="objectBoundingBox">
      <stop offset="0" stop-color="#ebff90"/>
      <stop offset="1" stop-color="#55ffa9"/>
    </linearGradient>
    <linearGradient id="linear-gradient-14" y1="0.445" y2="0.94" xlink:href="#linear-gradient-13"/>
    <linearGradient id="linear-gradient-15" y1="-0.566" y2="1.759" xlink:href="#linear-gradient-13"/>
    <linearGradient id="linear-gradient-16" y1="0.445" y2="0.94" xlink:href="#linear-gradient-13"/>
    <linearGradient id="linear-gradient-17" y1="0.529" y2="0.949" xlink:href="#linear-gradient-13"/>
    <linearGradient id="linear-gradient-18" y1="0.527" y2="0.947" xlink:href="#linear-gradient-13"/>
    <clipPath id="clip-path">
      <rect id="Rectangle_187" data-name="Rectangle 187" width="240.389" height="42.476" fill="none"/>
    </clipPath>
  </defs>
  <g id="small_logo" transform="translate(1.002)">
    <g id="_レイヤー_1-2" transform="translate(0 60.163)">
      <g id="Group_451" data-name="Group 451" transform="translate(0 0)">
        <g id="Group_440" data-name="Group 440" transform="translate(0.339 61.648)">
          <path id="Path_912" data-name="Path 912" d="M151.123,92.939a6.286,6.286,0,0,0-1.773-2.692c-.138-.156-.294-.3-.45-.45s-.294-.3-.45-.45c-.138-.156-.294-.3-.45-.45s-.294-.3-.45-.45c-.138-.156-.294-.3-.45-.45s-.294-.3-.45-.45c-.138-.156-.294-.3-.45-.45s-.294-.3-.45-.45-.294-.3-.45-.45c-.138-.156-.294-.3-.45-.45s-.294-.3-.45-.45c-.138-.156-.294-.3-.45-.45s-.294-.3-.45-.45c-.138-.156-.294-.3-.45-.45s-.294-.3-.45-.45c-.138-.156-.294-.3-.45-.45a6.268,6.268,0,0,0-4.649-2.076h-13.68a6.3,6.3,0,0,0-5.981,4.327l-20.415,62.19V80.352a4.357,4.357,0,0,0-1.525-3.3,37566.532,37566.532,0,0,0-.9-.9,37566.532,37566.532,0,0,0-.9-.9,4433479751.6,4433479751.6,0,0,0-.9-.9,75132.109,75132.109,0,0,1-.9-.9,75132.109,75132.109,0,0,0-.9-.9,18783.743,18783.743,0,0,0-.9-.9,75134.018,75134.018,0,0,1-.9-.9,75132.109,75132.109,0,0,0-.9-.9,4.342,4.342,0,0,0-3.3-1.525H66.571a4.374,4.374,0,0,0-3.693,2.03L47.194,95.006,36.068,77.918a4.345,4.345,0,0,0-.79-.9,3.473,3.473,0,0,0-.45-.45,4.164,4.164,0,0,0-.45-.45,3.473,3.473,0,0,0-.45-.45,3.472,3.472,0,0,0-.45-.45,3.474,3.474,0,0,0-.45-.45,3.474,3.474,0,0,0-.45-.45,3.472,3.472,0,0,0-.45-.45,3.474,3.474,0,0,0-.45-.45,3.474,3.474,0,0,0-.45-.45,3.473,3.473,0,0,0-.45-.45,3.474,3.474,0,0,0-.45-.45,3.473,3.473,0,0,0-.45-.45,3.473,3.473,0,0,0-.45-.45,3.474,3.474,0,0,0-.45-.45,3.473,3.473,0,0,0-.45-.45,3.474,3.474,0,0,0-.45-.45,4.386,4.386,0,0,0-3.326-1.534H5.933A4.372,4.372,0,0,0,1.56,72.653v74.97a4.357,4.357,0,0,0,1.525,3.3,4.167,4.167,0,0,0,.45.45,4.168,4.168,0,0,0,.45.45,4.166,4.166,0,0,0,.45.45,4.16,4.16,0,0,0,.45.45,4.165,4.165,0,0,0,.45.45,4.164,4.164,0,0,0,.45.45,4.166,4.166,0,0,0,.45.45,4.166,4.166,0,0,0,.45.45,4.169,4.169,0,0,0,.45.45,4.168,4.168,0,0,0,.45.45,4.164,4.164,0,0,0,.45.45,4.167,4.167,0,0,0,.45.45,4.168,4.168,0,0,0,.45.45,4.167,4.167,0,0,0,.45.45,4.164,4.164,0,0,0,.45.45,4.162,4.162,0,0,0,.45.45,4.342,4.342,0,0,0,3.3,1.525h15.15a4.372,4.372,0,0,0,4.373-4.373V112.27L42.15,125.2a4.6,4.6,0,0,0,.845.891,6400207395005.584,6400207395005.584,0,0,0,.9.9,37567.487,37567.487,0,0,1,.9.9,75137.839,75137.839,0,0,0,.9.9,150272.175,150272.175,0,0,1,.9.9,150272.175,150272.175,0,0,1,.9.9,25045.769,25045.769,0,0,1,.9.9,150269.631,150269.631,0,0,0,.9.9,150270.265,150270.265,0,0,0,.9.9,4.356,4.356,0,0,0,6.762-.423l9.013-12.725v27.581a4.357,4.357,0,0,0,1.525,3.3,37567.169,37567.169,0,0,0,.9.9,18784.221,18784.221,0,0,0,.9.9,37567.805,37567.805,0,0,0,.9.9,37569.079,37569.079,0,0,1,.9.9,12522.071,12522.071,0,0,1,.9.9,37569.4,37569.4,0,0,0,.9.9,18783.107,18783.107,0,0,0,.9.9,37569.078,37569.078,0,0,0,.9.9,4.342,4.342,0,0,0,3.3,1.525H93.2a4.372,4.372,0,0,0,4.373-4.373v-4.511a2.851,2.851,0,0,0,.606.68,12522.743,12522.743,0,0,1,.9.9,75134.655,75134.655,0,0,1,.9.9,75135.292,75135.292,0,0,1,.9.9,37567.487,37567.487,0,0,1,.9.9,75142.3,75142.3,0,0,1,.9.9,75134.654,75134.654,0,0,1,.9.9,75135.291,75135.291,0,0,1,.9.9,18783.743,18783.743,0,0,0,.9.9,2.731,2.731,0,0,0,2.15,1.047h12.541a2.748,2.748,0,0,0,2.637-1.957l3.914-12.872a1.312,1.312,0,0,1,1.268-.937h17l1.893,6.211a2.742,2.742,0,0,0,.937,1.36,2.61,2.61,0,0,0,.45.45,2.98,2.98,0,0,0,.45.45,2.609,2.609,0,0,0,.45.45,37569.079,37569.079,0,0,1,.9.9,2.611,2.611,0,0,0,.45.45,2.979,2.979,0,0,0,.45.45,2.978,2.978,0,0,0,.45.45,2.609,2.609,0,0,0,.45.45,18784.38,18784.38,0,0,0,.9.9,2.61,2.61,0,0,0,.45.45,2.984,2.984,0,0,0,.45.45,2.611,2.611,0,0,0,.45.45,37567.805,37567.805,0,0,0,.9.9,2.75,2.75,0,0,0,2.15,1.038H169.5a2.755,2.755,0,0,0,2.618-3.62L151.3,93.087ZM137.82,121.2h-3.9l1.9-6.523Z" transform="translate(-1.56 -68.28)" stroke="#5b667b" stroke-linejoin="round" stroke-width="2" fill="url(#linear-gradient)"/>
          <path id="Path_913" data-name="Path 913" d="M311.434,90.735a7513,7513,0,0,1-.9-.9,32199.865,32199.865,0,0,1-1.351-1.351,45078.959,45078.959,0,0,1-1.351-1.351,25044.178,25044.178,0,0,0-.9-.9,11199413907606.545,11199413907606.545,0,0,1-.9-.9,37567.805,37567.805,0,0,1-.9-.9,18781.2,18781.2,0,0,0-.9-.9,4.068,4.068,0,0,0-3.087-1.442h-15.1a4.082,4.082,0,0,0-4.079,4.079v62.907a4.053,4.053,0,0,0,1.443,3.087,37568.442,37568.442,0,0,1,.9.9,56350.593,56350.593,0,0,0,1.8,1.8,10245.37,10245.37,0,0,1,1.351,1.351,28174.66,28174.66,0,0,1,1.351,1.351,22538.289,22538.289,0,0,1,1.35,1.351,3.479,3.479,0,0,0,.45.45,4.068,4.068,0,0,0,3.087,1.442h15.1a4.082,4.082,0,0,0,4.079-4.079V93.822A4.054,4.054,0,0,0,311.434,90.735Z" transform="translate(-24.343 -69.402)" stroke="#5b667b" stroke-linejoin="round" stroke-width="2" fill="url(#linear-gradient-2)"/>
          <path id="Path_914" data-name="Path 914" d="M249.661,120.024a5.825,5.825,0,0,1,.018-6.514L272,80.5a2.792,2.792,0,0,0-.588-3.758,2.609,2.609,0,0,0-.45-.45,2.98,2.98,0,0,0-.45-.45,5779.679,5779.679,0,0,1-.9-.9,2.607,2.607,0,0,0-.45-.45,2.981,2.981,0,0,0-.45-.45,25044.178,25044.178,0,0,0-.9-.9,2.98,2.98,0,0,0-.45-.45,25044.673,25044.673,0,0,0-.9-.9,15026.574,15026.574,0,0,1-.9-.9,2.983,2.983,0,0,0-.45-.45,15026.574,15026.574,0,0,0-.9-.9,2.747,2.747,0,0,0-2.168-1.038H246.51a5.845,5.845,0,0,0-4.906,2.674l-21.738,33.782V80.012a4.054,4.054,0,0,0-1.442-3.087,15026.676,15026.676,0,0,0-.9-.9,75133.381,75133.381,0,0,0-.9-.9,15026.574,15026.574,0,0,0-.9-.9,25045.8,25045.8,0,0,0-.9-.9,25044.814,25044.814,0,0,1-.9-.9,25044.814,25044.814,0,0,1-.9-.9,75136.565,75136.565,0,0,0-.9-.9,75135.292,75135.292,0,0,0-.9-.9,4.068,4.068,0,0,0-3.087-1.442h-15.1a4.082,4.082,0,0,0-4.079,4.079v75.549A4.054,4.054,0,0,0,190.393,151a9392.19,9392.19,0,0,1,.9.9,22541.091,22541.091,0,0,1,1.351,1.351,12522.389,12522.389,0,0,1,.9.9,3.476,3.476,0,0,0,.45.45,112707.872,112707.872,0,0,1,1.351,1.351,75135.292,75135.292,0,0,1,1.8,1.8,3.473,3.473,0,0,0,.45.45,4.068,4.068,0,0,0,3.087,1.442h15.1a4.082,4.082,0,0,0,4.079-4.079V115.155l21.949,34.37a5.79,5.79,0,0,0,1.047,1.213c.138.156.294.3.45.45.138.156.294.3.45.45.138.156.294.3.45.45.138.156.294.3.45.45.138.156.294.3.45.45.138.156.294.3.45.45.138.156.294.3.45.45.138.156.294.3.45.45.138.156.294.3.45.45.138.156.294.3.45.45.138.156.294.3.45.45.138.156.294.3.45.45.138.156.294.3.45.45.138.156.294.3.45.45.138.156.294.3.45.45.138.156.294.3.45.45a5.808,5.808,0,0,0,4.318,1.92H271.1a2.787,2.787,0,0,0,2.315-4.336l-23.759-35.51Z" transform="translate(-16.786 -68.28)" stroke="#5b667b" stroke-linejoin="round" stroke-width="2" fill="url(#linear-gradient-3)"/>
        </g>
        <g id="Group_442" data-name="Group 442" transform="translate(0.293 61.703)">
          <path id="Path_915" data-name="Path 915" d="M89.82,72.713v74.97a4.372,4.372,0,0,1-4.373,4.373h-15.2a4.372,4.372,0,0,1-4.373-4.373V102.729a.307.307,0,0,0-.56-.175l-16.06,22.684a4.376,4.376,0,0,1-7.157-.018L26.013,102.214a.307.307,0,0,0-.56.175v45.3a4.372,4.372,0,0,1-4.373,4.373H5.883a4.372,4.372,0,0,1-4.373-4.373V72.713A4.372,4.372,0,0,1,5.883,68.34H24.846a4.372,4.372,0,0,1,3.666,1.984l16.8,25.817a.725.725,0,0,0,1.213,0L62.919,70.37a4.384,4.384,0,0,1,3.693-2.03H85.438a4.372,4.372,0,0,1,4.373,4.373Z" transform="translate(-1.51 -68.34)" stroke="#5b667b" stroke-linejoin="round" stroke-width="2" fill="url(#linear-gradient-4)"/>
          <g id="Group_441" data-name="Group 441" transform="translate(95.465 12.651)">
            <path id="Path_916" data-name="Path 916" d="M154.49,125.87,156,131.089a4.956,4.956,0,0,1-4.759,6.33h-22.7a1.329,1.329,0,0,0-1.268.937l-3.914,12.872a2.748,2.748,0,0,1-2.637,1.957H108.176a2.759,2.759,0,0,1-2.618-3.62l20.727-63.127a6.29,6.29,0,0,1,5.972-4.327h13.68a6.285,6.285,0,0,1,5.972,4.318l20.819,63.136a2.759,2.759,0,0,1-2.618,3.62H157.678a2.748,2.748,0,0,1-2.637-1.957l-14.489-47.49a1.379,1.379,0,0,0-2.646.018l-4.86,16.666a1.464,1.464,0,0,0,1.406,1.874h15.279a4.958,4.958,0,0,1,4.759,3.583Z" transform="translate(-105.417 -82.11)" stroke="#5b667b" stroke-linejoin="round" stroke-width="2" fill="url(#linear-gradient-5)"/>
            <path id="Path_917" data-name="Path 917" d="M143.6,125.84h11.2a2.351,2.351,0,0,1,2.251,1.69l3.014,10.446a2.337,2.337,0,0,1-2.251,2.986H143.6" transform="translate(-108.52 -85.663)" stroke="#5b667b" stroke-linejoin="round" stroke-width="2" fill="url(#linear-gradient-6)"/>
          </g>
          <path id="Path_918" data-name="Path 918" d="M305.223,86.179v62.907a4.082,4.082,0,0,1-4.079,4.079h-15.1a4.082,4.082,0,0,1-4.079-4.079V86.179a4.082,4.082,0,0,1,4.079-4.079h15.1A4.082,4.082,0,0,1,305.223,86.179Z" transform="translate(-24.297 -69.458)" stroke="#5b667b" stroke-linejoin="round" stroke-width="2" fill="url(#linear-gradient-7)"/>
          <path id="Path_919" data-name="Path 919" d="M208.193,152.056h-15.1a4.082,4.082,0,0,1-4.079-4.079V72.419a4.082,4.082,0,0,1,4.079-4.079h15.1a4.082,4.082,0,0,1,4.079,4.079v75.549a4.082,4.082,0,0,1-4.079,4.079Z" transform="translate(-16.745 -68.34)" stroke="#5b667b" stroke-linejoin="round" stroke-width="2" fill="url(#linear-gradient-8)"/>
          <path id="Path_920" data-name="Path 920" d="M268.319,147.9,244.56,112.39a5.825,5.825,0,0,1,.018-6.514L266.9,72.866A2.786,2.786,0,0,0,264.6,68.52H249.062a5.846,5.846,0,0,0-4.906,2.674l-22.978,35.721a5.824,5.824,0,0,0-.009,6.293l23.208,36.327a5.823,5.823,0,0,0,4.915,2.692h16.721a2.787,2.787,0,0,0,2.315-4.337Z" transform="translate(-19.283 -68.355)" stroke="#5b667b" stroke-linejoin="round" stroke-width="2" fill="url(#linear-gradient-9)"/>
        </g>
        <g id="Group_443" data-name="Group 443" transform="translate(0.339 159.357)">
          <path id="Path_921" data-name="Path 921" d="M151.123,199.344a6.286,6.286,0,0,0-1.773-2.692c-.138-.156-.294-.3-.45-.45s-.294-.3-.45-.45c-.138-.156-.294-.3-.45-.45s-.294-.3-.45-.45c-.138-.156-.294-.3-.45-.45s-.294-.3-.45-.45c-.138-.156-.294-.3-.45-.45s-.294-.3-.45-.45-.294-.3-.45-.45c-.138-.156-.294-.3-.45-.45s-.294-.3-.45-.45c-.138-.156-.294-.3-.45-.45s-.294-.3-.45-.45c-.138-.156-.294-.3-.45-.45s-.294-.3-.45-.45c-.138-.156-.294-.3-.45-.45a6.268,6.268,0,0,0-4.649-2.076h-13.68a6.3,6.3,0,0,0-5.981,4.327L97.422,253.89V186.7a4.357,4.357,0,0,0-1.525-3.3,37566.213,37566.213,0,0,1-.9-.9,3324762011.1,3324762011.1,0,0,1-1.351-1.351,10733.509,10733.509,0,0,1-.9-.9,4.171,4.171,0,0,0-.45-.45,25045.8,25045.8,0,0,1-.9-.9,18783.266,18783.266,0,0,1-.9-.9,25045.8,25045.8,0,0,1-.9-.9,25044.178,25044.178,0,0,0-.9-.9,4.342,4.342,0,0,0-3.3-1.525H66.571a4.374,4.374,0,0,0-3.693,2.03l-15.683,24.65L36.068,184.268a4.344,4.344,0,0,0-.79-.9,3.47,3.47,0,0,0-.45-.45,4.162,4.162,0,0,0-.45-.45,3.474,3.474,0,0,0-.45-.45,3.475,3.475,0,0,0-.45-.45,3.474,3.474,0,0,0-.45-.45,3.474,3.474,0,0,0-.45-.45,3.475,3.475,0,0,0-.45-.45,3.475,3.475,0,0,0-.45-.45,3.476,3.476,0,0,0-.45-.45,3.477,3.477,0,0,0-.45-.45,3.478,3.478,0,0,0-.45-.45,3.475,3.475,0,0,0-.45-.45,3.472,3.472,0,0,0-.45-.45,3.475,3.475,0,0,0-.45-.45,3.478,3.478,0,0,0-.45-.45,3.476,3.476,0,0,0-.45-.45,4.386,4.386,0,0,0-3.326-1.534H5.933A4.372,4.372,0,0,0,1.56,179v74.97a4.357,4.357,0,0,0,1.525,3.3,4.165,4.165,0,0,0,.45.45,4.16,4.16,0,0,0,.45.45,4.16,4.16,0,0,0,.45.45,4.157,4.157,0,0,0,.45.45,4.163,4.163,0,0,0,.45.45,4.171,4.171,0,0,0,.45.45,4.168,4.168,0,0,0,.45.45,4.163,4.163,0,0,0,.45.45,4.16,4.16,0,0,0,.45.45,4.157,4.157,0,0,0,.45.45,4.158,4.158,0,0,0,.45.45,4.157,4.157,0,0,0,.45.45,4.166,4.166,0,0,0,.45.45,4.165,4.165,0,0,0,.45.45,4.168,4.168,0,0,0,.45.45,4.168,4.168,0,0,0,.45.45,4.342,4.342,0,0,0,3.3,1.525h15.15a4.372,4.372,0,0,0,4.373-4.373V218.619l9.04,12.927a4.6,4.6,0,0,0,.845.891,18783.266,18783.266,0,0,1,.9.9,37569.4,37569.4,0,0,1,.9.9,18783.266,18783.266,0,0,1,.9.9,30055.4,30055.4,0,0,1,.9.9,21466.57,21466.57,0,0,0,.9.9,10734.061,10734.061,0,0,0,.9.9,150272.174,150272.174,0,0,0,.9.9,50093.059,50093.059,0,0,1,.9.9,4.356,4.356,0,0,0,6.762-.423l9.013-12.725v27.581a4.357,4.357,0,0,0,1.525,3.3,9392.031,9392.031,0,0,0,.9.9,7467035188474.688,7467035188474.688,0,0,0,.9.9,37565.9,37565.9,0,0,1,.9.9,4.167,4.167,0,0,0,.45.45,25044.178,25044.178,0,0,1,.9.9,37566.214,37566.214,0,0,1,.9.9,15026.574,15026.574,0,0,1,.9.9,12522.248,12522.248,0,0,0,.9.9,4.163,4.163,0,0,0,.45.45A4.342,4.342,0,0,0,78,266.1H93.2a4.372,4.372,0,0,0,4.373-4.373v-4.511a2.85,2.85,0,0,0,.606.68,56348.524,56348.524,0,0,0,1.351,1.351,112702.461,112702.461,0,0,1,1.351,1.351,18783.266,18783.266,0,0,1,.9.9,45078.959,45078.959,0,0,0,1.351,1.351,9392.031,9392.031,0,0,1,.9.9,32199.683,32199.683,0,0,0,1.351,1.351,2.731,2.731,0,0,0,2.15,1.047h12.541a2.748,2.748,0,0,0,2.637-1.957l3.914-12.872a1.312,1.312,0,0,1,1.268-.937h17l1.893,6.211a2.742,2.742,0,0,0,.937,1.36,2.61,2.61,0,0,0,.45.45,2.979,2.979,0,0,0,.45.45,2.609,2.609,0,0,0,.45.45,37566.532,37566.532,0,0,0,.9.9,2.608,2.608,0,0,0,.45.45,37565.9,37565.9,0,0,0,.9.9,2.609,2.609,0,0,0,.45.45,2.981,2.981,0,0,0,.45.45,2.977,2.977,0,0,0,.45.45,2.608,2.608,0,0,0,.45.45,2.98,2.98,0,0,0,.45.45,2.607,2.607,0,0,0,.45.45,9392.19,9392.19,0,0,0,.9.9,2.75,2.75,0,0,0,2.15,1.038H169.5a2.755,2.755,0,0,0,2.618-3.62L151.3,199.435Zm-13.3,28.261h-3.9l1.9-6.523Z" transform="translate(-1.56 -174.63)" stroke="#5b667b" stroke-linejoin="round" stroke-width="2" fill="url(#linear-gradient-10)"/>
          <path id="Path_922" data-name="Path 922" d="M311.434,197.145a12521.4,12521.4,0,0,1-.9-.9,37566.532,37566.532,0,0,1-1.351-1.351,75132.321,75132.321,0,0,1-1.8-1.8,12522.6,12522.6,0,0,1-.9-.9,18782.47,18782.47,0,0,1-1.8-1.8,3.478,3.478,0,0,0-.45-.45,4.068,4.068,0,0,0-3.087-1.442h-15.1a4.082,4.082,0,0,0-4.079,4.079v62.907a4.053,4.053,0,0,0,1.443,3.087,3.468,3.468,0,0,0,.45.45,18781.515,18781.515,0,0,1,.9.9,40247.416,40247.416,0,0,1,2.7,2.7,56349.32,56349.32,0,0,1,1.8,1.8,4695.458,4695.458,0,0,1,.9.9,3.476,3.476,0,0,0,.45.45,4.068,4.068,0,0,0,3.087,1.443h15.1a4.082,4.082,0,0,0,4.079-4.079V200.232a4.054,4.054,0,0,0-1.442-3.087Z" transform="translate(-24.343 -175.757)" stroke="#5b667b" stroke-linejoin="round" stroke-width="2" fill="url(#linear-gradient-11)"/>
          <path id="Path_923" data-name="Path 923" d="M249.661,226.434a5.825,5.825,0,0,1,.018-6.514L272,186.909a2.792,2.792,0,0,0-.588-3.758,2.609,2.609,0,0,0-.45-.45,2.98,2.98,0,0,0-.45-.45,7513.841,7513.841,0,0,1-.9-.9,2.609,2.609,0,0,0-.45-.45,2.983,2.983,0,0,0-.45-.45,3733359406255.412,3733359406255.412,0,0,1-.9-.9,2.982,2.982,0,0,0-.45-.45,22399017591501.492,22399017591501.492,0,0,1-.9-.9,7513.663,7513.663,0,0,1-.9-.9,2.986,2.986,0,0,0-.45-.45,18783.107,18783.107,0,0,0-.9-.9,2.747,2.747,0,0,0-2.168-1.038H246.51a5.845,5.845,0,0,0-4.906,2.674l-21.738,33.782V186.422a4.054,4.054,0,0,0-1.442-3.087,11200331302256.637,11200331302256.637,0,0,1-1.351-1.351,37565.9,37565.9,0,0,1-.9-.9,18784.38,18784.38,0,0,1-.9-.9,28176.172,28176.172,0,0,1-1.351-1.351,7466845354286.551,7466845354286.551,0,0,1-.9-.9,16101.112,16101.112,0,0,1-1.351-1.351,3.475,3.475,0,0,0-.45-.45,4.068,4.068,0,0,0-3.087-1.442h-15.1a4.082,4.082,0,0,0-4.079,4.079v75.549a4.054,4.054,0,0,0,1.442,3.087,56350.912,56350.912,0,0,1,1.8,1.8,56348.684,56348.684,0,0,1,1.8,1.8,25044.909,25044.909,0,0,1,1.8,1.8,12521.4,12521.4,0,0,1,.9.9,7513,7513,0,0,0,.9.9,4.068,4.068,0,0,0,3.087,1.443h15.1a4.082,4.082,0,0,0,4.079-4.079V221.564l21.949,34.37a5.79,5.79,0,0,0,1.047,1.213c.138.156.294.3.45.45.138.156.294.3.45.45.138.156.294.3.45.45.138.156.294.3.45.45.138.156.294.3.45.45.138.156.294.3.45.45.138.156.294.3.45.45.138.156.294.3.45.45.138.156.294.3.45.45.138.156.294.3.45.45.138.156.294.3.45.45.138.156.294.3.45.45.138.156.294.3.45.45.138.156.294.3.45.45.138.156.294.3.45.45.138.156.294.3.45.45a5.808,5.808,0,0,0,4.318,1.92H271.1a2.787,2.787,0,0,0,2.315-4.336l-23.759-35.51Z" transform="translate(-16.786 -174.635)" stroke="#5b667b" stroke-linejoin="round" stroke-width="2" fill="url(#linear-gradient-12)"/>
        </g>
        <g id="Group_445" data-name="Group 445" transform="translate(0.293 159.476)">
          <path id="Path_924" data-name="Path 924" d="M89.82,179.124v74.97a4.372,4.372,0,0,1-4.373,4.373h-15.2a4.372,4.372,0,0,1-4.373-4.373V209.14a.307.307,0,0,0-.56-.175l-16.06,22.684a4.376,4.376,0,0,1-7.157-.018L26.013,208.625a.307.307,0,0,0-.56.175v45.3a4.372,4.372,0,0,1-4.373,4.373H5.883A4.372,4.372,0,0,1,1.51,254.1v-74.97a4.372,4.372,0,0,1,4.373-4.373H24.846a4.372,4.372,0,0,1,3.666,1.984l16.8,25.817a.725.725,0,0,0,1.213,0l16.39-25.771a4.384,4.384,0,0,1,3.693-2.03H85.438a4.372,4.372,0,0,1,4.373,4.373Z" transform="translate(-1.51 -174.76)" stroke="#5b667b" stroke-linejoin="round" stroke-width="2" fill="url(#linear-gradient-13)"/>
          <g id="Group_444" data-name="Group 444" transform="translate(95.465 12.642)">
            <path id="Path_925" data-name="Path 925" d="M154.49,232.28,156,237.5a4.956,4.956,0,0,1-4.759,6.33h-22.7a1.329,1.329,0,0,0-1.268.937l-3.914,12.872a2.748,2.748,0,0,1-2.637,1.957H108.176a2.759,2.759,0,0,1-2.618-3.62l20.727-63.127a6.29,6.29,0,0,1,5.972-4.327h13.68a6.284,6.284,0,0,1,5.972,4.318l20.819,63.136a2.759,2.759,0,0,1-2.618,3.62H157.678a2.748,2.748,0,0,1-2.637-1.957l-14.489-47.49a1.379,1.379,0,0,0-2.646.018l-4.86,16.666a1.464,1.464,0,0,0,1.406,1.874h15.279a4.958,4.958,0,0,1,4.759,3.583Z" transform="translate(-105.417 -188.52)" stroke="#5b667b" stroke-linejoin="round" stroke-width="2" fill="url(#linear-gradient-14)"/>
            <path id="Path_926" data-name="Path 926" d="M143.6,232.25h11.2a2.351,2.351,0,0,1,2.251,1.69l3.014,10.446a2.337,2.337,0,0,1-2.251,2.986H143.6" transform="translate(-108.52 -192.073)" stroke="#5b667b" stroke-linejoin="round" stroke-width="2" fill="url(#linear-gradient-15)"/>
          </g>
          <path id="Path_927" data-name="Path 927" d="M305.223,192.589V255.5a4.082,4.082,0,0,1-4.079,4.079h-15.1a4.082,4.082,0,0,1-4.079-4.079V192.589a4.082,4.082,0,0,1,4.079-4.079h15.1a4.082,4.082,0,0,1,4.079,4.079Z" transform="translate(-24.297 -175.877)" stroke="#5b667b" stroke-linejoin="round" stroke-width="2" fill="url(#linear-gradient-16)"/>
          <path id="Path_928" data-name="Path 928" d="M208.193,258.467h-15.1a4.082,4.082,0,0,1-4.079-4.079V178.839a4.082,4.082,0,0,1,4.079-4.079h15.1a4.082,4.082,0,0,1,4.079,4.079v75.549A4.082,4.082,0,0,1,208.193,258.467Z" transform="translate(-16.745 -174.76)" stroke="#5b667b" stroke-linejoin="round" stroke-width="2" fill="url(#linear-gradient-17)"/>
          <path id="Path_929" data-name="Path 929" d="M268.319,254.32,244.56,218.81a5.825,5.825,0,0,1,.018-6.514L266.9,179.286a2.786,2.786,0,0,0-2.306-4.346H249.062a5.845,5.845,0,0,0-4.906,2.674l-22.978,35.721a5.824,5.824,0,0,0-.009,6.293l23.208,36.327a5.823,5.823,0,0,0,4.915,2.692h16.721a2.787,2.787,0,0,0,2.315-4.337Z" transform="translate(-19.283 -174.775)" stroke="#5b667b" stroke-linejoin="round" stroke-width="2" fill="url(#linear-gradient-18)"/>
        </g>
        <g id="Group_446" data-name="Group 446" transform="translate(0 0.009)">
          <path id="Union_2" data-name="Union 2" d="M11.207,44.863a13,13,0,0,1-2.242-1.912c-.165-.155-.331-.321-.487-.486s-.331-.322-.487-.487-.331-.322-.487-.487-.331-.322-.486-.487-.332-.322-.487-.487S6.2,40.2,6.044,40.03s-.331-.322-.487-.487-.331-.322-.487-.487-.331-.322-.487-.487-.331-.321-.487-.486-.331-.322-.487-.487a11.932,11.932,0,0,1-3.6-7.24A1.118,1.118,0,0,1,1.184,29.18H12.319a1.174,1.174,0,0,1,1.075.643,1.046,1.046,0,0,1,.487.487,1.041,1.041,0,0,1,.486.486,1.046,1.046,0,0,1,.487.487,1.046,1.046,0,0,1,.487.487,1.047,1.047,0,0,1,.487.487,1.039,1.039,0,0,1,.487.487,1.038,1.038,0,0,1,.487.487.069.069,0,0,0,.036.018,5.69,5.69,0,0,0,1.075.1,4.846,4.846,0,0,0,2.867-.79,2.517,2.517,0,0,0,.79-.864c-.542-.174-1.111-.349-1.727-.533a55.477,55.477,0,0,1-7.175-2.61,13.184,13.184,0,0,1-4.006-2.875c-.165-.156-.331-.322-.486-.487s-.332-.322-.487-.487-.331-.322-.487-.487-.331-.322-.487-.487-.331-.322-.487-.487-.331-.322-.487-.487-.331-.322-.487-.487-.331-.322-.487-.487-.331-.321-.487-.486-.331-.322-.486-.487-.332-.322-.487-.487a15.35,15.35,0,0,1-1.25-1.314,9.534,9.534,0,0,1-2.03-6.376A10.9,10.9,0,0,1,2.212,5.788,13.4,13.4,0,0,1,8.258,1.47,24.442,24.442,0,0,1,17.014,0q7.924,0,12.651,3.381a12.3,12.3,0,0,1,1.994,1.755c.166.156.33.322.486.487s.331.322.487.487.331.322.487.487.331.322.487.487.331.322.487.487.331.321.487.486.331.322.487.487.331.322.487.487.331.322.486.487.332.322.487.487.331.322.487.487a11.583,11.583,0,0,1,3.446,7.047,1.115,1.115,0,0,1-1.176,1.167H27.892a1.151,1.151,0,0,1-1.048-.633,1.044,1.044,0,0,1-.486-.487,1.045,1.045,0,0,1-.487-.487,1.046,1.046,0,0,1-.487-.487,1.038,1.038,0,0,1-.487-.487,1.038,1.038,0,0,1-.487-.487,1.038,1.038,0,0,1-.487-.487A.463.463,0,0,1,23.8,15.1a5.939,5.939,0,0,0-1.259-.138,3.466,3.466,0,0,0-2.315.762,2.343,2.343,0,0,0-.606.8c.524.184,1.084.367,1.708.57a56.34,56.34,0,0,1,7.111,2.673,14.26,14.26,0,0,1,4.117,2.949c.164.156.321.322.486.487s.322.321.487.486.322.322.487.487.322.322.487.487.322.322.487.487.322.322.487.487.321.322.487.487.321.322.487.487.321.322.486.487.322.322.487.487.322.321.487.486h-.009a14.1,14.1,0,0,1,1.2,1.24,8.888,8.888,0,0,1,2.03,6.018,11.415,11.415,0,0,1-2.03,6.633,13.666,13.666,0,0,1-5.862,4.64,22.214,22.214,0,0,1-9.041,1.7Q16.3,48.3,11.207,44.863ZM248.842,47.9a1.609,1.609,0,0,1-1.359-.753,1.73,1.73,0,0,1-.487-.487,1.73,1.73,0,0,1-.487-.487,1.75,1.75,0,0,1-.487-.486,1.77,1.77,0,0,1-.487-.487,1.772,1.772,0,0,1-.487-.487,1.772,1.772,0,0,1-.487-.487,1.772,1.772,0,0,1-.487-.487,1.772,1.772,0,0,1-.487-.487,1.737,1.737,0,0,1-.486-.487,1.729,1.729,0,0,1-.487-.487,1.728,1.728,0,0,1-.487-.487,1.6,1.6,0,0,1-.671-1.856L253.61,2.912a3.674,3.674,0,0,1,3.5-2.535h8.021a3.685,3.685,0,0,1,2.839,1.341,4.042,4.042,0,0,1,.487.487,3.991,3.991,0,0,1,.487.487,4.04,4.04,0,0,1,.487.486,4.113,4.113,0,0,1,.487.487,4.1,4.1,0,0,1,.487.487,4.1,4.1,0,0,1,.487.487,4.1,4.1,0,0,1,.487.487,4.049,4.049,0,0,1,.486.487,3.983,3.983,0,0,1,.487.487,4.1,4.1,0,0,1,.487.487,4,4,0,0,1,.487.487,3.654,3.654,0,0,1,1.157,1.672l12.211,37.026h.009a1.613,1.613,0,0,1-1.535,2.122h-7.295a1.6,1.6,0,0,1-1.359-.753,1.618,1.618,0,0,1-.487-.487,1.62,1.62,0,0,1-.487-.487,1.626,1.626,0,0,1-.487-.487,1.644,1.644,0,0,1-.487-.486,1.657,1.657,0,0,1-.487-.487,1.657,1.657,0,0,1-.487-.487,1.656,1.656,0,0,1-.487-.487,1.658,1.658,0,0,1-.487-.487,1.638,1.638,0,0,1-.486-.487,1.619,1.619,0,0,1-.487-.487,1.619,1.619,0,0,1-.487-.487,1.628,1.628,0,0,1-.68-.881l-.69-2.252h-9a.778.778,0,0,0-.745.552l-2.3,7.552a1.626,1.626,0,0,1-1.553,1.149ZM264.8,23.933h.487l-.248-.817ZM170.233,47.9a1.609,1.609,0,0,1-1.359-.753,1.748,1.748,0,0,1-.487-.487,1.752,1.752,0,0,1-.487-.487,1.759,1.759,0,0,1-.487-.486,1.773,1.773,0,0,1-.487-.487,1.772,1.772,0,0,1-.487-.487,1.757,1.757,0,0,1-.486-.487,1.75,1.75,0,0,1-.487-.487,1.751,1.751,0,0,1-.487-.487,1.743,1.743,0,0,1-.487-.487,1.748,1.748,0,0,1-.487-.487,1.75,1.75,0,0,1-.487-.487,1.6,1.6,0,0,1-.671-1.856L175,2.912A3.674,3.674,0,0,1,178.5.377h8.021a3.687,3.687,0,0,1,2.839,1.341,4.092,4.092,0,0,1,.487.487,3.924,3.924,0,0,1,.486.487,3.915,3.915,0,0,1,.487.486,4.053,4.053,0,0,1,.487.487,4.1,4.1,0,0,1,.487.487,4.1,4.1,0,0,1,.487.487,4.112,4.112,0,0,1,.487.487,4.111,4.111,0,0,1,.487.487,4.1,4.1,0,0,1,.487.487,4.1,4.1,0,0,1,.487.487,3.919,3.919,0,0,1,.486.487,3.642,3.642,0,0,1,1.158,1.672h.01l12.21,37.026a1.612,1.612,0,0,1-1.534,2.122h-7.3a1.6,1.6,0,0,1-1.359-.753,1.639,1.639,0,0,1-.487-.487,1.638,1.638,0,0,1-.487-.487,1.638,1.638,0,0,1-.487-.487,1.643,1.643,0,0,1-.487-.486,1.643,1.643,0,0,1-.486-.487,1.639,1.639,0,0,1-.487-.487,1.639,1.639,0,0,1-.487-.487,1.65,1.65,0,0,1-.487-.487,1.645,1.645,0,0,1-.487-.487,1.637,1.637,0,0,1-.487-.487,1.637,1.637,0,0,1-.487-.487,1.631,1.631,0,0,1-.68-.881l-.689-2.252h-9a.778.778,0,0,0-.744.552l-2.3,7.552a1.625,1.625,0,0,1-1.553,1.149Zm15.959-23.97h.487l-.248-.817Zm-44.2,23.952a2.118,2.118,0,0,1-1.727-.891,2.424,2.424,0,0,1-.487-.487,2.441,2.441,0,0,1-.487-.486,2.471,2.471,0,0,1-.487-.487,2.472,2.472,0,0,1-.487-.487,2.475,2.475,0,0,1-.487-.487,2.444,2.444,0,0,1-.486-.487,2.43,2.43,0,0,1-.487-.487,2.442,2.442,0,0,1-.487-.487,2.427,2.427,0,0,1-.487-.487,1.784,1.784,0,0,1-.248-.2v3.344a2.133,2.133,0,0,1-2.132,2.132h-7.239a2.117,2.117,0,0,1-1.727-.891,2.408,2.408,0,0,1-.487-.487,2.444,2.444,0,0,1-.487-.486,2.467,2.467,0,0,1-.487-.487,2.471,2.471,0,0,1-.487-.487,2.472,2.472,0,0,1-.487-.487,2.474,2.474,0,0,1-.487-.487,2.443,2.443,0,0,1-.486-.487,2.429,2.429,0,0,1-.487-.487,2.381,2.381,0,0,1-.487-.487,2.382,2.382,0,0,1-.487-.487,2.444,2.444,0,0,1-.487-.486,2.133,2.133,0,0,1-.891-1.727V2.784A2.133,2.133,0,0,1,120.419.652h21.03q6.339,0,9.951,2.82A8.5,8.5,0,0,1,152.511,4.5c.165.156.331.322.487.487.174.156.331.322.487.487.174.156.331.322.487.487s.331.322.487.487c.174.156.331.322.487.487s.331.322.486.487c.175.156.331.322.487.487s.331.322.487.487c.174.155.331.321.487.486s.331.322.487.487c.174.156.331.322.487.487a9.574,9.574,0,0,1,2.986,7.387,9.524,9.524,0,0,1-1.911,6.073,9.187,9.187,0,0,1-3.418,2.7c.046.055.1.11.156.165.165.156.331.312.487.487.165.155.331.312.487.486.165.156.331.313.487.487.165.156.331.313.487.487.165.156.331.313.487.487.165.156.331.313.487.487l.009-.009a10.4,10.4,0,0,1,1.038,1.149,10.177,10.177,0,0,1,2.141,6.367,10.136,10.136,0,0,1-3.638,8.278q-3.638,2.99-10.216,2.995Zm-6.367-15.058a1.918,1.918,0,0,1,.514-.074h3.647c1.957,0,3.234-.561,3.868-1.663h-1.672a2.117,2.117,0,0,1-1.727-.891,2.425,2.425,0,0,1-.487-.487,2.427,2.427,0,0,1-.487-.487,2.445,2.445,0,0,1-.487-.486,2.474,2.474,0,0,1-.487-.487,2.47,2.47,0,0,1-.487-.487,2.44,2.44,0,0,1-.486-.487,2.427,2.427,0,0,1-.487-.487,2.428,2.428,0,0,1-.487-.487,2.453,2.453,0,0,1-.487-.487,1.838,1.838,0,0,1-.248-.2v7.212Zm.009-16.1v.432a1.918,1.918,0,0,1,.514-.074h2.766q2.734,0,3.742-1.425H136.7A1.067,1.067,0,0,0,135.634,16.73ZM102.522,47.885a2.117,2.117,0,0,1-1.727-.891,2.388,2.388,0,0,1-.487-.487,2.424,2.424,0,0,1-.487-.486,2.471,2.471,0,0,1-.487-.487,2.467,2.467,0,0,1-.487-.487,2.471,2.471,0,0,1-.487-.487,2.471,2.471,0,0,1-.487-.487,2.473,2.473,0,0,1-.487-.487A2.442,2.442,0,0,1,96.9,43.1a2.386,2.386,0,0,1-.487-.487,2.385,2.385,0,0,1-.487-.487,2.4,2.4,0,0,1-.487-.486,2.131,2.131,0,0,1-.891-1.727V2.784A2.133,2.133,0,0,1,96.679.652h7.239a2.117,2.117,0,0,1,1.727.891,2.4,2.4,0,0,1,.487.487,2.445,2.445,0,0,1,.487.486,2.467,2.467,0,0,1,.487.487,2.471,2.471,0,0,1,.487.487,2.472,2.472,0,0,1,.487.487,2.474,2.474,0,0,1,.487.487,2.44,2.44,0,0,1,.486.487,2.427,2.427,0,0,1,.487.487,2.382,2.382,0,0,1,.487.487,2.428,2.428,0,0,1,.487.487A2.445,2.445,0,0,1,111,6.9v.01a2.13,2.13,0,0,1,.891,1.727V45.753a2.133,2.133,0,0,1-2.132,2.132Zm-24.549,0a2.117,2.117,0,0,1-1.727-.891,2.4,2.4,0,0,1-.487-.487,2.442,2.442,0,0,1-.487-.486,2.468,2.468,0,0,1-.487-.487,2.467,2.467,0,0,1-.487-.487,2.471,2.471,0,0,1-.487-.487,2.472,2.472,0,0,1-.487-.487,2.474,2.474,0,0,1-.487-.487,2.44,2.44,0,0,1-.486-.487,2.385,2.385,0,0,1-.487-.487,2.4,2.4,0,0,1-.487-.487,2.445,2.445,0,0,1-.487-.486A2.131,2.131,0,0,1,70,39.911V34.389h-5.43A1.066,1.066,0,0,0,63.5,35.455v10.3a2.133,2.133,0,0,1-2.132,2.132h-7.24a2.119,2.119,0,0,1-1.727-.891,2.425,2.425,0,0,1-.487-.487,2.448,2.448,0,0,1-.487-.486,2.445,2.445,0,0,1-.486-.487,2.429,2.429,0,0,1-.487-.487,2.453,2.453,0,0,1-.487-.487,2.468,2.468,0,0,1-.487-.487A2.471,2.471,0,0,1,49,43.585a2.474,2.474,0,0,1-.487-.487,2.424,2.424,0,0,1-.487-.487,2.42,2.42,0,0,1-.487-.487,2.417,2.417,0,0,1-.486-.486,2.131,2.131,0,0,1-.891-1.727V2.793A2.133,2.133,0,0,1,48.289.661h7.239a2.118,2.118,0,0,1,1.727.891,2.427,2.427,0,0,1,.487.487,2.428,2.428,0,0,1,.487.487,2.441,2.441,0,0,1,.487.486A2.471,2.471,0,0,1,59.2,3.5a2.472,2.472,0,0,1,.487.487,2.449,2.449,0,0,1,.486.487,2.424,2.424,0,0,1,.487.487,2.447,2.447,0,0,1,.487.487,2.471,2.471,0,0,1,.487.487,2.427,2.427,0,0,1,.487.487,2.427,2.427,0,0,1,.487.487A2.13,2.13,0,0,1,63.5,8.636V19.322H70V2.784A2.133,2.133,0,0,1,72.13.652h7.24a2.117,2.117,0,0,1,1.727.891,2.385,2.385,0,0,1,.487.487,2.424,2.424,0,0,1,.487.486A2.471,2.471,0,0,1,82.557,3a2.471,2.471,0,0,1,.487.487,2.471,2.471,0,0,1,.487.487,2.471,2.471,0,0,1,.487.487,2.471,2.471,0,0,1,.487.487,2.447,2.447,0,0,1,.486.487,2.388,2.388,0,0,1,.487.487,2.385,2.385,0,0,1,.487.487,2.448,2.448,0,0,1,.487.486v.01a2.128,2.128,0,0,1,.891,1.727V45.753a2.133,2.133,0,0,1-2.132,2.132Zm147.762-.009a2.117,2.117,0,0,1-1.727-.891,2.387,2.387,0,0,1-.487-.487,2.424,2.424,0,0,1-.487-.487,2.448,2.448,0,0,1-.487-.486,2.471,2.471,0,0,1-.487-.487,2.472,2.472,0,0,1-.487-.487,2.47,2.47,0,0,1-.487-.487,2.439,2.439,0,0,1-.486-.487,2.427,2.427,0,0,1-.487-.487,2.428,2.428,0,0,1-.487-.487,2.41,2.41,0,0,1-.487-.487,2.425,2.425,0,0,1-.487-.487,2.128,2.128,0,0,1-.891-1.727V16.721h-4.005a2.117,2.117,0,0,1-1.727-.891,2.443,2.443,0,0,1-.487-.486,2.471,2.471,0,0,1-.487-.487,2.47,2.47,0,0,1-.487-.487,2.475,2.475,0,0,1-.487-.487,2.471,2.471,0,0,1-.487-.487,2.446,2.446,0,0,1-.486-.487,2.424,2.424,0,0,1-.487-.487,2.387,2.387,0,0,1-.487-.487,2.384,2.384,0,0,1-.487-.487,2.445,2.445,0,0,1-.487-.486,2.473,2.473,0,0,1-.487-.487,2.133,2.133,0,0,1-.891-1.727V2.793A2.134,2.134,0,0,1,207.911.661H239.25a2.118,2.118,0,0,1,1.727.891,2.424,2.424,0,0,1,.487.487,2.427,2.427,0,0,1,.487.487,2.444,2.444,0,0,1,.487.486,2.447,2.447,0,0,1,.486.487,2.426,2.426,0,0,1,.487.487,2.427,2.427,0,0,1,.487.487,2.45,2.45,0,0,1,.487.487,2.47,2.47,0,0,1,.487.487,2.474,2.474,0,0,1,.487.487,2.427,2.427,0,0,1,.487.487,2.427,2.427,0,0,1,.487.487,2.13,2.13,0,0,1,.891,1.727v5.953h-.018a2.133,2.133,0,0,1-2.132,2.132h-9.968V45.744a2.134,2.134,0,0,1-2.132,2.132Z" transform="translate(0)" fill="#5b667b" stroke="#5b667b" stroke-linejoin="round" stroke-width="2"/>
        </g>
        <g id="Group_450" data-name="Group 450">
          <path id="Path_937" data-name="Path 937" d="M6.556,40.208A11.935,11.935,0,0,1,1.2,31.545a1.117,1.117,0,0,1,1.176-1.176H13.5a1.145,1.145,0,0,1,1.158.827,3.918,3.918,0,0,0,1.3,2.352,4.85,4.85,0,0,0,3.151,1,4.91,4.91,0,0,0,2.866-.79,2.525,2.525,0,0,0,1.121-2.2,3.1,3.1,0,0,0-1.865-2.821A35.427,35.427,0,0,0,15.183,26.5a58.465,58.465,0,0,1-7.175-2.609,13.49,13.49,0,0,1-4.759-3.7,9.648,9.648,0,0,1-2.03-6.376A10.969,10.969,0,0,1,3.4,6.968,13.443,13.443,0,0,1,9.45,2.65a24.607,24.607,0,0,1,8.756-1.47c5.283,0,9.491,1.13,12.651,3.381a11.64,11.64,0,0,1,4.952,8.315,1.11,1.11,0,0,1-1.176,1.167H23.24a1.112,1.112,0,0,1-1.13-.836,3.222,3.222,0,0,0-1.167-1.984,4.784,4.784,0,0,0-3.059-.937,3.463,3.463,0,0,0-2.315.763,2.662,2.662,0,0,0-.9,2.168,2.556,2.556,0,0,0,1,2.021,9.178,9.178,0,0,0,2.481,1.47c.992.413,2.444.928,4.373,1.553a56.4,56.4,0,0,1,7.111,2.674,14.258,14.258,0,0,1,4.823,3.7,8.967,8.967,0,0,1,2.03,6.018,11.5,11.5,0,0,1-2.03,6.633,13.655,13.655,0,0,1-5.862,4.64,22.05,22.05,0,0,1-9.04,1.7q-7.91,0-13-3.436Z" transform="translate(-1.191 -1.18)" fill="#f8ec00" stroke="#5b667b" stroke-linejoin="round" stroke-width="2"/>
          <path id="Path_938" data-name="Path 938" d="M115.593,4.031V41.158a2.133,2.133,0,0,1-2.132,2.132h-7.24a2.133,2.133,0,0,1-2.132-2.132V4.031A2.133,2.133,0,0,1,106.222,1.9h7.24A2.133,2.133,0,0,1,115.593,4.031Z" transform="translate(-9.552 -1.239)" fill="#f8ec00" stroke="#5b667b" stroke-linejoin="round" stroke-width="2"/>
          <path id="Path_939" data-name="Path 939" d="M165.439,25.65a9.809,9.809,0,0,0-5.788-3.611,9.5,9.5,0,0,0,5.081-3.317,9.522,9.522,0,0,0,1.911-6.073,9.484,9.484,0,0,0-3.611-7.929q-3.611-2.811-9.95-2.821h-21.03a2.133,2.133,0,0,0-2.132,2.131V41.158a2.133,2.133,0,0,0,2.132,2.132h7.24a2.133,2.133,0,0,0,2.132-2.132V12.126a1.067,1.067,0,0,1,1.066-1.066h8.067q4.341,0,4.346,3.7c0,2.471-1.452,3.583-4.346,3.583H147.79a2.133,2.133,0,0,0-2.132,2.131v3.886a2.133,2.133,0,0,0,2.132,2.131h3.592a4.794,4.794,0,0,1,3.262,1,3.612,3.612,0,0,1,1.148,2.876q0,3.638-4.346,3.638H147.8a2.133,2.133,0,0,0-2.132,2.132v5.007A2.133,2.133,0,0,0,147.8,43.28h5.944q6.574,0,10.216-3a10.137,10.137,0,0,0,3.638-8.278,10.182,10.182,0,0,0-2.141-6.367Z" transform="translate(-11.651 -1.239)" fill="#f8ec00" stroke="#5b667b" stroke-linejoin="round" stroke-width="2"/>
          <path id="Path_940" data-name="Path 940" d="M260.762,4.031V9.985a2.133,2.133,0,0,1-2.132,2.131h-9.968V41.149a2.133,2.133,0,0,1-2.131,2.131h-7.24a2.133,2.133,0,0,1-2.132-2.131V12.126H227.3a2.133,2.133,0,0,1-2.132-2.131V4.031A2.133,2.133,0,0,1,227.3,1.9H258.64a2.133,2.133,0,0,1,2.132,2.131Z" transform="translate(-19.39 -1.239)" fill="#f8ec00" stroke="#5b667b" stroke-linejoin="round" stroke-width="2"/>
          <g id="Group_447" data-name="Group 447" transform="translate(162.754 0.377)">
            <path id="Path_941" data-name="Path 941" d="M207.124,27.251l.882,3.059a2.907,2.907,0,0,1-2.793,3.712H191.9a.777.777,0,0,0-.744.551l-2.3,7.552a1.626,1.626,0,0,1-1.553,1.148h-7.35a1.613,1.613,0,0,1-1.534-2.122L190.578,4.126a3.682,3.682,0,0,1,3.5-2.536H202.1a3.682,3.682,0,0,1,3.5,2.536l12.21,37.026a1.613,1.613,0,0,1-1.534,2.122H208.98a1.615,1.615,0,0,1-1.544-1.148l-8.5-27.856a.81.81,0,0,0-1.553.009l-2.848,9.775a.861.861,0,0,0,.827,1.1h8.958a2.905,2.905,0,0,1,2.793,2.095Z" transform="translate(-178.338 -1.59)" fill="#f8ec00" stroke="#5b667b" stroke-linejoin="round" stroke-width="2"/>
            <path id="Path_942" data-name="Path 942" d="M200.729,27.24H207.3a1.367,1.367,0,0,1,1.314.992l1.764,6.128a1.373,1.373,0,0,1-1.314,1.755H200.72" transform="translate(-180.157 -3.674)" fill="#f8ec00" stroke="#5b667b" stroke-linejoin="round" stroke-width="2"/>
          </g>
          <g id="Group_448" data-name="Group 448" transform="translate(241.362 0.377)">
            <path id="Path_943" data-name="Path 943" d="M292.684,27.251l.882,3.059a2.907,2.907,0,0,1-2.793,3.712H277.461a.777.777,0,0,0-.744.551l-2.3,7.552a1.627,1.627,0,0,1-1.553,1.148h-7.35a1.613,1.613,0,0,1-1.534-2.122L276.138,4.126a3.682,3.682,0,0,1,3.5-2.536h8.021a3.682,3.682,0,0,1,3.5,2.536l12.21,37.026a1.613,1.613,0,0,1-1.534,2.122H294.54A1.615,1.615,0,0,1,293,42.125l-8.5-27.856a.81.81,0,0,0-1.553.009L280.1,24.053a.861.861,0,0,0,.827,1.1h8.958a2.905,2.905,0,0,1,2.793,2.095Z" transform="translate(-263.898 -1.59)" fill="#f8ec00" stroke="#5b667b" stroke-linejoin="round" stroke-width="2"/>
            <path id="Path_944" data-name="Path 944" d="M286.3,27.24h6.569a1.367,1.367,0,0,1,1.314.992l1.764,6.128a1.373,1.373,0,0,1-1.314,1.755H286.29" transform="translate(-265.718 -3.674)" fill="#f8ec00" stroke="#5b667b" stroke-linejoin="round" stroke-width="2"/>
          </g>
          <g id="Group_449" data-name="Group 449" transform="translate(46.138 0.652)">
            <path id="Path_945" data-name="Path 945" d="M79.5,1.89A2.133,2.133,0,0,0,77.37,4.021V41.157A2.133,2.133,0,0,0,79.5,43.289h7.24a2.133,2.133,0,0,0,2.131-2.131V4.031A2.133,2.133,0,0,0,86.741,1.9H79.5Z" transform="translate(-53.519 -1.89)" fill="#f8ec00" stroke="#5b667b" stroke-linejoin="round" stroke-width="2"/>
            <path id="Path_946" data-name="Path 946" d="M62.913,19.5V4.031A2.133,2.133,0,0,0,60.781,1.9h-7.24A2.133,2.133,0,0,0,51.41,4.031V41.158a2.133,2.133,0,0,0,2.131,2.132h7.24a2.133,2.133,0,0,0,2.132-2.132v-10.3a1.067,1.067,0,0,1,1.066-1.066H78.66a1.067,1.067,0,0,0,1.066-1.066V21.644a1.067,1.067,0,0,0-1.066-1.066H63.979a1.067,1.067,0,0,1-1.066-1.066Z" transform="translate(-51.41 -1.891)" fill="#f8ec00" stroke="#5b667b" stroke-linejoin="round" stroke-width="2"/>
          </g>
        </g>
      </g>
    </g>
    <g id="Group_453" data-name="Group 453" transform="translate(25.621)">
      <g id="Group_452" data-name="Group 452" transform="translate(0 0)" clip-path="url(#clip-path)">
        <path id="Path_947" data-name="Path 947" d="M15.2,18.466c1.42,2.2-.692,5.145-2.2,6.412a9.16,9.16,0,0,1-8.281,1.845,7,7,0,0,1-4.5-5.382C-1.244,13.992,4.8,6.748,9.042,4.656c2.043-1.019,3.99-1.419,5.451-.616a7.1,7.1,0,0,1,2.583,2.255A3.53,3.53,0,0,1,17.258,9.4c-.413,1.158-.735,2.589-1,3.656-.071.294-.316.541-.848.326a2.655,2.655,0,0,1-1.559-3.21c.317-1.928,1.413-4.1.339-4.814-1.311-.894-6.928,2.733-9.629,8.394-2.64,5.547-1.324,10.64.9,11.769,2.9,1.466,6.748-1.429,8.886-7.016.133-.409.576-.467.857-.042" transform="translate(0 -1.249)" fill="#5b667b"/>
        <path id="Path_948" data-name="Path 948" d="M31.792,26.107c-2.606.346-3.548-1.2-3.032-3.659.562-2.736,2.766-5.882,2.227-6.058-.472-.156-3.53,2.115-4.876,4.9a32.225,32.225,0,0,0-2.105,5.492.3.3,0,0,1-.508.177c-.582-.418-1-1.131-.629-2.825.61-2.825,5.387-13.116,7.419-16.157.223-.359.538-.372.749-.071.541.723.687,2.076-.192,3.921-.554,1.171-1.813,3.561-2.828,5.534,1.081-1.242,2.538-2.34,3.39-2.371a1.919,1.919,0,0,1,1.71,2.654c-.473,1.271-1.615,3.425-2.081,4.913-.5,1.658-.121,2.9,1.018,2.691,1.262-.222,2.626-2.378,3.282-4.221a.316.316,0,0,1,.554-.1,1.826,1.826,0,0,1-.016,1.7,5.484,5.484,0,0,1-4.081,3.477" transform="translate(-5.516 -2.659)" fill="#5b667b"/>
        <path id="Path_949" data-name="Path 949" d="M42.481,26.566c-2.854.378-4.08-2.944-2.077-6.5,1.935-3.411,4.167-4.969,5.749-5.179A1.818,1.818,0,0,1,48.3,16.41c.346-.732.654-1.321.824-1.618.191-.355.425-.468.716-.261a2.641,2.641,0,0,1,.554,2.945c-.406,1.288-1.679,3.6-2.118,5.055-.473,1.627-.173,2.6.775,2.394,1.957-.424,4.163-4.092,4.921-8.225-2.651-.445-.351-4.481.875-4.727.953-.181.923,1.442.6,3.378a8.187,8.187,0,0,0,3.22-1.716c.387-.327.594-.408.921-.177.689.484,1.653,1.618.915,2.649a15.538,15.538,0,0,0-2.708,5.133c-.265,1.544.261,2.544,1.233,2.471,1.317-.092,2.554-2.068,3.19-4.21.086-.231.294-.313.465-.062a2.106,2.106,0,0,1,.186,1.759,4.782,4.782,0,0,1-3.858,3.31c-2.372.233-3.631-1.493-3.268-3.737.307-1.851,1.847-4.086,2.952-5.55A8.212,8.212,0,0,1,55.208,16.7c-.849,3.981-2.922,8.4-6.2,9.054-1.687.332-2.785-.482-3-1.853a5.422,5.422,0,0,1-3.528,2.663m.162-5.7c-1.265,2.527-1.194,4.9.021,4.771,1.246-.137,2.569-1.987,3.722-4.609,1.4-3.176,1.384-4.9.475-4.837-.971.075-2.931,2.09-4.218,4.675" transform="translate(-9.566 -4.134)" fill="#5b667b"/>
        <path id="Path_950" data-name="Path 950" d="M79.605,11.409q.326-.578.716-.26a2.654,2.654,0,0,1,.5,2.98c-.469,1.3-1.662,3.513-2.155,5.032-.509,1.6-.336,2.76.71,2.567,1.263-.222,2.645-2.271,3.4-4.265.111-.262.324-.317.491-.092a2.126,2.126,0,0,1,.016,1.7,5.313,5.313,0,0,1-3.958,3.46c-1.69.142-2.71-.6-2.934-1.86a5.353,5.353,0,0,1-3.506,2.6c-2.885.383-4.079-2.943-2.08-6.528,1.952-3.5,4.188-5.028,5.739-5.234a1.84,1.84,0,0,1,2.235,1.68,17.66,17.66,0,0,1,.827-1.784m-2.287,1.428c-1.006.052-2.963,2.094-4.245,4.706-1.234,2.524-1.219,4.935,0,4.8,1.277-.141,2.585-2.071,3.748-4.639,1.432-3.208,1.415-4.908.5-4.869" transform="translate(-16.943 -3.814)" fill="#5b667b"/>
        <path id="Path_951" data-name="Path 951" d="M95.353,10.848c.852,1.04-.137,2.625-.5,4.154-.067.339-.177.435-.613.3a1.761,1.761,0,0,1-1.158-2.233c.17-1.01.9-2.287.409-2.525-.595-.306-2.616,1.719-3.579,4.344-1.169,3.256-.122,5.393,1.713,5.178,2.61-.318,4.464-2.759,5.436-4.617a.31.31,0,0,1,.563-.046,2.162,2.162,0,0,1-.273,1.682A7.738,7.738,0,0,1,91.881,20.8c-3.93.575-5.854-2.572-4.452-6.3C88.815,10.864,91.691,9,93.384,9.6a4.151,4.151,0,0,1,1.968,1.248" transform="translate(-21.107 -3.279)" fill="#5b667b"/>
        <path id="Path_952" data-name="Path 952" d="M100.785,4.975c-.376-.334-.223-.547.246-.581a20.551,20.551,0,0,0,2.556-.448A32.475,32.475,0,0,1,105.355.309c.217-.385.532-.4.744-.1a3.255,3.255,0,0,1,.135,3.083,2.137,2.137,0,0,1,2.065.549c.275.293.185.5-.281.559a10.666,10.666,0,0,0-2.4.427,73.352,73.352,0,0,0-2.977,7.2c-.676,2.093-.039,3.71,1.273,3.591,1.406-.132,2.835-2.269,3.626-4.432.13-.347.461-.444.652-.086a1.983,1.983,0,0,1-.039,1.569c-.266.83-1.894,3.461-4.39,3.71-2.058.217-4.053-1.549-3.112-4.829.414-1.427,1.316-3.851,2.274-6.145a2.894,2.894,0,0,1-2.14-.429" transform="translate(-24.368 0)" fill="#5b667b"/>
        <path id="Path_953" data-name="Path 953" d="M126.629,14.211c-2.376.2-3.631-1.495-3.241-3.769.332-1.883,1.841-4.113,2.947-5.576a7.838,7.838,0,0,1-3.541,1.512c-1.747,5.005-4.5,8.827-8.181,9.37-3.93.577-5.854-2.57-4.447-6.27,1.365-3.582,4.262-5.5,5.952-4.931a5.94,5.94,0,0,1,2.073,1.125c.641.573.612,2.2-.385,3.727a4.011,4.011,0,0,1-5.566,1.561c-.56,2.571.526,4.211,2.117,4.054,3.437-.317,6.1-5.005,7.2-8.636-2.541-.541-.133-4.509,1.159-4.735.957-.156.938,1.521.471,3.366A8.685,8.685,0,0,0,126.344,3.3c.334-.264.59-.435.854-.2.726.507,1.729,1.691.955,2.7a14.265,14.265,0,0,0-2.738,5.138c-.266,1.544.3,2.567,1.232,2.47,1.312-.119,2.58-2.1,3.221-4.212.086-.232.294-.314.46-.09a2.143,2.143,0,0,1,.155,1.764,4.731,4.731,0,0,1-3.854,3.337M115.842,8.534c.8-1.231,1.2-2.711.746-2.953-.773-.419-3.017,1.607-4.006,4.263-.069.147-.1.342-.167.489,1.662.6,2.677-.657,3.428-1.8" transform="translate(-26.624 -0.564)" fill="#5b667b"/>
        <path id="Path_954" data-name="Path 954" d="M84.264,49.868c-1.5.336-2.5.057-3.076-.69-.166-.224-.168-.416.235-.469,1.958-.234,4.3-1.366,6.2-1.729a2.87,2.87,0,0,1,3.021.916c.146.283.112.453-.234.47a12.281,12.281,0,0,0-3.1.577,3.182,3.182,0,0,1-.541,3.034c-1.416,2.218-5.116,4.273-8.458,2.438-3.8-2.076-1.947-7.2,2.741-9.06a2.435,2.435,0,0,1-2.2-1.849c-.622-2.606,2.439-5.4,4.417-6.238,1.506-.639,2.864-1.038,4.445-.177,1.51.814,1.751,1.633,1.244,3.072-.291.862-.65,2.061-.81,2.768-.055.228-.226.332-.628.221a1.908,1.908,0,0,1-1.139-2.483c.328-1.552,1.147-2.485.507-2.866-1.068-.654-6.465,3.106-5.772,5.758.283,1.061,1.273,1.094,2.479.907a2.3,2.3,0,0,1,2.495.821c.172.253.031.353-.274.42-4.534.931-7.917,3.875-7.553,6.461A2.077,2.077,0,0,0,80.7,53.907a6.467,6.467,0,0,0,4.958-4.443c-.513.151-.96.319-1.389.4" transform="translate(-18.51 -12.649)" fill="#5b667b"/>
        <path id="Path_955" data-name="Path 955" d="M117.3,46.628a7.727,7.727,0,0,1-6.274.179,5.846,5.846,0,0,1-3.344-4.582c-1.29-6.844,5.086-13.889,9.045-15.621,1.964-.848,3.618-1.1,5.015-.469a4.716,4.716,0,0,1,2.32,2.008,3.293,3.293,0,0,1,.234,2.808c-.29.919-.654,2.273-.9,3.252-.065.27-.284.526-.747.261a2.5,2.5,0,0,1-1.5-2.9c.2-1.658,1.245-3.624.309-4.218-1.368-.9-6.895,2.644-9.579,7.731-2.627,4.982-1.656,9.813.03,10.8,2.317,1.357,6.209-1.607,7.775-5.762-1.147.347-2.294.7-3.168.877a3.537,3.537,0,0,1-3.814-1.061c-.241-.294-.164-.5.279-.56,2.873-.413,5.534-1.582,7.78-1.912a3.522,3.522,0,0,1,3.645,1.181c.248.326.213.559-.278.559a14.528,14.528,0,0,0-2.571.406c1.491,2.869-2.5,6.335-4.266,7.027" transform="translate(-26.092 -8.91)" fill="#5b667b"/>
        <path id="Path_956" data-name="Path 956" d="M137.937,38.239c.334-.264.573-.351.828-.165.689.485,1.643,1.566.9,2.57a13.746,13.746,0,0,0-2.622,4.9c-.249,1.46.309,2.457,1.213,2.364,1.219-.107,2.414-1.966,3.063-4.028.086-.23.267-.282.429-.084a2.07,2.07,0,0,1,.14,1.682,4.478,4.478,0,0,1-3.69,3.179c-2.248.216-3.462-1.434-3.044-3.547a15.789,15.789,0,0,1,2.851-5.4,7.293,7.293,0,0,1-3.449,1.5c-.845,2.033-3.147,6.234-3.3,8.75-.02.25-.181.409-.5.205-1.042-.686-1.261-1.919-.666-3.4.5-1.273,2.136-4.07,3.031-5.643-1.945-.757.193-4.278,1.336-4.457.957-.154.985,1.433.509,3.225a7.675,7.675,0,0,0,2.977-1.657" transform="translate(-31.49 -12.67)" fill="#5b667b"/>
        <path id="Path_957" data-name="Path 957" d="M154.992,35.173q.326-.577.716-.258a2.649,2.649,0,0,1,.5,2.979c-.469,1.3-1.662,3.513-2.155,5.032-.509,1.6-.335,2.762.71,2.568,1.262-.222,2.645-2.271,3.4-4.265.111-.262.324-.317.491-.092a2.123,2.123,0,0,1,.016,1.7,5.315,5.315,0,0,1-3.958,3.46c-1.69.142-2.71-.6-2.934-1.86a5.354,5.354,0,0,1-3.506,2.605c-2.885.382-4.079-2.943-2.08-6.529,1.952-3.5,4.188-5.028,5.739-5.233a1.839,1.839,0,0,1,2.235,1.679,17.727,17.727,0,0,1,.827-1.784M152.705,36.6c-1.007.051-2.963,2.093-4.245,4.706-1.234,2.523-1.219,4.935,0,4.8,1.277-.142,2.585-2.072,3.749-4.64,1.431-3.208,1.415-4.907.5-4.868" transform="translate(-35.238 -12.027)" fill="#5b667b"/>
        <path id="Path_958" data-name="Path 958" d="M174.1,39.009c.12-.4.48-.338.59-.079a2.365,2.365,0,0,1-.089,1.823,6.51,6.51,0,0,1-5.013,3.6c-1.966.371-3.312.3-4.55-.412a2.857,2.857,0,0,1-1.374-1.656,89.439,89.439,0,0,0-3.107,8.615c-.081.258-.289.341-.518.124-.565-.5-.853-1.231-.554-2.944.47-2.724,4.172-11.912,5.726-14.423.248-.39.537-.374.749-.073a2.619,2.619,0,0,1,.4,1.182c1.184-1.2,2.881-2.193,4.429-1.163,1.732,1.169,1.473,3.646.716,6a8.119,8.119,0,0,1-2.605,4.1,6.731,6.731,0,0,0,5.2-4.7M165.555,43.3c1.116.565,2.785-1.66,3.787-4.426.829-2.3.775-4.575-.058-4.793-.8-.224-2.487,1.372-3.579,3.629-.255.528-.511,1.056-.783,1.668-.476,1.791-.345,3.42.633,3.922" transform="translate(-38.675 -11.465)" fill="#5b667b"/>
        <path id="Path_959" data-name="Path 959" d="M187.485,37.551c-2.606.346-3.548-1.2-3.031-3.659.561-2.735,2.765-5.882,2.227-6.058-.473-.156-3.531,2.116-4.877,4.9a32.222,32.222,0,0,0-2.1,5.492.3.3,0,0,1-.509.177c-.582-.417-.994-1.13-.629-2.825.61-2.825,5.387-13.116,7.419-16.157.222-.359.536-.372.749-.071.541.724.686,2.076-.193,3.921-.554,1.172-1.813,3.561-2.828,5.534,1.081-1.241,2.538-2.339,3.39-2.371a1.92,1.92,0,0,1,1.71,2.654c-.473,1.27-1.615,3.424-2.081,4.913-.5,1.657-.12,2.9,1.018,2.69,1.262-.222,2.626-2.378,3.283-4.221a.315.315,0,0,1,.554-.1,1.829,1.829,0,0,1-.015,1.7,5.488,5.488,0,0,1-4.082,3.477" transform="translate(-43.3 -6.614)" fill="#5b667b"/>
        <path id="Path_960" data-name="Path 960" d="M195.246,34.877a30.5,30.5,0,0,1,2.814-7.041c.222-.359.425-.468.716-.26a2.551,2.551,0,0,1,.488,2.926c-.442,1.267-1.421,3.261-1.835,4.688-.468,1.654-.22,2.691.763,2.506,1.387-.239,2.779-2.234,3.381-4.206.113-.262.334-.265.5-.066a1.7,1.7,0,0,1,.078,1.69,5.37,5.37,0,0,1-4.128,3.4c-2.358.313-3.251-1.324-2.773-3.637m5.675-7.914a1.242,1.242,0,0,1-1.808-.172,1.5,1.5,0,0,1-.2-2c.415-.522,1.372-.32,1.9.35a1.458,1.458,0,0,1,.1,1.825" transform="translate(-47.353 -8.465)" fill="#5b667b"/>
        <path id="Path_961" data-name="Path 961" d="M212.286,28.238c.852,1.04-.137,2.625-.5,4.155-.067.338-.177.435-.613.3a1.763,1.763,0,0,1-1.159-2.233c.17-1.01.9-2.287.41-2.524-.594-.306-2.617,1.718-3.579,4.343-1.169,3.256-.122,5.393,1.713,5.178,2.61-.319,4.464-2.759,5.435-4.617a.31.31,0,0,1,.564-.046,2.164,2.164,0,0,1-.273,1.682,7.739,7.739,0,0,1-5.469,3.716c-3.931.575-5.854-2.572-4.452-6.3,1.386-3.641,4.262-5.5,5.956-4.905a4.151,4.151,0,0,1,1.968,1.248" transform="translate(-49.484 -9.29)" fill="#5b667b"/>
        <path id="Path_962" data-name="Path 962" d="M229.374,12.833c-.2-.316-.2-.5.249-.626,2.382-.6,3.926-2.046,6.161-2.655,2.2-.6,4.139.168,5.793,1.973,4.1,4.439-.586,14.156-9.542,18.115a2.385,2.385,0,0,1-2.292.086,7.74,7.74,0,0,1-1.712-1.112c-.81-.7-1.066-1.135-.679-3.211a49.888,49.888,0,0,1,4.537-11.6,2.724,2.724,0,0,1-2.516-.974m3.98,3.739c-1.28,2.942-3.413,7.366-3.938,10.3-.23,1.338.092,1.732,1.089,1.258,9.051-4.439,11.943-13.73,9.357-16.315-1.535-1.54-3.82.413-6.161,1.44a4.269,4.269,0,0,1-.348,3.316" transform="translate(-55.132 -3.232)" fill="#5b667b"/>
        <path id="Path_963" data-name="Path 963" d="M252.963,30.616c2.594-.234,4.477-2.678,5.5-4.625a.292.292,0,0,1,.532-.042,1.936,1.936,0,0,1-.232,1.732,7.893,7.893,0,0,1-5.567,3.7c-3.93.576-5.89-2.595-4.488-6.319s4.319-5.539,6.009-4.967a6,6,0,0,1,2.078,1.151c.672.569.714,2.238-.346,3.778a4.091,4.091,0,0,1-5.632,1.542c-.554,2.6.49,4.188,2.148,4.051m1.48-6.506c.793-1.258,1.228-2.742.741-2.98-.732-.369-3.022,1.581-4.027,4.32-.064.173-.13.347-.167.489,1.668.629,2.735-.693,3.453-1.83" transform="translate(-60.247 -6.909)" fill="#5b667b"/>
        <path id="Path_964" data-name="Path 964" d="M265.5,19.245a2.676,2.676,0,0,1,.75-2.212c.588-.626,1.282-.828,1.6-.624.357.228.255.542-.039,1.213-.1.177-.16.35-.251.554.221,2.5,1.182,4.508,1.418,6.37a3.049,3.049,0,0,1-.9,3,7.053,7.053,0,0,0,3.5-4.278.325.325,0,0,1,.589-.079,2.152,2.152,0,0,1-.12,1.827,6.434,6.434,0,0,1-4.967,3.677,5.074,5.074,0,0,1-4.948-1.4c-.96-1.107-1.181-2.888-.259-3.779.324-.317.591-.243.7.182.069.209.107.424.176.635a50.958,50.958,0,0,0,2.749-5.084m-2.213,6.494c.741,1.493,1.836,2.473,2.812,2.069,1.361-.564.148-4.711-.357-6.839a44.8,44.8,0,0,1-2.455,4.77" transform="translate(-63.411 -5.645)" fill="#5b667b"/>
        <path id="Path_965" data-name="Path 965" d="M274.686,22.688a30.5,30.5,0,0,1,2.814-7.041c.222-.359.425-.468.716-.259a2.55,2.55,0,0,1,.488,2.925c-.442,1.267-1.422,3.262-1.835,4.689-.468,1.654-.22,2.691.763,2.505,1.387-.238,2.779-2.233,3.381-4.206.113-.262.334-.265.5-.066a1.7,1.7,0,0,1,.078,1.69,5.372,5.372,0,0,1-4.128,3.4c-2.357.313-3.251-1.325-2.773-3.638m5.675-7.914a1.242,1.242,0,0,1-1.808-.173,1.5,1.5,0,0,1-.2-2c.415-.522,1.372-.32,1.9.351a1.458,1.458,0,0,1,.1,1.825" transform="translate(-66.631 -4.252)" fill="#5b667b"/>
        <path id="Path_966" data-name="Path 966" d="M290.588,26.081c-1.069,3.818-2.514,8.372-4.875,9.564a1.546,1.546,0,0,1-1.9-.324,3.156,3.156,0,0,1-1.212-3.242c.471-2.532,2.849-4.521,5.74-5.946.205-.631.37-1.311.571-1.969a4.721,4.721,0,0,1-2.9,1.755c-2.854.379-4.008-2.9-2.066-6.448,1.868-3.43,4.166-4.97,5.748-5.18a1.781,1.781,0,0,1,2.145,1.527c.277-.586.533-1.113.762-1.61.182-.408.487-.477.747-.264a2.569,2.569,0,0,1,.461,2.957c-.645,1.732-2.024,5.235-2.865,8.007a14.313,14.313,0,0,0,4.839-4.757c.148-.239.427-.275.537-.016a2.345,2.345,0,0,1-.345,1.637c-.919,1.795-2.963,3.163-5.394,4.308m-6.32,8.219c.493.455,2.449-2.657,3.742-7-3.671,2.571-4.384,6.425-3.742,7m6.141-18.7c-.972.073-2.932,2.089-4.224,4.649-1.266,2.527-1.188,4.932.058,4.793,1.215-.133,2.5-2.032,3.66-4.6,1.431-3.208,1.415-4.908.506-4.842" transform="translate(-68.565 -4.778)" fill="#5b667b"/>
        <path id="Path_967" data-name="Path 967" d="M308.382,11.627a1.973,1.973,0,0,1,1.715,2.681c-.441,1.265-1.609,3.451-2.077,4.939-.529,1.662-.12,2.9.988,2.7,1.262-.222,2.467-2.194,3.313-4.225a.29.29,0,0,1,.523-.1c.27.266.317.891.021,1.726a5.545,5.545,0,0,1-4.082,3.477c-2.637.35-3.553-1.23-3.067-3.682.557-2.762,2.782-5.967,2.186-6.107-.329-.066-2,.923-3.647,3.063-1.526,1.957-2.434,4.712-3.321,7.408-.081.258-.248.391-.569.186-.716-.454-1.06-1.313-.8-2.72a39.3,39.3,0,0,1,3.559-8.567c.164-.323.418-.329.652-.086a2.868,2.868,0,0,1,.544,2.534c1.168-1.472,3.016-3.227,4.063-3.227" transform="translate(-72.678 -4.018)" fill="#5b667b"/>
      </g>
    </g>
  </g>
</svg>
