<svg xmlns="http://www.w3.org/2000/svg" xmlns:xlink="http://www.w3.org/1999/xlink" width="240" height="239.999" viewBox="0 0 240 239.999">
  <defs>
    <clipPath id="clip-path">
      <rect id="Rectangle_167" data-name="Rectangle 167" width="240" height="239.999" transform="translate(38.534 26.033)" fill="none"/>
    </clipPath>
  </defs>
  <g id="Group_418" data-name="Group 418" transform="translate(-38.534 -26.033)">
    <path id="Path_1917" data-name="Path 1917" d="M0,0H240V240H0Z" transform="translate(38.534 26.033)" fill="#ffcaa3"/>
    <g id="Group_417" data-name="Group 417">
      <g id="Group_416" data-name="Group 416" clip-path="url(#clip-path)">
        <rect id="Rectangle_166" data-name="Rectangle 166" width="297.16" height="290.368" transform="translate(9.954 0.849)" fill="none" stroke="#707070" stroke-width="1.698"/>
        <path id="Path_644" data-name="Path 644" d="M206.735,290.033v-32.8c0-3.861-6-3.867-6,0v32.8c0,3.861,6,3.867,6,0" fill="#fff9e6"/>
        <path id="Path_645" data-name="Path 645" d="M167.032,261.058a77.771,77.771,0,0,1-22.441,11.064c-3.683,1.124-2.113,6.918,1.6,5.786a83.041,83.041,0,0,0,23.874-11.669c3.126-2.214.132-7.419-3.028-5.181" fill="#edf47a"/>
        <path id="Path_646" data-name="Path 646" d="M124.088,289.277a94.234,94.234,0,0,1-3.633-20.85c-.227-3.838-6.229-3.864-6,0a101.557,101.557,0,0,0,3.847,22.445c1.076,3.7,6.868,2.126,5.786-1.6" fill="#c6f9a5"/>
        <path id="Path_647" data-name="Path 647" d="M99.535,274.833v-27.2c0-3.861-6-3.867-6,0v27.2c0,3.861,6,3.867,6,0" fill="#edf47a"/>
        <path id="Path_648" data-name="Path 648" d="M68.392,264.348a69.106,69.106,0,0,0-26.63,18.1c-2.592,2.852,1.639,7.107,4.243,4.242a62.681,62.681,0,0,1,23.982-16.552c3.566-1.373,2.017-7.177-1.6-5.786" fill="#fff9e6"/>
        <path id="Path_649" data-name="Path 649" d="M278.931,180.96a35.478,35.478,0,0,1,19.16,4.682c3.361,1.912,6.388-3.27,3.028-5.181a41.548,41.548,0,0,0-22.188-5.5c-3.851.132-3.868,6.132,0,6" fill="#edd17a"/>
        <path id="Path_650" data-name="Path 650" d="M130.814,93.909l15.914,29.646c1.827,3.4,7.008.377,5.181-3.028q-7.957-14.823-15.914-29.646c-1.827-3.4-7.009-.377-5.181,3.028" fill="#fff9e6"/>
        <path id="Path_651" data-name="Path 651" d="M163.187,109.944A127.949,127.949,0,0,1,175.394,85.32c2.076-3.269-3.115-6.283-5.181-3.028A135.387,135.387,0,0,0,157.4,108.349c-1.331,3.631,4.466,5.2,5.786,1.6" fill="#fff9e6"/>
        <path id="Path_652" data-name="Path 652" d="M149.535,59.633v19.2c0,3.861,6,3.867,6,0v-19.2c0-3.861-6-3.867-6,0" fill="#c6f9a5"/>
        <path id="Path_653" data-name="Path 653" d="M181.4,134.22l30.316,6.022c3.771.749,5.385-5.033,1.6-5.786l-30.316-6.022c-3.771-.749-5.385,5.033-1.6,5.786" fill="#c6f9a5"/>
        <path id="Path_654" data-name="Path 654" d="M149.534,193.313l-12.069-19.156c-2.054-3.259-7.248-.252-5.181,3.028l12.069,19.156c2.053,3.259,7.247.252,5.181-3.028" fill="#fff9e6"/>
        <path id="Path_655" data-name="Path 655" d="M86.409,142.794a78.735,78.735,0,0,1,8.873-27.16c1.833-3.4-3.346-6.432-5.181-3.028a86.949,86.949,0,0,0-9.692,30.188c-.506,3.816,5.5,3.779,6,0" fill="#fff9e6"/>
        <path id="Path_656" data-name="Path 656" d="M70.423,55.345a41.08,41.08,0,0,0,10.182,7.708c3.4,1.821,6.438-3.357,3.028-5.181a35.75,35.75,0,0,1-8.967-6.77c-2.686-2.784-6.926,1.462-4.243,4.243" fill="#fff9e6"/>
        <path id="Path_657" data-name="Path 657" d="M126.972,122.237a43.756,43.756,0,0,1-9.4,12.027c-2.872,2.592,1.382,6.825,4.243,4.242a48.628,48.628,0,0,0,10.339-13.241c1.816-3.406-3.362-6.44-5.181-3.028" fill="#ed667d"/>
        <path id="Path_658" data-name="Path 658" d="M164.837,161.844l37.311,21.305c3.359,1.918,6.385-3.264,3.029-5.18l-37.312-21.306c-3.358-1.918-6.384,3.264-3.028,5.181" fill="#ed667d"/>
        <path id="Path_659" data-name="Path 659" d="M212.4,111.371a228.913,228.913,0,0,1,21.235-32.194c2.369-3-1.849-7.271-4.243-4.242a237.628,237.628,0,0,0-22.173,33.408c-1.853,3.389,3.326,6.421,5.181,3.028" fill="#edf47a"/>
        <path id="Path_660" data-name="Path 660" d="M204.991,76.765A127.834,127.834,0,0,1,187.157,47.7c-1.57-3.52-6.741-.471-5.181,3.028a133.357,133.357,0,0,0,18.772,30.276c2.448,2.989,6.671-1.278,4.243-4.243" fill="#ed667d"/>
        <path id="Path_661" data-name="Path 661" d="M242.174,118.244a312.581,312.581,0,0,1,35.883,6.988c3.743.959,5.339-4.826,1.6-5.785a312.327,312.327,0,0,0-35.883-6.989c-3.776-.508-5.41,5.272-1.6,5.786" fill="#ed667d"/>
        <path id="Path_662" data-name="Path 662" d="M271.713,148.016l-32.643,15.53c-3.485,1.658-.444,6.833,3.029,5.181l32.642-15.53c3.485-1.658.444-6.833-3.028-5.181" fill="#edf47a"/>
        <path id="Path_663" data-name="Path 663" d="M228.335,180.433v-24c0-3.861-6-3.867-6,0v24c0,3.861,6,3.867,6,0" fill="#c6f9a5"/>
        <path id="Path_664" data-name="Path 664" d="M255.215,196.952a95.346,95.346,0,0,0,27,20.474c3.434,1.747,6.475-3.428,3.028-5.181a90.647,90.647,0,0,1-25.789-19.536c-2.622-2.846-6.857,1.4-4.243,4.243" fill="#c6f9a5"/>
        <path id="Path_665" data-name="Path 665" d="M257.935,94.033v-30.4c0-3.861-6-3.867-6,0v30.4c0,3.861,6,3.867,6,0" fill="#fff9e6"/>
        <path id="Path_666" data-name="Path 666" d="M233.335,53.733a282.255,282.255,0,0,0,30.336-14.671c3.368-1.889.346-7.074-3.028-5.18a269.586,269.586,0,0,1-28.9,14.065c-3.518,1.455-1.976,7.263,1.6,5.786" fill="#c6f9a5"/>
        <path id="Path_667" data-name="Path 667" d="M206.735,50.033v-32.8c0-3.861-6-3.867-6,0v32.8c0,3.861,6,3.867,6,0" fill="#fff9e6"/>
        <path id="Path_668" data-name="Path 668" d="M167.032,21.058a77.77,77.77,0,0,1-22.441,11.064c-3.683,1.124-2.113,6.918,1.6,5.786A83.041,83.041,0,0,0,170.06,26.239c3.126-2.214.132-7.419-3.028-5.181" fill="#edf47a"/>
        <path id="Path_669" data-name="Path 669" d="M124.088,49.277a94.224,94.224,0,0,1-3.633-20.85c-.227-3.838-6.229-3.864-6,0A101.557,101.557,0,0,0,118.3,50.872c1.076,3.7,6.868,2.126,5.786-1.6" fill="#c6f9a5"/>
        <path id="Path_670" data-name="Path 670" d="M99.535,34.833V7.633c0-3.861-6-3.867-6,0v27.2c0,3.861,6,3.867,6,0" fill="#ed667d"/>
        <path id="Path_671" data-name="Path 671" d="M68.392,24.348a69.106,69.106,0,0,0-26.63,18.1C39.17,45.3,43.4,49.551,46.005,46.686A62.681,62.681,0,0,1,69.987,30.134c3.566-1.373,2.017-7.177-1.6-5.786" fill="#edf47a"/>
        <path id="Path_672" data-name="Path 672" d="M47.935,60.433v32c0,3.861,6,3.867,6,0v-32c0-3.861-6-3.867-6,0" fill="#ed667d"/>
        <path id="Path_673" data-name="Path 673" d="M66.935,90.633h29.6c3.861,0,3.867-6,0-6h-29.6c-3.861,0-3.867,6,0,6" fill="#ed667d"/>
        <path id="Path_674" data-name="Path 674" d="M121.334,91.569q-3.1-14.334-6.205-28.669c-.816-3.772-6.6-2.176-5.785,1.6l6.2,28.669c.817,3.772,6.6,2.176,5.786-1.6" fill="#fff9e6"/>
        <path id="Path_675" data-name="Path 675" d="M65.2,114.946,53.183,138.139c-1.773,3.424,3.4,6.462,5.181,3.029q6.006-11.6,12.013-23.194c1.773-3.424-3.4-6.462-5.181-3.028" fill="#c6f9a5"/>
        <path id="Path_676" data-name="Path 676" d="M66.939,171.349a239.116,239.116,0,0,1,38.407,5.536c3.759.857,5.364-4.927,1.6-5.785a249.074,249.074,0,0,0-40-5.751c-3.856-.239-3.842,5.762,0,6" fill="#edf47a"/>
        <path id="Path_677" data-name="Path 677" d="M116.535,162.633h17.6c3.861,0,3.867-6,0-6h-17.6c-3.861,0-3.867,6,0,6" fill="#c6f9a5"/>
        <path id="Path_678" data-name="Path 678" d="M160.9,154a18.793,18.793,0,0,1,4.193-8.212c2.549-2.883-1.679-7.142-4.243-4.242a25.184,25.184,0,0,0-5.736,10.859c-.9,3.752,4.882,5.354,5.786,1.6" fill="#fff9e6"/>
        <path id="Path_679" data-name="Path 679" d="M193.184,202.084a132.038,132.038,0,0,1-8.968,31.979c-1.493,3.513,3.673,6.574,5.181,3.028a137.842,137.842,0,0,0,9.573-33.412c.573-3.777-5.208-5.406-5.786-1.6" fill="#fff9e6"/>
        <path id="Path_680" data-name="Path 680" d="M216.557,223.58a215.515,215.515,0,0,0,22.718,22.1c2.94,2.466,7.206-1.757,4.243-4.243a215.513,215.513,0,0,1-22.718-22.1c-2.568-2.894-6.8,1.362-4.243,4.243" fill="#edf47a"/>
        <path id="Path_681" data-name="Path 681" d="M260.23,263.333l12.894-15.924c2.409-2.975-1.811-7.245-4.243-4.243L255.987,259.09c-2.408,2.975,1.812,7.246,4.243,4.243" fill="#ed667d"/>
        <path id="Path_682" data-name="Path 682" d="M240.587,221.1a29.733,29.733,0,0,0,9.21-5.016c1.273-1.005,1.052-3.192,0-4.243a3.074,3.074,0,0,0-4.242,0,21.5,21.5,0,0,1-6.563,3.473c-3.649,1.207-2.086,7,1.6,5.786" fill="#fff9e6"/>
        <path id="Path_683" data-name="Path 683" d="M174.922,198.2a66.334,66.334,0,0,1-19.754,24.642c-3.03,2.31-.045,7.523,3.028,5.181A72.419,72.419,0,0,0,180.1,201.228c1.643-3.471-3.529-6.52-5.181-3.028" fill="#ed667d"/>
        <path id="Path_684" data-name="Path 684" d="M146.235,246.179l-12.922-19.117c-2.151-3.182-7.352-.183-5.181,3.028l12.922,19.117c2.151,3.182,7.351.183,5.181-3.028" fill="#fff9e6"/>
        <path id="Path_685" data-name="Path 685" d="M123.742,196.882,91.877,212.359c-3.473,1.687-.434,6.862,3.028,5.181l31.865-15.477c3.473-1.687.434-6.863-3.028-5.181" fill="#c6f9a5"/>
        <path id="Path_686" data-name="Path 686" d="M111.059,237.254a30.531,30.531,0,0,0,6.643,14.827c2.416,3.012,6.637-1.257,4.242-4.243a24.876,24.876,0,0,1-5.1-12.179c-.554-3.807-6.337-2.188-5.785,1.6" fill="#ed667d"/>
        <path id="Path_687" data-name="Path 687" d="M53.407,243.793a91.1,91.1,0,0,1,25.529,9.776c3.363,1.908,6.39-3.274,3.028-5.181A96.633,96.633,0,0,0,55,238.007c-3.763-.831-5.37,4.952-1.595,5.786" fill="#ed667d"/>
        <path id="Path_688" data-name="Path 688" d="M84.942,222.823a155.606,155.606,0,0,1-7.467-21.495c-1-3.724-6.794-2.143-5.786,1.6a166.191,166.191,0,0,0,8.072,22.928c1.534,3.533,6.7.482,5.181-3.028" fill="#fff9e6"/>
        <path id="Path_689" data-name="Path 689" d="M38.931,180.96a35.478,35.478,0,0,1,19.16,4.682c3.361,1.912,6.388-3.27,3.028-5.181a41.548,41.548,0,0,0-22.188-5.5c-3.851.132-3.868,6.132,0,6" fill="#ed667d"/>
        <path id="Path_690" data-name="Path 690" d="M2.174,118.244a312.58,312.58,0,0,1,35.883,6.988c3.743.959,5.339-4.826,1.6-5.785a312.327,312.327,0,0,0-35.883-6.989c-3.776-.508-5.41,5.272-1.6,5.786" fill="#ed667d"/>
        <path id="Path_691" data-name="Path 691" d="M15.215,196.952a95.346,95.346,0,0,0,27,20.474c3.434,1.747,6.475-3.428,3.028-5.181a90.647,90.647,0,0,1-25.789-19.536c-2.622-2.846-6.857,1.4-4.243,4.243" fill="#c6f9a5"/>
      </g>
    </g>
  </g>
</svg>
